<svg version="1.1" xmlns="http://www.w3.org/2000/svg" viewBox="0 0 566.2657077710774 774.1021492022277" width="566.2657077710774" height="774.1021492022277">
  <!-- svg-source:excalidraw -->
  
  <defs>
    <style class="style-fonts">
      @font-face {
        font-family: "Virgil";
        src: url("https://excalidraw.com/Virgil.woff2");
      }
      @font-face {
        font-family: "Cascadia";
        src: url("https://excalidraw.com/Cascadia.woff2");
      }
    </style>
  </defs>
  <g stroke-linecap="round" transform="translate(12.079054314661335 125.81570135618358) rotate(0 108.33510087518698 108.33510087518687)"><path d="M216.67 108.34 C216.67 111.67, 216.52 115.01, 216.21 118.33 C215.9 121.65, 215.44 124.97, 214.83 128.24 C214.21 131.52, 213.45 134.78, 212.53 137.98 C211.62 141.19, 210.56 144.36, 209.35 147.47 C208.15 150.58, 206.8 153.64, 205.31 156.62 C203.83 159.61, 202.2 162.53, 200.44 165.37 C198.69 168.2, 196.8 170.96, 194.79 173.62 C192.78 176.28, 190.64 178.86, 188.4 181.32 C186.15 183.78, 183.78 186.15, 181.32 188.4 C178.86 190.64, 176.28 192.78, 173.62 194.79 C170.96 196.8, 168.2 198.69, 165.37 200.44 C162.53 202.2, 159.61 203.83, 156.62 205.31 C153.64 206.8, 150.58 208.15, 147.47 209.35 C144.36 210.56, 141.19 211.62, 137.98 212.53 C134.78 213.45, 131.52 214.21, 128.24 214.83 C124.97 215.44, 121.65 215.9, 118.33 216.21 C115.01 216.52, 111.67 216.67, 108.34 216.67 C105 216.67, 101.66 216.52, 98.34 216.21 C95.02 215.9, 91.7 215.44, 88.43 214.83 C85.15 214.21, 81.89 213.45, 78.69 212.53 C75.48 211.62, 72.31 210.56, 69.2 209.35 C66.09 208.15, 63.03 206.8, 60.05 205.31 C57.06 203.83, 54.14 202.2, 51.3 200.44 C48.47 198.69, 45.71 196.8, 43.05 194.79 C40.39 192.78, 37.81 190.64, 35.35 188.4 C32.89 186.15, 30.52 183.78, 28.27 181.32 C26.03 178.86, 23.89 176.28, 21.88 173.62 C19.87 170.96, 17.98 168.2, 16.23 165.37 C14.47 162.53, 12.84 159.61, 11.36 156.62 C9.87 153.64, 8.52 150.58, 7.32 147.47 C6.11 144.36, 5.05 141.19, 4.14 137.98 C3.22 134.78, 2.46 131.52, 1.84 128.24 C1.23 124.97, 0.77 121.65, 0.46 118.33 C0.15 115.01, 0 111.67, 0 108.34 C0 105, 0.15 101.66, 0.46 98.34 C0.77 95.02, 1.23 91.7, 1.84 88.43 C2.46 85.15, 3.22 81.89, 4.14 78.69 C5.05 75.48, 6.11 72.31, 7.32 69.2 C8.52 66.09, 9.87 63.03, 11.36 60.05 C12.84 57.06, 14.47 54.14, 16.23 51.3 C17.98 48.47, 19.87 45.71, 21.88 43.05 C23.89 40.39, 26.03 37.81, 28.27 35.35 C30.52 32.89, 32.89 30.52, 35.35 28.27 C37.81 26.03, 40.39 23.89, 43.05 21.88 C45.71 19.87, 48.47 17.98, 51.3 16.23 C54.14 14.47, 57.06 12.84, 60.05 11.36 C63.03 9.87, 66.09 8.52, 69.2 7.32 C72.31 6.11, 75.48 5.05, 78.69 4.14 C81.89 3.22, 85.15 2.46, 88.43 1.84 C91.7 1.23, 95.02 0.77, 98.34 0.46 C101.66 0.15, 105 0, 108.34 0 C111.67 0, 115.01 0.15, 118.33 0.46 C121.65 0.77, 124.97 1.23, 128.24 1.84 C131.52 2.46, 134.78 3.22, 137.98 4.14 C141.19 5.05, 144.36 6.11, 147.47 7.32 C150.58 8.52, 153.64 9.87, 156.62 11.36 C159.61 12.84, 162.53 14.47, 165.37 16.23 C168.2 17.98, 170.96 19.87, 173.62 21.88 C176.28 23.89, 178.86 26.03, 181.32 28.27 C183.78 30.52, 186.15 32.89, 188.4 35.35 C190.64 37.81, 192.78 40.39, 194.79 43.05 C196.8 45.71, 198.69 48.47, 200.44 51.3 C202.2 54.14, 203.83 57.06, 205.31 60.05 C206.8 63.03, 208.15 66.09, 209.35 69.2 C210.56 72.31, 211.62 75.48, 212.53 78.69 C213.45 81.89, 214.21 85.15, 214.83 88.43 C215.44 91.7, 215.9 95.02, 216.21 98.34 C216.52 101.66, 216.59 106.67, 216.67 108.34 C216.75 110, 216.75 106.67, 216.67 108.34" stroke="#e03131" stroke-width="4" fill="none"></path></g><g transform="translate(53.80967072047497 181.54631776199722) rotate(0 66.5 52.5)"><text x="66.5" y="0" font-family="Virgil, Segoe UI Emoji" font-size="28px" fill="#e03131" text-anchor="middle" style="white-space: pre;" direction="ltr" dominant-baseline="text-before-edge">Prediction</text><text x="66.5" y="35" font-family="Virgil, Segoe UI Emoji" font-size="28px" fill="#e03131" text-anchor="middle" style="white-space: pre;" direction="ltr" dominant-baseline="text-before-edge">Jump will </text><text x="66.5" y="70" font-family="Virgil, Segoe UI Emoji" font-size="28px" fill="#e03131" text-anchor="middle" style="white-space: pre;" direction="ltr" dominant-baseline="text-before-edge">happen</text></g><g stroke-linecap="round" transform="translate(339.55107460111503 125.86013277577194) rotate(0 108.33510087518698 108.33510087518687)"><path d="M216.67 108.34 C216.67 111.67, 216.52 115.01, 216.21 118.33 C215.9 121.65, 215.44 124.97, 214.83 128.24 C214.21 131.52, 213.45 134.78, 212.53 137.98 C211.62 141.19, 210.56 144.36, 209.35 147.47 C208.15 150.58, 206.8 153.64, 205.31 156.62 C203.83 159.61, 202.2 162.53, 200.44 165.37 C198.69 168.2, 196.8 170.96, 194.79 173.62 C192.78 176.28, 190.64 178.86, 188.4 181.32 C186.15 183.78, 183.78 186.15, 181.32 188.4 C178.86 190.64, 176.28 192.78, 173.62 194.79 C170.96 196.8, 168.2 198.69, 165.37 200.44 C162.53 202.2, 159.61 203.83, 156.62 205.31 C153.64 206.8, 150.58 208.15, 147.47 209.35 C144.36 210.56, 141.19 211.62, 137.98 212.53 C134.78 213.45, 131.52 214.21, 128.24 214.83 C124.97 215.44, 121.65 215.9, 118.33 216.21 C115.01 216.52, 111.67 216.67, 108.34 216.67 C105 216.67, 101.66 216.52, 98.34 216.21 C95.02 215.9, 91.7 215.44, 88.43 214.83 C85.15 214.21, 81.89 213.45, 78.69 212.53 C75.48 211.62, 72.31 210.56, 69.2 209.35 C66.09 208.15, 63.03 206.8, 60.05 205.31 C57.06 203.83, 54.14 202.2, 51.3 200.44 C48.47 198.69, 45.71 196.8, 43.05 194.79 C40.39 192.78, 37.81 190.64, 35.35 188.4 C32.89 186.15, 30.52 183.78, 28.27 181.32 C26.03 178.86, 23.89 176.28, 21.88 173.62 C19.87 170.96, 17.98 168.2, 16.23 165.37 C14.47 162.53, 12.84 159.61, 11.36 156.62 C9.87 153.64, 8.52 150.58, 7.32 147.47 C6.11 144.36, 5.05 141.19, 4.14 137.98 C3.22 134.78, 2.46 131.52, 1.84 128.24 C1.23 124.97, 0.77 121.65, 0.46 118.33 C0.15 115.01, 0 111.67, 0 108.34 C0 105, 0.15 101.66, 0.46 98.34 C0.77 95.02, 1.23 91.7, 1.84 88.43 C2.46 85.15, 3.22 81.89, 4.14 78.69 C5.05 75.48, 6.11 72.31, 7.32 69.2 C8.52 66.09, 9.87 63.03, 11.36 60.05 C12.84 57.06, 14.47 54.14, 16.23 51.3 C17.98 48.47, 19.87 45.71, 21.88 43.05 C23.89 40.39, 26.03 37.81, 28.27 35.35 C30.52 32.89, 32.89 30.52, 35.35 28.27 C37.81 26.03, 40.39 23.89, 43.05 21.88 C45.71 19.87, 48.47 17.98, 51.3 16.23 C54.14 14.47, 57.06 12.84, 60.05 11.36 C63.03 9.87, 66.09 8.52, 69.2 7.32 C72.31 6.11, 75.48 5.05, 78.69 4.14 C81.89 3.22, 85.15 2.46, 88.43 1.84 C91.7 1.23, 95.02 0.77, 98.34 0.46 C101.66 0.15, 105 0, 108.34 0 C111.67 0, 115.01 0.15, 118.33 0.46 C121.65 0.77, 124.97 1.23, 128.24 1.84 C131.52 2.46, 134.78 3.22, 137.98 4.14 C141.19 5.05, 144.36 6.11, 147.47 7.32 C150.58 8.52, 153.64 9.87, 156.62 11.36 C159.61 12.84, 162.53 14.47, 165.37 16.23 C168.2 17.98, 170.96 19.87, 173.62 21.88 C176.28 23.89, 178.86 26.03, 181.32 28.27 C183.78 30.52, 186.15 32.89, 188.4 35.35 C190.64 37.81, 192.78 40.39, 194.79 43.05 C196.8 45.71, 198.69 48.47, 200.44 51.3 C202.2 54.14, 203.83 57.06, 205.31 60.05 C206.8 63.03, 208.15 66.09, 209.35 69.2 C210.56 72.31, 211.62 75.48, 212.53 78.69 C213.45 81.89, 214.21 85.15, 214.83 88.43 C215.44 91.7, 215.9 95.02, 216.21 98.34 C216.52 101.66, 216.59 106.67, 216.67 108.34 C216.75 110, 216.75 106.67, 216.67 108.34" stroke="#c2255c" stroke-width="4" fill="none"></path></g><g transform="translate(381.28169100692867 181.59074918158558) rotate(0 66.5 52.5)"><text x="66.5" y="0" font-family="Virgil, Segoe UI Emoji" font-size="28px" fill="#c2255c" text-anchor="middle" style="white-space: pre;" direction="ltr" dominant-baseline="text-before-edge">Prediction</text><text x="66.5" y="35" font-family="Virgil, Segoe UI Emoji" font-size="28px" fill="#c2255c" text-anchor="middle" style="white-space: pre;" direction="ltr" dominant-baseline="text-before-edge">Jump will </text><text x="66.5" y="70" font-family="Virgil, Segoe UI Emoji" font-size="28px" fill="#c2255c" text-anchor="middle" style="white-space: pre;" direction="ltr" dominant-baseline="text-before-edge">happen</text></g><g stroke-linecap="round" transform="translate(339.5955060207034 442.2704101951026) rotate(0 108.33510087518698 106)"><path d="M216.67 106 C216.67 109.26, 216.52 112.53, 216.21 115.78 C215.9 119.03, 215.44 122.27, 214.83 125.48 C214.21 128.68, 213.45 131.87, 212.53 135.01 C211.62 138.14, 210.56 141.25, 209.35 144.29 C208.15 147.33, 206.8 150.33, 205.31 153.25 C203.83 156.17, 202.2 159.03, 200.44 161.8 C198.69 164.57, 196.8 167.28, 194.79 169.88 C192.78 172.48, 190.64 175, 188.4 177.41 C186.15 179.82, 183.78 182.14, 181.32 184.33 C178.86 186.53, 176.28 188.63, 173.62 190.59 C170.96 192.55, 168.2 194.41, 165.37 196.12 C162.53 197.84, 159.61 199.43, 156.62 200.89 C153.64 202.34, 150.58 203.66, 147.47 204.84 C144.36 206.02, 141.19 207.06, 137.98 207.95 C134.78 208.85, 131.52 209.6, 128.24 210.2 C124.97 210.79, 121.65 211.25, 118.33 211.55 C115.01 211.85, 111.67 212, 108.34 212 C105 212, 101.66 211.85, 98.34 211.55 C95.02 211.25, 91.7 210.79, 88.43 210.2 C85.15 209.6, 81.89 208.85, 78.69 207.95 C75.48 207.06, 72.31 206.02, 69.2 204.84 C66.09 203.66, 63.03 202.34, 60.05 200.89 C57.06 199.43, 54.14 197.84, 51.3 196.12 C48.47 194.41, 45.71 192.55, 43.05 190.59 C40.39 188.63, 37.81 186.53, 35.35 184.33 C32.89 182.14, 30.52 179.82, 28.27 177.41 C26.03 175, 23.89 172.48, 21.88 169.88 C19.87 167.28, 17.98 164.57, 16.23 161.8 C14.47 159.03, 12.84 156.17, 11.36 153.25 C9.87 150.33, 8.52 147.33, 7.32 144.29 C6.11 141.25, 5.05 138.14, 4.14 135.01 C3.22 131.87, 2.46 128.68, 1.84 125.48 C1.23 122.27, 0.77 119.03, 0.46 115.78 C0.15 112.53, 0 109.26, 0 106 C0 102.74, 0.15 99.47, 0.46 96.22 C0.77 92.97, 1.23 89.73, 1.84 86.52 C2.46 83.32, 3.22 80.13, 4.14 76.99 C5.05 73.86, 6.11 70.75, 7.32 67.71 C8.52 64.67, 9.87 61.67, 11.36 58.75 C12.84 55.83, 14.47 52.97, 16.23 50.2 C17.98 47.43, 19.87 44.72, 21.88 42.12 C23.89 39.52, 26.03 37, 28.27 34.59 C30.52 32.18, 32.89 29.86, 35.35 27.67 C37.81 25.47, 40.39 23.37, 43.05 21.41 C45.71 19.45, 48.47 17.59, 51.3 15.88 C54.14 14.16, 57.06 12.57, 60.05 11.11 C63.03 9.66, 66.09 8.34, 69.2 7.16 C72.31 5.98, 75.48 4.94, 78.69 4.05 C81.89 3.15, 85.15 2.4, 88.43 1.8 C91.7 1.21, 95.02 0.75, 98.34 0.45 C101.66 0.15, 105 0, 108.34 0 C111.67 0, 115.01 0.15, 118.33 0.45 C121.65 0.75, 124.97 1.21, 128.24 1.8 C131.52 2.4, 134.78 3.15, 137.98 4.05 C141.19 4.94, 144.36 5.98, 147.47 7.16 C150.58 8.34, 153.64 9.66, 156.62 11.11 C159.61 12.57, 162.53 14.16, 165.37 15.88 C168.2 17.59, 170.96 19.45, 173.62 21.41 C176.28 23.37, 178.86 25.47, 181.32 27.67 C183.78 29.86, 186.15 32.18, 188.4 34.59 C190.64 37, 192.78 39.52, 194.79 42.12 C196.8 44.72, 198.69 47.43, 200.44 50.2 C202.2 52.97, 203.83 55.83, 205.31 58.75 C206.8 61.67, 208.15 64.67, 209.35 67.71 C210.56 70.75, 211.62 73.86, 212.53 76.99 C213.45 80.13, 214.21 83.32, 214.83 86.52 C215.44 89.73, 215.9 92.97, 216.21 96.22 C216.52 99.47, 216.59 104.37, 216.67 106 C216.75 107.63, 216.75 104.37, 216.67 106" stroke="#9c36b5" stroke-width="4" fill="none"></path></g><g transform="translate(378.32612242651703 495.81709138932854) rotate(0 69.5 52.5)"><text x="69.5" y="0" font-family="Virgil, Segoe UI Emoji" font-size="28px" fill="#9c36b5" text-anchor="middle" style="white-space: pre;" direction="ltr" dominant-baseline="text-before-edge">Prediction</text><text x="69.5" y="35" font-family="Virgil, Segoe UI Emoji" font-size="28px" fill="#9c36b5" text-anchor="middle" style="white-space: pre;" direction="ltr" dominant-baseline="text-before-edge">Jump not </text><text x="69.5" y="70" font-family="Virgil, Segoe UI Emoji" font-size="28px" fill="#9c36b5" text-anchor="middle" style="white-space: pre;" direction="ltr" dominant-baseline="text-before-edge">happening</text></g><g stroke-linecap="round" transform="translate(10 443.4210159014036) rotate(0 108.33510087518698 106)"><path d="M216.67 106 C216.67 109.26, 216.52 112.53, 216.21 115.78 C215.9 119.03, 215.44 122.27, 214.83 125.48 C214.21 128.68, 213.45 131.87, 212.53 135.01 C211.62 138.14, 210.56 141.25, 209.35 144.29 C208.15 147.33, 206.8 150.33, 205.31 153.25 C203.83 156.17, 202.2 159.03, 200.44 161.8 C198.69 164.57, 196.8 167.28, 194.79 169.88 C192.78 172.48, 190.64 175, 188.4 177.41 C186.15 179.82, 183.78 182.14, 181.32 184.33 C178.86 186.53, 176.28 188.63, 173.62 190.59 C170.96 192.55, 168.2 194.41, 165.37 196.12 C162.53 197.84, 159.61 199.43, 156.62 200.89 C153.64 202.34, 150.58 203.66, 147.47 204.84 C144.36 206.02, 141.19 207.06, 137.98 207.95 C134.78 208.85, 131.52 209.6, 128.24 210.2 C124.97 210.79, 121.65 211.25, 118.33 211.55 C115.01 211.85, 111.67 212, 108.34 212 C105 212, 101.66 211.85, 98.34 211.55 C95.02 211.25, 91.7 210.79, 88.43 210.2 C85.15 209.6, 81.89 208.85, 78.69 207.95 C75.48 207.06, 72.31 206.02, 69.2 204.84 C66.09 203.66, 63.03 202.34, 60.05 200.89 C57.06 199.43, 54.14 197.84, 51.3 196.12 C48.47 194.41, 45.71 192.55, 43.05 190.59 C40.39 188.63, 37.81 186.53, 35.35 184.33 C32.89 182.14, 30.52 179.82, 28.27 177.41 C26.03 175, 23.89 172.48, 21.88 169.88 C19.87 167.28, 17.98 164.57, 16.23 161.8 C14.47 159.03, 12.84 156.17, 11.36 153.25 C9.87 150.33, 8.52 147.33, 7.32 144.29 C6.11 141.25, 5.05 138.14, 4.14 135.01 C3.22 131.87, 2.46 128.68, 1.84 125.48 C1.23 122.27, 0.77 119.03, 0.46 115.78 C0.15 112.53, 0 109.26, 0 106 C0 102.74, 0.15 99.47, 0.46 96.22 C0.77 92.97, 1.23 89.73, 1.84 86.52 C2.46 83.32, 3.22 80.13, 4.14 76.99 C5.05 73.86, 6.11 70.75, 7.32 67.71 C8.52 64.67, 9.87 61.67, 11.36 58.75 C12.84 55.83, 14.47 52.97, 16.23 50.2 C17.98 47.43, 19.87 44.72, 21.88 42.12 C23.89 39.52, 26.03 37, 28.27 34.59 C30.52 32.18, 32.89 29.86, 35.35 27.67 C37.81 25.47, 40.39 23.37, 43.05 21.41 C45.71 19.45, 48.47 17.59, 51.3 15.88 C54.14 14.16, 57.06 12.57, 60.05 11.11 C63.03 9.66, 66.09 8.34, 69.2 7.16 C72.31 5.98, 75.48 4.94, 78.69 4.05 C81.89 3.15, 85.15 2.4, 88.43 1.8 C91.7 1.21, 95.02 0.75, 98.34 0.45 C101.66 0.15, 105 0, 108.34 0 C111.67 0, 115.01 0.15, 118.33 0.45 C121.65 0.75, 124.97 1.21, 128.24 1.8 C131.52 2.4, 134.78 3.15, 137.98 4.05 C141.19 4.94, 144.36 5.98, 147.47 7.16 C150.58 8.34, 153.64 9.66, 156.62 11.11 C159.61 12.57, 162.53 14.16, 165.37 15.88 C168.2 17.59, 170.96 19.45, 173.62 21.41 C176.28 23.37, 178.86 25.47, 181.32 27.67 C183.78 29.86, 186.15 32.18, 188.4 34.59 C190.64 37, 192.78 39.52, 194.79 42.12 C196.8 44.72, 198.69 47.43, 200.44 50.2 C202.2 52.97, 203.83 55.83, 205.31 58.75 C206.8 61.67, 208.15 64.67, 209.35 67.71 C210.56 70.75, 211.62 73.86, 212.53 76.99 C213.45 80.13, 214.21 83.32, 214.83 86.52 C215.44 89.73, 215.9 92.97, 216.21 96.22 C216.52 99.47, 216.59 104.37, 216.67 106 C216.75 107.63, 216.75 104.37, 216.67 106" stroke="#6741d9" stroke-width="4" fill="none"></path></g><g transform="translate(48.730616405813635 496.96769709562955) rotate(0 69.5 52.5)"><text x="69.5" y="0" font-family="Virgil, Segoe UI Emoji" font-size="28px" fill="#6741d9" text-anchor="middle" style="white-space: pre;" direction="ltr" dominant-baseline="text-before-edge">Prediction</text><text x="69.5" y="35" font-family="Virgil, Segoe UI Emoji" font-size="28px" fill="#6741d9" text-anchor="middle" style="white-space: pre;" direction="ltr" dominant-baseline="text-before-edge">Jump not </text><text x="69.5" y="70" font-family="Virgil, Segoe UI Emoji" font-size="28px" fill="#6741d9" text-anchor="middle" style="white-space: pre;" direction="ltr" dominant-baseline="text-before-edge">happening</text></g><g stroke-linecap="round"><g transform="translate(223.2553571997305 194.6866744613801) rotate(0 60.83958576918121 0)"><path d="M0 0 C24.4 0, 48.81 0, 121.68 0 M0 0 C29.81 0, 59.62 0, 121.68 0" stroke="#c2255c" stroke-width="4" fill="none"></path></g><g transform="translate(223.2553571997305 194.6866744613801) rotate(0 60.83958576918121 0)"><path d="M93.49 10.26 C99.14 8.2, 104.8 6.15, 121.68 0 M93.49 10.26 C100.39 7.75, 107.3 5.23, 121.68 0" stroke="#c2255c" stroke-width="4" fill="none"></path></g><g transform="translate(223.2553571997305 194.6866744613801) rotate(0 60.83958576918121 0)"><path d="M93.49 -10.26 C99.14 -8.2, 104.8 -6.15, 121.68 0 M93.49 -10.26 C100.39 -7.75, 107.3 -5.23, 121.68 0" stroke="#c2255c" stroke-width="4" fill="none"></path></g></g><mask></mask><g stroke-linecap="round"><g transform="translate(341.6160058779551 263.2694802375481) rotate(0 -57.5210629090443 0)"><path d="M0 0 C-43.56 0, -87.12 0, -115.04 0 M0 0 C-39.78 0, -79.56 0, -115.04 0" stroke="#e03131" stroke-width="4" fill="none"></path></g><g transform="translate(341.6160058779551 263.2694802375481) rotate(0 -57.5210629090443 0)"><path d="M-86.85 -10.26 C-97.53 -6.38, -108.2 -2.49, -115.04 0 M-86.85 -10.26 C-96.6 -6.71, -106.35 -3.16, -115.04 0" stroke="#e03131" stroke-width="4" fill="none"></path></g><g transform="translate(341.6160058779551 263.2694802375481) rotate(0 -57.5210629090443 0)"><path d="M-86.85 10.26 C-97.53 6.38, -108.2 2.49, -115.04 0 M-86.85 10.26 C-96.6 6.71, -106.35 3.16, -115.04 0" stroke="#e03131" stroke-width="4" fill="none"></path></g></g><mask></mask><g stroke-linecap="round"><g transform="translate(403.5617659338459 336.27698316056546) rotate(0 0 56.41488862233166)"><path d="M0 0 C0 38.23, 0 76.46, 0 112.83 M0 0 C0 37.62, 0 75.23, 0 112.83" stroke="#9c36b5" stroke-width="4" fill="none"></path></g><g transform="translate(403.5617659338459 336.27698316056546) rotate(0 0 56.41488862233166)"><path d="M-10.26 84.64 C-6.78 94.19, -3.31 103.74, 0 112.83 M-10.26 84.64 C-6.84 94.04, -3.42 103.44, 0 112.83" stroke="#9c36b5" stroke-width="4" fill="none"></path></g><g transform="translate(403.5617659338459 336.27698316056546) rotate(0 0 56.41488862233166)"><path d="M10.26 84.64 C6.78 94.19, 3.31 103.74, 0 112.83 M10.26 84.64 C6.84 94.04, 3.42 103.44, 0 112.83" stroke="#9c36b5" stroke-width="4" fill="none"></path></g></g><mask></mask><g stroke-linecap="round"><g transform="translate(473.25074599672735 444.68206325837923) rotate(0 0 -51.4371043321259)"><path d="M0 0 C0 -34.89, 0 -69.78, 0 -102.87 M0 0 C0 -23.69, 0 -47.39, 0 -102.87" stroke="#c2255c" stroke-width="4" fill="none"></path></g><g transform="translate(473.25074599672735 444.68206325837923) rotate(0 0 -51.4371043321259)"><path d="M10.26 -74.68 C6.78 -84.24, 3.3 -93.81, 0 -102.87 M10.26 -74.68 C7.9 -81.18, 5.53 -87.67, 0 -102.87" stroke="#c2255c" stroke-width="4" fill="none"></path></g><g transform="translate(473.25074599672735 444.68206325837923) rotate(0 0 -51.4371043321259)"><path d="M-10.26 -74.68 C-6.78 -84.24, -3.3 -93.81, 0 -102.87 M-10.26 -74.68 C-7.9 -81.18, -5.53 -87.67, 0 -102.87" stroke="#c2255c" stroke-width="4" fill="none"></path></g></g><mask></mask><g stroke-linecap="round"><g transform="translate(342.7221801646665 506.62782331427275) rotate(0 -61.945760055893516 0)"><path d="M0 0 C-43.56 0, -87.12 0, -123.89 0 M0 0 C-30.03 0, -60.05 0, -123.89 0" stroke="#6741d9" stroke-width="4" fill="none"></path></g><g transform="translate(342.7221801646665 506.62782331427275) rotate(0 -61.945760055893516 0)"><path d="M-95.7 -10.26 C-105.61 -6.65, -115.52 -3.05, -123.89 0 M-95.7 -10.26 C-102.53 -7.77, -109.36 -5.29, -123.89 0" stroke="#6741d9" stroke-width="4" fill="none"></path></g><g transform="translate(342.7221801646665 506.62782331427275) rotate(0 -61.945760055893516 0)"><path d="M-95.7 10.26 C-105.61 6.65, -115.52 3.05, -123.89 0 M-95.7 10.26 C-102.53 7.77, -109.36 5.29, -123.89 0" stroke="#6741d9" stroke-width="4" fill="none"></path></g></g><mask></mask><g stroke-linecap="round"><g transform="translate(222.14918291301728 580.7415005240024) rotate(0 61.39267291253691 0)"><path d="M0 0 C38.05 0, 76.11 0, 122.79 0 M0 0 C43 0, 86.01 0, 122.79 0" stroke="#9c36b5" stroke-width="4" fill="none"></path></g><g transform="translate(222.14918291301728 580.7415005240024) rotate(0 61.39267291253691 0)"><path d="M94.59 10.26 C103.33 7.08, 112.07 3.9, 122.79 0 M94.59 10.26 C104.47 6.67, 114.34 3.07, 122.79 0" stroke="#9c36b5" stroke-width="4" fill="none"></path></g><g transform="translate(222.14918291301728 580.7415005240024) rotate(0 61.39267291253691 0)"><path d="M94.59 -10.26 C103.33 -7.08, 112.07 -3.9, 122.79 0 M94.59 -10.26 C104.47 -6.67, 114.34 -3.07, 122.79 0" stroke="#9c36b5" stroke-width="4" fill="none"></path></g></g><mask></mask><g transform="translate(258.652934374526 266.5880030976849) rotate(0 28.5 17.5)"><text x="0" y="0" font-family="Virgil, Segoe UI Emoji" font-size="28px" fill="#e03131" text-anchor="start" style="white-space: pre;" direction="ltr" dominant-baseline="text-before-edge">jump</text></g><g transform="translate(88.34652564040698 10) rotate(0 28.5 17.5)"><text x="0" y="0" font-family="Virgil, Segoe UI Emoji" font-size="28px" fill="#e03131" text-anchor="start" style="white-space: pre;" direction="ltr" dominant-baseline="text-before-edge">jump</text></g><g transform="translate(487.67544314357656 379.4622117619368) rotate(0 28.5 17.5)"><text x="0" y="0" font-family="Virgil, Segoe UI Emoji" font-size="28px" fill="#c2255c" text-anchor="start" style="white-space: pre;" direction="ltr" dominant-baseline="text-before-edge">jump</text></g><g transform="translate(245.46770577315328 583.0427119366043) rotate(0 28.5 17.5)"><text x="0" y="0" font-family="Virgil, Segoe UI Emoji" font-size="28px" fill="#9c36b5" text-anchor="start" style="white-space: pre;" direction="ltr" dominant-baseline="text-before-edge">jump</text></g><g transform="translate(228.78622863329474 141.59030869918547) rotate(0 50 17.5)"><text x="0" y="0" font-family="Virgil, Segoe UI Emoji" font-size="28px" fill="#c2255c" text-anchor="start" style="white-space: pre;" direction="ltr" dominant-baseline="text-before-edge">no jump</text></g><g transform="translate(290.77642010877753 377.2498631885121) rotate(0 50 17.5)"><text x="0" y="0" font-family="Virgil, Segoe UI Emoji" font-size="28px" fill="#9c36b5" text-anchor="start" style="white-space: pre;" direction="ltr" dominant-baseline="text-before-edge">no jump</text></g><g transform="translate(237.7244857661717 466.89441183180384) rotate(0 50 17.5)"><text x="0" y="0" font-family="Virgil, Segoe UI Emoji" font-size="28px" fill="#6741d9" text-anchor="start" style="white-space: pre;" direction="ltr" dominant-baseline="text-before-edge">no jump</text></g><g transform="translate(72.9489484656151 729.1021492022277) rotate(0 50 17.5)"><text x="0" y="0" font-family="Virgil, Segoe UI Emoji" font-size="28px" fill="#6741d9" text-anchor="start" style="white-space: pre;" direction="ltr" dominant-baseline="text-before-edge">no jump</text></g><g stroke-linecap="round"><g transform="translate(71.70947992013316 137.16561155233603) rotate(0 48.67166861534497 -42.58771003842685)"><path d="M0 0 C0 -19.99, 0 -39.98, 0 -87.39 M0 0 C0 -25.01, 0 -50.01, 0 -87.39 M0 -87.39 C29.01 -87.39, 58.02 -87.39, 97.34 -87.39 M0 -87.39 C21.94 -87.39, 43.89 -87.39, 97.34 -87.39 M97.34 -87.39 C97.34 -59.52, 97.34 -31.65, 97.34 2.21 M97.34 -87.39 C97.34 -63.75, 97.34 -40.12, 97.34 2.21" stroke="#e03131" stroke-width="4" fill="none"></path></g><g transform="translate(71.70947992013316 137.16561155233603) rotate(0 48.67166861534497 -42.58771003842685)"><path d="M87.08 -25.98 C89.43 -19.53, 91.78 -13.08, 97.34 2.21 M87.08 -25.98 C90.02 -17.91, 92.96 -9.84, 97.34 2.21" stroke="#e03131" stroke-width="4" fill="none"></path></g><g transform="translate(71.70947992013316 137.16561155233603) rotate(0 48.67166861534497 -42.58771003842685)"><path d="M107.6 -25.98 C105.26 -19.53, 102.91 -13.08, 97.34 2.21 M107.6 -25.98 C104.67 -17.91, 101.73 -9.84, 97.34 2.21" stroke="#e03131" stroke-width="4" fill="none"></path></g></g><mask></mask><g stroke-linecap="round"><g transform="translate(174.5836885843837 640.4749120064713) rotate(0 -51.43710433212618 43.69388432513921)"><path d="M0 0 C0 32.67, 0 65.33, 0 87.39 M0 0 C0 28.17, 0 56.34, 0 87.39 M0 87.39 C-32.5 87.39, -65 87.39, -102.87 87.39 M0 87.39 C-34.21 87.39, -68.42 87.39, -102.87 87.39 M-102.87 87.39 C-102.87 62.01, -102.87 36.62, -102.87 7.74 M-102.87 87.39 C-102.87 66.58, -102.87 45.78, -102.87 7.74" stroke="#6741d9" stroke-width="4" fill="none"></path></g><g transform="translate(174.5836885843837 640.4749120064713) rotate(0 -51.43710433212618 43.69388432513921)"><path d="M-92.61 35.93 C-96.45 25.4, -100.28 14.86, -102.87 7.74 M-92.61 35.93 C-95.92 26.85, -99.23 17.76, -102.87 7.74" stroke="#6741d9" stroke-width="4" fill="none"></path></g><g transform="translate(174.5836885843837 640.4749120064713) rotate(0 -51.43710433212618 43.69388432513921)"><path d="M-113.13 35.93 C-109.3 25.4, -105.46 14.86, -102.87 7.74 M-113.13 35.93 C-109.83 26.85, -106.52 17.76, -102.87 7.74" stroke="#6741d9" stroke-width="4" fill="none"></path></g></g><mask></mask></svg>