<svg version="1.1" xmlns="http://www.w3.org/2000/svg" viewBox="0 0 702.4309120875405 911.1104039896047" width="702.4309120875405" height="911.1104039896047">
  <!-- svg-source:excalidraw -->
  
  <defs>
    <style class="style-fonts">
      @font-face {
        font-family: "Virgil";
        src: url("https://excalidraw.com/Virgil.woff2");
      }
      @font-face {
        font-family: "Cascadia";
        src: url("https://excalidraw.com/Cascadia.woff2");
      }
    </style>
  </defs>
  <g stroke-linecap="round" transform="translate(42.36765780062342 122.68692481525534) rotate(0 26.59634533573626 26.59634533573609)"><path d="M0 0 C14.85 0, 29.69 0, 53.19 0 M0 0 C12.61 0, 25.23 0, 53.19 0 M53.19 0 C53.19 11.76, 53.19 23.52, 53.19 53.19 M53.19 0 C53.19 11.37, 53.19 22.73, 53.19 53.19 M53.19 53.19 C33.01 53.19, 12.83 53.19, 0 53.19 M53.19 53.19 C38.71 53.19, 24.22 53.19, 0 53.19 M0 53.19 C0 40.37, 0 27.55, 0 0 M0 53.19 C0 40.98, 0 28.76, 0 0" stroke="#1e1e1e" stroke-width="2" fill="none"></path></g><g transform="translate(58.96400313635968 131.00697984602834) rotate(0 10 18.27629030496314)"><text x="10" y="0" font-family="Virgil, Segoe UI Emoji" font-size="29.242064487941015px" fill="#1e1e1e" text-anchor="middle" style="white-space: pre;" direction="ltr" dominant-baseline="text-before-edge">0</text></g><g stroke-linecap="round" transform="translate(42.45156899315225 335.3547251009336) rotate(0 26.59634533573626 26.59634533573609)"><path d="M0 0 C20.22 0, 40.43 0, 53.19 0 M0 0 C18.71 0, 37.42 0, 53.19 0 M53.19 0 C53.19 10.8, 53.19 21.6, 53.19 53.19 M53.19 0 C53.19 10.89, 53.19 21.77, 53.19 53.19 M53.19 53.19 C34.07 53.19, 14.95 53.19, 0 53.19 M53.19 53.19 C33.22 53.19, 13.25 53.19, 0 53.19 M0 53.19 C0 40.24, 0 27.28, 0 0 M0 53.19 C0 32.67, 0 12.15, 0 0" stroke="#1e1e1e" stroke-width="2" fill="none"></path></g><g transform="translate(65.04791432888851 343.6747801317066) rotate(0 4 18.27629030496314)"><text x="4" y="0" font-family="Virgil, Segoe UI Emoji" font-size="29.242064487941015px" fill="#1e1e1e" text-anchor="middle" style="white-space: pre;" direction="ltr" dominant-baseline="text-before-edge">1</text></g><g stroke-linecap="round" transform="translate(42.38390307913869 228.8456402262667) rotate(0 26.59634533573626 26.59634533573609)"><path d="M0 0 C14.37 0, 28.74 0, 53.19 0 M0 0 C15.27 0, 30.55 0, 53.19 0 M53.19 0 C53.19 18.66, 53.19 37.32, 53.19 53.19 M53.19 0 C53.19 11.33, 53.19 22.66, 53.19 53.19 M53.19 53.19 C33.83 53.19, 14.47 53.19, 0 53.19 M53.19 53.19 C38.12 53.19, 23.05 53.19, 0 53.19 M0 53.19 C0 37.71, 0 22.22, 0 0 M0 53.19 C0 32.27, 0 11.35, 0 0" stroke="#1e1e1e" stroke-width="2" fill="none"></path></g><g transform="translate(64.98024841487495 237.16569525703972) rotate(0 4 18.27629030496314)"><text x="4" y="0" font-family="Virgil, Segoe UI Emoji" font-size="29.242064487941015px" fill="#1e1e1e" text-anchor="middle" style="white-space: pre;" direction="ltr" dominant-baseline="text-before-edge">1</text></g><g stroke-linecap="round" transform="translate(42.46781427167116 441.51344051194496) rotate(0 26.59634533573626 26.59634533573609)"><path d="M0 0 C11.77 0, 23.55 0, 53.19 0 M0 0 C17.32 0, 34.65 0, 53.19 0 M53.19 0 C53.19 16.19, 53.19 32.38, 53.19 53.19 M53.19 0 C53.19 13.36, 53.19 26.73, 53.19 53.19 M53.19 53.19 C33.28 53.19, 13.36 53.19, 0 53.19 M53.19 53.19 C38.16 53.19, 23.13 53.19, 0 53.19 M0 53.19 C0 37.74, 0 22.29, 0 0 M0 53.19 C0 38.91, 0 24.63, 0 0" stroke="#1e1e1e" stroke-width="2" fill="none"></path></g><g transform="translate(59.06415960740742 449.83349554271797) rotate(0 10 18.27629030496314)"><text x="10" y="0" font-family="Virgil, Segoe UI Emoji" font-size="29.242064487941015px" fill="#1e1e1e" text-anchor="middle" style="white-space: pre;" direction="ltr" dominant-baseline="text-before-edge">0</text></g><g stroke-linecap="round" transform="translate(42.37343989196597 175.7271288920972) rotate(0 26.59634533573626 26.59634533573609)"><path d="M0 0 C19 0, 37.99 0, 53.19 0 M0 0 C11.68 0, 23.36 0, 53.19 0 M53.19 0 C53.19 15.66, 53.19 31.31, 53.19 53.19 M53.19 0 C53.19 20.09, 53.19 40.18, 53.19 53.19 M53.19 53.19 C32.77 53.19, 12.35 53.19, 0 53.19 M53.19 53.19 C37.55 53.19, 21.91 53.19, 0 53.19 M0 53.19 C0 34.5, 0 15.81, 0 0 M0 53.19 C0 39.4, 0 25.62, 0 0" stroke="#1e1e1e" stroke-width="2" fill="none"></path></g><g transform="translate(64.96978522770223 184.0471839228702) rotate(0 4 18.27629030496314)"><text x="4" y="0" font-family="Virgil, Segoe UI Emoji" font-size="29.242064487941015px" fill="#1e1e1e" text-anchor="middle" style="white-space: pre;" direction="ltr" dominant-baseline="text-before-edge">1</text></g><g stroke-linecap="round" transform="translate(42.45735108449662 388.39492917777534) rotate(0 26.59634533573626 26.59634533573609)"><path d="M0 0 C14.73 0, 29.46 0, 53.19 0 M0 0 C13.01 0, 26.02 0, 53.19 0 M53.19 0 C53.19 18.23, 53.19 36.45, 53.19 53.19 M53.19 0 C53.19 17.32, 53.19 34.64, 53.19 53.19 M53.19 53.19 C32.92 53.19, 12.65 53.19, 0 53.19 M53.19 53.19 C34.87 53.19, 16.55 53.19, 0 53.19 M0 53.19 C0 40.52, 0 27.84, 0 0 M0 53.19 C0 42.27, 0 31.34, 0 0" stroke="#1e1e1e" stroke-width="2" fill="none"></path></g><g transform="translate(59.05369642023288 396.71498420854834) rotate(0 10 18.27629030496314)"><text x="10" y="0" font-family="Virgil, Segoe UI Emoji" font-size="29.242064487941015px" fill="#1e1e1e" text-anchor="middle" style="white-space: pre;" direction="ltr" dominant-baseline="text-before-edge">0</text></g><g stroke-linecap="round" transform="translate(42.38968517048306 281.88584430310857) rotate(0 26.59634533573626 26.59634533573609)"><path d="M0 0 C16.79 0, 33.57 0, 53.19 0 M0 0 C20.2 0, 40.39 0, 53.19 0 M53.19 0 C53.19 11.39, 53.19 22.77, 53.19 53.19 M53.19 0 C53.19 16.14, 53.19 32.27, 53.19 53.19 M53.19 53.19 C34.7 53.19, 16.21 53.19, 0 53.19 M53.19 53.19 C32.29 53.19, 11.38 53.19, 0 53.19 M0 53.19 C0 33.4, 0 13.61, 0 0 M0 53.19 C0 36.6, 0 20.01, 0 0" stroke="#1e1e1e" stroke-width="2" fill="none"></path></g><g transform="translate(58.98603050621932 290.2058993338816) rotate(0 10 18.27629030496314)"><text x="10" y="0" font-family="Virgil, Segoe UI Emoji" font-size="29.242064487941015px" fill="#1e1e1e" text-anchor="middle" style="white-space: pre;" direction="ltr" dominant-baseline="text-before-edge">0</text></g><g stroke-linecap="round" transform="translate(42.47359636301371 494.55364458878694) rotate(0 26.59634533573626 26.59634533573609)"><path d="M0 0 C13.34 0, 26.68 0, 53.19 0 M0 0 C14.06 0, 28.12 0, 53.19 0 M53.19 0 C53.19 12.3, 53.19 24.6, 53.19 53.19 M53.19 0 C53.19 16.15, 53.19 32.31, 53.19 53.19 M53.19 53.19 C38.93 53.19, 24.66 53.19, 0 53.19 M53.19 53.19 C35.02 53.19, 16.85 53.19, 0 53.19 M0 53.19 C0 41.69, 0 30.19, 0 0 M0 53.19 C0 33.73, 0 14.26, 0 0" stroke="#1e1e1e" stroke-width="2" fill="none"></path></g><g transform="translate(65.06994169874997 502.87369961955994) rotate(0 4 18.27629030496314)"><text x="4" y="0" font-family="Virgil, Segoe UI Emoji" font-size="29.242064487941015px" fill="#1e1e1e" text-anchor="middle" style="white-space: pre;" direction="ltr" dominant-baseline="text-before-edge">1</text></g><g stroke-linecap="round" transform="translate(95.56034847209412 122.29004632798922) rotate(0 109.79516920649985 26.59634533573609)"><path d="M0 0 C78.93 0, 157.86 0, 219.59 0 M0 0 C47.96 0, 95.91 0, 219.59 0 M219.59 0 C219.59 17.01, 219.59 34.01, 219.59 53.19 M219.59 0 C219.59 21.18, 219.59 42.35, 219.59 53.19 M219.59 53.19 C140.34 53.19, 61.08 53.19, 0 53.19 M219.59 53.19 C137.07 53.19, 54.55 53.19, 0 53.19 M0 53.19 C0 36.62, 0 20.05, 0 0 M0 53.19 C0 35.4, 0 17.61, 0 0" stroke="#1e1e1e" stroke-width="2" fill="none"></path></g><g stroke-linecap="round" transform="translate(95.64425966462659 334.95784661366747) rotate(0 109.79516920649985 26.59634533573609)"><path d="M0 0 C68.73 0, 137.46 0, 219.59 0 M0 0 C57.89 0, 115.79 0, 219.59 0 M219.59 0 C219.59 13.11, 219.59 26.22, 219.59 53.19 M219.59 0 C219.59 17.96, 219.59 35.93, 219.59 53.19 M219.59 53.19 C157.28 53.19, 94.96 53.19, 0 53.19 M219.59 53.19 C135.25 53.19, 50.91 53.19, 0 53.19 M0 53.19 C0 42.01, 0 30.83, 0 0 M0 53.19 C0 42.44, 0 31.69, 0 0" stroke="#1e1e1e" stroke-width="2" fill="none"></path></g><g stroke-linecap="round" transform="translate(95.57659375061303 228.4487617390007) rotate(0 109.79516920649985 26.59634533573609)"><path d="M0 0 C83.46 0, 166.93 0, 219.59 0 M0 0 C61.45 0, 122.9 0, 219.59 0 M219.59 0 C219.59 12.17, 219.59 24.34, 219.59 53.19 M219.59 0 C219.59 17.16, 219.59 34.33, 219.59 53.19 M219.59 53.19 C137.1 53.19, 54.61 53.19, 0 53.19 M219.59 53.19 C149.5 53.19, 79.42 53.19, 0 53.19 M0 53.19 C0 33.37, 0 13.55, 0 0 M0 53.19 C0 35.72, 0 18.24, 0 0" stroke="#1e1e1e" stroke-width="2" fill="none"></path></g><g stroke-linecap="round" transform="translate(95.66050494314186 441.11656202467884) rotate(0 109.79516920649985 26.59634533573609)"><path d="M0 0 C72.66 0, 145.32 0, 219.59 0 M0 0 C87.24 0, 174.48 0, 219.59 0 M219.59 0 C219.59 17.39, 219.59 34.77, 219.59 53.19 M219.59 0 C219.59 11.53, 219.59 23.06, 219.59 53.19 M219.59 53.19 C172.89 53.19, 126.19 53.19, 0 53.19 M219.59 53.19 C146.23 53.19, 72.86 53.19, 0 53.19 M0 53.19 C0 41.97, 0 30.76, 0 0 M0 53.19 C0 38.44, 0 23.69, 0 0" stroke="#1e1e1e" stroke-width="2" fill="none"></path></g><g stroke-linecap="round" transform="translate(95.56613056343849 175.33025040483108) rotate(0 109.79516920649985 26.59634533573609)"><path d="M0 0 C56.89 0, 113.78 0, 219.59 0 M0 0 C55.68 0, 111.37 0, 219.59 0 M219.59 0 C219.59 20.65, 219.59 41.3, 219.59 53.19 M219.59 0 C219.59 17.59, 219.59 35.17, 219.59 53.19 M219.59 53.19 C149.99 53.19, 80.38 53.19, 0 53.19 M219.59 53.19 C162.47 53.19, 105.36 53.19, 0 53.19 M0 53.19 C0 40.65, 0 28.11, 0 0 M0 53.19 C0 39.38, 0 25.57, 0 0" stroke="#1e1e1e" stroke-width="2" fill="none"></path></g><g stroke-linecap="round" transform="translate(95.65004175596914 387.9980506905092) rotate(0 109.79516920649985 26.59634533573609)"><path d="M0 0 C85.61 0, 171.21 0, 219.59 0 M0 0 C66.75 0, 133.5 0, 219.59 0 M219.59 0 C219.59 11.6, 219.59 23.19, 219.59 53.19 M219.59 0 C219.59 11.46, 219.59 22.93, 219.59 53.19 M219.59 53.19 C147.9 53.19, 76.21 53.19, 0 53.19 M219.59 53.19 C138.23 53.19, 56.88 53.19, 0 53.19 M0 53.19 C0 39.73, 0 26.27, 0 0 M0 53.19 C0 42.13, 0 31.07, 0 0" stroke="#1e1e1e" stroke-width="2" fill="none"></path></g><g stroke-linecap="round" transform="translate(95.58237584195558 281.48896581584245) rotate(0 109.79516920649985 26.59634533573609)"><path d="M0 0 C81.07 0, 162.15 0, 219.59 0 M0 0 C78.26 0, 156.53 0, 219.59 0 M219.59 0 C219.59 14.27, 219.59 28.54, 219.59 53.19 M219.59 0 C219.59 17.23, 219.59 34.47, 219.59 53.19 M219.59 53.19 C153.74 53.19, 87.89 53.19, 0 53.19 M219.59 53.19 C172.94 53.19, 126.3 53.19, 0 53.19 M0 53.19 C0 41.24, 0 29.3, 0 0 M0 53.19 C0 42.01, 0 30.82, 0 0" stroke="#1e1e1e" stroke-width="2" fill="none"></path></g><g stroke-linecap="round" transform="translate(95.66628703448623 494.1567661015208) rotate(0 109.79516920649985 26.59634533573609)"><path d="M0 0 C77.24 0, 154.47 0, 219.59 0 M0 0 C44.59 0, 89.17 0, 219.59 0 M219.59 0 C219.59 10.89, 219.59 21.77, 219.59 53.19 M219.59 0 C219.59 19.12, 219.59 38.24, 219.59 53.19 M219.59 53.19 C137.14 53.19, 54.7 53.19, 0 53.19 M219.59 53.19 C166.11 53.19, 112.62 53.19, 0 53.19 M0 53.19 C0 32.67, 0 12.15, 0 0 M0 53.19 C0 33.66, 0 14.14, 0 0" stroke="#1e1e1e" stroke-width="2" fill="none"></path></g><g stroke-linecap="round" transform="translate(315.2756717342709 122.33072585994387) rotate(0 188.52465089544057 26.59634533573609)"><path d="M0 0 C132.24 0, 264.49 0, 377.05 0 M0 0 C90.43 0, 180.86 0, 377.05 0 M377.05 0 C377.05 19.33, 377.05 38.65, 377.05 53.19 M377.05 0 C377.05 19.14, 377.05 38.28, 377.05 53.19 M377.05 53.19 C229.32 53.19, 81.59 53.19, 0 53.19 M377.05 53.19 C264.59 53.19, 152.14 53.19, 0 53.19 M0 53.19 C0 39.58, 0 25.96, 0 0 M0 53.19 C0 34.32, 0 15.45, 0 0" stroke="#1e1e1e" stroke-width="2" fill="none"></path></g><g stroke-linecap="round" transform="translate(315.3595829267997 334.998526145622) rotate(0 188.52465089544057 26.59634533573609)"><path d="M0 0 C133.86 0, 267.72 0, 377.05 0 M0 0 C146.52 0, 293.04 0, 377.05 0 M377.05 0 C377.05 11.68, 377.05 23.35, 377.05 53.19 M377.05 0 C377.05 11.7, 377.05 23.41, 377.05 53.19 M377.05 53.19 C250.47 53.19, 123.88 53.19, 0 53.19 M377.05 53.19 C245.96 53.19, 114.88 53.19, 0 53.19 M0 53.19 C0 36.4, 0 19.61, 0 0 M0 53.19 C0 33.06, 0 12.93, 0 0" stroke="#1e1e1e" stroke-width="2" fill="none"></path></g><g stroke-linecap="round" transform="translate(315.29191701278614 228.48944127095535) rotate(0 188.52465089544057 26.59634533573609)"><path d="M0 0 C145.07 0, 290.14 0, 377.05 0 M0 0 C102.4 0, 204.79 0, 377.05 0 M377.05 0 C377.05 11.17, 377.05 22.34, 377.05 53.19 M377.05 0 C377.05 12.81, 377.05 25.61, 377.05 53.19 M377.05 53.19 C293.19 53.19, 209.32 53.19, 0 53.19 M377.05 53.19 C300.99 53.19, 224.93 53.19, 0 53.19 M0 53.19 C0 32.33, 0 11.47, 0 0 M0 53.19 C0 35.22, 0 17.25, 0 0" stroke="#1e1e1e" stroke-width="2" fill="none"></path></g><g stroke-linecap="round" transform="translate(315.3758282053168 441.1572415566336) rotate(0 188.52465089544057 26.59634533573609)"><path d="M0 0 C122.79 0, 245.58 0, 377.05 0 M0 0 C114.77 0, 229.55 0, 377.05 0 M377.05 0 C377.05 13.36, 377.05 26.73, 377.05 53.19 M377.05 0 C377.05 19.92, 377.05 39.83, 377.05 53.19 M377.05 53.19 C270.52 53.19, 163.99 53.19, 0 53.19 M377.05 53.19 C267.51 53.19, 157.97 53.19, 0 53.19 M0 53.19 C0 38.91, 0 24.63, 0 0 M0 53.19 C0 38.83, 0 24.46, 0 0" stroke="#1e1e1e" stroke-width="2" fill="none"></path></g><g stroke-linecap="round" transform="translate(315.28145382561524 175.37092993678561) rotate(0 188.52465089544057 26.59634533573609)"><path d="M0 0 C82.19 0, 164.38 0, 377.05 0 M0 0 C144.67 0, 289.35 0, 377.05 0 M377.05 0 C377.05 14.39, 377.05 28.79, 377.05 53.19 M377.05 0 C377.05 14.18, 377.05 28.36, 377.05 53.19 M377.05 53.19 C241.33 53.19, 105.6 53.19, 0 53.19 M377.05 53.19 C260.86 53.19, 144.68 53.19, 0 53.19 M0 53.19 C0 34.65, 0 16.1, 0 0 M0 53.19 C0 34.69, 0 16.18, 0 0" stroke="#1e1e1e" stroke-width="2" fill="none"></path></g><g stroke-linecap="round" transform="translate(315.3653650181441 388.038730222464) rotate(0 188.52465089544057 26.59634533573609)"><path d="M0 0 C120.63 0, 241.26 0, 377.05 0 M0 0 C121.43 0, 242.86 0, 377.05 0 M377.05 0 C377.05 19.12, 377.05 38.24, 377.05 53.19 M377.05 0 C377.05 15.34, 377.05 30.68, 377.05 53.19 M377.05 53.19 C232.83 53.19, 88.61 53.19, 0 53.19 M377.05 53.19 C237.55 53.19, 98.06 53.19, 0 53.19 M0 53.19 C0 37.38, 0 21.57, 0 0 M0 53.19 C0 33.53, 0 13.87, 0 0" stroke="#1e1e1e" stroke-width="2" fill="none"></path></g><g stroke-linecap="round" transform="translate(315.2976991041305 281.5296453477972) rotate(0 188.52465089544057 26.59634533573609)"><path d="M0 0 C87.84 0, 175.68 0, 377.05 0 M0 0 C133.84 0, 267.67 0, 377.05 0 M377.05 0 C377.05 13.28, 377.05 26.55, 377.05 53.19 M377.05 0 C377.05 13.43, 377.05 26.85, 377.05 53.19 M377.05 53.19 C290.98 53.19, 204.92 53.19, 0 53.19 M377.05 53.19 C266.03 53.19, 155.01 53.19, 0 53.19 M0 53.19 C0 41.86, 0 30.53, 0 0 M0 53.19 C0 36.23, 0 19.27, 0 0" stroke="#1e1e1e" stroke-width="2" fill="none"></path></g><g stroke-linecap="round" transform="translate(315.38161029665935 494.1974456334756) rotate(0 188.52465089544057 26.59634533573609)"><path d="M0 0 C92.23 0, 184.46 0, 377.05 0 M0 0 C129.19 0, 258.39 0, 377.05 0 M377.05 0 C377.05 17.32, 377.05 34.64, 377.05 53.19 M377.05 0 C377.05 20.27, 377.05 40.54, 377.05 53.19 M377.05 53.19 C247.19 53.19, 117.32 53.19, 0 53.19 M377.05 53.19 C287.19 53.19, 197.33 53.19, 0 53.19 M0 53.19 C0 42.27, 0 31.34, 0 0 M0 53.19 C0 39.41, 0 25.64, 0 0" stroke="#1e1e1e" stroke-width="2" fill="none"></path></g><g transform="translate(86.0152325997642 20.152369969294114) rotate(0 297.5 23.520384570026863)"><text x="0" y="0" font-family="Virgil, Segoe UI Emoji" font-size="37.63261531204305px" fill="#1e1e1e" text-anchor="start" style="white-space: pre;" direction="ltr" dominant-baseline="text-before-edge">01010101000 000010110111110110011</text></g><g transform="translate(237.37542526490506 663.6457610067254) rotate(89.99999999999994 -25.122695654295967 42.141295936239146)" stroke="none"><path fill="#e03131" d="M -0.34,1.71 Q -0.34,1.71 -2.65,1.18 -4.97,0.66 -7.72,0.43 -10.47,0.21 -16.30,0.09 -22.13,-0.01 -26.95,-0.07 -31.77,-0.13 -35.68,-0.16 -39.60,-0.19 -42.19,-0.21 -44.79,-0.23 -45.95,-0.39 -47.12,-0.56 -47.41,0.66 -47.70,1.88 -47.96,4.08 -48.23,6.27 -48.38,11.43 -48.54,16.60 -48.62,23.94 -48.70,31.28 -48.74,39.06 -48.78,46.84 -48.81,53.88 -48.83,60.91 -48.85,66.70 -48.86,72.48 -48.87,75.87 -48.88,79.27 -48.76,81.98 -48.64,84.70 -48.69,84.96 -48.73,85.21 -48.85,85.44 -48.97,85.67 -49.16,85.84 -49.35,86.02 -49.58,86.13 -49.81,86.24 -50.07,86.27 -50.33,86.29 -50.58,86.24 -50.83,86.18 -51.05,86.05 -51.27,85.92 -51.44,85.72 -51.61,85.52 -51.70,85.28 -51.80,85.04 -51.81,84.78 -51.83,84.53 -51.76,84.28 -51.69,84.03 -51.54,83.82 -51.40,83.60 -51.19,83.45 -50.99,83.29 -50.74,83.21 -50.50,83.13 -50.24,83.13 -49.98,83.13 -49.74,83.21 -49.49,83.29 -49.29,83.45 -49.08,83.60 -48.94,83.82 -48.79,84.03 -48.72,84.28 -48.65,84.53 -48.67,84.79 -48.68,85.04 -48.78,85.28 -48.87,85.52 -49.04,85.72 -49.21,85.92 -49.43,86.05 -49.65,86.18 -49.90,86.24 -50.15,86.29 -50.41,86.27 -50.67,86.24 -50.90,86.13 -51.14,86.02 -51.32,85.84 -51.51,85.66 -51.63,85.44 -51.75,85.21 -51.79,84.95 -51.84,84.70 -51.84,84.70 -51.84,84.70 -51.71,81.98 -51.59,79.26 -51.60,75.87 -51.61,72.48 -51.61,66.69 -51.62,60.91 -51.63,53.87 -51.63,46.83 -51.63,39.05 -51.63,31.26 -51.61,23.89 -51.59,16.53 -51.50,11.22 -51.42,5.90 -51.11,3.18 -50.81,0.46 -49.77,-1.10 -48.72,-2.67 -46.75,-2.83 -44.78,-2.98 -42.18,-2.99 -39.59,-2.99 -35.67,-3.00 -31.75,-3.00 -26.92,-2.98 -22.09,-2.97 -16.17,-2.92 -10.26,-2.86 -7.30,-2.69 -4.34,-2.52 -1.99,-2.12 0.34,-1.71 0.54,-1.64 0.74,-1.58 0.92,-1.46 1.09,-1.35 1.24,-1.20 1.39,-1.05 1.49,-0.87 1.60,-0.69 1.66,-0.48 1.72,-0.28 1.73,-0.07 1.74,0.13 1.69,0.33 1.65,0.54 1.56,0.73 1.47,0.92 1.34,1.09 1.21,1.25 1.04,1.38 0.87,1.50 0.68,1.59 0.49,1.67 0.28,1.70 0.07,1.74 -0.13,1.72 -0.34,1.71 -0.34,1.71 L -0.34,1.71 Z"></path></g><g transform="translate(163.62815737648634 776.2926866824408) rotate(89.99999999999994 50.24539130859284 -45.38293408518061)" stroke="none"><path fill="#e03131" d="M 0,-1.95 Q 0,-1.95 3.72,-1.86 7.45,-1.78 12.76,-1.71 18.08,-1.65 24.53,-1.60 30.98,-1.56 37.91,-1.52 44.85,-1.49 49.20,-1.46 53.54,-1.44 55.85,-1.42 58.17,-1.40 59.62,-1.51 61.06,-1.61 62.15,-1.71 63.23,-1.82 65.44,-1.96 67.65,-2.10 70.02,-3.49 72.40,-4.88 74.44,-7.00 76.49,-9.11 78.94,-11.07 81.39,-13.02 85.13,-17.00 88.87,-20.97 91.40,-24.04 93.94,-27.11 95.43,-29.72 96.93,-32.33 97.55,-34.28 98.16,-36.22 98.43,-38.38 98.70,-40.54 98.77,-42.41 98.85,-44.28 98.79,-45.50 98.74,-46.73 97.28,-48.49 95.82,-50.26 94.04,-52.24 92.27,-54.22 90.20,-55.96 88.12,-57.70 85.37,-59.88 82.61,-62.05 80.56,-63.42 78.50,-64.79 76.62,-66.38 74.73,-67.96 72.18,-69.49 69.63,-71.03 68.34,-72.19 67.05,-73.35 65.89,-73.58 64.72,-73.82 62.61,-75.07 60.49,-76.33 58.63,-77.84 56.78,-79.36 55.16,-80.38 53.53,-81.40 52.25,-82.29 50.96,-83.18 49.22,-84.34 47.48,-85.49 46.99,-87.78 46.51,-90.07 46.53,-90.42 46.56,-90.77 46.69,-91.09 46.82,-91.41 47.05,-91.68 47.28,-91.94 47.59,-92.12 47.89,-92.30 48.23,-92.37 48.58,-92.44 48.93,-92.40 49.27,-92.35 49.59,-92.20 49.91,-92.05 50.16,-91.81 50.41,-91.56 50.57,-91.25 50.73,-90.94 50.78,-90.59 50.83,-90.24 50.77,-89.90 50.71,-89.55 50.54,-89.25 50.37,-88.94 50.12,-88.70 49.86,-88.46 49.54,-88.32 49.22,-88.18 48.87,-88.14 48.52,-88.11 48.18,-88.19 47.84,-88.27 47.54,-88.45 47.24,-88.64 47.02,-88.91 46.79,-89.18 46.67,-89.51 46.54,-89.83 46.53,-90.18 46.51,-90.53 46.61,-90.87 46.71,-91.21 46.91,-91.50 47.11,-91.78 47.39,-91.99 47.68,-92.20 48.01,-92.31 48.34,-92.42 48.69,-92.41 49.05,-92.41 49.38,-92.29 49.71,-92.17 49.98,-91.96 50.26,-91.74 50.45,-91.45 50.65,-91.16 50.73,-90.82 50.82,-90.48 50.82,-90.48 50.82,-90.48 50.87,-88.72 50.92,-86.96 51.97,-86.43 53.02,-85.90 54.10,-84.95 55.18,-84.00 56.94,-82.88 58.69,-81.77 60.40,-80.46 62.10,-79.14 63.98,-78.12 65.86,-77.10 67.51,-76.37 69.17,-75.64 70.12,-74.53 71.08,-73.42 73.82,-71.79 76.55,-70.17 78.33,-68.72 80.12,-67.27 82.30,-65.88 84.49,-64.49 87.33,-62.36 90.16,-60.23 92.48,-58.43 94.79,-56.62 96.77,-54.65 98.74,-52.68 99.99,-51.10 101.24,-49.53 101.66,-48.14 102.08,-46.74 101.93,-45.42 101.77,-44.09 101.61,-42.15 101.45,-40.21 101.16,-37.80 100.87,-35.38 100.17,-33.15 99.47,-30.91 97.88,-28.06 96.28,-25.21 93.74,-22.02 91.19,-18.82 87.36,-14.63 83.54,-10.44 81.34,-8.54 79.15,-6.64 76.83,-4.07 74.52,-1.50 72.62,-0.19 70.72,1.11 69.26,1.60 67.81,2.10 65.52,1.96 63.23,1.82 62.15,1.71 61.06,1.61 59.62,1.51 58.17,1.40 55.85,1.42 53.54,1.44 49.20,1.46 44.85,1.49 37.91,1.52 30.98,1.56 24.53,1.60 18.08,1.65 12.76,1.71 7.45,1.78 3.72,1.86 0,1.95 -0.23,1.92 -0.46,1.89 -0.68,1.81 -0.90,1.73 -1.10,1.59 -1.29,1.46 -1.45,1.28 -1.60,1.11 -1.71,0.90 -1.82,0.69 -1.88,0.46 -1.94,0.23 -1.94,-0.00 -1.94,-0.23 -1.88,-0.46 -1.82,-0.69 -1.71,-0.90 -1.60,-1.11 -1.45,-1.28 -1.29,-1.46 -1.10,-1.59 -0.90,-1.73 -0.68,-1.81 -0.46,-1.89 -0.23,-1.92 0.00,-1.95 0.00,-1.95 L 0,-1.95 Z"></path></g><g stroke-linecap="round" transform="translate(49.29305718379328 234.53175533596334) rotate(0 20.34819032732139 20.348190327321674)"><path d="M5 7 C5 7, 5 7, 5 7 M5 7 C5 7, 5 7, 5 7 M1.46 17.17 C4.29 13.91, 7.12 10.65, 14.58 2.07 M1.46 17.17 C4.29 13.9, 7.13 10.64, 14.58 2.07 M0.54 24.32 C8.46 15.2, 16.39 6.09, 20.88 0.92 M0.54 24.32 C4.64 19.6, 8.75 14.87, 20.88 0.92 M2.25 28.45 C8.31 21.48, 14.37 14.51, 25.21 2.04 M2.25 28.45 C7.73 22.14, 13.22 15.83, 25.21 2.04 M4.61 31.83 C10.36 25.22, 16.1 18.61, 29.54 3.15 M4.61 31.83 C14.07 20.94, 23.54 10.06, 29.54 3.15 M6.97 35.21 C14.64 26.39, 22.31 17.56, 33.21 5.02 M6.97 35.21 C12.98 28.3, 18.99 21.38, 33.21 5.02 M9.99 37.83 C15.51 31.49, 21.02 25.14, 36.23 7.65 M9.99 37.83 C16.51 30.34, 23.02 22.84, 36.23 7.65 M13.67 39.7 C22.4 29.66, 31.13 19.61, 38.6 11.03 M13.67 39.7 C22.58 29.45, 31.49 19.2, 38.6 11.03 M18 40.82 C23.29 34.73, 28.59 28.63, 40.96 14.4 M18 40.82 C23.48 34.51, 28.97 28.19, 40.96 14.4 M22.33 41.93 C29.08 34.16, 35.84 26.39, 40.7 20.8 M22.33 41.93 C28.58 34.74, 34.83 27.55, 40.7 20.8 M30.59 38.52 C32.65 36.16, 34.71 33.79, 39.78 27.95 M30.59 38.52 C34.07 34.53, 37.54 30.53, 39.78 27.95" stroke="#ffc9c9" stroke-width="0.5" fill="none"></path><path d="M40.7 20.35 C40.7 21.53, 40.59 22.72, 40.39 23.88 C40.18 25.04, 39.87 26.2, 39.47 27.31 C39.07 28.41, 38.56 29.5, 37.97 30.52 C37.38 31.54, 36.69 32.53, 35.94 33.43 C35.18 34.33, 34.33 35.18, 33.43 35.94 C32.53 36.69, 31.54 37.38, 30.52 37.97 C29.5 38.56, 28.41 39.07, 27.31 39.47 C26.2 39.87, 25.04 40.18, 23.88 40.39 C22.72 40.59, 21.53 40.7, 20.35 40.7 C19.17 40.7, 17.97 40.59, 16.81 40.39 C15.65 40.18, 14.5 39.87, 13.39 39.47 C12.28 39.07, 11.19 38.56, 10.17 37.97 C9.15 37.38, 8.17 36.69, 7.27 35.94 C6.37 35.18, 5.52 34.33, 4.76 33.43 C4 32.53, 3.32 31.54, 2.73 30.52 C2.14 29.5, 1.63 28.41, 1.23 27.31 C0.82 26.2, 0.51 25.04, 0.31 23.88 C0.1 22.72, 0 21.53, 0 20.35 C0 19.17, 0.1 17.97, 0.31 16.81 C0.51 15.65, 0.82 14.5, 1.23 13.39 C1.63 12.28, 2.14 11.19, 2.73 10.17 C3.32 9.15, 4 8.17, 4.76 7.27 C5.52 6.37, 6.37 5.52, 7.27 4.76 C8.17 4, 9.15 3.32, 10.17 2.73 C11.19 2.14, 12.28 1.63, 13.39 1.23 C14.5 0.82, 15.65 0.51, 16.81 0.31 C17.97 0.1, 19.17 0, 20.35 0 C21.53 0, 22.72 0.1, 23.88 0.31 C25.04 0.51, 26.2 0.82, 27.31 1.23 C28.41 1.63, 29.5 2.14, 30.52 2.73 C31.54 3.32, 32.53 4, 33.43 4.76 C34.33 5.52, 35.18 6.37, 35.94 7.27 C36.69 8.17, 37.38 9.15, 37.97 10.17 C38.56 11.19, 39.07 12.28, 39.47 13.39 C39.87 14.5, 40.18 15.65, 40.39 16.81 C40.59 17.97, 40.64 19.76, 40.7 20.35 C40.75 20.94, 40.75 19.76, 40.7 20.35" stroke="#e03131" stroke-width="1" fill="none"></path></g><g stroke-linecap="round"><g transform="translate(46.48641024209246 256.98493086955966) rotate(0 49.81798321516817 211.9018440983155)"><path d="M0 0 C-13.19 0, -26.38 0, -36.49 0 M0 0 C-10.5 0, -21 0, -36.49 0 M-36.49 0 C-36.49 115.78, -36.49 231.57, -36.49 362.06 M-36.49 0 C-36.49 143.47, -36.49 286.94, -36.49 362.06 M-36.49 362.06 C-0.87 362.06, 34.74 362.06, 136.12 362.06 M-36.49 362.06 C30.74 362.06, 97.97 362.06, 136.12 362.06 M136.12 362.06 C136.12 385.21, 136.12 408.36, 136.12 423.8 M136.12 362.06 C136.12 376.8, 136.12 391.55, 136.12 423.8" stroke="#e03131" stroke-width="1" fill="none"></path></g><g transform="translate(46.48641024209246 256.98493086955966) rotate(0 49.81798321516817 211.9018440983155)"><path d="M125.86 395.61 C129.57 405.8, 133.28 416, 136.12 423.8 M125.86 395.61 C128.81 403.73, 131.77 411.84, 136.12 423.8" stroke="#e03131" stroke-width="1" fill="none"></path></g><g transform="translate(46.48641024209246 256.98493086955966) rotate(0 49.81798321516817 211.9018440983155)"><path d="M146.38 395.61 C142.67 405.8, 138.96 416, 136.12 423.8 M146.38 395.61 C143.43 403.73, 140.48 411.84, 136.12 423.8" stroke="#e03131" stroke-width="1" fill="none"></path></g></g><mask></mask><g stroke-linecap="round" transform="translate(108.2326429594832 240.14504921936236) rotate(0 97.53098122405845 14.03323470849773)"><path d="M0 0 C0 0, 0 0, 0 0 M0 0 C0 0, 0 0, 0 0 M-0.26 6.4 C0.9 5.06, 2.06 3.73, 4.99 0.36 M-0.26 6.4 C1.65 4.2, 3.56 2, 4.99 0.36 M0.13 12.04 C3.51 8.16, 6.89 4.27, 10.63 -0.03 M0.13 12.04 C2.37 9.46, 4.61 6.89, 10.63 -0.03 M-0.13 18.44 C3.11 14.72, 6.34 11, 15.62 0.33 M-0.13 18.44 C5.93 11.47, 11.99 4.5, 15.62 0.33 M0.27 24.08 C7.92 15.28, 15.58 6.47, 21.26 -0.07 M0.27 24.08 C7.65 15.59, 15.03 7.09, 21.26 -0.07 M1.32 28.97 C9.99 18.99, 18.67 9.01, 26.25 0.29 M1.32 28.97 C11.11 17.7, 20.91 6.43, 26.25 0.29 M6.3 29.33 C15.59 18.65, 24.88 7.96, 31.89 -0.1 M6.3 29.33 C14.97 19.36, 23.63 9.4, 31.89 -0.1 M11.95 28.94 C21.41 18.05, 30.87 7.16, 36.88 0.26 M11.95 28.94 C17.38 22.68, 22.82 16.43, 36.88 0.26 M16.93 29.3 C25.45 19.49, 33.97 9.69, 42.52 -0.14 M16.93 29.3 C22.2 23.23, 27.48 17.17, 42.52 -0.14 M22.58 28.9 C28.23 22.4, 33.88 15.89, 47.51 0.22 M22.58 28.9 C29.3 21.17, 36.02 13.44, 47.51 0.22 M27.56 29.26 C36.17 19.36, 44.77 9.47, 53.15 -0.17 M27.56 29.26 C35.63 19.98, 43.7 10.7, 53.15 -0.17 M33.21 28.87 C40.97 19.94, 48.73 11.01, 58.14 0.19 M33.21 28.87 C39.09 22.1, 44.98 15.33, 58.14 0.19 M38.19 29.23 C47.91 18.05, 57.62 6.88, 63.78 -0.21 M38.19 29.23 C44.79 21.64, 51.38 14.06, 63.78 -0.21 M43.84 28.83 C50.07 21.66, 56.3 14.49, 68.77 0.15 M43.84 28.83 C53.46 17.76, 63.09 6.68, 68.77 0.15 M48.82 29.19 C56.89 19.91, 64.96 10.64, 74.41 -0.24 M48.82 29.19 C57.89 18.77, 66.95 8.34, 74.41 -0.24 M54.47 28.8 C63.33 18.61, 72.18 8.42, 79.4 0.12 M54.47 28.8 C61.15 21.11, 67.84 13.42, 79.4 0.12 M59.45 29.16 C68.17 19.13, 76.88 9.11, 85.04 -0.28 M59.45 29.16 C68.54 18.7, 77.63 8.25, 85.04 -0.28 M65.1 28.76 C73.45 19.16, 81.8 9.55, 90.03 0.08 M65.1 28.76 C70.33 22.75, 75.56 16.73, 90.03 0.08 M70.08 29.12 C77.72 20.34, 85.36 11.55, 95.67 -0.31 M70.08 29.12 C78.81 19.09, 87.53 9.05, 95.67 -0.31 M75.07 29.48 C85.09 17.95, 95.12 6.43, 100.66 0.05 M75.07 29.48 C80.67 23.04, 86.27 16.6, 100.66 0.05 M80.71 29.09 C90.37 17.99, 100.02 6.88, 106.3 -0.34 M80.71 29.09 C86.38 22.57, 92.05 16.05, 106.3 -0.34 M85.7 29.45 C93.99 19.91, 102.28 10.38, 111.29 0.02 M85.7 29.45 C92.93 21.14, 100.16 12.82, 111.29 0.02 M91.34 29.05 C96.58 23.03, 101.81 17.01, 116.27 0.38 M91.34 29.05 C97.24 22.27, 103.14 15.49, 116.27 0.38 M96.33 29.41 C102.09 22.78, 107.86 16.16, 121.92 -0.02 M96.33 29.41 C103.18 21.54, 110.03 13.66, 121.92 -0.02 M101.97 29.02 C111.33 18.25, 120.69 7.49, 126.91 0.34 M101.97 29.02 C108.34 21.7, 114.7 14.38, 126.91 0.34 M106.96 29.38 C116.8 18.06, 126.64 6.75, 132.55 -0.05 M106.96 29.38 C112.62 22.87, 118.27 16.37, 132.55 -0.05 M112.6 28.99 C120.03 20.44, 127.46 11.9, 137.54 0.31 M112.6 28.99 C119.5 21.05, 126.39 13.12, 137.54 0.31 M117.59 29.35 C127.46 17.99, 137.34 6.63, 143.18 -0.09 M117.59 29.35 C124.48 21.43, 131.36 13.51, 143.18 -0.09 M123.23 28.95 C131.87 19.01, 140.51 9.08, 148.17 0.27 M123.23 28.95 C131.44 19.51, 139.65 10.07, 148.17 0.27 M128.22 29.31 C133.57 23.16, 138.91 17.02, 153.81 -0.12 M128.22 29.31 C136.35 19.96, 144.48 10.61, 153.81 -0.12 M133.87 28.92 C142.24 19.28, 150.62 9.64, 158.8 0.24 M133.87 28.92 C143.13 18.26, 152.4 7.59, 158.8 0.24 M138.85 29.28 C147.25 19.61, 155.66 9.95, 164.44 -0.16 M138.85 29.28 C147.87 18.9, 156.89 8.52, 164.44 -0.16 M144.5 28.88 C150.14 22.39, 155.79 15.89, 169.43 0.2 M144.5 28.88 C154.27 17.64, 164.04 6.4, 169.43 0.2 M149.48 29.24 C154.97 22.93, 160.46 16.61, 175.07 -0.19 M149.48 29.24 C158.16 19.26, 166.84 9.27, 175.07 -0.19 M155.13 28.85 C160.69 22.45, 166.25 16.05, 180.06 0.17 M155.13 28.85 C162.8 20.02, 170.47 11.19, 180.06 0.17 M160.11 29.21 C166.07 22.36, 172.02 15.51, 185.7 -0.23 M160.11 29.21 C168.37 19.71, 176.63 10.21, 185.7 -0.23 M165.76 28.81 C172.65 20.88, 179.55 12.95, 190.69 0.13 M165.76 28.81 C172.4 21.16, 179.05 13.52, 190.69 0.13 M170.74 29.17 C179.31 19.31, 187.89 9.45, 195.67 0.49 M170.74 29.17 C178.91 19.77, 187.08 10.37, 195.67 0.49 M176.39 28.78 C183.67 20.4, 190.95 12.02, 195.41 6.89 M176.39 28.78 C182.96 21.21, 189.54 13.65, 195.41 6.89 M181.37 29.14 C184.31 25.75, 187.26 22.37, 195.81 12.53 M181.37 29.14 C185.11 24.84, 188.85 20.54, 195.81 12.53 M187.02 28.74 C189.43 25.97, 191.84 23.19, 195.54 18.93 M187.02 28.74 C189.16 26.28, 191.31 23.81, 195.54 18.93 M192 29.1 C193.04 27.91, 194.08 26.71, 195.94 24.58 M192 29.1 C192.79 28.2, 193.58 27.29, 195.94 24.58" stroke="#ffc9c9" stroke-width="0.5" fill="none"></path><path d="M0 0 C66.96 0, 133.92 0, 195.06 0 M0 0 C42.46 0, 84.93 0, 195.06 0 M195.06 0 C195.06 10.63, 195.06 21.26, 195.06 28.07 M195.06 0 C195.06 7.48, 195.06 14.97, 195.06 28.07 M195.06 28.07 C143.56 28.07, 92.05 28.07, 0 28.07 M195.06 28.07 C155.26 28.07, 115.46 28.07, 0 28.07 M0 28.07 C0 17.99, 0 7.92, 0 0 M0 28.07 C0 17.36, 0 6.65, 0 0" stroke="#e03131" stroke-width="1" fill="none"></path></g><g stroke-linecap="round" transform="translate(335.5710452371477 241.54837269021232) rotate(0 168.39881650197276 14.03323470849773)"><path d="M0 0 C0 0, 0 0, 0 0 M0 0 C0 0, 0 0, 0 0 M-0.26 6.4 C0.79 5.18, 1.85 3.97, 4.99 0.36 M-0.26 6.4 C1.21 4.7, 2.68 3.01, 4.99 0.36 M0.13 12.04 C2.36 9.47, 4.6 6.91, 10.63 -0.03 M0.13 12.04 C3.23 8.47, 6.33 4.91, 10.63 -0.03 M-0.13 18.44 C3.59 14.16, 7.31 9.88, 15.62 0.33 M-0.13 18.44 C5.86 11.55, 11.84 4.67, 15.62 0.33 M0.27 24.08 C8.16 15, 16.06 5.92, 21.26 -0.07 M0.27 24.08 C8.16 15, 16.06 5.92, 21.26 -0.07 M1.32 28.97 C8.82 20.34, 16.33 11.7, 26.25 0.29 M1.32 28.97 C9.07 20.05, 16.83 11.13, 26.25 0.29 M6.3 29.33 C11.86 22.94, 17.42 16.55, 31.89 -0.1 M6.3 29.33 C13.4 21.17, 20.49 13.01, 31.89 -0.1 M11.95 28.94 C20.4 19.21, 28.86 9.48, 36.88 0.26 M11.95 28.94 C17.17 22.92, 22.4 16.91, 36.88 0.26 M16.93 29.3 C23.66 21.55, 30.39 13.81, 42.52 -0.14 M16.93 29.3 C26.25 18.58, 35.57 7.86, 42.52 -0.14 M22.58 28.9 C28.48 22.11, 34.38 15.32, 47.51 0.22 M22.58 28.9 C29.94 20.44, 37.29 11.97, 47.51 0.22 M27.56 29.26 C36.09 19.45, 44.62 9.65, 53.15 -0.17 M27.56 29.26 C36.13 19.41, 44.69 9.56, 53.15 -0.17 M33.21 28.87 C41.23 19.64, 49.24 10.42, 58.14 0.19 M33.21 28.87 C42.42 18.27, 51.63 7.68, 58.14 0.19 M38.19 29.23 C44.32 22.18, 50.45 15.13, 63.78 -0.21 M38.19 29.23 C46.38 19.81, 54.56 10.4, 63.78 -0.21 M43.84 28.83 C50.43 21.25, 57.01 13.68, 68.77 0.15 M43.84 28.83 C51.75 19.73, 59.66 10.63, 68.77 0.15 M48.82 29.19 C56.13 20.79, 63.44 12.38, 74.41 -0.24 M48.82 29.19 C58.63 17.91, 68.44 6.63, 74.41 -0.24 M54.47 28.8 C63.87 17.98, 73.27 7.17, 79.4 0.12 M54.47 28.8 C59.61 22.88, 64.76 16.96, 79.4 0.12 M59.45 29.16 C68.86 18.33, 78.27 7.51, 85.04 -0.28 M59.45 29.16 C65.12 22.64, 70.79 16.12, 85.04 -0.28 M65.1 28.76 C72.94 19.74, 80.79 10.72, 90.03 0.08 M65.1 28.76 C74.75 17.66, 84.4 6.56, 90.03 0.08 M70.08 29.12 C77.1 21.05, 84.11 12.99, 95.67 -0.31 M70.08 29.12 C76.84 21.35, 83.59 13.58, 95.67 -0.31 M75.07 29.48 C84.64 18.48, 94.21 7.47, 100.66 0.05 M75.07 29.48 C85.12 17.92, 95.17 6.36, 100.66 0.05 M80.71 29.09 C90.57 17.75, 100.42 6.41, 106.3 -0.34 M80.71 29.09 C90.25 18.12, 99.78 7.15, 106.3 -0.34 M85.7 29.45 C95.78 17.85, 105.86 6.26, 111.29 0.02 M85.7 29.45 C91.82 22.41, 97.94 15.37, 111.29 0.02 M91.34 29.05 C100.66 18.34, 109.97 7.63, 116.27 0.38 M91.34 29.05 C99.89 19.23, 108.43 9.41, 116.27 0.38 M96.33 29.41 C102.88 21.88, 109.43 14.35, 121.92 -0.02 M96.33 29.41 C104.66 19.84, 112.99 10.26, 121.92 -0.02 M101.97 29.02 C109.55 20.3, 117.13 11.58, 126.91 0.34 M101.97 29.02 C107 23.24, 112.02 17.46, 126.91 0.34 M106.96 29.38 C116.77 18.1, 126.58 6.82, 132.55 -0.05 M106.96 29.38 C115.48 19.58, 124.01 9.77, 132.55 -0.05 M112.6 28.99 C120.92 19.42, 129.24 9.85, 137.54 0.31 M112.6 28.99 C120.33 20.1, 128.06 11.21, 137.54 0.31 M117.59 29.35 C123.77 22.23, 129.95 15.12, 143.18 -0.09 M117.59 29.35 C125.95 19.73, 134.3 10.12, 143.18 -0.09 M123.23 28.95 C128.51 22.88, 133.79 16.81, 148.17 0.27 M123.23 28.95 C129.75 21.46, 136.26 13.97, 148.17 0.27 M128.22 29.31 C134.33 22.29, 140.43 15.26, 153.81 -0.12 M128.22 29.31 C134.7 21.86, 141.18 14.4, 153.81 -0.12 M133.87 28.92 C143.32 18.04, 152.78 7.16, 158.8 0.24 M133.87 28.92 C143.38 17.97, 152.9 7.02, 158.8 0.24 M138.85 29.28 C144.59 22.67, 150.34 16.06, 164.44 -0.16 M138.85 29.28 C145.08 22.12, 151.3 14.96, 164.44 -0.16 M144.5 28.88 C151.23 21.13, 157.97 13.38, 169.43 0.2 M144.5 28.88 C150.24 22.28, 155.98 15.67, 169.43 0.2 M149.48 29.24 C159.49 17.73, 169.5 6.22, 175.07 -0.19 M149.48 29.24 C157.4 20.13, 165.32 11.03, 175.07 -0.19 M155.13 28.85 C160.37 22.81, 165.61 16.78, 180.06 0.17 M155.13 28.85 C162.58 20.27, 170.03 11.7, 180.06 0.17 M160.11 29.21 C169.66 18.23, 179.2 7.25, 185.7 -0.23 M160.11 29.21 C166.45 21.92, 172.78 14.64, 185.7 -0.23 M165.76 28.81 C173.67 19.71, 181.58 10.61, 190.69 0.13 M165.76 28.81 C173.54 19.86, 181.32 10.91, 190.69 0.13 M170.74 29.17 C179.61 18.97, 188.48 8.76, 196.33 -0.26 M170.74 29.17 C179.34 19.28, 187.94 9.39, 196.33 -0.26 M176.39 28.78 C181.41 23, 186.43 17.22, 201.32 0.1 M176.39 28.78 C184.55 19.39, 192.71 10, 201.32 0.1 M181.37 29.14 C189.84 19.4, 198.31 9.66, 206.96 -0.3 M181.37 29.14 C187.42 22.18, 193.47 15.22, 206.96 -0.3 M187.02 28.74 C193.62 21.14, 200.23 13.54, 211.95 0.06 M187.02 28.74 C192.87 22.01, 198.72 15.27, 211.95 0.06 M192 29.1 C199.33 20.67, 206.67 12.24, 217.59 -0.33 M192 29.1 C199.49 20.49, 206.99 11.87, 217.59 -0.33 M196.99 29.46 C202.17 23.5, 207.36 17.54, 222.58 0.03 M196.99 29.46 C203.58 21.88, 210.18 14.29, 222.58 0.03 M202.63 29.07 C208.18 22.69, 213.72 16.31, 228.22 -0.36 M202.63 29.07 C208.57 22.24, 214.51 15.41, 228.22 -0.36 M207.62 29.43 C215.31 20.58, 223.01 11.73, 233.21 0 M207.62 29.43 C214.06 22.02, 220.51 14.6, 233.21 0 M213.26 29.03 C219.91 21.39, 226.56 13.74, 238.19 0.36 M213.26 29.03 C219.85 21.46, 226.43 13.88, 238.19 0.36 M218.25 29.4 C226.91 19.44, 235.57 9.48, 243.84 -0.04 M218.25 29.4 C223.52 23.33, 228.79 17.27, 243.84 -0.04 M223.89 29 C229.47 22.58, 235.05 16.16, 248.82 0.32 M223.89 29 C233.41 18.06, 242.92 7.11, 248.82 0.32 M228.88 29.36 C236.21 20.92, 243.55 12.49, 254.47 -0.07 M228.88 29.36 C237.62 19.31, 246.35 9.26, 254.47 -0.07 M234.52 28.97 C239.96 22.71, 245.39 16.46, 259.45 0.29 M234.52 28.97 C241 21.52, 247.47 14.07, 259.45 0.29 M239.51 29.33 C244.85 23.18, 250.19 17.04, 265.1 -0.11 M239.51 29.33 C244.95 23.06, 250.4 16.8, 265.1 -0.11 M245.15 28.93 C250.66 22.59, 256.17 16.26, 270.08 0.25 M245.15 28.93 C254.05 18.7, 262.95 8.46, 270.08 0.25 M250.14 29.29 C259.36 18.69, 268.57 8.09, 275.73 -0.14 M250.14 29.29 C255.44 23.2, 260.73 17.11, 275.73 -0.14 M255.78 28.9 C264.43 18.95, 273.07 9, 280.71 0.22 M255.78 28.9 C261.12 22.76, 266.46 16.62, 280.71 0.22 M260.77 29.26 C268.15 20.77, 275.53 12.27, 286.36 -0.18 M260.77 29.26 C267.01 22.07, 273.26 14.89, 286.36 -0.18 M266.41 28.86 C275.18 18.78, 283.95 8.69, 291.34 0.18 M266.41 28.86 C275.27 18.68, 284.12 8.49, 291.34 0.18 M271.4 29.22 C279.93 19.4, 288.47 9.59, 296.99 -0.21 M271.4 29.22 C278.48 21.08, 285.56 12.93, 296.99 -0.21 M277.04 28.83 C285.37 19.25, 293.7 9.67, 301.97 0.15 M277.04 28.83 C286.69 17.73, 296.33 6.64, 301.97 0.15 M282.03 29.19 C290.41 19.55, 298.78 9.92, 307.62 -0.25 M282.03 29.19 C292.02 17.69, 302.02 6.19, 307.62 -0.25 M287.67 28.79 C293.52 22.07, 299.36 15.35, 312.6 0.11 M287.67 28.79 C295.11 20.23, 302.56 11.67, 312.6 0.11 M292.66 29.15 C300.19 20.5, 307.71 11.84, 318.25 -0.28 M292.66 29.15 C300.44 20.2, 308.22 11.25, 318.25 -0.28 M298.3 28.76 C306.67 19.13, 315.04 9.5, 323.23 0.08 M298.3 28.76 C307.34 18.36, 316.38 7.97, 323.23 0.08 M303.29 29.12 C312.25 18.81, 321.21 8.5, 328.88 -0.31 M303.29 29.12 C310.16 21.22, 317.02 13.32, 328.88 -0.31 M308.28 29.48 C317.56 18.8, 326.84 8.12, 333.86 0.05 M308.28 29.48 C314.26 22.6, 320.25 15.71, 333.86 0.05 M313.92 29.08 C318.88 23.38, 323.84 17.68, 338.19 1.16 M313.92 29.08 C322.84 18.83, 331.75 8.57, 338.19 1.16 M318.91 29.44 C326.19 21.06, 333.48 12.68, 337.93 7.56 M318.91 29.44 C323.68 23.96, 328.44 18.47, 337.93 7.56 M324.55 29.05 C328.09 24.98, 331.63 20.91, 338.33 13.2 M324.55 29.05 C327.55 25.6, 330.55 22.14, 338.33 13.2 M329.54 29.41 C332.14 26.41, 334.75 23.42, 338.07 19.6 M329.54 29.41 C332.38 26.14, 335.22 22.87, 338.07 19.6 M335.18 29.02 C336.17 27.88, 337.16 26.74, 338.46 25.24 M335.18 29.02 C336.07 28, 336.95 26.98, 338.46 25.24" stroke="#a5d8ff" stroke-width="0.5" fill="none"></path><path d="M0 0 C133.59 0, 267.18 0, 336.8 0 M0 0 C72.41 0, 144.82 0, 336.8 0 M336.8 0 C336.8 9.99, 336.8 19.98, 336.8 28.07 M336.8 0 C336.8 6.84, 336.8 13.69, 336.8 28.07 M336.8 28.07 C245.97 28.07, 155.14 28.07, 0 28.07 M336.8 28.07 C202.75 28.07, 68.7 28.07, 0 28.07 M0 28.07 C0 19.81, 0 11.55, 0 0 M0 28.07 C0 20.81, 0 13.55, 0 0" stroke="#1971c2" stroke-width="1" fill="none"></path></g><g stroke-linecap="round" transform="translate(78.76285007163824 10) rotate(0 117.177509815956 27.364807681570596)"><path d="M0 0 C0 0, 0 0, 0 0 M0 0 C0 0, 0 0, 0 0 M-0.26 6.4 C1.1 4.83, 2.46 3.26, 4.99 0.36 M-0.26 6.4 C1.36 4.53, 2.99 2.66, 4.99 0.36 M0.13 12.04 C2.37 9.47, 4.6 6.9, 10.63 -0.03 M0.13 12.04 C2.84 8.92, 5.55 5.81, 10.63 -0.03 M-0.13 18.44 C4.18 13.48, 8.49 8.53, 15.62 0.33 M-0.13 18.44 C4.88 12.68, 9.88 6.93, 15.62 0.33 M0.27 24.08 C4.96 18.68, 9.66 13.28, 21.26 -0.07 M0.27 24.08 C5.04 18.59, 9.82 13.09, 21.26 -0.07 M0 30.48 C5.68 23.95, 11.36 17.42, 26.25 0.29 M0 30.48 C9.61 19.43, 19.21 8.38, 26.25 0.29 M-0.26 36.88 C8.74 26.53, 17.74 16.18, 31.89 -0.1 M-0.26 36.88 C12.53 22.17, 25.31 7.47, 31.89 -0.1 M0.14 42.52 C11.89 29, 23.65 15.47, 36.88 0.26 M0.14 42.52 C8.23 33.21, 16.33 23.9, 36.88 0.26 M-0.12 48.92 C9.41 37.95, 18.95 26.98, 42.52 -0.14 M-0.12 48.92 C8.91 38.53, 17.94 28.14, 42.52 -0.14 M0.27 54.56 C12.63 40.35, 24.98 26.13, 47.51 0.22 M0.27 54.56 C18.07 34.09, 35.86 13.62, 47.51 0.22 M5.26 54.92 C24.04 33.32, 42.82 11.71, 53.15 -0.17 M5.26 54.92 C24.1 33.25, 42.94 11.58, 53.15 -0.17 M10.9 54.53 C23.35 40.2, 35.81 25.87, 58.14 0.19 M10.9 54.53 C27.94 34.93, 44.98 15.32, 58.14 0.19 M15.89 54.89 C31.12 37.36, 46.36 19.84, 63.78 -0.21 M15.89 54.89 C27.63 41.38, 39.37 27.87, 63.78 -0.21 M21.53 54.49 C40.14 33.08, 58.75 11.68, 68.77 0.15 M21.53 54.49 C32.28 42.13, 43.03 29.76, 68.77 0.15 M26.52 54.85 C37.51 42.21, 48.5 29.57, 74.41 -0.24 M26.52 54.85 C43.28 35.57, 60.03 16.3, 74.41 -0.24 M32.16 54.46 C44.71 40.02, 57.26 25.59, 79.4 0.12 M32.16 54.46 C44.55 40.21, 56.94 25.95, 79.4 0.12 M37.15 54.82 C53.89 35.56, 70.63 16.3, 85.04 -0.28 M37.15 54.82 C50.07 39.96, 62.99 25.09, 85.04 -0.28 M42.79 54.42 C58.72 36.1, 74.64 17.78, 90.03 0.08 M42.79 54.42 C55.99 39.24, 69.18 24.06, 90.03 0.08 M47.78 54.78 C66.78 32.92, 85.79 11.06, 95.67 -0.31 M47.78 54.78 C59.6 41.19, 71.41 27.59, 95.67 -0.31 M52.77 55.14 C62.93 43.45, 73.09 31.77, 100.66 0.05 M52.77 55.14 C68.25 37.34, 83.72 19.53, 100.66 0.05 M58.41 54.75 C72.07 39.03, 85.73 23.32, 106.3 -0.34 M58.41 54.75 C72.9 38.08, 87.39 21.41, 106.3 -0.34 M63.4 55.11 C79.67 36.39, 95.94 17.67, 111.29 0.02 M63.4 55.11 C81.01 34.85, 98.62 14.58, 111.29 0.02 M69.04 54.71 C79.62 42.54, 90.2 30.37, 116.27 0.38 M69.04 54.71 C85.02 36.33, 101.01 17.94, 116.27 0.38 M74.03 55.07 C89.08 37.76, 104.13 20.44, 121.92 -0.02 M74.03 55.07 C84.41 43.13, 94.79 31.19, 121.92 -0.02 M79.67 54.68 C89.95 42.85, 100.23 31.02, 126.91 0.34 M79.67 54.68 C90.79 41.89, 101.91 29.09, 126.91 0.34 M84.66 55.04 C102.64 34.36, 120.62 13.67, 132.55 -0.05 M84.66 55.04 C94.41 43.82, 104.16 32.61, 132.55 -0.05 M90.3 54.65 C107.59 34.76, 124.88 14.87, 137.54 0.31 M90.3 54.65 C107.04 35.39, 123.77 16.14, 137.54 0.31 M95.29 55.01 C110.04 38.03, 124.8 21.05, 143.18 -0.09 M95.29 55.01 C109.23 38.96, 123.18 22.91, 143.18 -0.09 M100.93 54.61 C118.13 34.82, 135.33 15.03, 148.17 0.27 M100.93 54.61 C112.05 41.81, 123.18 29.02, 148.17 0.27 M105.92 54.97 C122.33 36.08, 138.75 17.2, 153.81 -0.12 M105.92 54.97 C123.76 34.45, 141.6 13.92, 153.81 -0.12 M111.56 54.58 C121.13 43.57, 130.7 32.56, 158.8 0.24 M111.56 54.58 C125.68 38.33, 139.81 22.08, 158.8 0.24 M116.55 54.94 C128.76 40.89, 140.97 26.85, 164.44 -0.16 M116.55 54.94 C134.26 34.56, 151.97 14.19, 164.44 -0.16 M122.19 54.54 C134.81 40.03, 147.42 25.51, 169.43 0.2 M122.19 54.54 C138.47 35.81, 154.75 17.08, 169.43 0.2 M127.18 54.9 C139.89 40.27, 152.61 25.65, 175.07 -0.19 M127.18 54.9 C143.23 36.43, 159.29 17.96, 175.07 -0.19 M132.82 54.51 C144.1 41.53, 155.37 28.56, 180.06 0.17 M132.82 54.51 C144.72 40.81, 156.63 27.12, 180.06 0.17 M137.81 54.87 C154.12 36.1, 170.44 17.32, 185.7 -0.23 M137.81 54.87 C154.61 35.54, 171.4 16.22, 185.7 -0.23 M143.45 54.47 C162.05 33.07, 180.66 11.67, 190.69 0.13 M143.45 54.47 C156.68 39.25, 169.91 24.04, 190.69 0.13 M148.44 54.83 C162.43 38.74, 176.42 22.64, 196.33 -0.26 M148.44 54.83 C159.34 42.29, 170.25 29.74, 196.33 -0.26 M154.08 54.44 C168.45 37.91, 182.82 21.37, 201.32 0.1 M154.08 54.44 C171.45 34.46, 188.82 14.47, 201.32 0.1 M159.07 54.8 C172.32 39.56, 185.57 24.31, 206.96 -0.3 M159.07 54.8 C168.99 43.38, 178.92 31.96, 206.96 -0.3 M164.05 55.16 C180.19 36.6, 196.32 18.04, 211.95 0.06 M164.05 55.16 C175.24 42.29, 186.42 29.42, 211.95 0.06 M169.7 54.76 C183.89 38.43, 198.09 22.1, 217.59 -0.33 M169.7 54.76 C182.17 40.42, 194.64 26.07, 217.59 -0.33 M174.68 55.12 C191.64 35.62, 208.6 16.11, 222.58 0.03 M174.68 55.12 C187.89 39.93, 201.09 24.74, 222.58 0.03 M180.33 54.73 C194.64 38.26, 208.96 21.79, 228.22 -0.36 M180.33 54.73 C198.89 33.37, 217.46 12.01, 228.22 -0.36 M185.31 55.09 C195.54 43.33, 205.76 31.57, 233.21 0 M185.31 55.09 C198.35 40.1, 211.38 25.1, 233.21 0 M190.96 54.7 C203.67 40.07, 216.39 25.44, 236.88 1.87 M190.96 54.7 C205.62 37.83, 220.28 20.96, 236.88 1.87 M195.94 55.06 C206.85 42.51, 217.75 29.97, 236.62 8.26 M195.94 55.06 C207.35 41.93, 218.76 28.81, 236.62 8.26 M201.59 54.66 C214.64 39.64, 227.7 24.62, 237.01 13.91 M201.59 54.66 C209.21 45.89, 216.83 37.12, 237.01 13.91 M206.57 55.02 C214.6 45.78, 222.63 36.55, 236.75 20.3 M206.57 55.02 C216.77 43.29, 226.97 31.56, 236.75 20.3 M212.22 54.63 C220.89 44.65, 229.56 34.67, 236.49 26.7 M212.22 54.63 C221.08 44.44, 229.93 34.24, 236.49 26.7 M217.2 54.99 C222.15 49.3, 227.09 43.62, 236.89 32.34 M217.2 54.99 C224.32 46.8, 231.43 38.62, 236.89 32.34 M222.85 54.59 C227.97 48.7, 233.09 42.81, 236.62 38.74 M222.85 54.59 C226.81 50.03, 230.78 45.46, 236.62 38.74 M227.83 54.95 C230.24 52.18, 232.65 49.41, 237.02 44.39 M227.83 54.95 C230.11 52.33, 232.38 49.72, 237.02 44.39 M233.48 54.56 C234.74 53.1, 236.01 51.64, 236.76 50.78 M233.48 54.56 C234.24 53.68, 235.01 52.8, 236.76 50.78" stroke="#ffc9c9" stroke-width="0.5" fill="none"></path><path d="M0 0 C85.02 0, 170.04 0, 234.36 0 M0 0 C50.1 0, 100.19 0, 234.36 0 M234.36 0 C234.36 17.4, 234.36 34.8, 234.36 54.73 M234.36 0 C234.36 21.73, 234.36 43.45, 234.36 54.73 M234.36 54.73 C179.01 54.73, 123.67 54.73, 0 54.73 M234.36 54.73 C153.36 54.73, 72.37 54.73, 0 54.73 M0 54.73 C0 38.96, 0 23.18, 0 0 M0 54.73 C0 43.51, 0 32.29, 0 0" stroke="#e03131" stroke-width="1" fill="none"></path></g><g stroke-linecap="round" transform="translate(206.46528591896458 579.749329165008) rotate(0 32.27643982954487 33)"><path d="M64.55 33 C64.55 34.72, 64.42 36.46, 64.16 38.16 C63.89 39.86, 63.49 41.56, 62.97 43.2 C62.45 44.83, 61.8 46.45, 61.03 47.98 C60.27 49.51, 59.38 51, 58.39 52.4 C57.4 53.79, 56.29 55.12, 55.1 56.33 C53.91 57.55, 52.61 58.69, 51.25 59.7 C49.89 60.71, 48.43 61.62, 46.93 62.4 C45.43 63.18, 43.85 63.85, 42.25 64.38 C40.65 64.92, 38.99 65.32, 37.33 65.59 C35.66 65.86, 33.96 66, 32.28 66 C30.59 66, 28.89 65.86, 27.23 65.59 C25.56 65.32, 23.9 64.92, 22.3 64.38 C20.7 63.85, 19.12 63.18, 17.62 62.4 C16.12 61.62, 14.67 60.71, 13.3 59.7 C11.94 58.69, 10.64 57.55, 9.45 56.33 C8.26 55.12, 7.15 53.79, 6.16 52.4 C5.17 51, 4.28 49.51, 3.52 47.98 C2.75 46.45, 2.1 44.83, 1.58 43.2 C1.06 41.56, 0.66 39.86, 0.4 38.16 C0.13 36.46, 0 34.72, 0 33 C0 31.28, 0.13 29.54, 0.4 27.84 C0.66 26.14, 1.06 24.44, 1.58 22.8 C2.1 21.17, 2.75 19.55, 3.52 18.02 C4.28 16.49, 5.17 15, 6.16 13.6 C7.15 12.21, 8.26 10.88, 9.45 9.67 C10.64 8.45, 11.94 7.31, 13.3 6.3 C14.67 5.29, 16.12 4.38, 17.62 3.6 C19.12 2.82, 20.7 2.15, 22.3 1.62 C23.9 1.08, 25.56 0.68, 27.23 0.41 C28.89 0.14, 30.59 0, 32.28 0 C33.96 0, 35.66 0.14, 37.33 0.41 C38.99 0.68, 40.65 1.08, 42.25 1.62 C43.85 2.15, 45.43 2.82, 46.93 3.6 C48.43 4.38, 49.89 5.29, 51.25 6.3 C52.61 7.31, 53.91 8.45, 55.1 9.67 C56.29 10.88, 57.4 12.21, 58.39 13.6 C59.38 15, 60.27 16.49, 61.03 18.02 C61.8 19.55, 62.45 21.17, 62.97 22.8 C63.49 24.44, 63.89 26.14, 64.16 27.84 C64.42 29.54, 64.49 32.14, 64.55 33 C64.62 33.86, 64.62 32.14, 64.55 33" stroke="#e03131" stroke-width="4" fill="none"></path></g><g transform="translate(229.91883627247807 594.5057144767611) rotate(0 9 18.409090909090878)"><text x="9" y="0" font-family="Virgil, Segoe UI Emoji" font-size="29.454545454545446px" fill="#e03131" text-anchor="middle" style="white-space: pre;" direction="ltr" dominant-baseline="text-before-edge">=</text></g><g stroke-linecap="round"><g transform="translate(235.93507880681136 268.21151863635805) rotate(0 0 150.85727311635037)"><path d="M0 0 C0 75.49, 0 150.99, 0 301.71 M0 0 C0 70.67, 0 141.33, 0 301.71" stroke="#e03131" stroke-width="1" fill="none"></path></g><g transform="translate(235.93507880681136 268.21151863635805) rotate(0 0 150.85727311635037)"><path d="M-10.26 273.52 C-7.69 280.58, -5.13 287.63, 0 301.71 M-10.26 273.52 C-7.86 280.13, -5.45 286.73, 0 301.71" stroke="#e03131" stroke-width="1" fill="none"></path></g><g transform="translate(235.93507880681136 268.21151863635805) rotate(0 0 150.85727311635037)"><path d="M10.26 273.52 C7.69 280.58, 5.13 287.63, 0 301.71 M10.26 273.52 C7.86 280.13, 5.45 286.73, 0 301.71" stroke="#e03131" stroke-width="1" fill="none"></path></g></g><mask></mask><g stroke-linecap="round"><g transform="translate(266.8081951655058 67.53626230484065) rotate(0 47.7129980088921 271.54309160943075)"><path d="M0 0 C0 23.86, 0 47.72, 0 91.22 M0 0 C0 34.36, 0 68.72, 0 91.22 M0 91.22 C37.42 91.22, 74.84 91.22, 95.43 91.22 M0 91.22 C37.54 91.22, 75.07 91.22, 95.43 91.22 M95.43 91.22 C95.43 210.35, 95.43 329.48, 95.43 543.09 M95.43 91.22 C95.43 254.21, 95.43 417.21, 95.43 543.09 M95.43 543.09 C66.86 543.09, 38.29 543.09, 5.61 543.09 M95.43 543.09 C73.4 543.09, 51.38 543.09, 5.61 543.09" stroke="#e03131" stroke-width="1" fill="none"></path></g><g transform="translate(266.8081951655058 67.53626230484065) rotate(0 47.7129980088921 271.54309160943075)"><path d="M33.8 532.83 C26.43 535.51, 19.06 538.19, 5.61 543.09 M33.8 532.83 C23.18 536.69, 12.56 540.56, 5.61 543.09" stroke="#e03131" stroke-width="1" fill="none"></path></g><g transform="translate(266.8081951655058 67.53626230484065) rotate(0 47.7129980088921 271.54309160943075)"><path d="M33.8 553.35 C26.43 550.66, 19.06 547.98, 5.61 543.09 M33.8 553.35 C23.18 549.48, 12.56 545.62, 5.61 543.09" stroke="#e03131" stroke-width="1" fill="none"></path></g></g><mask></mask><g stroke-linecap="round"><g transform="translate(240.14504921935986 647.1088557657962) rotate(0 0 16.839881650197242)"><path d="M0 0 C0 9.67, 0 19.34, 0 33.68 M0 0 C0 12, 0 24, 0 33.68" stroke="#e03131" stroke-width="1" fill="none"></path></g><g transform="translate(240.14504921935986 647.1088557657962) rotate(0 0 16.839881650197242)"><path d="M-5.76 17.86 C-4.11 22.4, -2.45 26.94, 0 33.68 M-5.76 17.86 C-3.71 23.49, -1.65 29.13, 0 33.68" stroke="#e03131" stroke-width="1" fill="none"></path></g><g transform="translate(240.14504921935986 647.1088557657962) rotate(0 0 16.839881650197242)"><path d="M5.76 17.86 C4.11 22.4, 2.45 26.94, 0 33.68 M5.76 17.86 C3.71 23.49, 1.65 29.13, 0 33.68" stroke="#e03131" stroke-width="1" fill="none"></path></g></g><mask></mask><g stroke-linecap="round"><g transform="translate(213.4819032732139 781.8279089673742) rotate(0 0 59.64124751111521)"><path d="M0 0 C0 41.76, 0 83.52, 0 119.28 M0 0 C0 42.11, 0 84.22, 0 119.28" stroke="#e03131" stroke-width="1" fill="none"></path></g><g transform="translate(213.4819032732139 781.8279089673742) rotate(0 0 59.64124751111521)"><path d="M-10.26 91.09 C-6.67 100.96, -3.08 110.83, 0 119.28 M-10.26 91.09 C-6.64 101.04, -3.02 111, 0 119.28" stroke="#e03131" stroke-width="1" fill="none"></path></g><g transform="translate(213.4819032732139 781.8279089673742) rotate(0 0 59.64124751111521)"><path d="M10.26 91.09 C6.67 100.96, 3.08 110.83, 0 119.28 M10.26 91.09 C6.64 101.04, 3.02 111, 0 119.28" stroke="#e03131" stroke-width="1" fill="none"></path></g></g><mask></mask><g transform="translate(228.91846145256204 809.8943783843696) rotate(0 29 18.94486685647192)"><text x="0" y="0" font-family="Virgil, Segoe UI Emoji" font-size="30.311786970355058px" fill="#e03131" text-anchor="start" style="white-space: pre;" direction="ltr" dominant-baseline="text-before-edge">HIT</text></g><g transform="translate(471.69342190957286 74.55287965908929) rotate(0 40.5 18.94486685647189)"><text x="0" y="0" font-family="Virgil, Segoe UI Emoji" font-size="30.311786970355058px" fill="#1971c2" text-anchor="start" style="white-space: pre;" direction="ltr" dominant-baseline="text-before-edge">Data</text></g><g stroke-linecap="round"><g transform="translate(507.6840411212452 113.84593684288302) rotate(0 0 54.0279536277161)"><path d="M0 0 C0 39.72, 0 79.44, 0 108.06 M0 0 C0 30.06, 0 60.13, 0 108.06" stroke="#1971c2" stroke-width="1" fill="none"></path></g><g transform="translate(507.6840411212452 113.84593684288302) rotate(0 0 54.0279536277161)"><path d="M-10.26 79.87 C-6.49 90.23, -2.72 100.59, 0 108.06 M-10.26 79.87 C-7.41 87.71, -4.55 95.55, 0 108.06" stroke="#1971c2" stroke-width="1" fill="none"></path></g><g transform="translate(507.6840411212452 113.84593684288302) rotate(0 0 54.0279536277161)"><path d="M10.26 79.87 C6.49 90.23, 2.72 100.59, 0 108.06 M10.26 79.87 C7.41 87.71, 4.55 95.55, 0 108.06" stroke="#1971c2" stroke-width="1" fill="none"></path></g></g><mask></mask><g transform="translate(58.294374875384165 81.38906970994321) rotate(0 8 18.94486685647189)"><text x="0" y="0" font-family="Virgil, Segoe UI Emoji" font-size="30.311786970355058px" fill="#1971c2" text-anchor="start" style="white-space: pre;" direction="ltr" dominant-baseline="text-before-edge">V</text></g><g transform="translate(144.8994805049697 81.38906970994321) rotate(0 34 18.94486685647189)"><text x="0" y="0" font-family="Virgil, Segoe UI Emoji" font-size="30.311786970355058px" fill="#1971c2" text-anchor="start" style="white-space: pre;" direction="ltr" dominant-baseline="text-before-edge">TAG</text></g></svg>