<svg version="1.1" xmlns="http://www.w3.org/2000/svg" viewBox="0 0 847.9642857142808 1423.083333333333" width="847.9642857142808" height="1423.083333333333">
  <!-- svg-source:excalidraw -->
  
  <defs>
    <style class="style-fonts">
      @font-face {
        font-family: "Virgil";
        src: url("https://excalidraw.com/Virgil.woff2");
      }
      @font-face {
        font-family: "Cascadia";
        src: url("https://excalidraw.com/Cascadia.woff2");
      }
    </style>
  </defs>
  <g stroke-linecap="round" transform="translate(68.1626984126915 547.9999999999997) rotate(0 216 30.5)"><path d="M0.77 0.01 C157.69 -1.53, 317.03 -2.32, 432.53 0.59 M-0.14 -0.11 C154.88 0.36, 310.04 0.29, 432.46 0.33 M431.6 -0.03 C432.82 19.51, 432.98 37.04, 433.41 62.25 M432.48 -0.1 C431.57 12.31, 430.75 25.5, 432.36 60.55 M431.37 60.98 C337.46 60.92, 241.43 61.08, 0.23 60.69 M432.11 61.14 C338.15 60.83, 243.47 61.1, 0.5 61.32 M1.15 61.44 C0.62 46.84, -1.68 31.42, 0.92 -1.55 M-0.88 61.96 C0.3 46.25, 0.99 30.37, -0.09 0.89" stroke="#a61e4d" stroke-width="1" fill="none"></path></g><g transform="translate(111.1626984126915 555.9999999999997) rotate(0 173 22.5)"><text x="173" y="0" font-family="Virgil, Segoe UI Emoji" font-size="36px" fill="#a61e4d" text-anchor="middle" style="white-space: pre;" direction="ltr" dominant-baseline="text-before-edge">Memory Buffer Reg.</text></g><g stroke-linecap="round" transform="translate(67.24603174602726 277.36904761904736) rotate(0 210 59.5)"><path d="M-0.46 -0.16 C100.19 0.12, 199.93 1.47, 419.3 0.63 M-0.03 -0.48 C141.85 1.05, 283.8 1.26, 420.3 -0.47 M421.93 0.71 C421.29 32.14, 420.59 63.3, 421.68 117.75 M420.31 0.11 C419.99 40.41, 420.67 82.34, 419.32 118.13 M420.41 118.63 C306.54 120.45, 194.53 119.65, 0.18 118.99 M419.71 119.28 C315.13 121.59, 209.86 120.76, -0.32 119.01 M-0.38 117.96 C-0.54 79.86, 0.55 42.95, 1.28 -0.36 M-0.43 118.64 C0.55 71.17, -0.91 24.4, -0.16 -0.17" stroke="#1864ab" stroke-width="4" fill="none"></path></g><g transform="translate(138.24603174602726 314.36904761904736) rotate(0 139 22.5)"><text x="139" y="0" font-family="Virgil, Segoe UI Emoji" font-size="36px" fill="#1864ab" text-anchor="middle" style="white-space: pre;" direction="ltr" dominant-baseline="text-before-edge">Arithmetic Logic</text></g><g stroke-linecap="round" transform="translate(327.6785714285661 63.98809523809541) rotate(0 80.625 60)"><path d="M-0.48 1.95 C34.29 0.68, 64.78 1, 162.75 -1.62 M1 -0.01 C33.32 0.33, 65.93 -1.18, 160.68 -0.58 M161.58 1.19 C161.67 45.16, 159.11 88.08, 160.34 118.07 M160.82 -0.02 C162.21 38.2, 161.35 74.93, 161.43 120.88 M162.78 119.24 C108.96 120.9, 53.95 122.42, -1.48 119.59 M161.74 120.14 C113.41 119.2, 67.35 118.28, -0.69 119.11 M0.44 119.23 C-0.03 74.23, 1.23 29.6, 0.5 1.71 M-0.36 120.84 C0.73 72.08, -0.82 25.12, 0.33 0.81" stroke="#000000" stroke-width="1" fill="none"></path></g><g transform="translate(381.8035714285661 101.48809523809541) rotate(0 26.5 22.5)"><text x="26.5" y="0" font-family="Virgil, Segoe UI Emoji" font-size="36px" fill="#000000" text-anchor="middle" style="white-space: pre;" direction="ltr" dominant-baseline="text-before-edge">MQ</text></g><g stroke-linecap="round"><g transform="translate(432.53149200990174 265.2380952380954) rotate(0 -0.3830128103338666 -37.22397422417998)"><path d="M0.25 0.8 C-2.42 -23.8, 0.13 -49.38, -0.83 -75.25 M0.04 0.7 C-0.88 -18.92, -0.02 -37.63, 0.02 -73.33" stroke="#000000" stroke-width="1" fill="none"></path></g><g transform="translate(432.53149200990174 265.2380952380954) rotate(0 -0.3830128103338666 -37.22397422417998)"><path d="M10.34 -44.27 C4.75 -53.88, 4.14 -64.43, -0.29 -74.83 M10.13 -44.37 C7.08 -52.09, 5.45 -58.98, 0.55 -72.91" stroke="#000000" stroke-width="1" fill="none"></path></g><g transform="translate(432.53149200990174 265.2380952380954) rotate(0 -0.3830128103338666 -37.22397422417998)"><path d="M-10.18 -44.41 C-8.99 -53.87, -2.82 -64.38, -0.29 -74.83 M-10.39 -44.51 C-8.1 -52.33, -4.39 -59.18, 0.55 -72.91" stroke="#000000" stroke-width="1" fill="none"></path></g></g><mask></mask><g stroke-linecap="round"><g transform="translate(403.3723417664705 197.7380952380954) rotate(0 -2.0672509525661553 32.55305469408631)"><path d="M-1.46 -0.43 C-1.84 16.5, -2.36 36.38, -2.08 65.54 M-0.97 0.63 C-0.7 21.21, -3.28 44.48, -3.18 63.41" stroke="#000000" stroke-width="1" fill="none"></path></g><g transform="translate(403.3723417664705 197.7380952380954) rotate(0 -2.0672509525661553 32.55305469408631)"><path d="M-14.14 34.52 C-10.38 41.4, -7.04 51.13, -1.34 65.2 M-13.64 35.58 C-8.71 44.01, -6.62 54.99, -2.45 63.07" stroke="#000000" stroke-width="1" fill="none"></path></g><g transform="translate(403.3723417664705 197.7380952380954) rotate(0 -2.0672509525661553 32.55305469408631)"><path d="M6.37 35.07 C4.24 41.64, 1.68 51.21, -1.34 65.2 M6.87 36.14 C4.66 44.18, -0.39 54.97, -2.45 63.07" stroke="#000000" stroke-width="1" fill="none"></path></g></g><mask></mask><g stroke-linecap="round" transform="translate(69.5535714285661 66.48809523809541) rotate(0 80.625 60)"><path d="M-1.15 -0.23 C63.52 -1.54, 126.32 -2.03, 160.96 -1.91 M0.31 -0.92 C41.72 1.01, 82.07 1.14, 161.4 0.25 M161.06 0.35 C162.36 32.6, 160.32 61.46, 163.02 118.63 M162.01 0.02 C161.14 29, 162.1 58.47, 160.85 120.15 M159.79 118.06 C116.93 118.08, 72.29 120.83, -0.22 121.93 M160.52 120.41 C121.08 121.31, 81.1 120.37, -0.95 119.52 M0.76 119.75 C-1.07 87.01, 0.44 55.19, 1.38 -1.12 M0.35 119.7 C-1.99 90.94, -0.65 60.91, 0.23 0.14" stroke="#000000" stroke-width="1" fill="none"></path></g><g transform="translate(126.6785714285661 103.98809523809541) rotate(0 23.5 22.5)"><text x="23.5" y="0" font-family="Virgil, Segoe UI Emoji" font-size="36px" fill="#000000" text-anchor="middle" style="white-space: pre;" direction="ltr" dominant-baseline="text-before-edge">AC</text></g><g stroke-linecap="round"><g transform="translate(167.04695541978344 263.0870694622754) rotate(0 -0.22965768550830035 -32.1772570470348)"><path d="M-0.74 -1.22 C2.54 -17.23, 0.37 -37.78, -1.42 -65.29 M-0.54 0.94 C-0.54 -13.76, -0.75 -29.07, 0.5 -64.52" stroke="#000000" stroke-width="1" fill="none"></path></g><g transform="translate(167.04695541978344 263.0870694622754) rotate(0 -0.22965768550830035 -32.1772570470348)"><path d="M9.21 -37.27 C9.53 -43.22, 4.73 -53.65, -0.92 -64.81 M9.41 -35.11 C7.61 -41.93, 5.35 -49.32, 0.99 -64.04" stroke="#000000" stroke-width="1" fill="none"></path></g><g transform="translate(167.04695541978344 263.0870694622754) rotate(0 -0.22965768550830035 -32.1772570470348)"><path d="M-11.3 -37.85 C-5.31 -43.54, -4.43 -53.82, -0.92 -64.81 M-11.1 -35.7 C-8.45 -42.28, -6.26 -49.54, 0.99 -64.04" stroke="#000000" stroke-width="1" fill="none"></path></g></g><mask></mask><g stroke-linecap="round"><g transform="translate(138.29695541978344 204.3370694622754) rotate(0 -1.7426416836678982 28.361372037790716)"><path d="M1.93 0.76 C-1.4 12.02, -3.51 27.38, -5.41 56.38 M-0.09 0.35 C-1.51 12.58, -1.63 27.35, -3.72 55.23" stroke="#000000" stroke-width="1" fill="none"></path></g><g transform="translate(138.29695541978344 204.3370694622754) rotate(0 -1.7426416836678982 28.361372037790716)"><path d="M-9.5 29.53 C-9.84 33.68, -9.06 41.85, -5.38 56.61 M-11.51 29.11 C-9.99 34.28, -7.31 42.09, -3.7 55.47" stroke="#000000" stroke-width="1" fill="none"></path></g><g transform="translate(138.29695541978344 204.3370694622754) rotate(0 -1.7426416836678982 28.361372037790716)"><path d="M9.31 30.77 C4.25 34.49, 0.28 42.35, -5.38 56.61 M7.3 30.36 C4.24 35.4, 2.33 42.9, -3.7 55.47" stroke="#000000" stroke-width="1" fill="none"></path></g></g><mask></mask><g stroke-linecap="round"><g transform="translate(312.6785714285661 125.23809523809541) rotate(0 -34.760806266218424 0.12072337046265602)"><path d="M1.1 1.53 C-27.51 0.13, -53.67 0.42, -70.62 -1.29 M0.88 0.75 C-14.82 -1.21, -30.97 0, -69.14 -0.28" stroke="#000000" stroke-width="1" fill="none"></path></g><g transform="translate(312.6785714285661 125.23809523809541) rotate(0 -34.760806266218424 0.12072337046265602)"><path d="M-39.85 -9.03 C-52.73 -5.96, -63.22 -1.22, -71.01 -0.32 M-40.07 -9.81 C-46.59 -9.13, -53.46 -5.28, -69.53 0.69" stroke="#000000" stroke-width="1" fill="none"></path></g><g transform="translate(312.6785714285661 125.23809523809541) rotate(0 -34.760806266218424 0.12072337046265602)"><path d="M-39.84 11.49 C-52.85 6.63, -63.35 3.45, -71.01 -0.32 M-40.06 10.71 C-46.39 6.69, -53.26 5.84, -69.53 0.69" stroke="#000000" stroke-width="1" fill="none"></path></g></g><mask></mask><g stroke-linecap="round" transform="translate(17.142857142852336 10) rotate(0 265 219.375)"><path d="M-0.42 0.51 C119.28 0.89, 239.51 0.67, 530.47 0.48 M0.12 -0.36 C122.03 2.06, 243.53 2.02, 530.12 -0.24 M530.25 -0.46 C530.3 119.46, 531.81 236.64, 529.3 438.46 M530.31 0.34 C531.8 102.15, 531.15 204.98, 529.91 438.93 M529.58 438.11 C375.78 438.84, 220.38 439.51, -0.75 438.82 M529.63 438.45 C370.92 440.77, 211.65 440.73, -0.11 438.63 M0.41 439.43 C-0.87 306.07, -2.14 174.56, 0.86 -0.26 M-0.02 438.3 C-1.82 292.47, -1.86 147.21, 0.2 0.27" stroke="#1864ab" stroke-width="4" fill="none"></path></g><g stroke-linecap="round" transform="translate(620.7976190476138 12.666666666666515) rotate(0 105.5 336)"><path d="M0.54 -1.25 C76.71 1.99, 152.58 0.54, 211.81 0.29 M0.35 0.1 C76.54 0.12, 151.69 0.4, 210.39 -0.01 M210.99 -0.29 C212.26 252.37, 213.29 503.84, 210.86 672.57 M210.81 0.37 C211.82 140.42, 211.33 281.55, 211.13 671.79 M211.61 673.09 C165.42 670.52, 118.07 671.35, 1.56 673.02 M210.18 672.81 C162 672.12, 113.43 671.82, 0.18 672.82 M-0.41 671.59 C0.61 476.56, 0.79 280.86, 0.46 0.02 M-0.27 671.7 C2.04 403.38, 1.66 134.92, 0.07 -0.3" stroke="#5c940d" stroke-width="4" fill="none"></path></g><g transform="translate(694.2976190476138 326.1666666666665) rotate(0 32 22.5)"><text x="32" y="0" font-family="Virgil, Segoe UI Emoji" font-size="36px" fill="#5c940d" text-anchor="middle" style="white-space: pre;" direction="ltr" dominant-baseline="text-before-edge">I/O</text></g><g stroke-linecap="round" transform="translate(626.9642857142808 719.0833333333329) rotate(0 105.5 347)"><path d="M0.26 1.11 C62 -0.01, 124.44 -1.42, 209.56 0.75 M-0.62 0.07 C69.75 1.46, 138.61 0.82, 211.11 -0.24 M210.76 -0.28 C210.76 237.51, 211.28 473.99, 211.11 694.14 M211.37 0.38 C213.44 220.74, 212.9 441.74, 210.74 694.15 M211.5 693.98 C128.84 692.97, 44.94 693.97, 1.54 695.73 M210.28 693.52 C140.26 694.33, 70.75 693.11, 0.43 693.74 M-0.5 694.69 C0.65 462.24, 0.19 230.31, 0.28 -0.58 M0.13 693.83 C-1.29 418.41, -1.55 143.29, 0.01 0.1" stroke="#087f5b" stroke-width="4" fill="none"></path></g><g transform="translate(670.9642857142808 1043.583333333333) rotate(0 61.5 22.5)"><text x="61.5" y="0" font-family="Virgil, Segoe UI Emoji" font-size="36px" fill="#087f5b" text-anchor="middle" style="white-space: pre;" direction="ltr" dominant-baseline="text-before-edge">Memory</text></g><g stroke-linecap="round"><g transform="translate(449.4404761904716 667.8690476190482) rotate(0 0.10576604815605606 -25.434361789109687)"><path d="M0.33 0.82 C1.32 -10.5, 0.29 -23.26, 0.57 -51.74 M0.53 0.98 C-1 -18.61, 0.39 -35.69, -0.56 -51.85" stroke="#5c940d" stroke-width="4" fill="none"></path></g><g transform="translate(449.4404761904716 667.8690476190482) rotate(0 0.10576604815605606 -25.434361789109687)"><path d="M9.16 -27.08 C7.96 -31.96, 4.71 -38.23, 0.02 -52.16 M9.36 -26.93 C4.57 -36.85, 2.62 -44.18, -1.11 -52.27" stroke="#5c940d" stroke-width="4" fill="none"></path></g><g transform="translate(449.4404761904716 667.8690476190482) rotate(0 0.10576604815605606 -25.434361789109687)"><path d="M-8.43 -26.66 C-5.48 -31.57, -4.57 -37.94, 0.02 -52.16 M-8.23 -26.5 C-6.78 -36.4, -2.48 -43.88, -1.11 -52.27" stroke="#5c940d" stroke-width="4" fill="none"></path></g></g><mask></mask><g stroke-linecap="round"><g transform="translate(450.86904761904316 669.2976190476192) rotate(0 81.97573863222624 0.2126832825614997)"><path d="M1.81 0.28 C37.42 -0.94, 74.35 0, 163.29 1.36 M0.66 -0.18 C37.52 -1.64, 74.9 -0.84, 160.99 0.91" stroke="#5c940d" stroke-width="4" fill="none"></path></g><g transform="translate(450.86904761904316 669.2976190476192) rotate(0 81.97573863222624 0.2126832825614997)"><path d="M134.42 10.9 C139.78 7.91, 146.36 6.63, 162.85 2.27 M133.26 10.44 C139.3 7.91, 145.93 6.47, 160.55 1.82" stroke="#5c940d" stroke-width="4" fill="none"></path></g><g transform="translate(450.86904761904316 669.2976190476192) rotate(0 81.97573863222624 0.2126832825614997)"><path d="M134.82 -9.62 C139.89 -7.93, 146.38 -4.53, 162.85 2.27 M133.67 -10.08 C139.75 -7.86, 146.28 -4.56, 160.55 1.82" stroke="#5c940d" stroke-width="4" fill="none"></path></g></g><mask></mask><g stroke-linecap="round"><g transform="translate(405.1547619047533 782.1547619047624) rotate(0 108.73231986940186 0.4644981869660967)"><path d="M-0.55 1.5 C75.69 0, 148.75 -0.1, 215.97 0.67 M0.52 0.1 C77.34 0.43, 153.94 0.25, 218.01 -0.58" stroke="#087f5b" stroke-width="4" fill="none"></path></g><g transform="translate(405.1547619047533 782.1547619047624) rotate(0 108.73231986940186 0.4644981869660967)"><path d="M189.29 11.68 C200.91 6.89, 208.78 3.15, 216.66 0.19 M190.52 10.07 C200.72 5.92, 210.59 2.01, 219.01 -1.24" stroke="#087f5b" stroke-width="4" fill="none"></path></g><g transform="translate(405.1547619047533 782.1547619047624) rotate(0 108.73231986940186 0.4644981869660967)"><path d="M189.1 -8.84 C200.59 -6.58, 208.53 -3.26, 216.66 0.19 M190.33 -10.45 C200.43 -7.36, 210.37 -4.03, 219.01 -1.24" stroke="#087f5b" stroke-width="4" fill="none"></path></g></g><mask></mask><g stroke-linecap="round"><g transform="translate(403.7261904761817 783.5833333333338) rotate(0 -0.1501757688820362 -84.0806982342952)"><path d="M1.43 0.42 C0.6 -66.03, -0.56 -129.85, -1.73 -167.26 M0.39 -0.45 C0.58 -54.75, 1.31 -110.88, 0.94 -168.58" stroke="#087f5b" stroke-width="4" fill="none"></path></g><g transform="translate(403.7261904761817 783.5833333333338) rotate(0 -0.1501757688820362 -84.0806982342952)"><path d="M12.68 -139.99 C7.93 -151.94, 2.77 -161.2, -0.79 -167.27 M11.63 -140.86 C8.14 -149.2, 5.48 -159.27, 1.89 -168.59" stroke="#087f5b" stroke-width="4" fill="none"></path></g><g transform="translate(403.7261904761817 783.5833333333338) rotate(0 -0.1501757688820362 -84.0806982342952)"><path d="M-7.84 -139.96 C-4.61 -151.78, -1.81 -161.05, -0.79 -167.27 M-8.89 -140.83 C-5.65 -148.98, -1.57 -159.06, 1.89 -168.59" stroke="#087f5b" stroke-width="4" fill="none"></path></g></g><mask></mask><g stroke-linecap="round"><g transform="translate(268.6547619047542 540.9166666666674) rotate(0 0.6819752855226398 -42.62099253665656)"><path d="M0.08 -1.4 C-0.35 -23.98, -0.63 -47.8, 1.78 -84.38 M-0.41 -0.86 C1.15 -20.06, 1.31 -40.74, 0.19 -83.18" stroke="#1864ab" stroke-width="4" fill="none"></path></g><g transform="translate(268.6547619047542 540.9166666666674) rotate(0 0.6819752855226398 -42.62099253665656)"><path d="M11.09 -56.6 C7.26 -63.18, 3.83 -71.12, 1.97 -85.06 M10.6 -56.06 C9.14 -61.69, 6.59 -68.78, 0.38 -83.86" stroke="#1864ab" stroke-width="4" fill="none"></path></g><g transform="translate(268.6547619047542 540.9166666666674) rotate(0 0.6819752855226398 -42.62099253665656)"><path d="M-9.42 -56.19 C-7.27 -63.09, -4.73 -71.15, 1.97 -85.06 M-9.92 -55.65 C-6.26 -61.33, -3.69 -68.52, 0.38 -83.86" stroke="#1864ab" stroke-width="4" fill="none"></path></g></g><mask></mask><g stroke-linecap="round"><g transform="translate(294.9047619047542 459.6666666666674) rotate(0 0.08025706001126309 41.51812843605876)"><path d="M-0.9 0.17 C2 27.92, 0.8 54.97, 0.86 82.86 M0.98 0.22 C0.55 17.86, 0.31 37.65, 0.74 80.43" stroke="#1864ab" stroke-width="4" fill="none"></path></g><g transform="translate(294.9047619047542 459.6666666666674) rotate(0 0.08025706001126309 41.51812843605876)"><path d="M-10.61 52.48 C-4.25 62.23, -1.9 71.21, 1.6 82.04 M-8.73 52.53 C-6.87 57.96, -4.73 65.65, 1.47 79.62" stroke="#1864ab" stroke-width="4" fill="none"></path></g><g transform="translate(294.9047619047542 459.6666666666674) rotate(0 0.08025706001126309 41.51812843605876)"><path d="M9.91 52.35 C9.29 62, 4.66 71.03, 1.6 82.04 M11.79 52.4 C8.98 58.05, 6.44 65.77, 1.47 79.62" stroke="#1864ab" stroke-width="4" fill="none"></path></g></g><mask></mask><g transform="translate(21.42857142856701 457.96428571428726) rotate(0 36 22.5)"><text x="36" y="0" font-family="Virgil, Segoe UI Emoji" font-size="36px" fill="#1864ab" text-anchor="middle" style="white-space: pre;" direction="ltr" dominant-baseline="text-before-edge">ALU</text></g><g stroke-linecap="round" transform="translate(10 832.0119047619061) rotate(0 279.2857142857147 289.99999999999994)"><path d="M0.7 -0.24 C211.54 2.03, 423.82 1.7, 558.21 0.26 M0.05 0.04 C174.4 1.96, 349.17 1.84, 558.82 0.32 M558.32 0.59 C559.8 131.32, 558.72 262.1, 558.16 580.21 M558.22 -0.36 C556.48 147.16, 556.41 294.79, 558.49 580.38 M558.36 579.43 C354.81 580.83, 150.71 580.85, -0.8 579.54 M558.63 579.77 C401.53 579.86, 243.81 580.28, 0.01 579.86 M-0.5 580 C1.41 460.22, 1.26 340.58, -0.22 0.66 M0.07 579.81 C-1.78 417.61, -1.76 254.98, -0.1 -0.1" stroke="#862e9c" stroke-width="4" fill="none"></path></g><g transform="translate(14.928571428572468 779.511904761906) rotate(0 36.5 22.5)"><text x="36.5" y="0" font-family="Virgil, Segoe UI Emoji" font-size="36px" fill="#862e9c" text-anchor="middle" style="white-space: pre;" direction="ltr" dominant-baseline="text-before-edge">PCU</text></g><g stroke-linecap="round" transform="translate(453.4682539682526 898.3452380952377) rotate(0 38 32.5)"><path d="M0 0 C20.75 0, 41.51 0, 76 0 M0 0 C19.05 0, 38.11 0, 76 0 M76 0 C76 15.66, 76 31.32, 76 65 M76 0 C76 13.77, 76 27.55, 76 65 M76 65 C49.67 65, 23.34 65, 0 65 M76 65 C59.78 65, 43.55 65, 0 65 M0 65 C0 40.88, 0 16.75, 0 0 M0 65 C0 49.48, 0 33.95, 0 0" stroke="#a61e4d" stroke-width="1" fill="none"></path></g><g transform="translate(467.9682539682526 908.3452380952377) rotate(0 23.5 22.5)"><text x="23.5" y="0" font-family="Virgil, Segoe UI Emoji" font-size="36px" fill="#a61e4d" text-anchor="middle" style="white-space: pre;" direction="ltr" dominant-baseline="text-before-edge">PC</text></g><g stroke-linecap="round" transform="translate(286.9682539682526 1012.8452380952376) rotate(0 122 50)"><path d="M0 0 C84.2 0, 168.39 0, 244 0 M0 0 C95.92 0, 191.85 0, 244 0 M244 0 C244 25.26, 244 50.52, 244 100 M244 0 C244 31.94, 244 63.87, 244 100 M244 100 C159.31 100, 74.63 100, 0 100 M244 100 C146.6 100, 49.2 100, 0 100 M0 100 C0 60.96, 0 21.93, 0 0 M0 100 C0 79.25, 0 58.51, 0 0" stroke="#a61e4d" stroke-width="1" fill="none"></path></g><g transform="translate(294.4682539682526 1017.8452380952376) rotate(0 114.5 45)"><text x="114.5" y="0" font-family="Virgil, Segoe UI Emoji" font-size="36px" fill="#a61e4d" text-anchor="middle" style="white-space: pre;" direction="ltr" dominant-baseline="text-before-edge">Memory </text><text x="114.5" y="45" font-family="Virgil, Segoe UI Emoji" font-size="36px" fill="#a61e4d" text-anchor="middle" style="white-space: pre;" direction="ltr" dominant-baseline="text-before-edge">Address Reg.</text></g><g stroke-linecap="round" transform="translate(45.96825396825261 899.8452380952377) rotate(0 80 40)"><path d="M0 0 C63.49 0, 126.99 0, 160 0 M0 0 C34.89 0, 69.78 0, 160 0 M160 0 C160 17.62, 160 35.25, 160 80 M160 0 C160 26.94, 160 53.88, 160 80 M160 80 C113.1 80, 66.21 80, 0 80 M160 80 C123.64 80, 87.28 80, 0 80 M0 80 C0 50.15, 0 20.3, 0 0 M0 80 C0 50.29, 0 20.59, 0 0" stroke="#d9480f" stroke-width="1" fill="none"></path></g><g transform="translate(69.46825396825261 904.8452380952377) rotate(0 56.5 35)"><text x="56.5" y="0" font-family="Virgil, Segoe UI Emoji" font-size="28px" fill="#d9480f" text-anchor="middle" style="white-space: pre;" direction="ltr" dominant-baseline="text-before-edge">Instr. 2</text><text x="56.5" y="35" font-family="Virgil, Segoe UI Emoji" font-size="28px" fill="#d9480f" text-anchor="middle" style="white-space: pre;" direction="ltr" dominant-baseline="text-before-edge">Buffer</text></g><g stroke-linecap="round" transform="translate(45.96825396825261 1028.3452380952378) rotate(0 79 40)"><path d="M0 0 C46.23 0, 92.46 0, 158 0 M0 0 C33.28 0, 66.55 0, 158 0 M158 0 C158 17.09, 158 34.18, 158 80 M158 0 C158 18.57, 158 37.14, 158 80 M158 80 C109.11 80, 60.22 80, 0 80 M158 80 C119.5 80, 81 80, 0 80 M0 80 C0 58.33, 0 36.66, 0 0 M0 80 C0 53.73, 0 27.46, 0 0" stroke="#d9480f" stroke-width="1" fill="none"></path></g><g transform="translate(74.46825396825261 1033.3452380952378) rotate(0 50.5 35)"><text x="50.5" y="0" font-family="Virgil, Segoe UI Emoji" font-size="28px" fill="#d9480f" text-anchor="middle" style="white-space: pre;" direction="ltr" dominant-baseline="text-before-edge">Instr. 1</text><text x="50.5" y="35" font-family="Virgil, Segoe UI Emoji" font-size="28px" fill="#d9480f" text-anchor="middle" style="white-space: pre;" direction="ltr" dominant-baseline="text-before-edge">Buffer</text></g><g stroke-linecap="round" transform="translate(46.39325396825279 1147.3452380952376) rotate(0 243.5 121.5)"><path d="M0 0 C101.27 0, 202.54 0, 487 0 M0 0 C126.13 0, 252.26 0, 487 0 M487 0 C487 83.13, 487 166.26, 487 243 M487 0 C487 51.96, 487 103.92, 487 243 M487 243 C296.51 243, 106.02 243, 0 243 M487 243 C372.71 243, 258.43 243, 0 243 M0 243 C0 187.89, 0 132.78, 0 0 M0 243 C0 156.63, 0 70.26, 0 0" stroke="#d9480f" stroke-width="1" fill="none"></path></g><g transform="translate(126.8932539682528 1157.7143259330755) rotate(0 163 111.13091216216218)"><text x="163" y="0" font-family="Virgil, Segoe UI Emoji" font-size="88.90472972972974px" fill="#d9480f" text-anchor="middle" style="white-space: pre;" direction="ltr" dominant-baseline="text-before-edge">Control</text><text x="163" y="111.13091216216218" font-family="Virgil, Segoe UI Emoji" font-size="88.90472972972974px" fill="#d9480f" text-anchor="middle" style="white-space: pre;" direction="ltr" dominant-baseline="text-before-edge">Circuits</text></g><g stroke-linecap="round"><g transform="translate(121.46825396825261 989.3452380952377) rotate(0 0 17.5)"><path d="M0 0 C0 9.49, 0 18.98, 0 35 M0 0 C0 11.69, 0 23.37, 0 35" stroke="#d9480f" stroke-width="1" fill="none"></path></g><g transform="translate(121.46825396825261 989.3452380952377) rotate(0 0 17.5)"><path d="M-5.99 18.56 C-4.36 23.01, -2.74 27.47, 0 35 M-5.99 18.56 C-3.99 24.05, -1.99 29.54, 0 35" stroke="#d9480f" stroke-width="1" fill="none"></path></g><g transform="translate(121.46825396825261 989.3452380952377) rotate(0 0 17.5)"><path d="M5.99 18.56 C4.36 23.01, 2.74 27.47, 0 35 M5.99 18.56 C3.99 24.05, 1.99 29.54, 0 35" stroke="#d9480f" stroke-width="1" fill="none"></path></g></g><mask></mask><g stroke-linecap="round"><g transform="translate(125.46825396825261 1112.3452380952376) rotate(0 -0.5 14.5)"><path d="M0 0 C-0.27 7.94, -0.55 15.88, -1 29 M0 0 C-0.37 10.64, -0.73 21.28, -1 29" stroke="#d9480f" stroke-width="1" fill="none"></path></g><g transform="translate(125.46825396825261 1112.3452380952376) rotate(0 -0.5 14.5)"><path d="M-5.49 15.2 C-4.26 18.98, -3.03 22.76, -1 29 M-5.49 15.2 C-3.84 20.27, -2.2 25.33, -1 29" stroke="#d9480f" stroke-width="1" fill="none"></path></g><g transform="translate(125.46825396825261 1112.3452380952376) rotate(0 -0.5 14.5)"><path d="M4.43 15.55 C2.94 19.23, 1.46 22.91, -1 29 M4.43 15.55 C2.44 20.48, 0.45 25.42, -1 29" stroke="#d9480f" stroke-width="1" fill="none"></path></g></g><mask></mask><g stroke-linecap="round"><g transform="translate(206.4682539682526 952.3452380952377) rotate(0 18.5 0)"><path d="M0 0 C10.27 0, 20.54 0, 37 0 M0 0 C7.53 0, 15.05 0, 37 0" stroke="#d9480f" stroke-width="1" fill="none"></path></g></g><mask></mask><g stroke-linecap="round"><g transform="translate(242.4682539682526 952.3452380952377) rotate(0 0 56)"><path d="M0 0 C0 38.94, 0 77.87, 0 112 M0 0 C0 33.5, 0 67, 0 112" stroke="#d9480f" stroke-width="1" fill="none"></path></g></g><mask></mask><g stroke-linecap="round"><g transform="translate(242.4682539682526 1063.3452380952376) rotate(0 21.5 0)"><path d="M0 0 C14.73 0, 29.46 0, 43 0 M0 0 C16.01 0, 32.02 0, 43 0" stroke="#d9480f" stroke-width="1" fill="none"></path></g><g transform="translate(242.4682539682526 1063.3452380952376) rotate(0 21.5 0)"><path d="M22.8 7.35 C29.72 4.83, 36.64 2.32, 43 0 M22.8 7.35 C30.32 4.62, 37.84 1.88, 43 0" stroke="#d9480f" stroke-width="1" fill="none"></path></g><g transform="translate(242.4682539682526 1063.3452380952376) rotate(0 21.5 0)"><path d="M22.8 -7.35 C29.72 -4.83, 36.64 -2.32, 43 0 M22.8 -7.35 C30.32 -4.62, 37.84 -1.88, 43 0" stroke="#d9480f" stroke-width="1" fill="none"></path></g></g><mask></mask><g stroke-linecap="round"><g transform="translate(495.4682539682526 1002.3452380952377) rotate(0 0 -16.5)"><path d="M0 0 C0 -10.5, 0 -21, 0 -33 M0 0 C0 -11.28, 0 -22.55, 0 -33" stroke="#a61e4d" stroke-width="1" fill="none"></path></g><g transform="translate(495.4682539682526 1002.3452380952377) rotate(0 0 -16.5)"><path d="M5.64 -17.5 C3.85 -22.43, 2.05 -27.36, 0 -33 M5.64 -17.5 C3.72 -22.79, 1.79 -28.09, 0 -33" stroke="#a61e4d" stroke-width="1" fill="none"></path></g><g transform="translate(495.4682539682526 1002.3452380952377) rotate(0 0 -16.5)"><path d="M-5.64 -17.5 C-3.85 -22.43, -2.05 -27.36, 0 -33 M-5.64 -17.5 C-3.72 -22.79, -1.79 -28.09, 0 -33" stroke="#a61e4d" stroke-width="1" fill="none"></path></g></g><mask></mask><g stroke-linecap="round"><g transform="translate(478.4682539682526 971.3452380952377) rotate(0 0 15.5)"><path d="M0 0 C0 8.7, 0 17.41, 0 31 M0 0 C0 6.2, 0 12.4, 0 31" stroke="#a61e4d" stroke-width="1" fill="none"></path></g><g transform="translate(478.4682539682526 971.3452380952377) rotate(0 0 15.5)"><path d="M-5.3 16.43 C-3.81 20.52, -2.32 24.61, 0 31 M-5.3 16.43 C-4.24 19.35, -3.18 22.26, 0 31" stroke="#a61e4d" stroke-width="1" fill="none"></path></g><g transform="translate(478.4682539682526 971.3452380952377) rotate(0 0 15.5)"><path d="M5.3 16.43 C3.81 20.52, 2.32 24.61, 0 31 M5.3 16.43 C4.24 19.35, 3.18 22.26, 0 31" stroke="#a61e4d" stroke-width="1" fill="none"></path></g></g><mask></mask><g stroke-linecap="round"><g transform="translate(268.4682539682526 614.3452380952376) rotate(0 0 176.00000000000006)"><path d="M0 0 C0 134.88, 0 269.76, 0 352 M0 0 C0 87.93, 0 175.86, 0 352" stroke="#a61e4d" stroke-width="4" fill="none"></path></g></g><mask></mask><g stroke-linecap="round"><g transform="translate(268.4682539682526 965.3452380952377) rotate(0 52 0)"><path d="M0 0 C38.03 0, 76.06 0, 104 0 M0 0 C36.19 0, 72.38 0, 104 0" stroke="#a61e4d" stroke-width="4" fill="none"></path></g></g><mask></mask><g stroke-linecap="round"><g transform="translate(373.4229086750929 965.3452380952377) rotate(0 0 21)"><path d="M0 0 C0 10.76, 0 21.51, 0 42 M0 0 C0 15.74, 0 31.49, 0 42" stroke="#a61e4d" stroke-width="4" fill="none"></path></g><g transform="translate(373.4229086750929 965.3452380952377) rotate(0 0 21)"><path d="M-7.18 22.27 C-5.34 27.32, -3.5 32.37, 0 42 M-7.18 22.27 C-4.49 29.66, -1.8 37.06, 0 42" stroke="#a61e4d" stroke-width="4" fill="none"></path></g><g transform="translate(373.4229086750929 965.3452380952377) rotate(0 0 21)"><path d="M7.18 22.27 C5.34 27.32, 3.5 32.37, 0 42 M7.18 22.27 C4.49 29.66, 1.8 37.06, 0 42" stroke="#a61e4d" stroke-width="4" fill="none"></path></g></g><mask></mask><g stroke-linecap="round"><g transform="translate(267.4682539682526 863.3452380952376) rotate(0 -72 0)"><path d="M0 0 C-45.18 0, -90.37 0, -144 0 M0 0 C-41.65 0, -83.29 0, -144 0" stroke="#a61e4d" stroke-width="4" fill="none"></path></g></g><mask></mask><g stroke-linecap="round"><g transform="translate(123.46825396825261 863.3452380952376) rotate(0 0 16.5)"><path d="M0 0 C0 12.54, 0 25.08, 0 33 M0 0 C0 7.73, 0 15.46, 0 33" stroke="#a61e4d" stroke-width="4" fill="none"></path></g><g transform="translate(123.46825396825261 863.3452380952376) rotate(0 0 16.5)"><path d="M-5.64 17.5 C-3.5 23.39, -1.35 29.28, 0 33 M-5.64 17.5 C-4.32 21.13, -3 24.76, 0 33" stroke="#a61e4d" stroke-width="4" fill="none"></path></g><g transform="translate(123.46825396825261 863.3452380952376) rotate(0 0 16.5)"><path d="M5.64 17.5 C3.5 23.39, 1.35 29.28, 0 33 M5.64 17.5 C4.32 21.13, 3 24.76, 0 33" stroke="#a61e4d" stroke-width="4" fill="none"></path></g></g><mask></mask><g stroke-linecap="round"><g transform="translate(268.4682539682526 965.3452380952377) rotate(0 0 18)"><path d="M0 0 C0 13.14, 0 26.27, 0 36 M0 0 C0 12.04, 0 24.09, 0 36" stroke="#a61e4d" stroke-width="4" fill="none"></path></g></g><mask></mask><g stroke-linecap="round"><g transform="translate(268.4682539682526 1001.3452380952377) rotate(0 -51 0)"><path d="M0 0 C-22.12 0, -44.24 0, -102 0 M0 0 C-34.63 0, -69.27 0, -102 0" stroke="#a61e4d" stroke-width="4" fill="none"></path></g></g><mask></mask><g stroke-linecap="round"><g transform="translate(166.4682539682526 1001.3452380952377) rotate(0 0 12.5)"><path d="M0 0 C0 5.75, 0 11.5, 0 25 M0 0 C0 5.08, 0 10.17, 0 25" stroke="#a61e4d" stroke-width="4" fill="none"></path></g><g transform="translate(166.4682539682526 1001.3452380952377) rotate(0 0 12.5)"><path d="M-4.28 13.25 C-3.29 15.95, -2.31 18.66, 0 25 M-4.28 13.25 C-3.41 15.64, -2.54 18.03, 0 25" stroke="#a61e4d" stroke-width="4" fill="none"></path></g><g transform="translate(166.4682539682526 1001.3452380952377) rotate(0 0 12.5)"><path d="M4.28 13.25 C3.29 15.95, 2.31 18.66, 0 25 M4.28 13.25 C3.41 15.64, 2.54 18.03, 0 25" stroke="#a61e4d" stroke-width="4" fill="none"></path></g></g><mask></mask><g stroke-linecap="round"><g transform="translate(537.8260587329314 1065.8624477850085) rotate(0 41.65103375451622 0)"><path d="M0 0 C22.6 0, 45.19 0, 83.3 0 M0 0 C19.97 0, 39.95 0, 83.3 0" stroke="#862e9c" stroke-width="4" fill="none"></path></g><g transform="translate(537.8260587329314 1065.8624477850085) rotate(0 41.65103375451622 0)"><path d="M55.11 10.26 C62.76 7.48, 70.4 4.69, 83.3 0 M55.11 10.26 C61.87 7.8, 68.63 5.34, 83.3 0" stroke="#862e9c" stroke-width="4" fill="none"></path></g><g transform="translate(537.8260587329314 1065.8624477850085) rotate(0 41.65103375451622 0)"><path d="M55.11 -10.26 C62.76 -7.48, 70.4 -4.69, 83.3 0 M55.11 -10.26 C61.87 -7.8, 68.63 -5.34, 83.3 0" stroke="#862e9c" stroke-width="4" fill="none"></path></g></g><mask></mask></svg>