<svg version="1.1" xmlns="http://www.w3.org/2000/svg" viewBox="0 0 1576.9708357661139 1060.0496894984894" width="1576.9708357661139" height="1060.0496894984894">
  <!-- svg-source:excalidraw -->
  
  <defs>
    <style class="style-fonts">
      @font-face {
        font-family: "Virgil";
        src: url("https://excalidraw.com/Virgil.woff2");
      }
      @font-face {
        font-family: "Cascadia";
        src: url("https://excalidraw.com/Cascadia.woff2");
      }
    </style>
  </defs>
  <g stroke-linecap="round" transform="translate(437.48742805211896 449.38681167471873) rotate(0 161.5014458600083 142.20168923986557)"><path d="M1.09 -0.55 C117.2 -0.37, 234.16 -1.45, 322.59 -0.91 M0.01 -0.03 C68.27 0.75, 138.17 1.3, 323.18 0.47 M321.6 0.14 C324.12 106.12, 324.3 209.77, 323.39 285.22 M322.3 0.64 C322.26 89.15, 322.08 177.93, 323.75 283.82 M324.13 283.22 C250.23 282.4, 178.65 283.28, -0.4 285.06 M322.64 284.62 C209.99 286.64, 96.68 286.19, -0.36 284.02 M0.49 283.01 C0.64 205.99, -1.01 128.04, -0.82 1.36 M0 284.76 C1.88 208.52, 0.91 132.41, 0.09 -0.11" stroke="#000000" stroke-width="4" fill="none"></path></g><g transform="translate(461.6122813498905 474.3613916056977) rotate(0 49.5 12.5)"><text x="0" y="0" font-family="Virgil, Segoe UI Emoji" font-size="20px" fill="#c92a2a" text-anchor="start" style="white-space: pre;" direction="ltr" dominant-baseline="text-before-edge">read reg 1</text></g><g transform="translate(460.2917637786486 521.9948313398634) rotate(0 54 12.5)"><text x="0" y="0" font-family="Virgil, Segoe UI Emoji" font-size="20px" fill="#e67700" text-anchor="start" style="white-space: pre;" direction="ltr" dominant-baseline="text-before-edge">read reg 2</text></g><g transform="translate(459.7220275990094 598.2458462768534) rotate(0 43.5 12.5)"><text x="0" y="0" font-family="Virgil, Segoe UI Emoji" font-size="20px" fill="#5c940d" text-anchor="start" style="white-space: pre;" direction="ltr" dominant-baseline="text-before-edge">write reg</text></g><g transform="translate(452.07102951965135 695.1427542554561) rotate(0 68.5 12.5)"><text x="0" y="0" font-family="Virgil, Segoe UI Emoji" font-size="20px" fill="#5c940d" text-anchor="start" style="white-space: pre;" direction="ltr" dominant-baseline="text-before-edge">data to write</text></g><g stroke-linecap="round"><g transform="translate(301.8015789839974 481.6188956065778) rotate(0 64.97475629940618 0.2068546849344557)"><path d="M-0.79 0.04 C30.34 -0.33, 60.45 2.76, 130.74 0.52 M0.17 -0.93 C47.78 -0.33, 96.3 -0.21, 129.77 0.26" stroke="#c92a2a" stroke-width="1" fill="none"></path></g><g transform="translate(301.8015789839974 481.6188956065778) rotate(0 64.97475629940618 0.2068546849344557)"><path d="M100.69 10.27 C108.13 6.54, 114.47 7.29, 130.96 0.77 M101.65 9.3 C111.92 6.63, 123.17 3.08, 130 0.51" stroke="#c92a2a" stroke-width="1" fill="none"></path></g><g transform="translate(301.8015789839974 481.6188956065778) rotate(0 64.97475629940618 0.2068546849344557)"><path d="M100.9 -10.25 C108.12 -9.16, 114.4 -3.59, 130.96 0.77 M101.86 -11.22 C112.19 -6.34, 123.36 -2.34, 130 0.51" stroke="#c92a2a" stroke-width="1" fill="none"></path></g></g><mask></mask><g stroke-linecap="round"><g transform="translate(302.3677826500352 529.9516224053516) rotate(0 63.48753079022208 -0.13050907477736473)"><path d="M-0.08 -1.62 C24.78 1.44, 51.52 0.49, 127.05 1.36 M0.09 0.18 C43.54 1.46, 85.45 1.42, 126.23 0.14" stroke="#e67700" stroke-width="1" fill="none"></path></g><g transform="translate(302.3677826500352 529.9516224053516) rotate(0 63.48753079022208 -0.13050907477736473)"><path d="M98.2 9.39 C103.53 10.3, 110.7 7.17, 127.59 1.5 M98.37 11.2 C108.66 7.89, 117.44 4.16, 126.77 0.28" stroke="#e67700" stroke-width="1" fill="none"></path></g><g transform="translate(302.3677826500352 529.9516224053516) rotate(0 63.48753079022208 -0.13050907477736473)"><path d="M97.74 -11.12 C103.08 -6.11, 110.35 -5.13, 127.59 1.5 M97.92 -9.32 C108.4 -5.67, 117.33 -2.44, 126.77 0.28" stroke="#e67700" stroke-width="1" fill="none"></path></g></g><mask></mask><g stroke-linecap="round"><g transform="translate(394.8128254334388 611.0115296021561) rotate(0 18.454876855492557 0.7046289608479697)"><path d="M-0.39 1.47 C12.21 0.69, 23.42 1.42, 37.3 -0.06 M0.93 0.3 C7.8 0.11, 15.69 -0.09, 35.88 -0.02" stroke="#5c940d" stroke-width="1" fill="none"></path></g><g transform="translate(394.8128254334388 611.0115296021561) rotate(0 18.454876855492557 0.7046289608479697)"><path d="M18.37 7.56 C24.99 4.95, 30.33 3.84, 36.59 0.3 M19.57 6.5 C22.48 5.13, 26.33 3.73, 35.3 0.34" stroke="#5c940d" stroke-width="1" fill="none"></path></g><g transform="translate(394.8128254334388 611.0115296021561) rotate(0 18.454876855492557 0.7046289608479697)"><path d="M18.37 -4.93 C24.99 -3.77, 30.33 -1.11, 36.59 0.3 M19.57 -5.99 C22.5 -4.76, 26.34 -3.57, 35.3 0.34" stroke="#5c940d" stroke-width="1" fill="none"></path></g></g><mask></mask><g transform="translate(478.8100061000141 799.9629024462267) rotate(0 42.5 12.5)"><text x="0" y="0" font-family="Virgil, Segoe UI Emoji" font-size="20px" fill="#1864ab" text-anchor="start" style="white-space: pre;" direction="ltr" dominant-baseline="text-before-edge">RegWrite</text></g><g stroke-linecap="round"><g transform="translate(522.2223485977783 793.7844451284266) rotate(0 1.0025716721636968 -25.058934339824816)"><path d="M1.36 1.36 C0.91 -18.8, -1.28 -38.11, 1.53 -49.44 M0.54 0.14 C-0.37 -16.54, -0.28 -33.02, 2 -51.48" stroke="#1864ab" stroke-width="1" fill="none"></path></g><g transform="translate(522.2223485977783 793.7844451284266) rotate(0 1.0025716721636968 -25.058934339824816)"><path d="M9.88 -25.31 C6.72 -35.57, 1.66 -44.99, 2.36 -49.63 M9.06 -26.53 C5.68 -34.45, 3.23 -42.19, 2.83 -51.67" stroke="#1864ab" stroke-width="1" fill="none"></path></g><g transform="translate(522.2223485977783 793.7844451284266) rotate(0 1.0025716721636968 -25.058934339824816)"><path d="M-7.59 -26.92 C-4.22 -36.62, -2.76 -45.44, 2.36 -49.63 M-8.41 -28.15 C-6.03 -35.58, -2.71 -42.78, 2.83 -51.67" stroke="#1864ab" stroke-width="1" fill="none"></path></g></g><mask></mask><g transform="translate(639.1166892251449 473.4632096817438) rotate(0 51.5 12.5)"><text x="0" y="0" font-family="Virgil, Segoe UI Emoji" font-size="20px" fill="#c92a2a" text-anchor="start" style="white-space: pre;" direction="ltr" dominant-baseline="text-before-edge">reg 1 data</text></g><g transform="translate(638.12465208721 608.2160876787259) rotate(0 56 12.5)"><text x="0" y="0" font-family="Virgil, Segoe UI Emoji" font-size="20px" fill="#e67700" text-anchor="start" style="white-space: pre;" direction="ltr" dominant-baseline="text-before-edge">reg 2 data</text></g><g stroke-linecap="round"><g transform="translate(774.0770630589359 489.87238556169837) rotate(0 65.06703390992834 0.9692407562450285)"><path d="M0.36 1.85 C41.68 1.07, 82.7 2.44, 129.78 1.06 M0.83 -0.19 C44.45 -1.17, 88.72 -0.29, 128.74 2.52" stroke="#c92a2a" stroke-width="1" fill="none"></path></g><g transform="translate(774.0770630589359 489.87238556169837) rotate(0 65.06703390992834 0.9692407562450285)"><path d="M100.39 13.09 C109.82 8.89, 118.85 6.75, 129.02 1.24 M100.86 11.05 C110.44 7.17, 120.55 4.31, 127.98 2.7" stroke="#c92a2a" stroke-width="1" fill="none"></path></g><g transform="translate(774.0770630589359 489.87238556169837) rotate(0 65.06703390992834 0.9692407562450285)"><path d="M101.5 -7.4 C110.39 -5.1, 119.06 -0.73, 129.02 1.24 M101.97 -9.44 C110.98 -6.37, 120.71 -2.28, 127.98 2.7" stroke="#c92a2a" stroke-width="1" fill="none"></path></g></g><mask></mask><g stroke-linecap="round"><g transform="translate(775.9708466624215 623.735987316574) rotate(0 27.586374997150642 1.1038584324570024)"><path d="M0.6 0.45 C17.16 1.28, 33.57 -0.37, 54.58 0.4 M0.6 -0.87 C21.68 0.2, 40.61 2.03, 52.99 3.08" stroke="#e67700" stroke-width="1" fill="none"></path></g><g transform="translate(775.9708466624215 623.735987316574) rotate(0 27.586374997150642 1.1038584324570024)"><path d="M27.59 10.51 C35.53 8.74, 43.34 4.23, 53.77 1.21 M27.58 9.19 C37.9 6.65, 46.15 4.93, 52.18 3.89" stroke="#e67700" stroke-width="1" fill="none"></path></g><g transform="translate(775.9708466624215 623.735987316574) rotate(0 27.586374997150642 1.1038584324570024)"><path d="M29.18 -7.84 C36.66 -3.92, 43.98 -2.75, 53.77 1.21 M29.18 -9.16 C39.04 -4.64, 46.68 0.68, 52.18 3.89" stroke="#e67700" stroke-width="1" fill="none"></path></g></g><mask></mask><g stroke-linecap="round"><g transform="translate(909.1249007167526 437.70196202095144) rotate(0 0.41668227221771303 53.487529148465114)"><path d="M0.51 1.08 C0.6 40.39, 1.1 81.45, 1.69 107.75 M0.98 -0.77 C-0.13 30.01, -0.18 60.46, -0.85 105.76" stroke="#000000" stroke-width="4" fill="none"></path></g></g><mask></mask><g stroke-linecap="round"><g transform="translate(910.8087360530144 542.0997528692089) rotate(0 14.289176317999136 18.903196391026256)"><path d="M0.28 -1.27 C10.38 10.2, 20.79 25.94, 29.09 39.08 M-0.76 0.19 C5.84 9.11, 12.07 16.04, 29.34 38.09" stroke="#000000" stroke-width="4" fill="none"></path></g></g><mask></mask><g stroke-linecap="round"><g transform="translate(939.433936769472 579.9860479351089) rotate(0 -13.95225448737915 11.834620778371459)"><path d="M0.78 -1.86 C-7.82 9.84, -19.42 17.71, -28.68 25.53 M-0.81 0.81 C-7.03 4.98, -12.31 10.75, -26.44 23.29" stroke="#000000" stroke-width="4" fill="none"></path></g></g><mask></mask><g stroke-linecap="round"><g transform="translate(910.8087360530144 601.8759073065178) rotate(0 0.4166822722181678 56.92036030347663)"><path d="M1.69 1.67 C0.26 28.08, -0.9 55.73, -0.7 112.14 M-0.85 -0.33 C-0.78 36.43, 0.11 72.18, 1.32 114.17" stroke="#000000" stroke-width="4" fill="none"></path></g></g><mask></mask><g stroke-linecap="round"><g transform="translate(913.3344890574081 717.2186278404783) rotate(0 89.24264685019261 -33.89298688385338)"><path d="M-0.38 1.19 C34.6 -13.45, 71.7 -30.86, 178.86 -68.98 M-0.13 0.2 C69.09 -25.37, 137.08 -50.24, 177.99 -66.45" stroke="#000000" stroke-width="4" fill="none"></path></g></g><mask></mask><g stroke-linecap="round"><g transform="translate(909.9668183848835 437.70196202095144) rotate(0 90.86757193579115 37.47754731433747)"><path d="M-1.74 1.96 C68.02 26.11, 139.64 54.73, 183.48 73.22 M0.5 -0.29 C49.01 20.18, 96.68 40.62, 181.33 75.24" stroke="#000000" stroke-width="4" fill="none"></path></g></g><mask></mask><g stroke-linecap="round"><g transform="translate(1089.2952816968095 513.4745521527514) rotate(0 0.6938886846930927 66.32151590439986)"><path d="M-1.54 -1.52 C0.12 46.48, 2.27 94.52, 1.87 133.61 M0.48 0.51 C0.98 43.75, 1.76 86, 2.93 134.17" stroke="#000000" stroke-width="4" fill="none"></path></g></g><mask></mask><g stroke-linecap="round"><g transform="translate(573.1997511324398 486.5331867725556) rotate(0 26.47323432663734 0.5293599149556485)"><path d="M0.38 -1.62 C22.72 -0.63, 41.56 1.49, 53.44 2.68 M-0.5 0.9 C13.88 0.5, 29.21 0.95, 53.42 1.34" stroke="#c92a2a" stroke-width="1" fill="none"></path></g></g><mask></mask><g stroke-linecap="round"><g transform="translate(570.6739981280462 533.6805761878979) rotate(0 30.206158126935065 42.56089116677924)"><path d="M1.62 -1.71 C13.27 19.47, 28.08 39.95, 60.89 86.83 M-0.52 0.31 C21.54 29.87, 43.07 59.34, 60.94 85.32" stroke="#e67700" stroke-width="1" fill="none"></path></g></g><mask></mask><g stroke-linecap="round"><g transform="translate(839.9361238317088 597.7291810066338) rotate(0 0.18183540925383568 51.24900019470522)"><path d="M-0.65 -0.26 C1.23 23.47, 0.26 45.9, 1.01 101.7 M0.41 0.3 C-0.16 39.72, -1.06 79.58, -0.28 102.75" stroke="#1864ab" stroke-width="2" fill="none"></path></g></g><mask></mask><g stroke-linecap="round"><g transform="translate(841.5282517246333 698.8293022073592) rotate(0 12.634085553214163 -6.791982743990673)"><path d="M0.4 1 C4.43 -1.92, 10.97 -6.77, 24.89 -14.58 M0.38 -0.34 C7.06 -5.11, 14.95 -8.97, 22.11 -13.21" stroke="#1864ab" stroke-width="2" fill="none"></path></g></g><mask></mask><g stroke-linecap="round"><g transform="translate(863.8180422255809 687.6844069568854) rotate(0 0.5321879647171102 -37.47996393774514)"><path d="M-0.57 0.95 C1.09 -22.95, 2.11 -44.95, 1.42 -75.61 M-0.52 -0.56 C-0.3 -25.16, -0.74 -50.11, -0.12 -75.91" stroke="#1864ab" stroke-width="2" fill="none"></path></g></g><mask></mask><g stroke-linecap="round"><g transform="translate(863.0219782791182 610.4662041500321) rotate(0 -10.553637208961845 -5.433038121386119)"><path d="M1.01 -0.99 C-5.69 -4.57, -14.39 -6.33, -20.89 -9.59 M-0.28 0.06 C-6.63 -2.54, -12.28 -5.11, -22.12 -10.93" stroke="#1864ab" stroke-width="2" fill="none"></path></g></g><mask></mask><g transform="translate(844.7125075104832 620.8150354540433) rotate(0 7 12.5)"><text x="0" y="0" font-family="Virgil, Segoe UI Emoji" font-size="20px" fill="#1864ab" text-anchor="start" style="white-space: pre;" direction="ltr" dominant-baseline="text-before-edge">0</text></g><g transform="translate(849.6534667074202 654.4867443488631) rotate(0 2.5 12.5)"><text x="0" y="0" font-family="Virgil, Segoe UI Emoji" font-size="20px" fill="#1864ab" text-anchor="start" style="white-space: pre;" direction="ltr" dominant-baseline="text-before-edge">1</text></g><g transform="translate(822.4952165254333 535.9943248214826) rotate(0 35 12.5)"><text x="0" y="0" font-family="Virgil, Segoe UI Emoji" font-size="20px" fill="#1864ab" text-anchor="start" style="white-space: pre;" direction="ltr" dominant-baseline="text-before-edge">ALUSrc</text></g><g stroke-linecap="round"><g transform="translate(851.2330983973861 569.2372420297737) rotate(0 -0.33251952789737516 14.538061750596171)"><path d="M-0.69 -1.05 C-1.15 9.55, -0.04 18.24, 0.29 27.81 M-0.95 -0.54 C0.58 10.07, -1.18 21.64, -0.37 30.12" stroke="#1864ab" stroke-width="1" fill="none"></path></g><g transform="translate(851.2330983973861 569.2372420297737) rotate(0 -0.33251952789737516 14.538061750596171)"><path d="M-6.27 15.54 C-4.71 20.59, -1.95 24.25, 0.11 28.76 M-6.46 15.91 C-3.29 20.94, -2.61 26.65, -0.37 30.47" stroke="#1864ab" stroke-width="1" fill="none"></path></g><g transform="translate(851.2330983973861 569.2372420297737) rotate(0 -0.33251952789737516 14.538061750596171)"><path d="M3.87 15.3 C1.98 20.47, 1.28 24.21, 0.11 28.76 M3.67 15.67 C3.29 20.73, 0.41 26.52, -0.37 30.47" stroke="#1864ab" stroke-width="1" fill="none"></path></g></g><mask></mask><g stroke-linecap="round"><g transform="translate(301.8980577792613 899.3225006756468) rotate(0 182.65387283719502 -0.03173403673628172)"><path d="M0.08 -1.22 C91.13 -0.25, 182.08 0.38, 365.61 -0.12 M-0.46 0.51 C90.01 1.31, 180.26 1.28, 365.77 0.88" stroke="#364fc7" stroke-width="1" fill="none"></path></g></g><mask></mask><g stroke-linecap="round" transform="translate(670.3585863754115 818.2351119190912) rotate(0 54.413905612951794 83.75473707091606)"><path d="M0.65 -1.84 C30.66 -0.19, 58.12 -0.83, 107.74 1.8 M0 0.47 C29.42 -0.89, 57.17 -1.19, 108.94 -0.15 M110.23 -1.63 C107.01 60, 109.05 121.11, 108.42 166.18 M107.87 0.56 C107.35 51.98, 106.81 102.37, 108.56 167.81 M109.72 167.57 C76.71 166.57, 45.43 165.65, 1.34 166.31 M107.83 167.13 C79.34 167.64, 47.69 166.53, -0.06 168.13 M0.42 167.08 C-2.12 126.67, -2.71 86.79, 0.64 -1.73 M0.54 166.7 C1.43 127.87, 0.98 88.29, -0.53 -0.67" stroke="#000000" stroke-width="4" fill="none"></path></g><g stroke-linecap="round"><g transform="translate(780.2533369270586 900.389440001391) rotate(0 11.195192623155663 -0.7233148986005631)"><path d="M1.02 -1.26 C3.15 -1.7, 7.53 1.99, 20.68 -1.47 M0.39 0 C7.26 -0.39, 16.43 -0.25, 22 -0.28" stroke="#000000" stroke-width="1" fill="none"></path></g></g><mask></mask><g stroke-linecap="round"><g transform="translate(801.4185320359838 898.2555613499028) rotate(0 -0.014270298767712575 -112.68940587769413)"><path d="M-0.99 -1.63 C-1.92 -45.29, -1.56 -94.93, 1.41 -225.13 M-0.77 -0.25 C-0.65 -78.29, -0.18 -156.56, -0.71 -224.52" stroke="#000000" stroke-width="1" fill="none"></path></g></g><mask></mask><g stroke-linecap="round"><g transform="translate(801.592123441942 673.1313636178863) rotate(0 17.53326118775726 0.5596388140693307)"><path d="M-1.09 1.8 C7.69 -1.14, 18.35 0.33, 36.15 0.78 M0.11 -0.15 C11.23 -0.18, 20.31 0.8, 34.39 -0.68" stroke="#000000" stroke-width="1" fill="none"></path></g></g><mask></mask><g transform="translate(687.9610403071092 852.0738984339741) rotate(0 36 50)"><text x="36" y="0" font-family="Virgil, Segoe UI Emoji" font-size="16px" fill="#000000" text-anchor="middle" style="white-space: pre;" direction="ltr" dominant-baseline="text-before-edge">16 bit</text><text x="36" y="20" font-family="Virgil, Segoe UI Emoji" font-size="16px" fill="#000000" text-anchor="middle" style="white-space: pre;" direction="ltr" dominant-baseline="text-before-edge">sign</text><text x="36" y="40" font-family="Virgil, Segoe UI Emoji" font-size="16px" fill="#000000" text-anchor="middle" style="white-space: pre;" direction="ltr" dominant-baseline="text-before-edge">extension</text><text x="36" y="60" font-family="Virgil, Segoe UI Emoji" font-size="16px" fill="#000000" text-anchor="middle" style="white-space: pre;" direction="ltr" dominant-baseline="text-before-edge">I-type</text><text x="36" y="80" font-family="Virgil, Segoe UI Emoji" font-size="16px" fill="#000000" text-anchor="middle" style="white-space: pre;" direction="ltr" dominant-baseline="text-before-edge">isnstr.</text></g><g transform="translate(951.1373149714855 566.9187772318548) rotate(0 19.5 12.5)"><text x="19.5" y="0" font-family="Virgil, Segoe UI Emoji" font-size="20px" fill="#000000" text-anchor="middle" style="white-space: pre;" direction="ltr" dominant-baseline="text-before-edge">ALU</text></g><g stroke-linecap="round" transform="translate(1189.4497127958325 584.3331582215362) rotate(0 117.82589319579984 113.87954432807314)"><path d="M0.79 0.65 C53.36 -1.51, 106.22 0.2, 235.4 1.12 M-0.69 -0.57 C63.53 -1.1, 127.53 -1.56, 235.09 0.05 M236.61 -0.25 C238.81 49.08, 237.5 100.06, 236.16 227.75 M235.68 0.21 C234.5 74.82, 234.1 148.65, 235.14 227.57 M235.01 229.07 C144.03 224.78, 49.58 225.7, 1.04 226.71 M235.47 227.43 C145.78 227.6, 56.31 228.45, -0.73 227.21 M-1.38 228.41 C-0.44 173.6, -1.06 118.79, -1.14 0.85 M0.45 228.26 C0.62 177.1, 0.13 125.29, -0.61 0.24" stroke="#000000" stroke-width="4" fill="none"></path></g><g transform="translate(1053.354025075329 525.4882573518105) rotate(0 12.5 22.5)"><text x="12.5" y="0" font-family="Virgil, Segoe UI Emoji" font-size="36px" fill="#a61e4d" text-anchor="middle" style="white-space: pre;" direction="ltr" dominant-baseline="text-before-edge">0</text></g><g stroke-linecap="round"><g transform="translate(1101.830432613594 619.4085480963056) rotate(0 38.38413129612377 -0.2554984097233728)"><path d="M-0.58 0.23 C25.51 2.11, 51.06 -0.79, 77.59 -1.36 M-0.82 -0.2 C17.03 -0.15, 34.6 0.76, 75.24 0.83" stroke="#5f3dc4" stroke-width="1" fill="none"></path></g><g transform="translate(1101.830432613594 619.4085480963056) rotate(0 38.38413129612377 -0.2554984097233728)"><path d="M46.38 11.1 C56.24 9.05, 65.56 2.66, 76.64 -0.8 M46.15 10.66 C52.94 8.49, 59.38 7, 74.28 1.39" stroke="#5f3dc4" stroke-width="1" fill="none"></path></g><g transform="translate(1101.830432613594 619.4085480963056) rotate(0 38.38413129612377 -0.2554984097233728)"><path d="M46.54 -9.42 C56.35 -4.52, 65.61 -3.96, 76.64 -0.8 M46.31 -9.86 C52.92 -7.26, 59.32 -3.99, 74.28 1.39" stroke="#5f3dc4" stroke-width="1" fill="none"></path></g></g><mask></mask><g transform="translate(1019.8125688729924 608.5801016267835) rotate(0 29 12.5)"><text x="29" y="0" font-family="Virgil, Segoe UI Emoji" font-size="20px" fill="#5f3dc4" text-anchor="middle" style="white-space: pre;" direction="ltr" dominant-baseline="text-before-edge">result</text></g><g transform="translate(439.1989801310474 421.3460250042001) rotate(0 60.5 12.5)"><text x="60.5" y="0" font-family="Virgil, Segoe UI Emoji" font-size="20px" fill="#000000" text-anchor="middle" style="white-space: pre;" direction="ltr" dominant-baseline="text-before-edge">Register file</text></g><g transform="translate(1190.1254523419466 527.8491029973891) rotate(0 34 25)"><text x="0" y="0" font-family="Virgil, Segoe UI Emoji" font-size="20px" fill="#000000" text-anchor="start" style="white-space: pre;" direction="ltr" dominant-baseline="text-before-edge">Data</text><text x="0" y="25" font-family="Virgil, Segoe UI Emoji" font-size="20px" fill="#000000" text-anchor="start" style="white-space: pre;" direction="ltr" dominant-baseline="text-before-edge">Memory</text></g><g transform="translate(1018.8907994946476 963.5662923238045) rotate(0 27 12.5)"><text x="0" y="0" font-family="Virgil, Segoe UI Emoji" font-size="20px" fill="#1864ab" text-anchor="start" style="white-space: pre;" direction="ltr" dominant-baseline="text-before-edge">AluOp</text></g><g stroke-linecap="round"><g transform="translate(1042.4036599833155 954.2186996764791) rotate(0 -1.885082663997295 -35.56856610110495)"><path d="M0.69 -1.64 C-0.8 -16.49, -1.15 -31.87, -2.16 -71.21 M-0.69 0.07 C-1.57 -24.34, -2.71 -49.06, -4.46 -68.85" stroke="#1864ab" stroke-width="1" fill="none"></path></g><g transform="translate(1042.4036599833155 954.2186996764791) rotate(0 -1.885082663997295 -35.56856610110495)"><path d="M8.56 -43.14 C4.96 -48.89, 2.78 -55.11, -2.67 -70.76 M7.18 -41.43 C3.25 -50.84, -0.87 -60.62, -4.97 -68.4" stroke="#1864ab" stroke-width="1" fill="none"></path></g><g transform="translate(1042.4036599833155 954.2186996764791) rotate(0 -1.885082663997295 -35.56856610110495)"><path d="M-11.9 -41.62 C-11.03 -47.56, -8.74 -54.11, -2.67 -70.76 M-13.29 -39.91 C-9.93 -50.03, -6.76 -60.35, -4.97 -68.4" stroke="#1864ab" stroke-width="1" fill="none"></path></g></g><mask></mask><g stroke-linecap="round"><g transform="translate(1029.2237260331342 921.3262681998431) rotate(0 12.455802976704035 7.539059782100992)"><path d="M-0.41 -1.33 C5.76 2.35, 13.04 5.77, 25.32 15.87 M-0.27 0.3 C9.15 6.43, 17.91 12.81, 24.23 16.41" stroke="#1864ab" stroke-width="1" fill="none"></path></g></g><mask></mask><g transform="translate(1059.0141110310255 923.7174502320192) rotate(0 7 12.5)"><text x="7" y="0" font-family="Virgil, Segoe UI Emoji" font-size="20px" fill="#1864ab" text-anchor="middle" style="white-space: pre;" direction="ltr" dominant-baseline="text-before-edge">2</text></g><g transform="translate(1207.8093240774629 605.9578198279544) rotate(0 38.5 12.5)"><text x="38.5" y="0" font-family="Virgil, Segoe UI Emoji" font-size="20px" fill="#5f3dc4" text-anchor="middle" style="white-space: pre;" direction="ltr" dominant-baseline="text-before-edge">Address</text></g><g transform="translate(1207.382715756607 659.5655658920957) rotate(0 42.5 25)"><text x="0" y="0" font-family="Virgil, Segoe UI Emoji" font-size="20px" fill="#e67700" text-anchor="start" style="white-space: pre;" direction="ltr" dominant-baseline="text-before-edge">Data to</text><text x="0" y="25" font-family="Virgil, Segoe UI Emoji" font-size="20px" fill="#e67700" text-anchor="start" style="white-space: pre;" direction="ltr" dominant-baseline="text-before-edge">write</text></g><g stroke-linecap="round"><g transform="translate(784.4484495482548 623.8247782236679) rotate(0 -0.25935653344345155 51.36616647537073)"><path d="M1.66 -1.39 C0.17 20.85, 0.08 42.78, -2.18 103.5 M-0.19 0.91 C-1.55 36.72, -2.42 71.87, -1.75 104.12" stroke="#e67700" stroke-width="1" fill="none"></path></g></g><mask></mask><g stroke-linecap="round"><g transform="translate(782.661753708684 728.3464848385947) rotate(0 185.8911511951059 0.5164547900552634)"><path d="M0.08 -0.33 C106.34 2.09, 212.25 1.97, 372.18 1.82 M-0.4 0.41 C120.33 -1.63, 241.97 -1.17, 371.02 1.55" stroke="#e67700" stroke-width="1" fill="none"></path></g></g><mask></mask><g stroke-linecap="round"><g transform="translate(1155.1878362593202 732.8132244375231) rotate(0 0.5382232688634758 -26.546940435925876)"><path d="M0.59 -0.01 C0.67 -13.18, 1.27 -24.27, 1.39 -53.09 M-0.6 -0.22 C1.62 -21.03, 0.05 -41.62, 1.67 -52.14" stroke="#e67700" stroke-width="1" fill="none"></path></g></g><mask></mask><g stroke-linecap="round"><g transform="translate(1156.081184179106 679.2123492503813) rotate(0 12.414796176251912 -2.0714593827431145)"><path d="M0.5 -1.02 C7.03 -0.61, 12.77 -1.71, 24.33 -3.74 M0.93 -0.4 C7.28 -1.22, 17.31 -1.16, 21.9 -2.98" stroke="#e67700" stroke-width="1" fill="none"></path></g><g transform="translate(1156.081184179106 679.2123492503813) rotate(0 12.414796176251912 -2.0714593827431145)"><path d="M12.65 2.55 C15.46 1.49, 17.84 -0.42, 22.93 -3.71 M12.9 2.9 C15.34 0.69, 19.85 -1.01, 21.56 -3.28" stroke="#e67700" stroke-width="1" fill="none"></path></g><g transform="translate(1156.081184179106 679.2123492503813) rotate(0 12.414796176251912 -2.0714593827431145)"><path d="M10.96 -5.01 C14.25 -4, 17.09 -3.85, 22.93 -3.71 M11.2 -4.66 C14.23 -4.09, 19.35 -3.01, 21.56 -3.28" stroke="#e67700" stroke-width="1" fill="none"></path></g></g><mask></mask><g transform="translate(1354.773639779849 604.829626903663) rotate(0 26.5 25)"><text x="0" y="0" font-family="Virgil, Segoe UI Emoji" font-size="20px" fill="#5f3dc4" text-anchor="start" style="white-space: pre;" direction="ltr" dominant-baseline="text-before-edge">Read</text><text x="0" y="25" font-family="Virgil, Segoe UI Emoji" font-size="20px" fill="#5f3dc4" text-anchor="start" style="white-space: pre;" direction="ltr" dominant-baseline="text-before-edge">Data</text></g><g transform="translate(1218.2217202364936 494.8533899993429) rotate(0 44.5 12.5)"><text x="0" y="0" font-family="Virgil, Segoe UI Emoji" font-size="20px" fill="#1864ab" text-anchor="start" style="white-space: pre;" direction="ltr" dominant-baseline="text-before-edge">MemWrite</text></g><g stroke-linecap="round"><g transform="translate(1283.753597650767 524.8145244923892) rotate(0 0.6107409289106727 21.30859386576128)"><path d="M1.82 -1.31 C1.69 12.04, 0.16 28.33, -0.01 41.73 M-0.6 -0.54 C0.49 12.06, 0.14 23.69, 1.29 43.92" stroke="#1864ab" stroke-width="1" fill="none"></path></g><g transform="translate(1283.753597650767 524.8145244923892) rotate(0 0.6107409289106727 21.30859386576128)"><path d="M-5.26 22.42 C-3.16 28.66, -2.4 37.83, 0.48 41.94 M-7.68 23.18 C-4.79 29.58, -3.16 35.05, 1.77 44.13" stroke="#1864ab" stroke-width="1" fill="none"></path></g><g transform="translate(1283.753597650767 524.8145244923892) rotate(0 0.6107409289106727 21.30859386576128)"><path d="M9.68 21.77 C7.26 28.18, 3.49 37.55, 0.48 41.94 M7.26 22.53 C6.24 29.19, 3.96 34.83, 1.77 44.13" stroke="#1864ab" stroke-width="1" fill="none"></path></g></g><mask></mask><g transform="translate(1336.4604757290504 496.9062562287643) rotate(0 44 12.5)"><text x="0" y="0" font-family="Virgil, Segoe UI Emoji" font-size="20px" fill="#1864ab" text-anchor="start" style="white-space: pre;" direction="ltr" dominant-baseline="text-before-edge">MemRead</text></g><g stroke-linecap="round"><g transform="translate(1401.0041175538759 530.4109568087208) rotate(0 1.0156572190185216 21.52522052401042)"><path d="M-0.44 1.86 C-0.17 8.1, 0.23 21.73, 2.65 41.74 M-0.62 0.8 C0.83 10.75, 0.5 20.7, 1.01 42.25" stroke="#1864ab" stroke-width="1" fill="none"></path></g><g transform="translate(1401.0041175538759 530.4109568087208) rotate(0 1.0156572190185216 21.52522052401042)"><path d="M-7.14 24.06 C-5.57 24.97, -3.71 33.22, 2.16 41.05 M-7.33 23 C-4.34 27.29, -3.14 31.61, 0.51 41.57" stroke="#1864ab" stroke-width="1" fill="none"></path></g><g transform="translate(1401.0041175538759 530.4109568087208) rotate(0 1.0156572190185216 21.52522052401042)"><path d="M7.55 23.79 C5.68 24.68, 4.09 32.99, 2.16 41.05 M7.37 22.73 C6.75 27.18, 4.33 31.57, 0.51 41.57" stroke="#1864ab" stroke-width="1" fill="none"></path></g></g><mask></mask><g stroke-linecap="round"><g transform="translate(1499.0847373185738 606.6552146857214) rotate(0 -0.3015465149655938 50.51413819495508)"><path d="M-0.81 -1.99 C-0.99 26.23, 0.92 48.13, -1.09 102.58 M0.48 0.21 C-0.85 36.74, -1.14 73.58, -0.52 103.01" stroke="#1864ab" stroke-width="2" fill="none"></path></g></g><mask></mask><g stroke-linecap="round"><g transform="translate(1500.6768652114993 707.7553358864466) rotate(0 11.777688458077819 -6.6069991328838)"><path d="M-0.76 1.56 C10.27 -6.29, 17.11 -10.52, 24.32 -14.78 M-0.22 -0.39 C8.2 -5.87, 16.95 -10, 22.22 -14.19" stroke="#1864ab" stroke-width="2" fill="none"></path></g></g><mask></mask><g stroke-linecap="round"><g transform="translate(1522.966655712446 696.6104406359727) rotate(0 0.9456514343132767 -38.627820399560676)"><path d="M1.14 -1.2 C-0.63 -15.46, 1.84 -31.92, 2.39 -75.46 M-0.5 -0.69 C-0.1 -24.22, -0.19 -49.74, 0.17 -76.57" stroke="#1864ab" stroke-width="2" fill="none"></path></g></g><mask></mask><g stroke-linecap="round"><g transform="translate(1522.1705917659842 619.3922378291202) rotate(0 -10.793766262554527 -5.418873852415629)"><path d="M-1.09 -0.11 C-6.95 -5.29, -14.72 -6.99, -21.07 -10.78 M-0.52 0.32 C-6.41 -3.5, -11.77 -5.69, -20.95 -11.16" stroke="#1864ab" stroke-width="2" fill="none"></path></g></g><mask></mask><g transform="translate(1508.1600577933054 629.7410691331313) rotate(0 2.5 12.5)"><text x="0" y="0" font-family="Virgil, Segoe UI Emoji" font-size="20px" fill="#1864ab" text-anchor="start" style="white-space: pre;" direction="ltr" dominant-baseline="text-before-edge">1</text></g><g transform="translate(1504.503143398329 663.4127780279507) rotate(0 7 12.5)"><text x="0" y="0" font-family="Virgil, Segoe UI Emoji" font-size="20px" fill="#1864ab" text-anchor="start" style="white-space: pre;" direction="ltr" dominant-baseline="text-before-edge">0</text></g><g stroke-linecap="round"><g transform="translate(1436.356355604099 633.6808173525353) rotate(0 30.015446352707386 0.20204099853225443)"><path d="M0.42 -0.43 C13.25 -0.83, 26.69 -0.42, 59.61 0.15 M0.54 -0.81 C14.17 0.1, 27.52 0.18, 58.43 1.22" stroke="#5f3dc4" stroke-width="1" fill="none"></path></g><g transform="translate(1436.356355604099 633.6808173525353) rotate(0 30.015446352707386 0.20204099853225443)"><path d="M30.84 10.02 C36.22 7.13, 42.3 4.89, 59.08 -0.51 M30.96 9.64 C37.42 7.91, 43.52 5.38, 57.9 0.55" stroke="#5f3dc4" stroke-width="1" fill="none"></path></g><g transform="translate(1436.356355604099 633.6808173525353) rotate(0 30.015446352707386 0.20204099853225443)"><path d="M31.46 -10.15 C36.85 -8.24, 42.78 -5.68, 59.08 -0.51 M31.58 -10.53 C37.76 -7.54, 43.72 -5.34, 57.9 0.55" stroke="#5f3dc4" stroke-width="1" fill="none"></path></g></g><mask></mask><g stroke-linecap="round"><g transform="translate(1126.494270912247 620.8103134452956) rotate(0 -1.6151356824957475 123.70497794186204)"><path d="M-0.65 -0.81 C-1.55 85.82, -0.76 171.91, -3.54 247.81 M0.31 -0.35 C0.34 70.36, -0.73 141.48, -2.05 248.22" stroke="#5f3dc4" stroke-width="1" fill="none"></path></g></g><mask></mask><g stroke-linecap="round"><g transform="translate(1122.388039397229 870.4691895584065) rotate(0 165.3247088707073 0.4296145283931878)"><path d="M-0.94 -0.7 C92.83 0.17, 183.9 0.72, 331.59 1.56 M-0.05 -0.53 C72.26 0.68, 145.59 0.8, 331.53 0.44" stroke="#5f3dc4" stroke-width="1" fill="none"></path></g></g><mask></mask><g stroke-linecap="round"><g transform="translate(1454.171545810705 870.4691895584065) rotate(0 -0.48891640082001686 -97.76754290937225)"><path d="M0.64 -1.73 C0.03 -50.18, 1.05 -96.76, -1.62 -194.7 M-0.53 -0.67 C0.65 -51.11, -0.22 -101.28, 0.53 -194.87" stroke="#5f3dc4" stroke-width="1" fill="none"></path></g></g><mask></mask><g stroke-linecap="round"><g transform="translate(1454.9927921137087 675.0125694435367) rotate(0 18.581521924118988 -0.23642625390016292)"><path d="M-1.32 -1.26 C9.29 1.42, 17.55 1.09, 37.75 -0.15 M0.5 -0.75 C8.18 -0.31, 17.63 0.85, 38.48 0.67" stroke="#5f3dc4" stroke-width="1" fill="none"></path></g><g transform="translate(1454.9927921137087 675.0125694435367) rotate(0 18.581521924118988 -0.23642625390016292)"><path d="M19.01 5.89 C24.5 6.72, 27.74 4.8, 37.66 0.52 M20.77 6.38 C23.99 5.26, 28.89 4.94, 38.37 1.32" stroke="#5f3dc4" stroke-width="1" fill="none"></path></g><g transform="translate(1454.9927921137087 675.0125694435367) rotate(0 18.581521924118988 -0.23642625390016292)"><path d="M19.13 -7.31 C24.64 -3.21, 27.84 -1.84, 37.66 0.52 M20.89 -6.82 C24.02 -5.02, 28.89 -2.41, 38.37 1.32" stroke="#5f3dc4" stroke-width="1" fill="none"></path></g></g><mask></mask><g transform="translate(1450.8550712174592 497.3211520667003) rotate(0 50.5 12.5)"><text x="0" y="0" font-family="Virgil, Segoe UI Emoji" font-size="20px" fill="#1864ab" text-anchor="start" style="white-space: pre;" direction="ltr" dominant-baseline="text-before-edge">MemToReg</text></g><g stroke-linecap="round"><g transform="translate(1515.9791212056016 530.8258526466568) rotate(0 -0.5462353238835931 38.78023921131904)"><path d="M-1.62 0.76 C-0.98 17.87, -1.72 34.98, -1.42 76.97 M0.53 0.59 C-0.42 17.76, -1.02 34.18, -0.8 76.26" stroke="#1864ab" stroke-width="1" fill="none"></path></g><g transform="translate(1515.9791212056016 530.8258526466568) rotate(0 -0.5462353238835931 38.78023921131904)"><path d="M-12.67 48.82 C-9.51 54.54, -7.8 60.32, -2.14 77.26 M-10.52 48.65 C-8.97 55.13, -7.24 60.8, -1.52 76.54" stroke="#1864ab" stroke-width="1" fill="none"></path></g><g transform="translate(1515.9791212056016 530.8258526466568) rotate(0 -0.5462353238835931 38.78023921131904)"><path d="M7.85 48.83 C6.14 54.66, 2.98 60.44, -2.14 77.26 M10 48.66 C6.94 55.02, 4.05 60.69, -1.52 76.54" stroke="#1864ab" stroke-width="1" fill="none"></path></g></g><mask></mask><g stroke-linecap="round"><g transform="translate(1522.3311844304612 659.1209982153243) rotate(0 19.78698659329666 -0.036189659498631954)"><path d="M-0.85 -0.15 C13.06 -1.22, 27.93 0.84, 39.78 -0.74 M-0.12 0.67 C9.37 -0.24, 19.41 0.04, 40.42 -0.29" stroke="#5c940d" stroke-width="1" fill="none"></path></g></g><mask></mask><g stroke-linecap="round"><g transform="translate(1563.6141845516336 657.9067923294076) rotate(0 0.4045700970216046 174.57081181651287)"><path d="M-1.02 -0.69 C-1.37 118.68, -1.02 235.58, 0.62 349.83 M-0.45 0 C-0.25 125.46, 0.14 250.37, 1.96 349.14" stroke="#5c940d" stroke-width="1" fill="none"></path></g></g><mask></mask><g stroke-linecap="round"><g transform="translate(1567.2568022093842 1006.9566289928068) rotate(0 -624.9745216295619 0.6767953157888655)"><path d="M-0.53 0.4 C-365.9 -2.24, -731.03 -0.81, -1248.95 2.33 M-0.29 0.11 C-459.04 0.77, -917.01 1.77, -1249.66 2.2" stroke="#5c940d" stroke-width="1" fill="none"></path></g></g><mask></mask><g stroke-linecap="round"><g transform="translate(319.0531514868703 1011.766559424332) rotate(0 0.19060242988859954 -153.44314527254284)"><path d="M-1.09 -0.54 C0.66 -74.69, 2.33 -151.09, 0.97 -306.68 M-0.62 -0.21 C2.25 -91.64, 1.14 -183.69, -0.07 -305.67" stroke="#5c940d" stroke-width="1" fill="none"></path></g></g><mask></mask><g stroke-linecap="round"><g transform="translate(319.9789120367641 705.758854457672) rotate(0 56.795084856107906 -0.1850619874894619)"><path d="M-1.12 1.06 C41.17 0.19, 81.33 -0.97, 114.28 -1.43 M0.92 0 C36.92 -0.23, 74.98 0.32, 114.71 0.35" stroke="#5c940d" stroke-width="1" fill="none"></path></g><g transform="translate(319.9789120367641 705.758854457672) rotate(0 56.795084856107906 -0.1850619874894619)"><path d="M85.36 11.56 C97.62 6.82, 107.66 2.1, 114.71 -1.08 M87.41 10.5 C95.23 6.69, 105.03 3.91, 115.15 0.69" stroke="#5c940d" stroke-width="1" fill="none"></path></g><g transform="translate(319.9789120367641 705.758854457672) rotate(0 56.795084856107906 -0.1850619874894619)"><path d="M85.44 -8.96 C97.51 -6.52, 107.53 -4.05, 114.71 -1.08 M87.48 -10.02 C95.11 -7.1, 104.88 -3.13, 115.15 0.69" stroke="#5c940d" stroke-width="1" fill="none"></path></g></g><mask></mask><g stroke-linecap="round"><g transform="translate(605.6848718294364 891.7583589849116) rotate(0 11.520231537124118 8.274111399137695)"><path d="M-1.12 -0.18 C8.73 7.84, 18.17 12.61, 24.16 16.81 M-0.41 -0.26 C5.33 4.26, 8.98 7.16, 23.08 16.47" stroke="#364fc7" stroke-width="1" fill="none"></path></g></g><mask></mask><g transform="translate(614.1280515700591 871.9835488521849) rotate(0 9 12.5)"><text x="9" y="0" font-family="Virgil, Segoe UI Emoji" font-size="20px" fill="#364fc7" text-anchor="middle" style="white-space: pre;" direction="ltr" dominant-baseline="text-before-edge">16</text></g><g stroke-linecap="round"><g transform="translate(790.1947169438395 850.491136248678) rotate(0 12.106889878949914 7.323393279386835)"><path d="M0.69 -1.21 C8.92 3.97, 12.23 10.42, 24.1 15.35 M-0.37 -0.09 C7.52 3.3, 13.65 9.34, 24.58 15.85" stroke="#000000" stroke-width="1" fill="none"></path></g></g><mask></mask><g transform="translate(809.4747753468523 831.662656219555) rotate(0 14 12.5)"><text x="14" y="0" font-family="Virgil, Segoe UI Emoji" font-size="20px" fill="#000000" text-anchor="middle" style="white-space: pre;" direction="ltr" dominant-baseline="text-before-edge">32</text></g><g stroke-linecap="round"><g transform="translate(1086.1981779543198 543.8237494122607) rotate(0 29.094499568584865 0.18271573225922566)"><path d="M-1.85 1.12 C13.99 -0.63, 27.65 1.4, 60.04 -0.76 M0.31 0.64 C17.49 0.25, 33.38 1.01, 59.46 -0.42" stroke="#a61e4d" stroke-width="1" fill="none"></path></g></g><mask></mask><g stroke-linecap="round"><g transform="translate(1144.0879633053146 540.2882959281903) rotate(0 0.7923333622863993 -29.67526466021394)"><path d="M-0.1 -0.81 C0.26 -14.45, 2.29 -32.09, 0.74 -56.76 M0.38 -0.31 C-0.83 -11.4, 0.87 -24.08, 1.68 -59.04" stroke="#a61e4d" stroke-width="1" fill="none"></path></g></g><mask></mask><g stroke-linecap="round"><g transform="translate(301.8854938087111 480.3000537110868) rotate(0 -0.11388072317168962 209.8047675396979)"><path d="M-0.28 0.66 C0.56 148.82, -0.2 299.28, -1.04 419.37 M-0.45 0.24 C1.22 152.44, 1.27 304.93, -0.53 419.17" stroke="#364fc7" stroke-width="1" fill="none"></path></g></g><mask></mask><g stroke-linecap="round" transform="translate(142.44686381450265 483.30459928410005) rotate(0 55.64401509934919 47.71081320552423)"><path d="M1.25 -0.73 C28.7 0.91, 55.81 -0.06, 112.57 0.77 M0.68 -0.39 C30.69 -1.18, 58.88 -0.25, 112 0.7 M110.31 -1.38 C110.78 34.27, 111.19 71.93, 111.86 95.64 M111.37 -0.17 C112.11 33.89, 111.72 67.48, 111.94 96.18 M109.32 93.63 C84.52 94.26, 61.92 93.08, -1.32 94.98 M112.16 94.57 C86.67 95.09, 61.11 95.25, -0.78 95.13 M-1.49 94.97 C1.6 76.93, 0.27 55.45, 0.28 -1.23 M-0.08 95.25 C-1.82 70.33, -0.21 46.11, 0.72 -0.59" stroke="#364fc7" stroke-width="4" fill="none"></path></g><g transform="translate(142.26931745375487 421.34040412838044) rotate(0 59 25)"><text x="0" y="0" font-family="Virgil, Segoe UI Emoji" font-size="20px" fill="#000000" text-anchor="start" style="white-space: pre;" direction="ltr" dominant-baseline="text-before-edge">Instructions</text><text x="0" y="25" font-family="Virgil, Segoe UI Emoji" font-size="20px" fill="#000000" text-anchor="start" style="white-space: pre;" direction="ltr" dominant-baseline="text-before-edge">Memory</text></g><g transform="translate(152.84775782000406 494.89577952063996) rotate(0 38.5 12.5)"><text x="38.5" y="0" font-family="Virgil, Segoe UI Emoji" font-size="20px" fill="#0b7285" text-anchor="middle" style="white-space: pre;" direction="ltr" dominant-baseline="text-before-edge">Address</text></g><g transform="translate(152.757410911252 544.2202881942264) rotate(0 46.5 10.633705251172557)"><text x="46.5" y="0" font-family="Virgil, Segoe UI Emoji" font-size="17.013928401876058px" fill="#364fc7" text-anchor="middle" style="white-space: pre;" direction="ltr" dominant-baseline="text-before-edge">Instruction</text></g><g stroke-linecap="round"><g transform="translate(257.0929240142591 555.7228276480794) rotate(0 21.460989780001682 -0.739193387279613)"><path d="M-0.62 -1.67 C15.58 1.18, 28.57 1.36, 42.97 -1.97 M0.76 -0.43 C14.07 -0.8, 28.18 -0.36, 43.54 0.16" stroke="#364fc7" stroke-width="1" fill="none"></path></g><g transform="translate(257.0929240142591 555.7228276480794) rotate(0 21.460989780001682 -0.739193387279613)"><path d="M21.86 5.41 C30.31 6.06, 35.6 3.94, 42.18 -1.82 M23.24 6.65 C28.92 4.19, 35.46 2.38, 42.75 0.31" stroke="#364fc7" stroke-width="1" fill="none"></path></g><g transform="translate(257.0929240142591 555.7228276480794) rotate(0 21.460989780001682 -0.739193387279613)"><path d="M22.34 -9.75 C30.72 -4.07, 35.86 -1.18, 42.18 -1.82 M23.71 -8.5 C29.35 -6.03, 35.73 -2.91, 42.75 0.31" stroke="#364fc7" stroke-width="1" fill="none"></path></g></g><mask></mask><g stroke-linecap="round"><g transform="translate(164.65964663219438 119.70429967879068) rotate(0 0.05701086929718713 29.197403148737294)"><path d="M0.9 1.35 C-0.96 20.97, -1.54 36.91, 0.51 58.88 M-0.37 -0.49 C-0.25 21.2, -0.36 42.64, 0.1 57.75" stroke="#0b7285" stroke-width="2" fill="none"></path></g></g><mask></mask><g stroke-linecap="round"><g transform="translate(165.57178619268916 176.25695242946608) rotate(0 8.28661198541215 10.996673320948503)"><path d="M-0.78 1.52 C2.18 2.36, 7.51 10.19, 17.36 22.04 M-0.69 -0.05 C3.23 5.5, 8.22 10.91, 16.07 21.01" stroke="#0b7285" stroke-width="2" fill="none"></path></g></g><mask></mask><g stroke-linecap="round"><g transform="translate(181.0781587211004 196.78009254059793) rotate(0 -8.102167456859888 5.385415552598602)"><path d="M-1.32 -1.91 C-4.92 6.18, -9.43 10.97, -15.43 12.06 M-0.77 0.15 C-3.66 3.48, -7.32 6.88, -14.02 12.69" stroke="#0b7285" stroke-width="2" fill="none"></path></g></g><mask></mask><g stroke-linecap="round"><g transform="translate(165.57178619268916 208.63790682703006) rotate(0 0.02798830818881015 30.842595573237077)"><path d="M0.51 1.42 C1.14 24.69, -0.94 45.6, -0.52 60.19 M0.1 0.29 C-0.25 18.67, 0.37 36.28, 0.54 61.4" stroke="#0b7285" stroke-width="2" fill="none"></path></g></g><mask></mask><g stroke-linecap="round"><g transform="translate(166.939995533432 271.11946672092085) rotate(0 48.529855742766415 -18.28116366319739)"><path d="M1.39 1.52 C18.5 -8.76, 37.85 -16.75, 96.59 -38.08 M0.11 0.48 C31.06 -11.88, 61.06 -23.47, 96.95 -35.84" stroke="#0b7285" stroke-width="2" fill="none"></path></g></g><mask></mask><g stroke-linecap="round"><g transform="translate(165.11571641244154 119.70429967879068) rotate(0 48.978842918875785 20.42248682982995)"><path d="M-0.86 -0.73 C35.84 12.93, 73.26 27.77, 98.82 40.79 M0.59 -0.09 C32.51 12.69, 65.07 26.85, 98.38 41.58" stroke="#0b7285" stroke-width="2" fill="none"></path></g></g><mask></mask><g stroke-linecap="round"><g transform="translate(262.2585796051344 160.7505799010553) rotate(0 0.5217440906642992 35.95000450617749)"><path d="M-0.97 -1.38 C0.11 25.67, 1.03 54.71, 1.94 72.74 M0.08 -0.17 C1.17 25.91, 1.25 51.52, 2.02 73.28" stroke="#0b7285" stroke-width="2" fill="none"></path></g></g><mask></mask><g transform="translate(192.66786318342247 151.69099682273486) rotate(0 23.5 46.84343517373361)"><text x="0" y="0" font-family="Virgil, Segoe UI Emoji" font-size="74.9494962779737px" fill="#0b7285" text-anchor="start" style="white-space: pre;" direction="ltr" dominant-baseline="text-before-edge">+</text></g><g stroke-linecap="round" transform="translate(10 475.24578231763985) rotate(0 33 30)"><path d="M0.31 0.2 C15.83 0.75, 31.48 1.7, 65.83 0.16 M-0.13 0.99 C19.32 0.34, 36.62 -0.2, 65.3 -0.98 M67.26 -1.56 C64.24 12.2, 64.14 26.26, 64.19 61.74 M66.75 0.83 C65.73 12.59, 65.65 25.2, 65.59 59.25 M65.74 60.87 C47.95 59.41, 28.48 62.47, 1.53 59.84 M66.67 59.61 C48.07 58.99, 29.45 58.92, -0.19 60.77 M-0.32 61.35 C-1.23 39.86, -1.62 19.46, 0.88 -1.83 M-0.52 60.07 C-0.36 37.07, -0.35 11.79, 0.95 -0.77" stroke="#0b7285" stroke-width="4" fill="none"></path></g><g transform="translate(19.5 482.74578231763985) rotate(0 23.5 22.5)"><text x="23.5" y="0" font-family="Virgil, Segoe UI Emoji" font-size="36px" fill="#0b7285" text-anchor="middle" style="white-space: pre;" direction="ltr" dominant-baseline="text-before-edge">PC</text></g><g stroke-linecap="round"><g transform="translate(83.6377427614716 508.53608844533414) rotate(0 27.27057516249829 1.6701925280754608)"><path d="M0.97 1.18 C16.57 0.92, 33.14 2.09, 55.27 2.37 M-0.73 0.22 C20.84 -0.35, 42.15 0.95, 53.79 3.25" stroke="#0b7285" stroke-width="1" fill="none"></path></g><g transform="translate(83.6377427614716 508.53608844533414) rotate(0 27.27057516249829 1.6701925280754608)"><path d="M28.33 10.1 C35.37 7.3, 43.39 5.9, 55.07 3 M26.64 9.14 C37.16 5.48, 47.5 3.47, 53.59 3.88" stroke="#0b7285" stroke-width="1" fill="none"></path></g><g transform="translate(83.6377427614716 508.53608844533414) rotate(0 27.27057516249829 1.6701925280754608)"><path d="M30.87 -8.21 C37.17 -5.33, 44.41 -1.05, 55.07 3 M29.18 -9.17 C38.81 -5.51, 48.13 -0.22, 53.59 3.88" stroke="#0b7285" stroke-width="1" fill="none"></path></g></g><mask></mask><g stroke-linecap="round"><g transform="translate(107.40668205732891 511.48391594861937) rotate(0 0.9288794593460352 -132.68836012831895)"><path d="M-0.14 0.13 C-1.02 -82, 0.53 -165.02, 2.41 -263.95 M-0.55 -0.78 C1.13 -100.27, 2.01 -198.88, 0.23 -265.5" stroke="#0b7285" stroke-width="1" fill="none"></path></g></g><mask></mask><g stroke-linecap="round"><g transform="translate(110.80123439576028 250.72580345106894) rotate(0 24.925681476107684 -0.4625372253358364)"><path d="M-0.34 0.53 C18.95 -0.29, 37.29 1.26, 50.75 -1.45 M-0.89 -0.73 C15.66 1.11, 30.93 -0.18, 49 -0.71" stroke="#0b7285" stroke-width="1" fill="none"></path></g><g transform="translate(110.80123439576028 250.72580345106894) rotate(0 24.925681476107684 -0.4625372253358364)"><path d="M25.86 9.08 C35.68 4.96, 44.54 3.19, 50.52 -2.16 M25.31 7.83 C33.42 6.43, 40.17 2.15, 48.78 -1.42" stroke="#0b7285" stroke-width="1" fill="none"></path></g><g transform="translate(110.80123439576028 250.72580345106894) rotate(0 24.925681476107684 -0.4625372253358364)"><path d="M25.24 -7.74 C35.26 -5.83, 44.35 -1.56, 50.52 -2.16 M24.68 -8.99 C32.88 -4.97, 39.84 -3.83, 48.78 -1.42" stroke="#0b7285" stroke-width="1" fill="none"></path></g></g><mask></mask><g stroke-linecap="round"><g transform="translate(109.6533110587875 149.40108053074005) rotate(0 23.283719648182796 0.032181003943492215)"><path d="M1.29 -0.25 C16.22 1.46, 30.03 -1.02, 46.71 -0.49 M-0.19 0.63 C8.55 -0.14, 18.44 -0.01, 46.76 0" stroke="#0b7285" stroke-width="1" fill="none"></path></g><g transform="translate(109.6533110587875 149.40108053074005) rotate(0 23.283719648182796 0.032181003943492215)"><path d="M26.3 7.64 C33.7 6.71, 39.95 1.52, 47.2 -1.4 M24.82 8.53 C28.69 5.8, 33.64 4.16, 47.25 -0.91" stroke="#0b7285" stroke-width="1" fill="none"></path></g><g transform="translate(109.6533110587875 149.40108053074005) rotate(0 23.283719648182796 0.032181003943492215)"><path d="M26.31 -8.18 C33.68 -4.25, 39.93 -4.55, 47.2 -1.4 M24.83 -7.3 C28.56 -6.83, 33.5 -5.28, 47.25 -0.91" stroke="#0b7285" stroke-width="1" fill="none"></path></g></g><mask></mask><g transform="translate(75.14428898855613 124.60292196421437) rotate(0 11.5 22.5)"><text x="0" y="0" font-family="Virgil, Segoe UI Emoji" font-size="36px" fill="#0b7285" text-anchor="start" style="white-space: pre;" direction="ltr" dominant-baseline="text-before-edge">4</text></g><g stroke-linecap="round"><g transform="translate(852.2383908752649 175.7362227757169) rotate(0 0.03321003541338996 28.347229019728047)"><path d="M1.52 -1.45 C1.01 15.11, -1.4 31.23, -1.46 57.08 M-0.22 -0.71 C0.04 19.96, 0.42 40.87, 0.85 58.15" stroke="#0b7285" stroke-width="2" fill="none"></path></g></g><mask></mask><g stroke-linecap="round"><g transform="translate(853.1505304357602 232.2888755263923) rotate(0 8.833462070670663 9.980855499922654)"><path d="M0.44 -1.39 C4.02 5.82, 10.35 14.71, 17.22 18.96 M0.49 -0.91 C4.55 4.06, 8.26 10.39, 16.71 21.36" stroke="#0b7285" stroke-width="2" fill="none"></path></g></g><mask></mask><g stroke-linecap="round"><g transform="translate(868.656902964171 252.8120156375246) rotate(0 -7.518728828637279 5.376648505987646)"><path d="M-1.9 -1.73 C-4.7 2.43, -5.39 4.19, -15.88 12.34 M0.84 -0.83 C-2.46 3.45, -5.89 6.52, -15.35 12.49" stroke="#0b7285" stroke-width="2" fill="none"></path></g></g><mask></mask><g stroke-linecap="round"><g transform="translate(853.1505304357602 264.6698299239563) rotate(0 -0.24697574924914534 31.08563047805984)"><path d="M-1.46 -0.39 C0.76 12.62, -1.72 27.92, -0.97 62.56 M0.85 0.68 C1.38 13.73, -0.06 25.49, -0.4 61.01" stroke="#0b7285" stroke-width="2" fill="none"></path></g></g><mask></mask><g stroke-linecap="round"><g transform="translate(854.5187397765026 327.15138981784753) rotate(0 48.5142040994902 -18.19911078229927)"><path d="M1.26 -1.56 C19.3 -7.94, 39.57 -14.19, 94.87 -34.75 M0.75 0.83 C19.67 -8.78, 40.35 -16.88, 96.28 -37.23" stroke="#0b7285" stroke-width="2" fill="none"></path></g></g><mask></mask><g stroke-linecap="round"><g transform="translate(852.6944606555121 175.7362227757169) rotate(0 48.48136637371326 20.92036611426397)"><path d="M-1.32 -0.44 C26.48 13.15, 53.75 25.29, 96.8 42.28 M-0.78 -0.29 C35.7 13.56, 72.41 28.31, 98.29 41.12" stroke="#0b7285" stroke-width="2" fill="none"></path></g></g><mask></mask><g stroke-linecap="round"><g transform="translate(949.837323848205 216.7825029979815) rotate(0 0.5525395830621846 36.72854726321174)"><path d="M-1.42 0.99 C-1.99 17.82, -1.58 33.87, 2.73 74.02 M-0.86 -0.56 C-0.45 27.05, 0.26 56.12, 2.33 72.38" stroke="#0b7285" stroke-width="2" fill="none"></path></g></g><mask></mask><g stroke-linecap="round"><g transform="translate(802.2885187096363 673.0249732666564) rotate(0 -0.2416206943803445 -187.1952130678369)"><path d="M-1.1 1.06 C0.12 -103.05, 1.52 -207.25, -0.67 -375.45 M-0.25 -0.45 C1.37 -101.1, 1.64 -202.91, -1.42 -374.41" stroke="#000000" stroke-width="1" fill="none"></path></g></g><mask></mask><g stroke-linecap="round"><g transform="translate(263.6868177364013 195.8575288106806) rotate(0 292.8274100916084 2.1228637374927075)"><path d="M-0.68 0.68 C205.47 0.04, 410.53 0.28, 586.34 3.52 M-0.09 0.21 C143.5 2.72, 286.42 3.86, 586.33 4.03" stroke="#0b7285" stroke-width="1" fill="none"></path></g><g transform="translate(263.6868177364013 195.8575288106806) rotate(0 292.8274100916084 2.1228637374927075)"><path d="M556.41 15.93 C569.43 11.93, 579.59 5.3, 585.74 2.31 M557.89 14.77 C566.01 11.83, 572.36 9.61, 585.71 3.6" stroke="#0b7285" stroke-width="1" fill="none"></path></g><g transform="translate(263.6868177364013 195.8575288106806) rotate(0 292.8274100916084 2.1228637374927075)"><path d="M556.45 -4.59 C569.26 -1.42, 579.41 -0.88, 585.74 2.31 M557.93 -5.75 C565.95 -3.69, 572.29 -0.9, 585.71 3.6" stroke="#0b7285" stroke-width="1" fill="none"></path></g></g><mask></mask><g stroke-linecap="round"><g transform="translate(799.7638232363256 300.2116083742451) rotate(0 25.76653624868618 -0.04114352273398936)"><path d="M1.36 1.5 C20.87 -1.98, 37.82 -2.14, 48.53 -0.82 M0.97 -0.13 C11.63 -0.12, 21.77 -0.7, 50.57 0.76" stroke="#000000" stroke-width="1" fill="none"></path></g><g transform="translate(799.7638232363256 300.2116083742451) rotate(0 25.76653624868618 -0.04114352273398936)"><path d="M28.28 9.84 C37.8 3.65, 44.69 0.56, 49.45 -0.06 M27.89 8.2 C32.7 6.64, 36.99 4.36, 51.48 1.53" stroke="#000000" stroke-width="1" fill="none"></path></g><g transform="translate(799.7638232363256 300.2116083742451) rotate(0 25.76653624868618 -0.04114352273398936)"><path d="M28.95 -7.13 C38.06 -6.76, 44.7 -3.28, 49.45 -0.06 M28.55 -8.77 C33.18 -6.5, 37.31 -4.96, 51.48 1.53" stroke="#000000" stroke-width="1" fill="none"></path></g></g><mask></mask><g transform="translate(879.8920787157967 208.64786710786598) rotate(0 23.5 46.84343517373355)"><text x="0" y="0" font-family="Virgil, Segoe UI Emoji" font-size="74.9494962779737px" fill="#0b7285" text-anchor="start" style="white-space: pre;" direction="ltr" dominant-baseline="text-before-edge">+</text></g><g transform="translate(698.2420927405533 280.17050322325144) rotate(0 46 22.5)"><text x="0" y="0" font-family="Virgil, Segoe UI Emoji" font-size="36px" fill="#0b7285" text-anchor="start" style="white-space: pre;" direction="ltr" dominant-baseline="text-before-edge">SLL2</text></g><g stroke-linecap="round"><g transform="translate(952.3840804463953 252.4459227462487) rotate(0 24.802216216141005 0.26581225064285263)"><path d="M-1.12 -0.82 C9.62 -0.02, 23.28 2.36, 49.79 0.87 M0.91 0.76 C15.63 0.05, 30.48 -0.41, 50.72 -0.39" stroke="#0b7285" stroke-width="1" fill="none"></path></g></g><mask></mask><g stroke-linecap="round"><g transform="translate(1008.9197089697964 177.29939513519116) rotate(0 -0.2524828789060223 50.8253545493252)"><path d="M-1.49 -0.45 C0.49 23.91, -0.84 44.82, 0.28 101.46 M-0.08 -0.17 C-0.01 25.7, 1.6 52.26, 0.72 102.1" stroke="#1864ab" stroke-width="2" fill="none"></path></g></g><mask></mask><g stroke-linecap="round"><g transform="translate(1010.51183686272 278.39951633591704) rotate(0 11.450435986258299 -6.130617729489813)"><path d="M1.06 1.93 C5.82 -2.59, 12.34 -8.19, 22.21 -11.7 M-0.94 -0.63 C9.36 -5.44, 18.11 -10.74, 23.85 -14.19" stroke="#1864ab" stroke-width="2" fill="none"></path></g></g><mask></mask><g stroke-linecap="round"><g transform="translate(1032.8016273636686 267.25462108544366) rotate(0 1.028438468415061 -37.85914041750948)"><path d="M-0.26 0.87 C0.09 -22.45, -0.84 -40.61, 2.32 -76.58 M0.67 -0.39 C1.67 -22.19, 1.93 -43.86, 0.61 -75.65" stroke="#1864ab" stroke-width="2" fill="none"></path></g></g><mask></mask><g stroke-linecap="round"><g transform="translate(1032.005563417205 190.03641827858996) rotate(0 -10.55905366184652 -6.416470873466324)"><path d="M0.28 -1.23 C-9.39 -2.18, -15.51 -8.28, -21.84 -12.24 M0.72 -0.59 C-4.41 -3.2, -10.45 -4.22, -21.13 -9.45" stroke="#1864ab" stroke-width="2" fill="none"></path></g></g><mask></mask><g transform="translate(1013.6960926485708 200.38524958260155) rotate(0 7 12.5)"><text x="0" y="0" font-family="Virgil, Segoe UI Emoji" font-size="20px" fill="#1864ab" text-anchor="start" style="white-space: pre;" direction="ltr" dominant-baseline="text-before-edge">0</text></g><g transform="translate(1018.6370518455069 234.0569584774205) rotate(0 2.5 12.5)"><text x="0" y="0" font-family="Virgil, Segoe UI Emoji" font-size="20px" fill="#1864ab" text-anchor="start" style="white-space: pre;" direction="ltr" dominant-baseline="text-before-edge">1</text></g><g stroke-linecap="round"><g transform="translate(690.3780676641204 198.43772218497838) rotate(0 -1.443008256723715 -19.684747279302883)"><path d="M-0.35 -1.89 C-2.37 -14.22, -2.7 -29.66, -3.25 -38.21 M0.36 0.9 C-0.15 -9.44, -0.22 -18.91, -2.04 -40.27" stroke="#0b7285" stroke-width="1" fill="none"></path></g></g><mask></mask><g stroke-linecap="round"><g transform="translate(688.8176944041861 161.06613018463418) rotate(0 141.29457069382772 0.0019444204531282594)"><path d="M-0.95 1.01 C82.19 2.89, 164.67 2.7, 282.6 -1.14 M0.2 -0.12 C107.42 -2.53, 213.83 -3, 283.54 -0.52" stroke="#0b7285" stroke-width="1" fill="none"></path></g></g><mask></mask><g stroke-linecap="round"><g transform="translate(973.9876116237047 160.56494839309767) rotate(0 0.1797582011982115 22.226088723075577)"><path d="M-0.78 1.45 C-1.46 10.53, -1.6 17.65, 1.54 44.58 M0.67 -0.34 C0.14 16.57, 0.03 34.65, -0.91 44.79" stroke="#0b7285" stroke-width="1" fill="none"></path></g></g><mask></mask><g stroke-linecap="round"><g transform="translate(973.9876116237047 204.41744148533076) rotate(0 17.39153574185889 0.48945112619549036)"><path d="M-1.19 1.52 C11.2 -0.62, 26.59 0.48, 35.97 0.52 M0.02 -0.54 C9.61 0.55, 18.49 1.06, 33.51 -0.46" stroke="#0b7285" stroke-width="1" fill="none"></path></g></g><mask></mask><g stroke-linecap="round"><g transform="translate(1033.784804627231 228.33631868674115) rotate(0 60.396343335767426 0.48812801018357277)"><path d="M-1.32 -0.37 C47.12 -0.2, 92.96 -0.41, 122.12 1.35 M-0.09 0.44 C31.63 1.6, 64.42 0.2, 121.92 0.07" stroke="#0b7285" stroke-width="1" fill="none"></path></g></g><mask></mask><g stroke-linecap="round"><g transform="translate(1153.7914312255823 228.1060231183701) rotate(0 -0.13649654294917468 -73.70854083587744)"><path d="M1.54 0.73 C2.33 -55.28, -0.25 -110.25, -1.89 -148.36 M-0.91 0.94 C-0.83 -36.95, -0.98 -72.91, -1.96 -147.68" stroke="#0b7285" stroke-width="1" fill="none"></path></g></g><mask></mask><g stroke-linecap="round"><g transform="translate(1151.883937695611 81.64365373861278) rotate(0 -551.8053306338438 1.4038419286140424)"><path d="M0.72 0.21 C-310.86 2.15, -621.75 1.62, -1104.33 -0.07 M-0.26 -0.18 C-379.68 4.19, -759.24 4.45, -1104.19 -0.36" stroke="#0b7285" stroke-width="1" fill="none"></path></g></g><mask></mask><g stroke-linecap="round"><g transform="translate(46.27687445470292 84.55621608344904) rotate(0 -0.1195785349804055 193.6748375977229)"><path d="M-0.19 0.79 C1.65 130.47, 1.42 260.79, 0.51 386.69 M-0.3 0.04 C-1.94 153.28, -1.93 305.18, 0.56 387.31" stroke="#0b7285" stroke-width="1" fill="none"></path></g><g transform="translate(46.27687445470292 84.55621608344904) rotate(0 -0.1195785349804055 193.6748375977229)"><path d="M-10.52 360.65 C-7.01 368.74, -3.79 377.94, 1.43 385.48 M-10.71 359.37 C-6.89 371.12, -2.64 380.53, 1.51 386.54" stroke="#0b7285" stroke-width="1" fill="none"></path></g><g transform="translate(46.27687445470292 84.55621608344904) rotate(0 -0.1195785349804055 193.6748375977229)"><path d="M10 360.29 C6.61 368.55, 2.93 377.88, 1.43 385.48 M9.81 359.01 C5.54 370.8, 1.7 380.35, 1.51 386.54" stroke="#0b7285" stroke-width="1" fill="none"></path></g></g><mask></mask><g stroke-linecap="round"><g transform="translate(1023.8135186769834 331.81378627621757) rotate(0 -1.6750041304264585 -30.151026845843376)"><path d="M-0.68 0.04 C-2.02 -19.62, -1.1 -40.75, -1.29 -61.03 M-0.75 0.72 C-1.24 -16.06, -0.35 -31.07, -2.67 -58.98" stroke="#1864ab" stroke-width="1" fill="none"></path></g><g transform="translate(1023.8135186769834 331.81378627621757) rotate(0 -1.6750041304264585 -30.151026845843376)"><path d="M8.57 -31.52 C4.33 -40.59, 2.4 -51.19, -0.78 -60.3 M8.5 -30.84 C5.63 -39.42, 4.3 -46.24, -2.16 -58.25" stroke="#1864ab" stroke-width="1" fill="none"></path></g><g transform="translate(1023.8135186769834 331.81378627621757) rotate(0 -1.6750041304264585 -30.151026845843376)"><path d="M-11.85 -30.27 C-9.43 -39.89, -4.7 -50.89, -0.78 -60.3 M-11.91 -29.59 C-9.6 -38.5, -5.75 -45.64, -2.16 -58.25" stroke="#1864ab" stroke-width="1" fill="none"></path></g></g><mask></mask><g stroke-linecap="round"><g transform="translate(863.8965985963396 652.0997810393953) rotate(0 21.682447070304534 -0.7059966510513505)"><path d="M-1.08 -0.17 C16.91 -1.83, 33.95 -1.32, 42.72 -1.04 M-0.74 -0.91 C14.35 -1.08, 27.3 0.41, 44.45 -0.23" stroke="#1864ab" stroke-width="1" fill="none"></path></g><g transform="translate(863.8965985963396 652.0997810393953) rotate(0 21.682447070304534 -0.7059966510513505)"><path d="M22.91 7.21 C32.41 2.75, 40.93 0.47, 43.52 -1.27 M23.26 6.47 C31.28 4.13, 37.12 3.29, 45.25 -0.47" stroke="#1864ab" stroke-width="1" fill="none"></path></g><g transform="translate(863.8965985963396 652.0997810393953) rotate(0 21.682447070304534 -0.7059966510513505)"><path d="M22.8 -7.72 C32.29 -6.69, 40.85 -3.49, 43.52 -1.27 M23.15 -8.45 C31.09 -6.22, 36.96 -2.47, 45.25 -0.47" stroke="#1864ab" stroke-width="1" fill="none"></path></g></g><mask></mask><g stroke-linecap="round" transform="translate(943.7522145573794 778.0129516754048) rotate(0 54.413905612951794 48.35404261872702)"><path d="M0.88 -1.83 C34.76 -1.22, 64.83 -0.94, 108.97 -1.5 M0.95 -0.77 C41.04 1.72, 81.87 0.75, 108.17 0.17 M106.97 -0.98 C107.44 31.54, 108.42 62, 109.99 98.67 M108.77 0.13 C110.35 31.38, 109.15 63.08, 109.44 96.66 M108.31 96.53 C77.1 95.41, 41.66 95.41, -0.33 97.73 M108.85 96.13 C68.13 97.27, 25.33 97.77, -0.23 96.68 M0.66 98.59 C1.38 68.47, 2.08 37.16, -0.99 -1.69 M-0.98 97.01 C-0.51 63.49, -0.06 29.46, -0.5 0.55" stroke="#364fc7" stroke-width="2" fill="none"></path></g><g transform="translate(964.7403796108892 800.704971730012) rotate(0 35.5 25.531358508154568)"><text x="35.5" y="0" font-family="Virgil, Segoe UI Emoji" font-size="20.425086806523662px" fill="#364fc7" text-anchor="middle" style="white-space: pre;" direction="ltr" dominant-baseline="text-before-edge">ALU</text><text x="35.5" y="25.53135850815458" font-family="Virgil, Segoe UI Emoji" font-size="20.425086806523662px" fill="#364fc7" text-anchor="middle" style="white-space: pre;" direction="ltr" dominant-baseline="text-before-edge">Control</text></g><g stroke-linecap="round"><g transform="translate(560.0825263244924 900.4871983034027) rotate(0 -0.28254115932037394 70.6814179518687)"><path d="M-0.92 -1.04 C1.46 27.82, 2.77 57.17, -1.81 142.4 M0.8 -0.23 C0.05 31.54, 0.89 63.24, -0.1 139.57" stroke="#364fc7" stroke-width="1" fill="none"></path></g></g><mask></mask><g stroke-linecap="round"><g transform="translate(560.0825263244924 1040.9837044105277) rotate(0 222.6309060678838 0.20052794257665596)"><path d="M0.07 -0.74 C105.14 0.41, 207.97 2.06, 445.08 0.5 M-0.32 0.08 C166.43 0.75, 332.63 0.06, 445.59 -0.46" stroke="#364fc7" stroke-width="1" fill="none"></path></g></g><mask></mask><g stroke-linecap="round"><g transform="translate(1005.9100220817477 1042.0899761121589) rotate(0 0.24114932105291587 -82.94398367419518)"><path d="M1.45 -1.48 C-1.93 -39.29, -1.65 -81.36, 1.46 -164.34 M0.18 0.5 C1 -46.83, 0.61 -92.74, 0.38 -166.38" stroke="#364fc7" stroke-width="1" fill="none"></path></g><g transform="translate(1005.9100220817477 1042.0899761121589) rotate(0 0.24114932105291587 -82.94398367419518)"><path d="M12.19 -139.71 C6.34 -143.39, 4.04 -151.27, 1.84 -164.78 M10.92 -137.73 C7.96 -146.93, 4.7 -154.72, 0.76 -166.83" stroke="#364fc7" stroke-width="1" fill="none"></path></g><g transform="translate(1005.9100220817477 1042.0899761121589) rotate(0 0.24114932105291587 -82.94398367419518)"><path d="M-8.33 -139.64 C-9.09 -143.19, -6.29 -151.08, 1.84 -164.78 M-9.6 -137.66 C-6.88 -146.91, -4.46 -154.73, 0.76 -166.83" stroke="#364fc7" stroke-width="1" fill="none"></path></g></g><mask></mask><g stroke-linecap="round"><g transform="translate(1001.4849352752244 776.584767720741) rotate(0 -0.8121866536637015 -44.514525669929185)"><path d="M-1.81 1.9 C-2.18 -19.13, 0.81 -38.69, -0.47 -90.93 M-0.1 -0.93 C-0.66 -29.35, 0.22 -57.28, 0.22 -89.02" stroke="#364fc7" stroke-width="1" fill="none"></path></g><g transform="translate(1001.4849352752244 776.584767720741) rotate(0 -0.8121866536637015 -44.514525669929185)"><path d="M8.49 -58.87 C6.3 -66.18, 7.03 -71.95, -0.25 -90.35 M10.21 -61.7 C6.56 -70.61, 4.24 -79.09, 0.44 -88.44" stroke="#364fc7" stroke-width="1" fill="none"></path></g><g transform="translate(1001.4849352752244 776.584767720741) rotate(0 -0.8121866536637015 -44.514525669929185)"><path d="M-12.03 -59 C-9.61 -66.13, -4.27 -71.87, -0.25 -90.35 M-10.32 -61.83 C-7.45 -70.81, -3.27 -79.24, 0.44 -88.44" stroke="#364fc7" stroke-width="1" fill="none"></path></g></g><mask></mask><g stroke-linecap="round"><g transform="translate(339.60111997294734 470.79926931158593) rotate(0 16.777425055062395 9.562010802718078)"><path d="M-1.53 1.01 C8.99 5.73, 14.77 7.25, 34.45 20.06 M-0.49 -0.93 C12.29 6.76, 24.06 14.67, 35.09 19.91" stroke="#c92a2a" stroke-width="1" fill="none"></path></g></g><mask></mask><g stroke-linecap="round"><g transform="translate(343.1661461915751 517.0067164078698) rotate(0 17.74127632812224 9.527528293820296)"><path d="M1.46 1.6 C12.86 6.28, 27.14 15.75, 35.1 19.5 M0.38 -0.44 C7.19 4.98, 15.01 8.7, 34.91 19.32" stroke="#e67700" stroke-width="1" fill="none"></path></g></g><mask></mask><g transform="translate(331.6844878839356 448.02415740005404) rotate(0 21.5 10)"><text x="0" y="0" font-family="Virgil, Segoe UI Emoji" font-size="16px" fill="#c92a2a" text-anchor="start" style="white-space: pre;" direction="ltr" dominant-baseline="text-before-edge">25-21</text></g><g transform="translate(338.1209120923713 503.05893902667617) rotate(0 21.5 10)"><text x="0" y="0" font-family="Virgil, Segoe UI Emoji" font-size="16px" fill="#e67700" text-anchor="start" style="white-space: pre;" direction="ltr" dominant-baseline="text-before-edge">20-16</text></g><g stroke-linecap="round"><g transform="translate(367.14630059609044 558.1765989833905) rotate(0 -0.1428934460874416 51.56259568057874)"><path d="M0.99 -0.19 C-1.68 23.03, -1.69 48.79, -0.89 103.13 M0.8 -0.37 C0.95 36.92, 1.76 73.84, -0.45 103.5" stroke="#1864ab" stroke-width="2" fill="none"></path></g></g><mask></mask><g stroke-linecap="round"><g transform="translate(368.73842848901586 659.2767201841154) rotate(0 11.197678282372863 -6.72584787952627)"><path d="M-1.86 -0.98 C5.41 -3.52, 13.74 -8.15, 24.25 -11.57 M-0.05 0.13 C8.07 -4.02, 14.3 -7.82, 23.7 -13.58" stroke="#1864ab" stroke-width="2" fill="none"></path></g></g><mask></mask><g stroke-linecap="round"><g transform="translate(391.0282189899626 648.1318249336421) rotate(0 -0.1721880035546519 -37.70102132295136)"><path d="M-1.87 0.76 C0.05 -21.74, 2.34 -42.41, 1.24 -74.82 M0.75 0.25 C-0.2 -19.28, 1.07 -40.21, 0.89 -76.16" stroke="#1864ab" stroke-width="2" fill="none"></path></g></g><mask></mask><g stroke-linecap="round"><g transform="translate(390.2321550435008 570.9136221267888) rotate(0 -11.345310630821587 -4.901658481283732)"><path d="M-0.89 0.44 C-4.13 -0.55, -10.24 -3.51, -22.24 -10.46 M-0.45 0.81 C-6.18 -3.23, -13.42 -6.16, -21.54 -10.61" stroke="#1864ab" stroke-width="2" fill="none"></path></g></g><mask></mask><g transform="translate(371.9226842748649 581.2624534308) rotate(0 7 12.5)"><text x="0" y="0" font-family="Virgil, Segoe UI Emoji" font-size="20px" fill="#1864ab" text-anchor="start" style="white-space: pre;" direction="ltr" dominant-baseline="text-before-edge">0</text></g><g transform="translate(376.8636434718028 614.9341623256198) rotate(0 2.5 12.5)"><text x="0" y="0" font-family="Virgil, Segoe UI Emoji" font-size="20px" fill="#1864ab" text-anchor="start" style="white-space: pre;" direction="ltr" dominant-baseline="text-before-edge">1</text></g><g stroke-linecap="round"><g transform="translate(329.10594621827386 530.5237272661564) rotate(0 0.4329422675073147 31.146805487283814)"><path d="M-0.74 -0.11 C0.39 25.91, 0.63 47.92, 1.61 62.55 M-0.05 -0.26 C-0.03 19.09, -0.57 36.31, -0.62 61.17" stroke="#e67700" stroke-width="1" fill="none"></path></g></g><mask></mask><g stroke-linecap="round"><g transform="translate(328.67403567103383 593.1507566159728) rotate(0 18.136421030513247 0.6249741787098628)"><path d="M0.25 1.5 C14.12 -1.05, 28.85 0.91, 35.76 -0.25 M-0.09 0.96 C11.06 0.01, 22.74 -0.35, 36.36 0.39" stroke="#e67700" stroke-width="1" fill="none"></path></g><g transform="translate(328.67403567103383 593.1507566159728) rotate(0 18.136421030513247 0.6249741787098628)"><path d="M19.55 7.31 C26.26 3.04, 33.73 2.83, 36.28 0.55 M19.25 6.82 C24.32 4.24, 29.87 2.23, 36.82 1.12" stroke="#e67700" stroke-width="1" fill="none"></path></g><g transform="translate(328.67403567103383 593.1507566159728) rotate(0 18.136421030513247 0.6249741787098628)"><path d="M19.95 -4.94 C26.46 -4.55, 33.78 -0.11, 36.28 0.55 M19.65 -5.43 C24.58 -4.02, 30.01 -2.04, 36.82 1.12" stroke="#e67700" stroke-width="1" fill="none"></path></g></g><mask></mask><g stroke-linecap="round"><g transform="translate(301.46367119490606 626.8397793007023) rotate(0 31.442684945545352 0.1304007058948855)"><path d="M0.49 -0.91 C20.06 1.01, 36.8 0.22, 63.14 0.77 M-0.62 0.05 C16.54 -0.53, 34.84 0.69, 63.51 1.17" stroke="#364fc7" stroke-width="1" fill="none"></path></g><g transform="translate(301.46367119490606 626.8397793007023) rotate(0 31.442684945545352 0.1304007058948855)"><path d="M35.57 9.84 C45.05 8.93, 51.73 5.07, 64.03 1.07 M34.46 10.8 C42.26 7.68, 51.18 6.04, 64.39 1.47" stroke="#364fc7" stroke-width="1" fill="none"></path></g><g transform="translate(301.46367119490606 626.8397793007023) rotate(0 31.442684945545352 0.1304007058948855)"><path d="M36.07 -10.67 C45.43 -5.54, 51.96 -3.35, 64.03 1.07 M34.95 -9.71 C42.6 -7.2, 51.39 -3.22, 64.39 1.47" stroke="#364fc7" stroke-width="1" fill="none"></path></g></g><mask></mask><g transform="translate(344.1020659148153 738.2952132058255) rotate(0 36.5 12.5)"><text x="0" y="0" font-family="Virgil, Segoe UI Emoji" font-size="20px" fill="#1864ab" text-anchor="start" style="white-space: pre;" direction="ltr" dominant-baseline="text-before-edge">RegDst</text></g><g stroke-linecap="round"><g transform="translate(378.6484869740673 732.1167558880253) rotate(0 1.1522109298889518 -36.73652339944073)"><path d="M-0.09 0.18 C0.06 -18.7, -0.86 -37.39, 2.41 -74.29 M0.51 0.82 C1.49 -22, 0.78 -45.19, 1.35 -72.81" stroke="#1864ab" stroke-width="1" fill="none"></path></g><g transform="translate(378.6484869740673 732.1167558880253) rotate(0 1.1522109298889518 -36.73652339944073)"><path d="M11.23 -44.33 C9.07 -51.76, 5.5 -59.04, 3.27 -74.06 M11.83 -43.69 C9.34 -52.87, 5.44 -62.39, 2.21 -72.58" stroke="#1864ab" stroke-width="1" fill="none"></path></g><g transform="translate(378.6484869740673 732.1167558880253) rotate(0 1.1522109298889518 -36.73652339944073)"><path d="M-9.29 -44.55 C-6.22 -52.04, -4.57 -59.28, 3.27 -74.06 M-8.69 -43.91 C-4.92 -52.98, -2.55 -62.44, 2.21 -72.58" stroke="#1864ab" stroke-width="1" fill="none"></path></g></g><mask></mask><g stroke-linecap="round"><g transform="translate(310.7725307041278 617.6197344458617) rotate(0 17.367007048470896 10.166285373660003)"><path d="M0.52 -0.1 C11.79 6.9, 26.54 12.94, 34.22 18.45 M0.88 0.3 C9.8 4.73, 20.3 11.12, 33.72 20.43" stroke="#364fc7" stroke-width="1" fill="none"></path></g></g><mask></mask><g transform="translate(312.67804939032294 635.0218916898414) rotate(0 14.5 10)"><text x="0" y="0" font-family="Virgil, Segoe UI Emoji" font-size="16px" fill="#364fc7" text-anchor="start" style="white-space: pre;" direction="ltr" dominant-baseline="text-before-edge">15-11</text></g><g transform="translate(411.02399687551224 876.6144522517632) rotate(0 16 10)"><text x="0" y="0" font-family="Virgil, Segoe UI Emoji" font-size="16px" fill="#364fc7" text-anchor="start" style="white-space: pre;" direction="ltr" dominant-baseline="text-before-edge">15-0</text></g><g stroke-linecap="round"><g transform="translate(399.28512993218965 889.7192479406706) rotate(0 11.251639599515102 8.262011447632034)"><path d="M0.11 -1.25 C6.33 6.24, 14.78 12.06, 22.89 17.49 M-0.39 0.74 C5.32 4.15, 10.96 7.48, 22.39 17.77" stroke="#364fc7" stroke-width="1" fill="none"></path></g></g><mask></mask><g transform="translate(706.873806434799 1018.911297577627) rotate(0 14 10)"><text x="0" y="0" font-family="Virgil, Segoe UI Emoji" font-size="16px" fill="#364fc7" text-anchor="start" style="white-space: pre;" direction="ltr" dominant-baseline="text-before-edge">5-0</text></g><g stroke-linecap="round"><g transform="translate(695.134939491476 1032.0160932665347) rotate(0 11.375021273804805 8.55457546439888)"><path d="M1.64 1.77 C5.87 4.08, 9.41 9.89, 22.75 16.67 M0 -0.92 C8.38 6.85, 17.55 13.28, 22.66 18.03" stroke="#364fc7" stroke-width="1" fill="none"></path></g></g><mask></mask><g stroke-linecap="round" transform="translate(343.0521983823696 214.893397229808) rotate(0 54.413905612951794 95)"><path d="M0.6 0.05 C37.08 0.76, 76.92 -1.73, 110.3 -0.46 M0.1 0.33 C33.28 1.25, 65.07 1.6, 108.05 -0.49 M108.03 -1.96 C110.39 41.25, 111.25 83.13, 110.12 189 M108.5 0.23 C109.23 67.65, 110.38 135.42, 108.96 190.97 M108.45 189.32 C83.79 188.69, 59.01 190.92, -0.74 190.41 M108.41 189.01 C75.96 189, 42.14 189.83, 0.89 189.95 M-0.54 189.8 C-2.11 125.07, -1.61 56.08, -1.1 0.67 M0.66 189.1 C0.66 138.22, 0.52 86.34, 0.99 -0.73" stroke="#1864ab" stroke-width="4" fill="none"></path></g><g transform="translate(348.0521983823696 219.893397229808) rotate(0 42 90)"><text x="0" y="0" font-family="Virgil, Segoe UI Emoji" font-size="16px" fill="#1864ab" text-anchor="start" style="white-space: pre;" direction="ltr" dominant-baseline="text-before-edge">CU</text><text x="0" y="20" font-family="Virgil, Segoe UI Emoji" font-size="16px" fill="#1864ab" text-anchor="start" style="white-space: pre;" direction="ltr" dominant-baseline="text-before-edge">-RegDst</text><text x="0" y="40" font-family="Virgil, Segoe UI Emoji" font-size="16px" fill="#1864ab" text-anchor="start" style="white-space: pre;" direction="ltr" dominant-baseline="text-before-edge">-Branch</text><text x="0" y="60" font-family="Virgil, Segoe UI Emoji" font-size="16px" fill="#1864ab" text-anchor="start" style="white-space: pre;" direction="ltr" dominant-baseline="text-before-edge">-MemRead</text><text x="0" y="80" font-family="Virgil, Segoe UI Emoji" font-size="16px" fill="#1864ab" text-anchor="start" style="white-space: pre;" direction="ltr" dominant-baseline="text-before-edge">-MemtoReg</text><text x="0" y="100" font-family="Virgil, Segoe UI Emoji" font-size="16px" fill="#1864ab" text-anchor="start" style="white-space: pre;" direction="ltr" dominant-baseline="text-before-edge">-ALUOp</text><text x="0" y="120" font-family="Virgil, Segoe UI Emoji" font-size="16px" fill="#1864ab" text-anchor="start" style="white-space: pre;" direction="ltr" dominant-baseline="text-before-edge">-MemWrite</text><text x="0" y="140" font-family="Virgil, Segoe UI Emoji" font-size="16px" fill="#1864ab" text-anchor="start" style="white-space: pre;" direction="ltr" dominant-baseline="text-before-edge">-ALUSrc</text><text x="0" y="160" font-family="Virgil, Segoe UI Emoji" font-size="16px" fill="#1864ab" text-anchor="start" style="white-space: pre;" direction="ltr" dominant-baseline="text-before-edge">- RegWrite</text></g><g stroke-linecap="round"><g transform="translate(301.8696279472474 481.8652147637015) rotate(0 1.108591433422987 -92.54697612146947)"><path d="M0.47 -0.77 C3.24 -56.56, 2.42 -112.19, 0.48 -185.09 M0.38 0.59 C-1.74 -62.23, -1.03 -122.97, 3 -185.69" stroke="#1864ab" stroke-width="1" fill="none"></path></g></g><mask></mask><g stroke-linecap="round"><g transform="translate(302.37002619513805 295.42171912386857) rotate(0 19.504322960757918 0.9792980329046941)"><path d="M1.47 -0.46 C15.05 0.37, 28.36 0.8, 39.78 2.45 M-0.78 -0.49 C11.85 0.46, 26.06 -0.26, 38.14 0.87" stroke="#1864ab" stroke-width="1" fill="none"></path></g><g transform="translate(302.37002619513805 295.42171912386857) rotate(0 19.504322960757918 0.9792980329046941)"><path d="M20.86 6.11 C26.58 4.43, 32.05 2.44, 38.79 2.71 M18.67 6.08 C24.65 5.1, 32.21 2.37, 37.18 1.16" stroke="#1864ab" stroke-width="1" fill="none"></path></g><g transform="translate(302.37002619513805 295.42171912386857) rotate(0 19.504322960757918 0.9792980329046941)"><path d="M21.59 -7.25 C27.06 -3.77, 32.25 -0.61, 38.79 2.71 M19.39 -7.28 C25.19 -3.92, 32.51 -2.32, 37.18 1.16" stroke="#1864ab" stroke-width="1" fill="none"></path></g></g><mask></mask><g stroke-linecap="round"><g transform="translate(286.26419363006244 366.3332837641908) rotate(0 16.876656834637743 10.223339195752715)"><path d="M-0.06 0 C7.21 5.43, 18.64 12.25, 34.6 20.45 M-0.84 0.51 C12.78 6.85, 23.39 14.62, 34.25 20.42" stroke="#1864ab" stroke-width="1" fill="none"></path></g></g><mask></mask><g transform="translate(283.2647169019924 389.2174716328334) rotate(0 21.5 10)"><text x="0" y="0" font-family="Virgil, Segoe UI Emoji" font-size="16px" fill="#1864ab" text-anchor="start" style="white-space: pre;" direction="ltr" dominant-baseline="text-before-edge">31-26</text></g><g transform="translate(1046.107706553274 368.5477597050939) rotate(0 101 52.07363566438147)"><text x="101" y="0" font-family="Virgil, Segoe UI Emoji" font-size="41.65890853150519px" fill="#1864ab" text-anchor="middle" style="white-space: pre;" direction="ltr" dominant-baseline="text-before-edge">Logic for </text><text x="101" y="52.073635664381484" font-family="Virgil, Segoe UI Emoji" font-size="41.65890853150519px" fill="#1864ab" text-anchor="middle" style="white-space: pre;" direction="ltr" dominant-baseline="text-before-edge">JUMPS</text></g><g transform="translate(901.0201066785803 340.0361947925795) rotate(0 115 12.5)"><text x="0" y="0" font-family="Virgil, Segoe UI Emoji" font-size="20px" fill="#1971c2" text-anchor="start" style="white-space: pre;" direction="ltr" dominant-baseline="text-before-edge">PCSrc = Branch + zero</text></g><g transform="translate(40.28193255794076 10) rotate(0 64.5 34.68442094501529)"><text x="0" y="0" font-family="Virgil, Segoe UI Emoji" font-size="55.49507351202446px" fill="#f783ac" text-anchor="start" style="white-space: pre;" direction="ltr" dominant-baseline="text-before-edge">Jump</text></g><g stroke-linecap="round"><g transform="translate(271.43624314670933 556.024542329514) rotate(0 4.934253246828632 -167.8856292814895)"><path d="M-0.71 1.91 C0.74 -101.35, 6.13 -210.45, 10.25 -336.96 M0.15 0.57 C2.13 -84.39, 3.97 -170.48, 10.58 -337.68" stroke="#f783ac" stroke-width="4" fill="none"></path></g></g><mask></mask><g stroke-linecap="round"><g transform="translate(282.79936771474445 172.77734098941937) rotate(0 1.9575187623640318 -25.851754610218677)"><path d="M1.78 -0.11 C-1.03 -13.6, 3.61 -21.37, 3.47 -49.34 M1.58 -1.08 C2.18 -14.91, 2.61 -26.52, 0.45 -51.6" stroke="#f783ac" stroke-width="4" fill="none"></path></g></g><mask></mask><g stroke-linecap="round"><g transform="translate(264.20516387614146 196.53660144985656) rotate(0 132.2446000283373 0.6817603715511495)"><path d="M-2.09 -0.68 C101.68 -0.23, 208.37 3.55, 264.23 0.43 M1.47 0.07 C68.33 1.43, 138.94 0.71, 266.58 2.04" stroke="#f783ac" stroke-width="4" fill="none"></path></g></g><mask></mask><g stroke-linecap="round"><g transform="translate(532.7881082115177 198.60262409859024) rotate(0 -0.0896024219781566 -35.013985404298865)"><path d="M1 0.36 C2.11 -18.48, 2.03 -26.31, -2.23 -67.8 M1.05 0.31 C1.58 -17.05, 2.15 -37.44, 2.03 -70.39" stroke="#f783ac" stroke-width="4" fill="none"></path></g></g><mask></mask><g stroke-linecap="round" transform="translate(360.2752170422567 92.20245768880659) rotate(0 53.716588867075245 28.407811420087796)"><path d="M85.34 5.57 C93.18 7.84, 100.25 12.85, 103.45 17.33 C106.65 21.8, 106.21 27.24, 104.51 32.41 C102.82 37.57, 99.71 44.46, 93.29 48.33 C86.87 52.19, 75.42 54.77, 65.98 55.59 C56.55 56.41, 45.91 55.21, 36.68 53.26 C27.45 51.31, 16.56 47.5, 10.59 43.87 C4.62 40.24, 1.63 36.31, 0.86 31.46 C0.09 26.6, 1.36 19.36, 5.97 14.75 C10.58 10.13, 20.24 6.16, 28.53 3.77 C36.82 1.38, 45.42 -0.56, 55.71 0.4 C66.01 1.36, 83.81 7.88, 90.3 9.52 C96.78 11.16, 95.53 10.12, 94.62 10.23 M22.96 6.41 C29.9 2.75, 41.31 -2.24, 51.64 -2.12 C61.98 -1.99, 76.57 4.18, 84.95 7.17 C93.34 10.17, 97.93 11.5, 101.95 15.85 C105.97 20.21, 109.85 27.66, 109.09 33.29 C108.32 38.92, 103.88 45.97, 97.36 49.63 C90.84 53.3, 79.83 54.53, 69.99 55.27 C60.15 56.01, 48.24 55.6, 38.31 54.07 C28.38 52.54, 16.25 49.54, 10.42 46.09 C4.59 42.65, 3.8 37.92, 3.32 33.41 C2.84 28.9, 3.92 23.72, 7.52 19.03 C11.13 14.35, 21.85 7.95, 24.95 5.29 C28.05 2.63, 25.24 2.67, 26.13 3.07" stroke="#f783ac" stroke-width="4" fill="none"></path></g><g transform="translate(391.5084416592132 108.02291301508171) rotate(0 22.5 12.5)"><text x="22.5" y="0" font-family="Virgil, Segoe UI Emoji" font-size="20px" fill="#f783ac" text-anchor="middle" style="white-space: pre;" direction="ltr" dominant-baseline="text-before-edge">sll 2</text></g><g stroke-linecap="round"><g transform="translate(286.9314130122118 123.19279741981154) rotate(0 36.99591698368732 -0.5024293433216371)"><path d="M3.29 -2.2 C23.94 -0.78, 47.92 1.53, 72.94 -1.3 M-1.23 0.93 C20.84 0.55, 41.76 2.4, 75.23 -0.32" stroke="#f783ac" stroke-width="4" fill="none"></path></g></g><mask></mask><g stroke-linecap="round"><g transform="translate(473.90646272260835 125.25882006854522) rotate(0 294.15088425902246 -0.07127492001029623)"><path d="M-0.8 -1.43 C236 -1.74, 470.67 -1.11, 589.1 1.72 M0.19 0.24 C138.83 -3.05, 279.52 -2.41, 588.04 1.66" stroke="#f783ac" stroke-width="4" fill="none"></path></g></g><mask></mask><g transform="translate(279.70033374164393 218.22983926156007) rotate(0 13.945652878952217 -25.308777446987392)" stroke="none"><path fill="#f783ac" d="M -0.88,-1.76 Q -0.88,-1.76 0.27,-2.40 1.43,-3.05 3.06,-4.22 4.69,-5.38 6.34,-6.18 7.98,-6.98 9.64,-7.64 11.29,-8.31 13.32,-9.57 15.34,-10.83 16.80,-11.96 18.27,-13.10 19.85,-14.21 21.42,-15.33 22.52,-16.77 23.63,-18.20 24.36,-19.68 25.09,-21.16 25.32,-22.52 25.55,-23.88 25.40,-25.47 25.24,-27.06 24.85,-28.26 24.46,-29.45 23.79,-30.34 23.11,-31.23 22.02,-32.52 20.93,-33.81 19.83,-34.95 18.74,-36.09 17.30,-37.09 15.85,-38.09 14.49,-39.18 13.12,-40.27 11.97,-40.52 10.81,-40.77 9.15,-41.63 7.48,-42.48 6.43,-42.67 5.39,-42.87 4.14,-43.30 2.89,-43.72 1.24,-44.56 -0.40,-45.40 -0.81,-46.39 -1.22,-47.37 -1.02,-48.81 -0.82,-50.24 0.97,-52.13 2.76,-54.01 3.18,-54.17 3.59,-54.32 4.03,-54.34 4.47,-54.35 4.90,-54.23 5.32,-54.10 5.68,-53.85 6.04,-53.59 6.30,-53.23 6.56,-52.88 6.70,-52.46 6.83,-52.04 6.82,-51.59 6.81,-51.15 6.66,-50.74 6.51,-50.32 6.24,-49.97 5.97,-49.63 5.60,-49.39 5.23,-49.15 4.80,-49.04 4.37,-48.93 3.93,-48.96 3.49,-48.99 3.08,-49.16 2.68,-49.33 2.34,-49.63 2.01,-49.92 1.79,-50.30 1.57,-50.68 1.49,-51.12 1.40,-51.55 1.46,-51.99 1.51,-52.43 1.70,-52.82 1.90,-53.22 2.21,-53.54 2.52,-53.85 2.91,-54.05 3.31,-54.25 3.74,-54.31 4.18,-54.37 4.61,-54.29 5.05,-54.22 5.43,-54.00 5.82,-53.79 6.12,-53.46 6.42,-53.13 6.59,-52.73 6.77,-52.33 6.81,-51.89 6.85,-51.45 6.75,-51.02 6.64,-50.59 6.41,-50.21 6.17,-49.84 5.83,-49.56 5.49,-49.28 5.49,-49.28 5.49,-49.28 5.01,-48.61 4.54,-47.94 5.53,-47.49 6.51,-47.03 7.93,-46.57 9.35,-46.10 10.69,-45.38 12.04,-44.66 13.77,-44.00 15.50,-43.35 16.74,-42.32 17.97,-41.29 19.84,-40.10 21.71,-38.90 22.83,-37.67 23.96,-36.44 25.28,-34.94 26.60,-33.45 27.42,-31.97 28.24,-30.50 28.57,-28.93 28.90,-27.36 29.04,-25.24 29.18,-23.12 28.71,-21.34 28.24,-19.56 27.32,-17.85 26.40,-16.13 25.01,-14.25 23.63,-12.37 22.14,-11.26 20.65,-10.16 19.10,-8.86 17.55,-7.57 15.27,-5.90 12.99,-4.24 11.52,-3.61 10.05,-2.99 7.64,-1.71 5.24,-0.44 4.27,0.11 3.31,0.67 2.09,1.22 0.88,1.76 0.65,1.84 0.43,1.92 0.19,1.94 -0.03,1.96 -0.27,1.93 -0.50,1.90 -0.72,1.81 -0.94,1.72 -1.14,1.58 -1.33,1.44 -1.48,1.26 -1.64,1.08 -1.74,0.87 -1.85,0.66 -1.90,0.43 -1.95,0.19 -1.95,-0.03 -1.95,-0.27 -1.88,-0.50 -1.82,-0.73 -1.71,-0.94 -1.59,-1.15 -1.43,-1.32 -1.27,-1.49 -1.07,-1.63 -0.88,-1.76 -0.88,-1.76 L -0.88,-1.76 Z"></path></g><g stroke-linecap="round"><g transform="translate(1105.526895737384 159.51536266264793) rotate(0 -0.22947433684021235 51.347560724466234)"><path d="M-0.71 -1.75 C-0.77 32.52, 2.38 60.72, -1.44 104.44 M0.99 0.34 C-0.8 30.7, -0.89 61.4, 0.2 103.5" stroke="#f783ac" stroke-width="4" fill="none"></path></g></g><mask></mask><g stroke-linecap="round"><g transform="translate(1107.1190236303075 260.6154838633738) rotate(0 11.174466060921759 -6.409491870653824)"><path d="M-1.35 1.3 C8.58 -5.46, 12.05 -5.93, 23.08 -14.12 M-0.5 -0.11 C6.98 -4.8, 15.48 -8.3, 23.7 -12.81" stroke="#f783ac" stroke-width="4" fill="none"></path></g></g><mask></mask><g stroke-linecap="round"><g transform="translate(1129.4088141312561 249.47058861290043) rotate(0 0.6093107154592872 -38.604252901830364)"><path d="M1.81 -1.72 C-0.76 -14.51, 0.85 -33.1, 1.47 -74.45 M-0.59 -0.2 C0.85 -24.71, 1.53 -50.31, 1.35 -77.01" stroke="#f783ac" stroke-width="4" fill="none"></path></g></g><mask></mask><g stroke-linecap="round"><g transform="translate(1128.6127501847925 172.25238580604673) rotate(0 -11.10622256955594 -4.802227497397666)"><path d="M-1.44 1.75 C-7.94 -4.55, -15.11 -5.77, -20.82 -11.35 M0.2 0.81 C-5.55 -2.32, -11.83 -6.62, -22.42 -10.42" stroke="#f783ac" stroke-width="4" fill="none"></path></g></g><mask></mask><g transform="translate(1115.002957874557 182.60121711005831) rotate(0 2.5 12.5)"><text x="0" y="0" font-family="Virgil, Segoe UI Emoji" font-size="20px" fill="#f783ac" text-anchor="start" style="white-space: pre;" direction="ltr" dominant-baseline="text-before-edge">1</text></g><g transform="translate(1111.9906150649722 216.27292600487726) rotate(0 7 12.5)"><text x="0" y="0" font-family="Virgil, Segoe UI Emoji" font-size="20px" fill="#f783ac" text-anchor="start" style="white-space: pre;" direction="ltr" dominant-baseline="text-before-edge">0</text></g><g stroke-linecap="round"><g transform="translate(1035.2110449253482 228.85799017711406) rotate(0 34.90608107822146 -0.6128521639096789)"><path d="M-1.52 -0.47 C22.87 -2.69, 45.19 2.62, 71.54 -1.26 M-1.73 -0.76 C25.91 1.31, 53.03 -1.01, 67.85 -1.43" stroke="#f783ac" stroke-width="4" fill="none"></path></g></g><mask></mask><g stroke-linecap="round"><g transform="translate(1062.2792952953364 126.83150801331203) rotate(0 0.9130932519585144 32.260424891025195)"><path d="M3.58 2.9 C-0.99 12.41, -1.92 27.08, -1.72 63.21 M0.04 1.31 C-1.59 19.86, -1.18 39.25, 0.21 61.18" stroke="#f783ac" stroke-width="4" fill="none"></path></g></g><mask></mask><g stroke-linecap="round"><g transform="translate(1062.973352997131 187.90858577123436) rotate(0 18.79241080758942 1.197457326592371)"><path d="M-2.48 0.42 C11.97 1.67, 21.92 2.61, 40.07 3.36 M-0.33 -0.27 C8.27 -1.39, 18.98 -0.85, 40.06 -0.74" stroke="#f783ac" stroke-width="4" fill="none"></path></g></g><mask></mask><g stroke-linecap="round"><g transform="translate(1116.0176373972618 305.8341220727593) rotate(0 1.6119694055675922 -23.642338603401754)"><path d="M0.23 2.07 C-1.07 -13.24, 0.29 -37.16, 3.58 -47.59 M0.53 -1.71 C-0.95 -13.21, -0.79 -27.21, 2.72 -49.36" stroke="#f783ac" stroke-width="4" fill="none"></path></g><g transform="translate(1116.0176373972618 305.8341220727593) rotate(0 1.6119694055675922 -23.642338603401754)"><path d="M8.21 -23.9 C4.77 -30.5, 3.73 -45.82, 4.7 -49.03 M8.51 -27.68 C5.29 -32.32, 3.53 -39.43, 3.84 -50.8" stroke="#f783ac" stroke-width="4" fill="none"></path></g><g transform="translate(1116.0176373972618 305.8341220727593) rotate(0 1.6119694055675922 -23.642338603401754)"><path d="M-8.05 -25.99 C-5.77 -32.13, -1.11 -46.72, 4.7 -49.03 M-7.76 -29.77 C-6.39 -33.77, -3.59 -40.29, 3.84 -50.8" stroke="#f783ac" stroke-width="4" fill="none"></path></g></g><mask></mask><g transform="translate(1093.0992860202482 310.71856083671946) rotate(0 23.5 12.5)"><text x="0" y="0" font-family="Virgil, Segoe UI Emoji" font-size="20px" fill="#f783ac" text-anchor="start" style="white-space: pre;" direction="ltr" dominant-baseline="text-before-edge">Jump</text></g><g stroke-linecap="round"><g transform="translate(586.6899933833258 70.22454260818381) rotate(0 -23.84220311463457 19.903728327992667)"><path d="M1.26 -1.62 C-14.19 11.12, -20.97 20.43, -48.98 41.43 M1.29 0.62 C-11.2 10.81, -24.9 22.87, -47.44 40.38" stroke="#f783ac" stroke-width="4" fill="none"></path></g><g transform="translate(586.6899933833258 70.22454260818381) rotate(0 -23.84220311463457 19.903728327992667)"><path d="M-30.49 13.19 C-38.59 22.85, -37.99 28.84, -49.85 42.35 M-30.46 15.43 C-34.65 21.25, -39.94 29.53, -48.31 41.3" stroke="#f783ac" stroke-width="4" fill="none"></path></g><g transform="translate(586.6899933833258 70.22454260818381) rotate(0 -23.84220311463457 19.903728327992667)"><path d="M-17.72 29.26 C-28.93 34.97, -31.38 37.12, -49.85 42.35 M-17.69 31.5 C-25.48 33.18, -34.24 37.09, -48.31 41.3" stroke="#f783ac" stroke-width="4" fill="none"></path></g></g><mask></mask><g transform="translate(509.8908262921648 10.702079925843236) rotate(0 141 25)"><text x="0" y="0" font-family="Virgil, Segoe UI Emoji" font-size="20px" fill="#f783ac" text-anchor="start" style="white-space: pre;" direction="ltr" dominant-baseline="text-before-edge">Just connect the wires</text><text x="0" y="25" font-family="Virgil, Segoe UI Emoji" font-size="20px" fill="#f783ac" text-anchor="start" style="white-space: pre;" direction="ltr" dominant-baseline="text-before-edge">(no special operation needed)</text></g><g stroke-linecap="round"><g transform="translate(490.9656439375922 182.52003343636352) rotate(0 -13.079453266143219 13.494309051446862)"><path d="M-2.91 3 C-5.58 10.06, -16.86 12.4, -27.32 24.31 M1.16 1.94 C-7.74 10.19, -19.09 14.62, -23.68 25.05" stroke="#f783ac" stroke-width="4" fill="none"></path></g></g><mask></mask><g transform="translate(464.2854298467556 161.08057568479853) rotate(0 27 12.5)"><text x="0" y="0" font-family="Virgil, Segoe UI Emoji" font-size="20px" fill="#f783ac" text-anchor="start" style="white-space: pre;" direction="ltr" dominant-baseline="text-before-edge">31-26</text></g><g stroke-linecap="round"><g transform="translate(294.04926001627985 280.2488503242887) rotate(0 -14.340547184884485 1.656636124288184)"><path d="M-2.18 -3.63 C-9.88 3.51, -24.18 5.23, -25.07 6.95 M1.28 0.4 C-7.41 -0.02, -13.84 3.58, -29.96 6.6" stroke="#f783ac" stroke-width="4" fill="none"></path></g></g><mask></mask><g transform="translate(205.44373805962618 274.29071953917787) rotate(0 24 12.5)"><text x="0" y="0" font-family="Virgil, Segoe UI Emoji" font-size="20px" fill="#f783ac" text-anchor="start" style="white-space: pre;" direction="ltr" dominant-baseline="text-before-edge">25-0</text></g><g stroke-linecap="round"><g transform="translate(662.6245548678244 112.59781146595924) rotate(0 -13.248154618694798 10.230979010947294)"><path d="M-0.43 -3.81 C-11.21 5.67, -15.58 11.57, -25.6 22.65 M0.6 -0.78 C-4.47 6.68, -12.81 10.21, -27.1 24.27" stroke="#f783ac" stroke-width="4" fill="none"></path></g></g><mask></mask><g transform="translate(644.3846592795297 87.10211186115112) rotate(0 14 12.5)"><text x="0" y="0" font-family="Virgil, Segoe UI Emoji" font-size="20px" fill="#f783ac" text-anchor="start" style="white-space: pre;" direction="ltr" dominant-baseline="text-before-edge">32</text></g><g stroke-linecap="round"><g transform="translate(501.9934048900225 108.69106361333388) rotate(0 -11.500467517330662 14.738575920947142)"><path d="M-1.15 2.33 C-7.85 5.76, -7.95 7.05, -21.94 27.8 M1.59 1.68 C-5.47 7.4, -14.34 13.41, -24.59 23.01" stroke="#f783ac" stroke-width="4" fill="none"></path></g></g><mask></mask><g transform="translate(486.56707052747925 87.4157058471535) rotate(0 14.5 12.5)"><text x="0" y="0" font-family="Virgil, Segoe UI Emoji" font-size="20px" fill="#f783ac" text-anchor="start" style="white-space: pre;" direction="ltr" dominant-baseline="text-before-edge">28</text></g><g stroke-linecap="round"><g transform="translate(352.7254657494375 50.7578213093509) rotate(0 4.7604394055758235 21.56984180545726)"><path d="M2.33 -1.3 C1.57 13.43, 5.67 22.51, 11.43 44.44 M-1.91 -0.57 C5.43 17.4, 10.14 33.41, 11.1 43.21" stroke="#f783ac" stroke-width="4" fill="none"></path></g><g transform="translate(352.7254657494375 50.7578213093509) rotate(0 4.7604394055758235 21.56984180545726)"><path d="M1.84 21.91 C1.2 30.98, 5.46 34.43, 11.65 42.7 M-2.4 22.63 C5.14 31.04, 10.13 37.46, 11.32 41.48" stroke="#f783ac" stroke-width="4" fill="none"></path></g><g transform="translate(352.7254657494375 50.7578213093509) rotate(0 4.7604394055758235 21.56984180545726)"><path d="M17.41 19.14 C13.25 29, 13.99 33.07, 11.65 42.7 M13.17 19.87 C14.74 29.13, 13.74 36.62, 11.32 41.48" stroke="#f783ac" stroke-width="4" fill="none"></path></g></g><mask></mask><g transform="translate(232.83125293283842 16.235358627010328) rotate(0 97.5 12.5)"><text x="0" y="0" font-family="Virgil, Segoe UI Emoji" font-size="20px" fill="#f783ac" text-anchor="start" style="white-space: pre;" direction="ltr" dominant-baseline="text-before-edge">add to ground wires</text></g><g transform="translate(347.62669069946094 408.4898173932705) rotate(0 32.5 12.5)"><text x="0" y="0" font-family="Virgil, Segoe UI Emoji" font-size="20px" fill="#f783ac" text-anchor="start" style="white-space: pre;" direction="ltr" dominant-baseline="text-before-edge">- Jump</text></g></svg>