<svg version="1.1" xmlns="http://www.w3.org/2000/svg" viewBox="0 0 1891.1996468565942 1527.610247099846" width="1891.1996468565942" height="1527.610247099846">
  <!-- svg-source:excalidraw -->
  
  <defs>
    <style class="style-fonts">
      @font-face {
        font-family: "Virgil";
        src: url("https://excalidraw.com/Virgil.woff2");
      }
      @font-face {
        font-family: "Cascadia";
        src: url("https://excalidraw.com/Cascadia.woff2");
      }
    </style>
  </defs>
  <g stroke-linecap="round" transform="translate(577.5785046004794 597.5725044207202) rotate(0 161.5014458600083 142.20168923986557)"><path d="M0.86 -0.42 C88.62 1.34, 174.47 -0.18, 323.03 -0.49 M-0.43 0.37 C92.31 1.15, 184.38 1.68, 322.54 -0.56 M322.94 0.36 C322.7 64.63, 321.99 133.14, 324.12 285.12 M323.2 -0.26 C324.23 77.94, 324.67 155.7, 322.84 283.89 M323.18 283.61 C248.75 282.86, 175.69 283.61, -0.65 284.14 M322.8 284.63 C234.31 283.74, 143.98 283.69, 0.48 284.44 M0.56 284.46 C-0.74 192.17, 0.46 97.6, 0.4 -1.14 M-0.24 283.94 C2.66 176.85, 1.44 70.15, 0.13 -0.31" stroke="#000000" stroke-width="4" fill="none"></path></g><g transform="translate(601.7033578982509 622.5470843516994) rotate(0 49.5 12.5)"><text x="0" y="0" font-family="Virgil, Segoe UI Emoji" font-size="20px" fill="#c92a2a" text-anchor="start" style="white-space: pre;" direction="ltr" dominant-baseline="text-before-edge">read reg 1</text></g><g transform="translate(600.382840327009 670.1805240858648) rotate(0 54 12.5)"><text x="0" y="0" font-family="Virgil, Segoe UI Emoji" font-size="20px" fill="#e67700" text-anchor="start" style="white-space: pre;" direction="ltr" dominant-baseline="text-before-edge">read reg 2</text></g><g transform="translate(599.8131041473698 746.4315390228547) rotate(0 43.5 12.5)"><text x="0" y="0" font-family="Virgil, Segoe UI Emoji" font-size="20px" fill="#5c940d" text-anchor="start" style="white-space: pre;" direction="ltr" dominant-baseline="text-before-edge">write reg</text></g><g transform="translate(592.1621060680118 843.3284470014576) rotate(0 68.5 12.5)"><text x="0" y="0" font-family="Virgil, Segoe UI Emoji" font-size="20px" fill="#5c940d" text-anchor="start" style="white-space: pre;" direction="ltr" dominant-baseline="text-before-edge">data to write</text></g><g stroke-linecap="round"><g transform="translate(441.8926555323578 629.8045883525793) rotate(0 63.9532388550042 0.09063686323901265)"><path d="M-1.11 0.5 C28.39 -0.42, 61.63 -1.94, 129.02 0.72 M-0.84 -0.11 C44.08 0.87, 88.52 1.04, 128.76 0.92" stroke="#c92a2a" stroke-width="1" fill="none"></path></g><g transform="translate(441.8926555323578 629.8045883525793) rotate(0 63.9532388550042 0.09063686323901265)"><path d="M99.46 11.7 C105.48 9.12, 115.31 5.23, 128.22 1.64 M99.73 11.08 C110.1 8.36, 119.99 5.03, 127.97 1.84" stroke="#c92a2a" stroke-width="1" fill="none"></path></g><g transform="translate(441.8926555323578 629.8045883525793) rotate(0 63.9532388550042 0.09063686323901265)"><path d="M99.45 -8.83 C105.61 -6.66, 115.45 -5.81, 128.22 1.64 M99.72 -9.44 C110.08 -5.16, 119.98 -1.5, 127.97 1.84" stroke="#c92a2a" stroke-width="1" fill="none"></path></g></g><mask></mask><g stroke-linecap="round"><g transform="translate(442.45885919839566 678.137315151353) rotate(0 63.433737516355905 -0.5227932578193304)"><path d="M1.31 -1.89 C37.17 3.21, 71.7 -0.5, 124.35 0.12 M0.93 -0.42 C44.5 -1.6, 86.86 -1.95, 125.94 0.84" stroke="#e67700" stroke-width="1" fill="none"></path></g><g transform="translate(442.45885919839566 678.137315151353) rotate(0 63.433737516355905 -0.5227932578193304)"><path d="M98.6 7.85 C106.9 9.46, 113.88 3.22, 124.6 0.96 M98.22 9.33 C108.24 5.82, 117 2.39, 126.19 1.69" stroke="#e67700" stroke-width="1" fill="none"></path></g><g transform="translate(442.45885919839566 678.137315151353) rotate(0 63.433737516355905 -0.5227932578193304)"><path d="M99.59 -12.65 C107.65 -5.23, 114.35 -5.65, 124.6 0.96 M99.2 -11.17 C108.77 -7.57, 117.19 -3.91, 126.19 1.69" stroke="#e67700" stroke-width="1" fill="none"></path></g></g><mask></mask><g stroke-linecap="round"><g transform="translate(534.9039019817992 759.1972223481573) rotate(0 17.95387223038074 -0.4567344450445603)"><path d="M-1.7 -1.42 C14.66 1.04, 26.6 1.18, 37.61 -1.15 M0.31 0.15 C12.79 -1.01, 24.54 -0.74, 37.28 -0.93" stroke="#5c940d" stroke-width="1" fill="none"></path></g><g transform="translate(534.9039019817992 759.1972223481573) rotate(0 17.95387223038074 -0.4567344450445603)"><path d="M18.62 4.16 C27.32 4.08, 32.02 1.91, 38.27 -1.62 M20.46 5.6 C26.31 2.56, 31.43 0.72, 37.97 -1.41" stroke="#5c940d" stroke-width="1" fill="none"></path></g><g transform="translate(534.9039019817992 759.1972223481573) rotate(0 17.95387223038074 -0.4567344450445603)"><path d="M18.51 -8.33 C27.32 -3.64, 32.06 -1.04, 38.27 -1.62 M20.35 -6.89 C26.13 -5.63, 31.3 -3.16, 37.97 -1.41" stroke="#5c940d" stroke-width="1" fill="none"></path></g></g><mask></mask><g transform="translate(618.9010826483745 948.1485951922281) rotate(0 44 37.5)"><text x="0" y="0" font-family="Virgil, Segoe UI Emoji" font-size="20px" fill="#1864ab" text-anchor="start" style="white-space: pre;" direction="ltr" dominant-baseline="text-before-edge">RegWrite</text><text x="0" y="25" font-family="Virgil, Segoe UI Emoji" font-size="20px" fill="#1864ab" text-anchor="start" style="white-space: pre;" direction="ltr" dominant-baseline="text-before-edge">0 = wb</text><text x="0" y="50" font-family="Virgil, Segoe UI Emoji" font-size="20px" fill="#1864ab" text-anchor="start" style="white-space: pre;" direction="ltr" dominant-baseline="text-before-edge">1  = noop</text></g><g stroke-linecap="round"><g transform="translate(663.9556239422509 941.9701378744279) rotate(0 -0.1030911672860384 -26.03922156294783)"><path d="M-1.16 -1.49 C2.11 -15.29, 0.6 -29.1, 0.54 -52.94 M0.96 0.87 C-0.15 -12.47, 0.22 -23.79, 0.47 -50.51" stroke="#1864ab" stroke-width="1" fill="none"></path></g><g transform="translate(663.9556239422509 941.9701378744279) rotate(0 -0.1030911672860384 -26.03922156294783)"><path d="M7.82 -27.82 C8.43 -34.36, 4.4 -40.88, 0.15 -52.17 M9.94 -25.46 C6.61 -32.25, 4.73 -37.07, 0.08 -49.74" stroke="#1864ab" stroke-width="1" fill="none"></path></g><g transform="translate(663.9556239422509 941.9701378744279) rotate(0 -0.1030911672860384 -26.03922156294783)"><path d="M-9.72 -28 C-4.4 -34.41, -3.7 -40.89, 0.15 -52.17 M-7.6 -25.64 C-6.72 -32.46, -4.4 -37.24, 0.08 -49.74" stroke="#1864ab" stroke-width="1" fill="none"></path></g></g><mask></mask><g transform="translate(779.2077657735053 621.6489024277453) rotate(0 51.5 12.5)"><text x="0" y="0" font-family="Virgil, Segoe UI Emoji" font-size="20px" fill="#c92a2a" text-anchor="start" style="white-space: pre;" direction="ltr" dominant-baseline="text-before-edge">reg 1 data</text></g><g transform="translate(778.2157286355705 756.4017804247276) rotate(0 56 12.5)"><text x="0" y="0" font-family="Virgil, Segoe UI Emoji" font-size="20px" fill="#e67700" text-anchor="start" style="white-space: pre;" direction="ltr" dominant-baseline="text-before-edge">reg 2 data</text></g><g stroke-linecap="round"><g transform="translate(914.1681396072963 638.0580783076997) rotate(0 64.32021264239802 1.418217189829818)"><path d="M-1.07 1.75 C29.58 1.74, 56.8 1.42, 129.38 2.88 M-0.2 0.17 C32.03 -0.2, 64.88 -0.29, 129.71 1.54" stroke="#c92a2a" stroke-width="1" fill="none"></path></g><g transform="translate(914.1681396072963 638.0580783076997) rotate(0 64.32021264239802 1.418217189829818)"><path d="M100.22 12.9 C108.04 9.87, 112.34 6.85, 129.59 2.09 M101.08 11.31 C107.63 8.76, 114.78 5.64, 129.92 0.75" stroke="#c92a2a" stroke-width="1" fill="none"></path></g><g transform="translate(914.1681396072963 638.0580783076997) rotate(0 64.32021264239802 1.418217189829818)"><path d="M100.7 -7.62 C108.28 -6, 112.47 -4.37, 129.59 2.09 M101.56 -9.2 C107.95 -6.53, 114.97 -4.44, 129.92 0.75" stroke="#c92a2a" stroke-width="1" fill="none"></path></g></g><mask></mask><g stroke-linecap="round"><g transform="translate(916.061923210782 771.9216800625754) rotate(0 26.80222197620992 0.8963702811898315)"><path d="M-1.89 -0.03 C20.74 1.22, 40.81 1.14, 55.49 1.86 M-0.98 -0.38 C17.25 -0.23, 33.65 1.28, 52.84 2.17" stroke="#e67700" stroke-width="1" fill="none"></path></g><g transform="translate(916.061923210782 771.9216800625754) rotate(0 26.80222197620992 0.8963702811898315)"><path d="M25.18 9.95 C36.93 7.4, 46.13 3.42, 54.53 1.77 M26.09 9.6 C35.52 6.63, 43.04 4.96, 51.87 2.08" stroke="#e67700" stroke-width="1" fill="none"></path></g><g transform="translate(916.061923210782 771.9216800625754) rotate(0 26.80222197620992 0.8963702811898315)"><path d="M26.19 -8.44 C37.57 -3.85, 46.38 -0.7, 54.53 1.77 M27.1 -8.79 C36.05 -5.92, 43.24 -1.77, 51.87 2.08" stroke="#e67700" stroke-width="1" fill="none"></path></g></g><mask></mask><g stroke-linecap="round"><g transform="translate(1049.215977265113 585.8876547669531) rotate(0 0.8911215337441263 52.73154179018559)"><path d="M1.83 1.85 C1.22 31.34, 0.72 58.57, 1.14 104.91 M0.84 -0.83 C-0.61 38.13, -0.02 75.19, 0.79 106.29" stroke="#000000" stroke-width="4" fill="none"></path></g></g><mask></mask><g stroke-linecap="round"><g transform="translate(1050.8998126013748 690.2854456152104) rotate(0 14.537628132054579 19.2026232931118)"><path d="M-1.3 -1.06 C9.22 9.97, 18.91 21.83, 27.57 39.46 M0.99 0.98 C11.89 14.4, 22.27 29.11, 30.37 37.37" stroke="#000000" stroke-width="4" fill="none"></path></g></g><mask></mask><g stroke-linecap="round"><g transform="translate(1079.5250133178324 728.1717406811102) rotate(0 -13.361557526691513 11.339257790629688)"><path d="M-1.31 -1.64 C-6.75 6.16, -18.82 12.6, -25.71 22.03 M-0.74 0.42 C-10.36 8.68, -18.85 16.28, -25.98 24.31" stroke="#000000" stroke-width="4" fill="none"></path></g></g><mask></mask><g stroke-linecap="round"><g transform="translate(1050.8998126013748 750.061600052519) rotate(0 0.4719380441292742 57.54445069561916)"><path d="M-0.75 0.17 C3.09 32.22, -0.1 69, 0.83 115.1 M0.17 -0.01 C-0.19 45.15, -0.34 88.05, 1.69 113.13" stroke="#000000" stroke-width="4" fill="none"></path></g></g><mask></mask><g stroke-linecap="round"><g transform="translate(1053.4255656057685 865.4043205864798) rotate(0 89.29760109215385 -34.361844580133265)"><path d="M-1.16 -1.78 C54.66 -19.72, 113.34 -40.37, 179.76 -68.62 M-0.48 -0.11 C44.36 -17.47, 88.12 -33.1, 177.71 -68.21" stroke="#000000" stroke-width="4" fill="none"></path></g></g><mask></mask><g stroke-linecap="round"><g transform="translate(1050.057894933244 585.8876547669531) rotate(0 90.26328397056795 37.817795450187305)"><path d="M-0.84 0.59 C70.81 27.1, 142.26 58.44, 180.83 75.1 M0.11 0.21 C67.46 28.14, 134.8 56.42, 181.37 75.43" stroke="#000000" stroke-width="4" fill="none"></path></g></g><mask></mask><g stroke-linecap="round"><g transform="translate(1229.3863582451697 661.6602448987528) rotate(0 1.3359166276553651 67.28418487742107)"><path d="M0.96 1.2 C3.23 38.41, 3.88 74.22, 0.69 133.32 M-0.2 -0.21 C0.52 52.69, 0.71 104, 2.29 134.78" stroke="#000000" stroke-width="4" fill="none"></path></g></g><mask></mask><g stroke-linecap="round"><g transform="translate(713.2908276808002 634.7188795185573) rotate(0 27.290515059663903 0.38193911246276)"><path d="M-0.16 1.49 C13.42 -0.85, 27.42 0.91, 54.74 0.01 M0.61 -0.78 C16.65 1.66, 33.46 1.79, 52.65 1.34" stroke="#c92a2a" stroke-width="1" fill="none"></path></g></g><mask></mask><g stroke-linecap="round"><g transform="translate(710.7650746764066 681.8662689338993) rotate(0 29.92002362129051 42.814844374063455)"><path d="M-1.22 -1.21 C17.38 23.9, 36.08 52.74, 61.06 86.84 M0.7 0.31 C14.27 19.68, 29.23 39.88, 60.82 85.02" stroke="#e67700" stroke-width="1" fill="none"></path></g></g><mask></mask><g stroke-linecap="round"><g transform="translate(980.0272003800692 745.9148737526351) rotate(0 -1.151886879936228 51.2909728719286)"><path d="M-1.96 1.44 C-1.49 27.88, 0.03 53.5, -1.34 100.73 M-0.64 0.39 C0.16 24.39, -0.92 47.31, -0.69 102.19" stroke="#1864ab" stroke-width="2" fill="none"></path></g></g><mask></mask><g stroke-linecap="round"><g transform="translate(981.6193282729937 847.0149949533605) rotate(0 10.31113854188493 -5.945955842834962)"><path d="M-1.75 1.84 C5.4 -1.97, 9.78 -8.57, 21.73 -13.73 M0.26 0.52 C7.82 -5.52, 16.49 -10.62, 22.37 -12.72" stroke="#1864ab" stroke-width="2" fill="none"></path></g></g><mask></mask><g stroke-linecap="round"><g transform="translate(1003.9091187739414 835.8700997028868) rotate(0 0.6924975877141151 -38.143871325039015)"><path d="M-0.23 1.41 C-0.38 -30.38, -0.09 -57.03, 2.2 -77.7 M-0.82 -0.42 C-0.62 -26.42, -0.37 -51.01, 0.92 -76.64" stroke="#1864ab" stroke-width="2" fill="none"></path></g></g><mask></mask><g stroke-linecap="round"><g transform="translate(1003.1130548274787 758.6518968960336) rotate(0 -11.07195520176083 -5.686704077123352)"><path d="M-1.34 -1.96 C-9.77 -4.1, -15.43 -9.24, -20.71 -9.83 M-0.69 -0.5 C-8.2 -2.92, -14.93 -7.6, -21.45 -10.87" stroke="#1864ab" stroke-width="2" fill="none"></path></g></g><mask></mask><g transform="translate(984.8035840588436 769.0007282000448) rotate(0 7 12.5)"><text x="0" y="0" font-family="Virgil, Segoe UI Emoji" font-size="20px" fill="#1864ab" text-anchor="start" style="white-space: pre;" direction="ltr" dominant-baseline="text-before-edge">0</text></g><g transform="translate(989.7445432557806 802.6724370948644) rotate(0 2.5 12.5)"><text x="0" y="0" font-family="Virgil, Segoe UI Emoji" font-size="20px" fill="#1864ab" text-anchor="start" style="white-space: pre;" direction="ltr" dominant-baseline="text-before-edge">1</text></g><g transform="translate(957.3782553966912 564.3951509941257) rotate(0 35 12.5)"><text x="0" y="0" font-family="Virgil, Segoe UI Emoji" font-size="20px" fill="#1864ab" text-anchor="start" style="white-space: pre;" direction="ltr" dominant-baseline="text-before-edge">ALUSrc</text></g><g stroke-linecap="round"><g transform="translate(986.9030476298071 597.6380682024169) rotate(0 2.7496136048675908 73.48594189765578)"><path d="M0.41 -1.51 C-0.63 43.59, 1.87 88.2, 5.33 148.22 M0.38 0.5 C2.56 44.43, 3 89.16, 4.45 148.48" stroke="#1864ab" stroke-width="1" fill="none"></path></g><g transform="translate(986.9030476298071 597.6380682024169) rotate(0 2.7496136048675908 73.48594189765578)"><path d="M-6.02 119.02 C-4.48 128.4, 0.03 137.28, 5.72 147.27 M-6.06 121.02 C-2.21 128.6, 0.26 137, 4.84 147.53" stroke="#1864ab" stroke-width="1" fill="none"></path></g><g transform="translate(986.9030476298071 597.6380682024169) rotate(0 2.7496136048675908 73.48594189765578)"><path d="M14.49 118.56 C10 128.03, 8.48 137.04, 5.72 147.27 M14.46 120.57 C12.17 128.37, 8.51 136.91, 4.84 147.53" stroke="#1864ab" stroke-width="1" fill="none"></path></g></g><mask></mask><g transform="translate(955.0007932728818 505.7808888106081) rotate(0 54.5 25)"><text x="0" y="0" font-family="Virgil, Segoe UI Emoji" font-size="20px" fill="#1864ab" text-anchor="start" style="white-space: pre;" direction="ltr" dominant-baseline="text-before-edge">0 = R-type</text><text x="0" y="25" font-family="Virgil, Segoe UI Emoji" font-size="20px" fill="#1864ab" text-anchor="start" style="white-space: pre;" direction="ltr" dominant-baseline="text-before-edge">1  = I-type</text></g><g stroke-linecap="round"><g transform="translate(441.98913432762174 1047.5081934216482) rotate(0 183.339985470471 0.23470918693394083)"><path d="M0.15 -1.1 C86.8 -0.28, 172.53 2.06, 366.94 1.48 M-0.26 0.44 C103.57 -1.28, 206.68 -1.1, 366.42 0.97" stroke="#364fc7" stroke-width="1" fill="none"></path></g></g><mask></mask><g stroke-linecap="round" transform="translate(810.4496629237719 966.4208046650926) rotate(0 54.413905612951794 83.75473707091606)"><path d="M-1.03 -0.13 C32.48 0.78, 67.86 -1.88, 108.06 -1.93 M-0.12 0.53 C42.64 -0.75, 82.38 0.2, 108.43 0.51 M107.38 1.1 C107.07 46.78, 108.79 89.85, 107.01 168.41 M109.55 -0.96 C109.95 34.72, 109.52 67.78, 109.81 168.05 M109.14 167.63 C85.24 169.86, 61.99 170.04, 1.49 167.04 M108.71 167.31 C73.41 167.33, 39.84 167.01, -0.65 167.98 M-1.89 167.48 C1.8 129.39, 1.48 93.92, 1.16 -1.99 M-0.1 167.01 C1.09 118.51, 1.97 70.19, 0.41 -0.66" stroke="#000000" stroke-width="4" fill="none"></path></g><g stroke-linecap="round"><g transform="translate(920.3444134754191 1048.5751327473924) rotate(0 10.978954562189529 -0.900995342758165)"><path d="M-0.21 -1.01 C5.24 -1.17, 13.16 -1.08, 22.17 -1.33 M0.32 -0.49 C6.45 -0.42, 13.55 -0.61, 21.98 -0.79" stroke="#000000" stroke-width="1" fill="none"></path></g></g><mask></mask><g stroke-linecap="round"><g transform="translate(941.5096085843443 1046.4412540959042) rotate(0 0.043020848998367 -113.53005651788024)"><path d="M-1.35 -1.11 C1.84 -77.7, 1.37 -154.66, 1.3 -226.41 M0.83 -0.65 C2.05 -82.4, 1.39 -164.18, -0.81 -224.73" stroke="#000000" stroke-width="1" fill="none"></path></g></g><mask></mask><g stroke-linecap="round"><g transform="translate(941.6831999903025 821.3170563638878) rotate(0 16.458020775030263 0.18279742483559858)"><path d="M-1.76 1.15 C14.23 1.31, 27.76 0.58, 34.57 0.32 M-0.21 -0.81 C8.98 0.97, 18.13 0.15, 34.67 -0.44" stroke="#000000" stroke-width="1" fill="none"></path></g></g><mask></mask><g transform="translate(828.0521168554696 1000.2595911799756) rotate(0 36 50)"><text x="36" y="0" font-family="Virgil, Segoe UI Emoji" font-size="16px" fill="#000000" text-anchor="middle" style="white-space: pre;" direction="ltr" dominant-baseline="text-before-edge">16 bit</text><text x="36" y="20" font-family="Virgil, Segoe UI Emoji" font-size="16px" fill="#000000" text-anchor="middle" style="white-space: pre;" direction="ltr" dominant-baseline="text-before-edge">sign</text><text x="36" y="40" font-family="Virgil, Segoe UI Emoji" font-size="16px" fill="#000000" text-anchor="middle" style="white-space: pre;" direction="ltr" dominant-baseline="text-before-edge">extension</text><text x="36" y="60" font-family="Virgil, Segoe UI Emoji" font-size="16px" fill="#000000" text-anchor="middle" style="white-space: pre;" direction="ltr" dominant-baseline="text-before-edge">I-type</text><text x="36" y="80" font-family="Virgil, Segoe UI Emoji" font-size="16px" fill="#000000" text-anchor="middle" style="white-space: pre;" direction="ltr" dominant-baseline="text-before-edge">isnstr.</text></g><g transform="translate(1091.228391519846 715.1044699778563) rotate(0 19.5 12.5)"><text x="19.5" y="0" font-family="Virgil, Segoe UI Emoji" font-size="20px" fill="#000000" text-anchor="middle" style="white-space: pre;" direction="ltr" dominant-baseline="text-before-edge">ALU</text></g><g stroke-linecap="round" transform="translate(1329.5407893441927 732.5188509675377) rotate(0 117.82589319579984 113.87954432807317)"><path d="M-0.35 0.61 C68.09 -2.26, 138.36 -0.68, 235.66 0.79 M-0.11 0.16 C49 1.21, 97.63 2.17, 234.86 -0.75 M237.07 -0.49 C236.54 51.23, 238.01 100.33, 235.64 227.54 M235.96 -0.29 C235.76 74.18, 234.63 149.52, 235.53 228.39 M234.79 227.54 C164.59 228.83, 90.73 229.01, 0.36 228.14 M236.26 227.21 C176.88 227.64, 118.3 226.69, -0.3 226.97 M-0.05 226.37 C0.26 162.55, -0.14 97.52, 1.22 -0.23 M0.85 227.11 C-0.59 153.5, 0.07 77.96, -0.4 0.13" stroke="#000000" stroke-width="4" fill="none"></path></g><g transform="translate(1193.4451016236892 673.6739500978119) rotate(0 12.5 22.5)"><text x="12.5" y="0" font-family="Virgil, Segoe UI Emoji" font-size="36px" fill="#a61e4d" text-anchor="middle" style="white-space: pre;" direction="ltr" dominant-baseline="text-before-edge">0</text></g><g stroke-linecap="round"><g transform="translate(1241.9215091619542 767.594240842307) rotate(0 37.60698789689263 0.4040011850173073)"><path d="M-0.14 -0.67 C21.97 2.07, 41.16 1.64, 74.9 1.01 M-0.89 0.73 C17.16 1.06, 33.13 -0.23, 76.11 0.72" stroke="#5f3dc4" stroke-width="1" fill="none"></path></g><g transform="translate(1241.9215091619542 767.594240842307) rotate(0 37.60698789689263 0.4040011850173073)"><path d="M47.66 10 C56.17 9.45, 61.82 6.14, 74.82 1.46 M46.91 11.4 C54.46 9.15, 59.88 5.61, 76.02 1.17" stroke="#5f3dc4" stroke-width="1" fill="none"></path></g><g transform="translate(1241.9215091619542 767.594240842307) rotate(0 37.60698789689263 0.4040011850173073)"><path d="M47.89 -10.52 C56.47 -5.27, 62.05 -2.78, 74.82 1.46 M47.14 -9.12 C54.55 -6.85, 59.92 -5.87, 76.02 1.17" stroke="#5f3dc4" stroke-width="1" fill="none"></path></g></g><mask></mask><g transform="translate(1159.9036454213528 756.765794372785) rotate(0 29 12.5)"><text x="29" y="0" font-family="Virgil, Segoe UI Emoji" font-size="20px" fill="#5f3dc4" text-anchor="middle" style="white-space: pre;" direction="ltr" dominant-baseline="text-before-edge">result</text></g><g transform="translate(579.2900566794078 569.5317177502018) rotate(0 60.5 12.5)"><text x="60.5" y="0" font-family="Virgil, Segoe UI Emoji" font-size="20px" fill="#000000" text-anchor="middle" style="white-space: pre;" direction="ltr" dominant-baseline="text-before-edge">Register file</text></g><g transform="translate(1330.2165288903068 676.0347957433904) rotate(0 34 25)"><text x="0" y="0" font-family="Virgil, Segoe UI Emoji" font-size="20px" fill="#000000" text-anchor="start" style="white-space: pre;" direction="ltr" dominant-baseline="text-before-edge">Data</text><text x="0" y="25" font-family="Virgil, Segoe UI Emoji" font-size="20px" fill="#000000" text-anchor="start" style="white-space: pre;" direction="ltr" dominant-baseline="text-before-edge">Memory</text></g><g transform="translate(1107.8707649318967 511.75198506980576) rotate(0 42 12.5)"><text x="0" y="0" font-family="Virgil, Segoe UI Emoji" font-size="20px" fill="#1864ab" text-anchor="start" style="white-space: pre;" direction="ltr" dominant-baseline="text-before-edge">OP Code</text></g><g stroke-linecap="round"><g transform="translate(1149.1599941674008 543.5155035335913) rotate(0 -0.2102873395174356 40.66915382825823)"><path d="M-0.89 0.96 C-0.21 17.71, -0.02 35.36, 0.4 80.43 M0.32 0.35 C0.97 28.01, -0.71 56.06, -0.77 80.99" stroke="#1864ab" stroke-width="1" fill="none"></path></g><g transform="translate(1149.1599941674008 543.5155035335913) rotate(0 -0.2102873395174356 40.66915382825823)"><path d="M-11.45 53.59 C-8.46 58.96, -5.91 65.15, 0.84 79.61 M-10.24 52.98 C-6.07 62.27, -3.98 71.99, -0.33 80.17" stroke="#1864ab" stroke-width="1" fill="none"></path></g><g transform="translate(1149.1599941674008 543.5155035335913) rotate(0 -0.2102873395174356 40.66915382825823)"><path d="M9.07 53.93 C7.66 59.07, 5.81 65.18, 0.84 79.61 M10.27 53.32 C7.41 62.55, 2.46 72.15, -0.33 80.17" stroke="#1864ab" stroke-width="1" fill="none"></path></g></g><mask></mask><g stroke-linecap="round"><g transform="translate(1138.2036914703835 565.0675165014001) rotate(0 12.111953105396424 7.289334312712924)"><path d="M-0.09 -1.23 C7.57 4.1, 12.97 7.43, 24.31 15.81 M0.15 0.01 C7.09 4.21, 11.78 9.36, 23.41 15.44" stroke="#1864ab" stroke-width="1" fill="none"></path></g></g><mask></mask><g transform="translate(1119.105187579386 558.5698096446874) rotate(0 7 12.5)"><text x="7" y="0" font-family="Virgil, Segoe UI Emoji" font-size="20px" fill="#1864ab" text-anchor="middle" style="white-space: pre;" direction="ltr" dominant-baseline="text-before-edge">2</text></g><g transform="translate(1347.900400625823 754.1435125739556) rotate(0 38.5 12.5)"><text x="38.5" y="0" font-family="Virgil, Segoe UI Emoji" font-size="20px" fill="#5f3dc4" text-anchor="middle" style="white-space: pre;" direction="ltr" dominant-baseline="text-before-edge">Address</text></g><g transform="translate(1347.4737923049672 807.7512586380972) rotate(0 42.5 25)"><text x="0" y="0" font-family="Virgil, Segoe UI Emoji" font-size="20px" fill="#e67700" text-anchor="start" style="white-space: pre;" direction="ltr" dominant-baseline="text-before-edge">Data to</text><text x="0" y="25" font-family="Virgil, Segoe UI Emoji" font-size="20px" fill="#e67700" text-anchor="start" style="white-space: pre;" direction="ltr" dominant-baseline="text-before-edge">write</text></g><g stroke-linecap="round"><g transform="translate(924.5395260966152 772.0104709696693) rotate(0 -1.1379440715738838 52.483113192163614)"><path d="M-0.25 -0.32 C-2.13 25.47, -0.4 52.5, -2.23 105.73 M0.26 -0.76 C0.3 22.4, -1.55 45.75, -2.54 103.59" stroke="#e67700" stroke-width="1" fill="none"></path></g></g><mask></mask><g stroke-linecap="round"><g transform="translate(922.7528302570445 876.5321775845962) rotate(0 185.62625299224385 1.2588432398793543)"><path d="M-0.16 0.28 C138.16 2.39, 276.41 2.5, 371.41 2.79 M0.06 -0.27 C78.16 1.46, 155.69 1.78, 371.4 1.57" stroke="#e67700" stroke-width="1" fill="none"></path></g></g><mask></mask><g stroke-linecap="round"><g transform="translate(1295.2789128076804 880.9989171835246) rotate(0 0.9014221359311705 -26.36880651050285)"><path d="M-1.09 -0.71 C1.23 -16.29, -0.39 -30.17, 2.89 -53.7 M0.81 0.96 C0.6 -20.4, -0.11 -39.35, 0.66 -52.07" stroke="#e67700" stroke-width="1" fill="none"></path></g></g><mask></mask><g stroke-linecap="round"><g transform="translate(1296.1722607274662 827.3980419963827) rotate(0 11.233708853718781 -0.645990435936028)"><path d="M0.46 -0.19 C5.25 -0.11, 11.1 0.27, 21.18 -0.74 M-0.67 0.23 C5.45 -0.83, 10.04 -0.7, 23.13 -1.52" stroke="#e67700" stroke-width="1" fill="none"></path></g><g transform="translate(1296.1722607274662 827.3980419963827) rotate(0 11.233708853718781 -0.645990435936028)"><path d="M12.99 2.82 C15.22 2.23, 18.04 1.8, 22.38 -0.56 M12.35 3.06 C15.35 1.84, 17.46 1.27, 23.49 -1" stroke="#e67700" stroke-width="1" fill="none"></path></g><g transform="translate(1296.1722607274662 827.3980419963827) rotate(0 11.233708853718781 -0.645990435936028)"><path d="M12.56 -4.91 C14.85 -3.87, 17.76 -2.68, 22.38 -0.56 M11.92 -4.67 C14.95 -4.28, 17.15 -3.22, 23.49 -1" stroke="#e67700" stroke-width="1" fill="none"></path></g></g><mask></mask><g transform="translate(1494.8647163282092 753.0153196496645) rotate(0 26.5 25)"><text x="0" y="0" font-family="Virgil, Segoe UI Emoji" font-size="20px" fill="#5f3dc4" text-anchor="start" style="white-space: pre;" direction="ltr" dominant-baseline="text-before-edge">Read</text><text x="0" y="25" font-family="Virgil, Segoe UI Emoji" font-size="20px" fill="#5f3dc4" text-anchor="start" style="white-space: pre;" direction="ltr" dominant-baseline="text-before-edge">Data</text></g><g transform="translate(1358.3127967848538 643.0390827453442) rotate(0 44.5 12.5)"><text x="0" y="0" font-family="Virgil, Segoe UI Emoji" font-size="20px" fill="#1864ab" text-anchor="start" style="white-space: pre;" direction="ltr" dominant-baseline="text-before-edge">MemWrite</text></g><g stroke-linecap="round"><g transform="translate(1423.8446741991272 673.0002172383906) rotate(0 -0.4927512351423502 22.113675927089275)"><path d="M-1.9 -0.03 C0.41 11.04, 1 24.41, -0.63 43.35 M0.91 0.84 C0.07 9.13, 1.26 18.11, 0.65 44.26" stroke="#1864ab" stroke-width="1" fill="none"></path></g><g transform="translate(1423.8446741991272 673.0002172383906) rotate(0 -0.4927512351423502 22.113675927089275)"><path d="M-8.54 23.62 C-4.48 28.4, -2.12 35.46, -0.77 43.9 M-5.74 24.5 C-5.34 28.18, -2.85 32.49, 0.51 44.81" stroke="#1864ab" stroke-width="1" fill="none"></path></g><g transform="translate(1423.8446741991272 673.0002172383906) rotate(0 -0.4927512351423502 22.113675927089275)"><path d="M6.41 23.75 C6.39 28.49, 4.68 35.51, -0.77 43.9 M9.21 24.63 C6.59 28.16, 6.07 32.44, 0.51 44.81" stroke="#1864ab" stroke-width="1" fill="none"></path></g></g><mask></mask><g transform="translate(1476.5515522774106 645.0919489747657) rotate(0 44 12.5)"><text x="0" y="0" font-family="Virgil, Segoe UI Emoji" font-size="20px" fill="#1864ab" text-anchor="start" style="white-space: pre;" direction="ltr" dominant-baseline="text-before-edge">MemRead</text></g><g stroke-linecap="round"><g transform="translate(1541.095194102236 678.5966495547223) rotate(0 1.0372195372501665 21.46231864900625)"><path d="M0.27 -1.34 C-1.06 9.94, 1.02 22.88, -0.22 44.27 M0.62 -0.59 C-0.23 14.38, 1.33 29.88, 2.3 42.89" stroke="#1864ab" stroke-width="1" fill="none"></path></g><g transform="translate(1541.095194102236 678.5966495547223) rotate(0 1.0372195372501665 21.46231864900625)"><path d="M-6.31 21.99 C-5.91 27.48, -2.03 34.68, 0.57 44.21 M-5.96 22.74 C-4.23 29.74, -0.14 37.22, 3.09 42.84" stroke="#1864ab" stroke-width="1" fill="none"></path></g><g transform="translate(1541.095194102236 678.5966495547223) rotate(0 1.0372195372501665 21.46231864900625)"><path d="M8.34 20.86 C5.15 26.74, 5.44 34.22, 0.57 44.21 M8.69 21.61 C5.39 28.88, 4.45 36.74, 3.09 42.84" stroke="#1864ab" stroke-width="1" fill="none"></path></g></g><mask></mask><g stroke-linecap="round"><g transform="translate(1639.175813866934 754.840907431723) rotate(0 0.10164771229028702 51.30220999590972)"><path d="M1.87 0.45 C-1.68 21.69, 1.83 44.81, -1.67 103.52 M0.59 -0.91 C0.9 30.36, -0.06 59.14, 0.75 102.33" stroke="#1864ab" stroke-width="2" fill="none"></path></g></g><mask></mask><g stroke-linecap="round"><g transform="translate(1640.7679417598595 855.941028632448) rotate(0 10.859312397875101 -6.160681815919531)"><path d="M-1.56 -0.49 C9.76 -4.25, 14.09 -8.54, 22.87 -12.99 M0.62 0.67 C8.17 -5.06, 17.83 -10.21, 23.28 -12.59" stroke="#1864ab" stroke-width="2" fill="none"></path></g></g><mask></mask><g stroke-linecap="round"><g transform="translate(1663.0577322608062 844.7961333819742) rotate(0 0.9495530602966937 -37.95503308341716)"><path d="M1.94 0.46 C-0.81 -23.81, 0.89 -48.74, 2.23 -75.24 M-0.33 -0.24 C0.44 -16.31, 0.05 -30.96, 0.1 -76.37" stroke="#1864ab" stroke-width="2" fill="none"></path></g></g><mask></mask><g stroke-linecap="round"><g transform="translate(1662.2616683143444 767.5779305751214) rotate(0 -11.28707499018401 -5.034146009309836)"><path d="M-1.67 0.83 C-6.24 -2.26, -10.51 -4.47, -23.32 -9.11 M0.75 -0.36 C-7.66 -2.91, -16.45 -7.6, -21.57 -10.89" stroke="#1864ab" stroke-width="2" fill="none"></path></g></g><mask></mask><g transform="translate(1648.2511343416656 777.9267618791328) rotate(0 2.5 12.5)"><text x="0" y="0" font-family="Virgil, Segoe UI Emoji" font-size="20px" fill="#1864ab" text-anchor="start" style="white-space: pre;" direction="ltr" dominant-baseline="text-before-edge">1</text></g><g transform="translate(1644.5942199466892 811.5984707739524) rotate(0 7 12.5)"><text x="0" y="0" font-family="Virgil, Segoe UI Emoji" font-size="20px" fill="#1864ab" text-anchor="start" style="white-space: pre;" direction="ltr" dominant-baseline="text-before-edge">0</text></g><g stroke-linecap="round"><g transform="translate(1576.4474321524592 781.8665100985368) rotate(0 29.065833034860134 1.7717572555521883)"><path d="M0.41 1.04 C18.51 1.18, 40.07 2.62, 58.2 2.98 M-0.35 0.79 C19.43 0.14, 37.48 1.12, 58.49 1.37" stroke="#5f3dc4" stroke-width="1" fill="none"></path></g><g transform="translate(1576.4474321524592 781.8665100985368) rotate(0 29.065833034860134 1.7717572555521883)"><path d="M30.98 11.95 C38.92 8.22, 50.32 5.92, 57.72 2.46 M30.22 11.7 C40.11 7.65, 48.16 4.96, 58.01 0.85" stroke="#5f3dc4" stroke-width="1" fill="none"></path></g><g transform="translate(1576.4474321524592 781.8665100985368) rotate(0 29.065833034860134 1.7717572555521883)"><path d="M31.38 -8.22 C39.21 -5.36, 50.48 -1.06, 57.72 2.46 M30.62 -8.47 C40.22 -6.03, 48.14 -2.23, 58.01 0.85" stroke="#5f3dc4" stroke-width="1" fill="none"></path></g></g><mask></mask><g stroke-linecap="round"><g transform="translate(1266.5853474606072 768.996006191297) rotate(0 -1.741229809371248 124.72335610773973)"><path d="M-0.56 0.62 C-0.68 68.43, 0.18 132.78, -4.09 248.86 M0.61 0.59 C-0.67 86.8, -1.37 172.98, -3.09 248.65" stroke="#5f3dc4" stroke-width="1" fill="none"></path></g></g><mask></mask><g stroke-linecap="round"><g transform="translate(1262.4791159455892 1018.6548823044079) rotate(0 165.70231726723216 0.25438613223101925)"><path d="M-0.61 0.46 C88.61 0.06, 176.39 1.95, 330.86 0.38 M-0.09 -0.27 C109.93 -1.43, 219.75 -1.19, 332.02 1.44" stroke="#5f3dc4" stroke-width="1" fill="none"></path></g></g><mask></mask><g stroke-linecap="round"><g transform="translate(1594.2626223590653 1018.6548823044079) rotate(0 -0.06628277056620391 -96.8826331528906)"><path d="M0.82 1.1 C0.06 -41.8, -0.25 -85.24, 0.91 -193.58 M0.22 -0.58 C-1.09 -75.48, -1.8 -150.48, 0.25 -194.86" stroke="#5f3dc4" stroke-width="1" fill="none"></path></g></g><mask></mask><g stroke-linecap="round"><g transform="translate(1595.0838686620689 823.1982621895382) rotate(0 19.26046015368729 0.28045282512903214)"><path d="M0.01 -0.43 C9.64 1.57, 17.12 -1.37, 38.27 0.99 M-0.83 0.99 C7.24 0.33, 16.88 1.23, 39.35 0.48" stroke="#5f3dc4" stroke-width="1" fill="none"></path></g><g transform="translate(1595.0838686620689 823.1982621895382) rotate(0 19.26046015368729 0.28045282512903214)"><path d="M21.35 7 C26.47 7.6, 29.49 3.25, 39.03 1.44 M20.54 8.37 C24.26 6.12, 29.47 5.51, 40.07 0.94" stroke="#5f3dc4" stroke-width="1" fill="none"></path></g><g transform="translate(1595.0838686620689 823.1982621895382) rotate(0 19.26046015368729 0.28045282512903214)"><path d="M21.1 -6.2 C26.23 -2.72, 29.31 -4.19, 39.03 1.44 M20.3 -4.83 C24.01 -4.27, 29.27 -2.07, 40.07 0.94" stroke="#5f3dc4" stroke-width="1" fill="none"></path></g></g><mask></mask><g transform="translate(1590.9461477658194 645.5068448127016) rotate(0 50.5 12.5)"><text x="0" y="0" font-family="Virgil, Segoe UI Emoji" font-size="20px" fill="#1864ab" text-anchor="start" style="white-space: pre;" direction="ltr" dominant-baseline="text-before-edge">MemToReg</text></g><g stroke-linecap="round"><g transform="translate(1656.0701977539618 679.0115453926581) rotate(0 0.13096474953056259 38.086777319123996)"><path d="M1.4 0.35 C-0.4 17.33, -2.24 30.99, -0.31 74.01 M-0.4 -0.75 C-1.36 29.91, -0.79 60.62, -0.87 76.93" stroke="#1864ab" stroke-width="1" fill="none"></path></g><g transform="translate(1656.0701977539618 679.0115453926581) rotate(0 0.13096474953056259 38.086777319123996)"><path d="M-9.8 49.11 C-9.09 55.81, -8.68 59.1, -1.09 74.97 M-11.6 48.01 C-8.06 59.9, -3.4 71.8, -1.65 77.88" stroke="#1864ab" stroke-width="1" fill="none"></path></g><g transform="translate(1656.0701977539618 679.0115453926581) rotate(0 0.13096474953056259 38.086777319123996)"><path d="M10.72 49.06 C6.98 55.62, 2.94 58.92, -1.09 74.97 M8.92 47.96 C4.39 59.82, 0.98 71.74, -1.65 77.88" stroke="#1864ab" stroke-width="1" fill="none"></path></g></g><mask></mask><g stroke-linecap="round"><g transform="translate(1662.4222609788214 807.3066909613258) rotate(0 20.747051877109243 -0.5809445325285196)"><path d="M-0.69 -1.41 C11.6 0.55, 20.88 -0.69, 42.19 -0.41 M-0.28 -0.21 C16.22 0.25, 32.54 -0.6, 42.12 0.25" stroke="#5c940d" stroke-width="1" fill="none"></path></g></g><mask></mask><g stroke-linecap="round"><g transform="translate(1703.7052610999938 806.092485075409) rotate(0 1.141121466642744 174.25057434746836)"><path d="M0.32 -0.13 C-0.92 122.48, -0.5 245.01, 2.61 347.92 M-0.02 0.49 C-0.72 103.25, -0.26 207.05, 1.98 348.63" stroke="#5c940d" stroke-width="1" fill="none"></path></g></g><mask></mask><g stroke-linecap="round"><g transform="translate(1707.3478787577444 1155.1423217388083) rotate(0 -625.1214278728265 0.5112882584589613)"><path d="M-0.62 -0.6 C-350.76 -2.77, -702.63 -1.61, -1250.06 2.16 M-0.18 -0.06 C-382.72 2.3, -765.14 2.83, -1249.42 2.69" stroke="#5c940d" stroke-width="1" fill="none"></path></g></g><mask></mask><g stroke-linecap="round"><g transform="translate(459.14422803523075 1159.9522521703334) rotate(0 -0.2637483671778682 -153.04617504412036)"><path d="M0.74 -0.59 C0.82 -88.58, 1.62 -179.05, -0.62 -305.56 M-0.54 -0.53 C-1.36 -83.78, -2.19 -168.61, -0.45 -305.43" stroke="#5c940d" stroke-width="1" fill="none"></path></g></g><mask></mask><g stroke-linecap="round"><g transform="translate(460.0699885851245 853.9445472036734) rotate(0 56.59355734533824 0.4015090941618382)"><path d="M-1.31 0.61 C23.42 0.85, 49.05 -1.27, 113.58 0.8 M-0.95 0.53 C28.61 0.91, 58.15 0.27, 114.5 0.92" stroke="#5c940d" stroke-width="1" fill="none"></path></g><g transform="translate(460.0699885851245 853.9445472036734) rotate(0 56.59355734533824 0.4015090941618382)"><path d="M84.93 11.6 C90.69 9.18, 97.29 4.83, 113.8 1.72 M85.29 11.52 C92.97 9.38, 100.65 6.18, 114.72 1.84" stroke="#5c940d" stroke-width="1" fill="none"></path></g><g transform="translate(460.0699885851245 853.9445472036734) rotate(0 56.59355734533824 0.4015090941618382)"><path d="M85.07 -8.92 C90.68 -6.8, 97.25 -6.61, 113.8 1.72 M85.43 -9 C93.11 -5.92, 100.76 -3.91, 114.72 1.84" stroke="#5c940d" stroke-width="1" fill="none"></path></g></g><mask></mask><g transform="translate(106.6273411181237 1308.0619805916917) rotate(0 356.5 34.68442094501529)"><text x="0" y="0" font-family="Virgil, Segoe UI Emoji" font-size="55.49507351202446px" fill="#000000" text-anchor="start" style="white-space: pre;" direction="ltr" dominant-baseline="text-before-edge">Add $s0, $s1, $s2 (lines)</text></g><g stroke-linecap="round"><g transform="translate(745.7759483777968 1039.944051730913) rotate(0 11.763279636925063 7.876684336633701)"><path d="M1.54 -1.69 C7.56 7.58, 14.31 12.23, 22.94 15.82 M0.59 -0.84 C4.76 4.31, 11.47 8.68, 22.94 17.44" stroke="#364fc7" stroke-width="1" fill="none"></path></g></g><mask></mask><g transform="translate(754.2191281184196 1020.1692415981863) rotate(0 9 12.5)"><text x="9" y="0" font-family="Virgil, Segoe UI Emoji" font-size="20px" fill="#364fc7" text-anchor="middle" style="white-space: pre;" direction="ltr" dominant-baseline="text-before-edge">16</text></g><g stroke-linecap="round"><g transform="translate(930.2857934921999 998.6768289946795) rotate(0 11.80740460342804 7.8615045572427675)"><path d="M-1.94 0.16 C6.96 5.83, 18.24 13.69, 25.56 16.69 M0.97 -0.97 C8.74 6.91, 17.41 12.14, 23.91 15.89" stroke="#000000" stroke-width="1" fill="none"></path></g></g><mask></mask><g transform="translate(949.5658518952127 979.8483489655564) rotate(0 14 12.5)"><text x="14" y="0" font-family="Virgil, Segoe UI Emoji" font-size="20px" fill="#000000" text-anchor="middle" style="white-space: pre;" direction="ltr" dominant-baseline="text-before-edge">32</text></g><g stroke-linecap="round"><g transform="translate(1226.28925450268 692.0094421582621) rotate(0 29.699374982285804 0.1830077996307864)"><path d="M1.43 0.19 C22.65 0.93, 45.76 -1.45, 60.23 0.95 M-0.83 -0.71 C18.46 1.3, 35.88 1.29, 59.66 0.79" stroke="#a61e4d" stroke-width="1" fill="none"></path></g></g><mask></mask><g stroke-linecap="round"><g transform="translate(1284.1790398536748 688.4739886741919) rotate(0 0.6426580628457259 -29.54175791883921)"><path d="M1 0.24 C-1.08 -20.22, 1.6 -43.36, -0.02 -59.89 M0.86 0.81 C1.46 -11.77, 1.62 -24.4, 0.19 -58.42" stroke="#a61e4d" stroke-width="1" fill="none"></path></g></g><mask></mask><g stroke-linecap="round"><g transform="translate(441.9765703570715 628.485746457088) rotate(0 0.05597892699233853 209.44623195618126)"><path d="M-0.39 -0.71 C-0.23 100.84, 0.3 200.7, 0.5 419.6 M0.38 -0.44 C0.15 103.53, 0.19 208.02, -0.28 419.43" stroke="#364fc7" stroke-width="1" fill="none"></path></g></g><mask></mask><g stroke-linecap="round" transform="translate(282.5379403628631 631.4902920301016) rotate(0 55.64401509934919 47.71081320552423)"><path d="M1.74 -1.39 C23.01 0.77, 45.77 -0.77, 112.29 0.24 M-0.02 -0.47 C25.01 -1.38, 50.85 0.38, 112.15 0.81 M113.06 -1.46 C111.99 36.99, 112.22 75.47, 110.99 94.6 M111.17 0.19 C112.46 29.16, 110.92 60.35, 110.5 95.45 M112.49 94.02 C71.94 96.97, 33.14 95.14, 0.11 96.01 M110.41 94.84 C67.91 97.12, 25.9 95.98, -0.44 94.43 M0.44 95.37 C-0.54 74.81, 0.35 51.54, -0.16 -1.2 M-0.45 95.95 C-0.26 70.75, -0.56 48.52, -0.8 -0.6" stroke="#364fc7" stroke-width="4" fill="none"></path></g><g transform="translate(282.3603940021153 569.5260968743817) rotate(0 59 25)"><text x="0" y="0" font-family="Virgil, Segoe UI Emoji" font-size="20px" fill="#000000" text-anchor="start" style="white-space: pre;" direction="ltr" dominant-baseline="text-before-edge">Instructions</text><text x="0" y="25" font-family="Virgil, Segoe UI Emoji" font-size="20px" fill="#000000" text-anchor="start" style="white-space: pre;" direction="ltr" dominant-baseline="text-before-edge">Memory</text></g><g transform="translate(292.9388343683645 643.0814722666415) rotate(0 38.5 12.5)"><text x="38.5" y="0" font-family="Virgil, Segoe UI Emoji" font-size="20px" fill="#0b7285" text-anchor="middle" style="white-space: pre;" direction="ltr" dominant-baseline="text-before-edge">Address</text></g><g transform="translate(292.84848745961244 692.4059809402279) rotate(0 46.5 10.633705251172557)"><text x="46.5" y="0" font-family="Virgil, Segoe UI Emoji" font-size="17.013928401876058px" fill="#364fc7" text-anchor="middle" style="white-space: pre;" direction="ltr" dominant-baseline="text-before-edge">Instruction</text></g><g stroke-linecap="round"><g transform="translate(397.18400056261953 703.908520394081) rotate(0 21.51490951909159 -0.6029184218496084)"><path d="M-1.56 -1.05 C8.11 0.52, 16.69 1.1, 42.7 -1.84 M0 0.64 C12.39 0.17, 27.13 -0.63, 44.59 -0.95" stroke="#364fc7" stroke-width="1" fill="none"></path></g><g transform="translate(397.18400056261953 703.908520394081) rotate(0 21.51490951909159 -0.6029184218496084)"><path d="M22.4 6.13 C27.21 6, 30.92 4.91, 42.95 -2.79 M23.96 7.82 C29.25 4.91, 36.83 1.66, 44.84 -1.89" stroke="#364fc7" stroke-width="1" fill="none"></path></g><g transform="translate(397.18400056261953 703.908520394081) rotate(0 21.51490951909159 -0.6029184218496084)"><path d="M22 -9.03 C26.88 -6.04, 30.68 -4.02, 42.95 -2.79 M23.56 -7.34 C28.88 -5.68, 36.58 -4.36, 44.84 -1.89" stroke="#364fc7" stroke-width="1" fill="none"></path></g></g><mask></mask><g stroke-linecap="round"><g transform="translate(304.7507231805548 267.8899924247919) rotate(0 -0.20673787418081702 28.79740815608625)"><path d="M-0.51 -1.86 C1.67 21.07, -0.21 42.14, -0.92 59.46 M-0.04 -0.36 C0.4 14.36, 0.26 29.54, 0.48 58.27" stroke="#0b7285" stroke-width="2" fill="none"></path></g></g><mask></mask><g stroke-linecap="round"><g transform="translate(305.6628627410496 324.4426451754673) rotate(0 7.925291398537183 10.369658478132692)"><path d="M1.16 0.73 C3.98 7.72, 8.52 14.35, 15.19 19.6 M0.66 -0.65 C5.83 6.41, 11.1 14.53, 15.13 21.39" stroke="#0b7285" stroke-width="2" fill="none"></path></g></g><mask></mask><g stroke-linecap="round"><g transform="translate(321.16923526946084 344.9657852865994) rotate(0 -6.7771631724917825 6.498327785165884)"><path d="M-0.69 1.43 C-3.84 4.63, -6.71 4.44, -13.96 12.69 M0.51 -0.47 C-3.3 4.05, -8.42 7.48, -14.06 13.46" stroke="#0b7285" stroke-width="2" fill="none"></path></g></g><mask></mask><g stroke-linecap="round"><g transform="translate(305.6628627410496 356.8235995730313) rotate(0 -0.2226098533719778 31.85139477597727)"><path d="M-0.92 1.99 C-0.84 19.8, 0.75 41.36, -0.27 62.9 M0.48 0.81 C-0.4 15.33, 1.09 29.65, -0.01 60.68" stroke="#0b7285" stroke-width="2" fill="none"></path></g></g><mask></mask><g stroke-linecap="round"><g transform="translate(307.03107208179244 419.3051594669223) rotate(0 47.733649426787 -17.353716835904947)"><path d="M-0.78 -0.92 C36.95 -14.68, 71.69 -26.9, 95.39 -35.44 M-0.83 0.87 C24.72 -9.25, 48.05 -20.04, 96.3 -35.57" stroke="#0b7285" stroke-width="2" fill="none"></path></g></g><mask></mask><g stroke-linecap="round"><g transform="translate(305.206792960802 267.8899924247919) rotate(0 49.764643152358985 20.731939817105967)"><path d="M0.66 -0.09 C38.49 18, 77.29 33.95, 97.55 41.55 M0.55 0.72 C36.69 13.7, 74.26 30.95, 98.98 40.07" stroke="#0b7285" stroke-width="2" fill="none"></path></g></g><mask></mask><g stroke-linecap="round"><g transform="translate(402.34965615349483 308.9362726470565) rotate(0 1.1268928913129912 35.32963653492857)"><path d="M-0.73 1.33 C-0.71 19.47, -0.03 37.8, 2.98 70.85 M-0.47 -0.89 C0.54 28.94, 1.93 55.55, 0.98 71.55" stroke="#0b7285" stroke-width="2" fill="none"></path></g></g><mask></mask><g transform="translate(332.7589397317829 299.8766895687361) rotate(0 23.5 46.84343517373361)"><text x="0" y="0" font-family="Virgil, Segoe UI Emoji" font-size="74.9494962779737px" fill="#0b7285" text-anchor="start" style="white-space: pre;" direction="ltr" dominant-baseline="text-before-edge">+</text></g><g stroke-linecap="round" transform="translate(150.09107654836043 623.4314750636414) rotate(0 33 30)"><path d="M-1.86 0.03 C21.14 -1.45, 41.5 -0.02, 64.43 0.42 M-0.58 0.63 C16.78 0.87, 35.64 -0.21, 66.78 0.77 M65.78 -1.46 C64.99 15.89, 64.5 28.59, 66.6 59.89 M65.1 0.11 C65.73 21.92, 65.79 43.71, 66.1 60.85 M64.13 59.37 C52.03 59.32, 34.59 59.87, 1.64 61.17 M65.95 59.06 C51.14 59.29, 34.74 59.29, -0.34 59.89 M-0.7 60.41 C1.81 40.39, 0.08 23.92, 1.32 -1.01 M-0.88 60.68 C-0.13 40.13, -0.28 19.18, -0.47 0.92" stroke="#0b7285" stroke-width="4" fill="none"></path></g><g transform="translate(159.59107654836043 630.9314750636414) rotate(0 23.5 22.5)"><text x="23.5" y="0" font-family="Virgil, Segoe UI Emoji" font-size="36px" fill="#0b7285" text-anchor="middle" style="white-space: pre;" direction="ltr" dominant-baseline="text-before-edge">PC</text></g><g stroke-linecap="round"><g transform="translate(223.72881930983203 656.7217811913354) rotate(0 27.497154136663312 1.4880935945687952)"><path d="M0.99 1.42 C17.46 2.31, 38.18 0.99, 55.29 2.63 M-0.29 0.34 C10.78 0.64, 23.17 1.63, 54.37 2.17" stroke="#0b7285" stroke-width="1" fill="none"></path></g><g transform="translate(223.72881930983203 656.7217811913354) rotate(0 27.497154136663312 1.4880935945687952)"><path d="M29.75 12.21 C36.62 9.45, 47.71 4.32, 55.68 2.18 M28.47 11.13 C33.73 9, 40.28 7.68, 54.76 1.71" stroke="#0b7285" stroke-width="1" fill="none"></path></g><g transform="translate(223.72881930983203 656.7217811913354) rotate(0 27.497154136663312 1.4880935945687952)"><path d="M30.2 -6.27 C36.87 -2.75, 47.82 -1.62, 55.68 2.18 M28.92 -7.35 C34.03 -5.67, 40.48 -3.18, 54.76 1.71" stroke="#0b7285" stroke-width="1" fill="none"></path></g></g><mask></mask><g stroke-linecap="round"><g transform="translate(247.49775860568934 659.669608694621) rotate(0 1.2102229696847644 -132.50730986268098)"><path d="M1.19 0.72 C3.13 -94.22, 2.18 -188.1, 1.16 -265.74 M0.1 0.6 C1.22 -96.37, 2.04 -193.05, 1.21 -264.92" stroke="#0b7285" stroke-width="1" fill="none"></path></g></g><mask></mask><g stroke-linecap="round"><g transform="translate(250.8923109441207 398.9114961970706) rotate(0 24.343961109964994 -0.27501270920038223)"><path d="M1.27 0.83 C11.18 -0.63, 25.32 0.28, 49.39 -1.42 M-0.75 0.5 C9.68 0.19, 21.6 -0.24, 49.44 0.87" stroke="#0b7285" stroke-width="1" fill="none"></path></g><g transform="translate(250.8923109441207 398.9114961970706) rotate(0 24.343961109964994 -0.27501270920038223)"><path d="M27.34 9.43 C30.85 6.26, 38.61 5.26, 49.61 -0.55 M25.32 9.1 C30.34 7.28, 36.79 5.2, 49.66 1.74" stroke="#0b7285" stroke-width="1" fill="none"></path></g><g transform="translate(250.8923109441207 398.9114961970706) rotate(0 24.343961109964994 -0.27501270920038223)"><path d="M27.84 -7.4 C31.29 -6.42, 38.92 -3.26, 49.61 -0.55 M25.82 -7.73 C30.58 -5.98, 36.92 -4.49, 49.66 1.74" stroke="#0b7285" stroke-width="1" fill="none"></path></g></g><mask></mask><g stroke-linecap="round"><g transform="translate(249.74438760714793 297.5867732767415) rotate(0 22.499939071521567 1.101030780401743)"><path d="M-1.75 1.69 C11.58 0.4, 24.33 0.07, 46.75 1.19 M-0.46 0.91 C18.03 1.19, 36.91 0.36, 45.8 0.77" stroke="#0b7285" stroke-width="1" fill="none"></path></g><g transform="translate(249.74438760714793 297.5867732767415) rotate(0 22.499939071521567 1.101030780401743)"><path d="M22.23 10.17 C28.82 6.35, 34.77 3.63, 46.28 1.06 M23.53 9.39 C32.42 6.05, 41.64 1.83, 45.33 0.64" stroke="#0b7285" stroke-width="1" fill="none"></path></g><g transform="translate(249.74438760714793 297.5867732767415) rotate(0 22.499939071521567 1.101030780401743)"><path d="M22.38 -5.65 C28.81 -5.07, 34.72 -3.39, 46.28 1.06 M23.67 -6.44 C32.4 -3.52, 41.57 -1.5, 45.33 0.64" stroke="#0b7285" stroke-width="1" fill="none"></path></g></g><mask></mask><g transform="translate(215.23536553691656 272.7886147102158) rotate(0 11.5 22.5)"><text x="0" y="0" font-family="Virgil, Segoe UI Emoji" font-size="36px" fill="#0b7285" text-anchor="start" style="white-space: pre;" direction="ltr" dominant-baseline="text-before-edge">4</text></g><g stroke-linecap="round"><g transform="translate(992.3294674236254 323.92191552171835) rotate(0 0.4186423793435097 28.213368535031123)"><path d="M1.54 -1.22 C-1.47 17.69, 0.43 37.29, -0.64 57.64 M-0.7 -0.21 C1.15 21.9, -0.65 43.22, 0.01 57.5" stroke="#0b7285" stroke-width="2" fill="none"></path></g></g><mask></mask><g stroke-linecap="round"><g transform="translate(993.2416069841206 380.47456827239375) rotate(0 7.998949393627072 10.021409202895484)"><path d="M-1.62 -1.2 C5.02 5.49, 8.68 12.06, 17.62 21.24 M0.95 -0.1 C2.28 3.48, 6.43 8.51, 16.44 21.1" stroke="#0b7285" stroke-width="2" fill="none"></path></g></g><mask></mask><g stroke-linecap="round"><g transform="translate(1008.7479795125314 400.99770838352606) rotate(0 -8.077192566313443 6.265107396583517)"><path d="M0.27 -0.48 C-4.22 3.14, -5.48 6.71, -16.42 11.41 M-0.83 -0.75 C-3.94 3.58, -7.56 7.67, -13.84 13.28" stroke="#0b7285" stroke-width="2" fill="none"></path></g></g><mask></mask><g stroke-linecap="round"><g transform="translate(993.2416069841206 412.85552266995774) rotate(0 0.3721869130217783 31.749868174737287)"><path d="M-0.64 0.18 C1.85 15.5, -1.58 28.17, 0.04 63.47 M0.01 0.03 C0.08 18.44, 0.52 36.26, 1.39 62.11" stroke="#0b7285" stroke-width="2" fill="none"></path></g></g><mask></mask><g stroke-linecap="round"><g transform="translate(994.609816324863 475.337082563849) rotate(0 48.48560275667796 -18.743458692509762)"><path d="M1.66 0.72 C24.84 -11.53, 52.92 -18.27, 96.49 -38.2 M0.48 0.57 C22.26 -7.61, 43.9 -15.7, 95.94 -36.77" stroke="#0b7285" stroke-width="2" fill="none"></path></g></g><mask></mask><g stroke-linecap="round"><g transform="translate(992.7855372038725 323.92191552171835) rotate(0 48.74116616055653 19.60296759221478)"><path d="M-1.88 -1.4 C30.35 14.08, 61.01 23.01, 96.96 40.61 M0.78 0.53 C31.02 12.3, 59.23 23.78, 99.37 39.67" stroke="#0b7285" stroke-width="2" fill="none"></path></g></g><mask></mask><g stroke-linecap="round"><g transform="translate(1089.9284003965654 364.96819574398296) rotate(0 0.5912323023815134 37.0112547225051)"><path d="M-0.42 1.9 C-0.42 22.64, -1.32 48.73, 1.44 73.48 M0.93 0.55 C0.31 25.63, 2.4 50.91, 1.53 71.67" stroke="#0b7285" stroke-width="2" fill="none"></path></g></g><mask></mask><g stroke-linecap="round"><g transform="translate(942.3795952579967 821.2106660126577) rotate(0 -0.9326298066232539 -187.80173935152538)"><path d="M-1.09 -0.8 C-1.26 -141.48, -2.01 -284.4, -2.27 -373.93 M0.23 -0.54 C0.69 -106.12, 0.25 -211.89, -1.22 -375.06" stroke="#000000" stroke-width="1" fill="none"></path></g></g><mask></mask><g stroke-linecap="round"><g transform="translate(403.7778942847617 344.0432215566823) rotate(0 293.27076233342245 2.142033199964885)"><path d="M0.45 -0.38 C220.98 -0.33, 442.46 0.74, 586.3 4.67 M-0.16 -0.15 C190.99 3.6, 381.92 5.05, 586.7 4.06" stroke="#0b7285" stroke-width="1" fill="none"></path></g><g transform="translate(403.7778942847617 344.0432215566823) rotate(0 293.27076233342245 2.142033199964885)"><path d="M559.65 13.4 C569.2 10.99, 581.07 5.82, 586.01 5.2 M558.13 13.98 C568.06 11.29, 577.3 8.12, 587.02 3.68" stroke="#0b7285" stroke-width="1" fill="none"></path></g><g transform="translate(403.7778942847617 344.0432215566823) rotate(0 293.27076233342245 2.142033199964885)"><path d="M559.62 -7.12 C569.09 -1.8, 580.96 0.76, 586.01 5.2 M558.1 -6.54 C567.87 -2.56, 577.12 0.96, 587.02 3.68" stroke="#0b7285" stroke-width="1" fill="none"></path></g></g><mask></mask><g stroke-linecap="round"><g transform="translate(939.854899784686 448.39730112024677) rotate(0 23.663110870706305 0.9365039133926985)"><path d="M-1.81 0.83 C16.17 0.97, 28.49 -0.99, 48.67 1.97 M-0.24 0.45 C16.57 -0.91, 32.82 0.68, 49.14 0.91" stroke="#000000" stroke-width="1" fill="none"></path></g><g transform="translate(939.854899784686 448.39730112024677) rotate(0 23.663110870706305 0.9365039133926985)"><path d="M23.74 9.5 C33.89 7.3, 38.33 3, 48.16 2.87 M25.31 9.12 C33.52 5.31, 41.1 4.32, 48.62 1.81" stroke="#000000" stroke-width="1" fill="none"></path></g><g transform="translate(939.854899784686 448.39730112024677) rotate(0 23.663110870706305 0.9365039133926985)"><path d="M24.27 -7.48 C34.14 -4.54, 38.42 -3.71, 48.16 2.87 M25.84 -7.85 C33.74 -6.02, 41.15 -1.36, 48.62 1.81" stroke="#000000" stroke-width="1" fill="none"></path></g></g><mask></mask><g transform="translate(1019.9831552641572 356.8335598538672) rotate(0 23.5 46.84343517373361)"><text x="0" y="0" font-family="Virgil, Segoe UI Emoji" font-size="74.9494962779737px" fill="#0b7285" text-anchor="start" style="white-space: pre;" direction="ltr" dominant-baseline="text-before-edge">+</text></g><g transform="translate(838.3331692889137 428.3561959692529) rotate(0 46 22.5)"><text x="0" y="0" font-family="Virgil, Segoe UI Emoji" font-size="36px" fill="#0b7285" text-anchor="start" style="white-space: pre;" direction="ltr" dominant-baseline="text-before-edge">SLL2</text></g><g stroke-linecap="round"><g transform="translate(1092.4751569947557 400.63161549225015) rotate(0 25.344161294551213 0.28792860358953476)"><path d="M0.38 1.48 C9.97 0.81, 22.21 -1.49, 48.29 1.49 M0.94 -0.91 C11.95 0.46, 22.16 -0.89, 50.31 -0.23" stroke="#0b7285" stroke-width="1" fill="none"></path></g></g><mask></mask><g stroke-linecap="round"><g transform="translate(1149.0107855181568 325.48508788119284) rotate(0 -0.11232051253318787 50.115416685341984)"><path d="M1.07 -1.85 C-0.46 33.74, -0.08 66.91, -1.3 100.9 M0.44 0.95 C-0.68 34.79, 0.02 67.14, 0.75 102.08" stroke="#1864ab" stroke-width="2" fill="none"></path></g></g><mask></mask><g stroke-linecap="round"><g transform="translate(1150.6029134110804 426.58520908191826) rotate(0 11.281638014577538 -7.2956060321154155)"><path d="M-1.15 0.44 C5.61 -3.26, 11.53 -9.14, 23.71 -15.35 M0.25 0.76 C5.85 -4.03, 10.61 -6.64, 23.24 -13.96" stroke="#1864ab" stroke-width="2" fill="none"></path></g></g><mask></mask><g stroke-linecap="round"><g transform="translate(1172.892703912029 415.4403138314449) rotate(0 0.1693352702031916 -38.314848485373545)"><path d="M-0.76 0.3 C-0.69 -17.65, 1.4 -33.52, -0.91 -75.55 M0.96 -0.91 C0.87 -30.77, 0.59 -60.75, 1.25 -76.93" stroke="#1864ab" stroke-width="2" fill="none"></path></g></g><mask></mask><g stroke-linecap="round"><g transform="translate(1172.0966399655654 338.22211102459164) rotate(0 -10.240453110621274 -5.249262679665094)"><path d="M-1.3 -1.79 C-6.25 -5.12, -15.5 -5.76, -19.6 -9.84 M0.75 -0.61 C-8.03 -4.52, -15.81 -8.49, -21.23 -9.89" stroke="#1864ab" stroke-width="2" fill="none"></path></g></g><mask></mask><g transform="translate(1153.7871691969312 348.57094232860277) rotate(0 7 12.5)"><text x="0" y="0" font-family="Virgil, Segoe UI Emoji" font-size="20px" fill="#1864ab" text-anchor="start" style="white-space: pre;" direction="ltr" dominant-baseline="text-before-edge">0</text></g><g transform="translate(1158.7281283938673 382.2426512234222) rotate(0 2.5 12.5)"><text x="0" y="0" font-family="Virgil, Segoe UI Emoji" font-size="20px" fill="#1864ab" text-anchor="start" style="white-space: pre;" direction="ltr" dominant-baseline="text-before-edge">1</text></g><g stroke-linecap="round"><g transform="translate(830.4691442124808 346.62341493097983) rotate(0 -0.9406932560927999 -19.404034941138434)"><path d="M-0.24 0.77 C0.99 -13.7, -0.8 -28.12, -0.41 -39.58 M0.77 -0.08 C-1.06 -11.73, -0.18 -20.74, -2.65 -38.74" stroke="#0b7285" stroke-width="1" fill="none"></path></g></g><mask></mask><g stroke-linecap="round"><g transform="translate(828.9087709525465 309.25182293063585) rotate(0 141.4906112710562 -0.6529649877409156)"><path d="M-0.81 -1.25 C77.72 1.19, 156.17 -0.13, 283.57 -1.48 M-0.67 0.18 C88.12 -0.47, 175.14 -0.13, 283.79 -0.68" stroke="#0b7285" stroke-width="1" fill="none"></path></g></g><mask></mask><g stroke-linecap="round"><g transform="translate(1114.078688172065 308.7506411390991) rotate(0 0.14177361130714417 23.257409259584733)"><path d="M1.06 1.36 C-0.28 9.84, 0.16 19.05, -0.78 45.6 M0.51 0.92 C-1.12 16.78, 0 35.34, 0.14 43.52" stroke="#0b7285" stroke-width="1" fill="none"></path></g></g><mask></mask><g stroke-linecap="round"><g transform="translate(1114.078688172065 352.60313423133243) rotate(0 17.91827601345699 -0.4670301377773285)"><path d="M1.37 -1.8 C10.28 -0.39, 18.4 -0.04, 33.78 0.87 M0.73 0.35 C8.38 -0.33, 17.14 0.08, 35.1 0.25" stroke="#0b7285" stroke-width="1" fill="none"></path></g></g><mask></mask><g stroke-linecap="round"><g transform="translate(1173.8758811755915 376.52201143274283) rotate(0 28.70076396391073 -0.07489367323250917)"><path d="M0.23 0.02 C21.94 -0.77, 45.8 0.48, 58.09 -0.25 M-0.69 -0.75 C15.87 0.56, 32.97 1.02, 58.03 0.16" stroke="#0b7285" stroke-width="1" fill="none"></path></g></g><mask></mask><g stroke-linecap="round"><g transform="translate(1230.256091721774 377.376257047079) rotate(0 -0.06005481849433636 -73.7182979234434)"><path d="M0.49 1.82 C1.64 -32.63, -0.09 -67.3, 0.63 -149.25 M-0.25 0.59 C-0.55 -33.35, -1.18 -64.11, -0.98 -148.71" stroke="#0b7285" stroke-width="1" fill="none"></path></g></g><mask></mask><g stroke-linecap="round"><g transform="translate(1230.256091721774 229.82934648461423) rotate(0 -521.1980168640214 0.049932914642567994)"><path d="M-0.5 -0.16 C-284 -3.31, -567.57 -3.44, -1042.55 -0.54 M0.16 0.25 C-264.88 3.43, -530.44 3.82, -1042.45 -0.21" stroke="#0b7285" stroke-width="1" fill="none"></path></g></g><mask></mask><g stroke-linecap="round"><g transform="translate(186.36795100306335 232.74190882945072) rotate(0 -0.5776705690009294 193.73822834613486)"><path d="M-0.12 -0.62 C-1.43 143.06, -0.81 287.45, -1.02 388.09 M-0.22 0.22 C-1.78 122.41, -1.97 243.92, 0.25 388.05" stroke="#0b7285" stroke-width="1" fill="none"></path></g><g transform="translate(186.36795100306335 232.74190882945072) rotate(0 -0.5776705690009294 193.73822834613486)"><path d="M-10.52 358.92 C-7.66 368.81, -2.7 379.91, -1.48 388.61 M-10.7 360.34 C-6.5 369.51, -3.49 377.42, 0.67 388.54" stroke="#0b7285" stroke-width="1" fill="none"></path></g><g transform="translate(186.36795100306335 232.74190882945072) rotate(0 -0.5776705690009294 193.73822834613486)"><path d="M10 358.69 C5.23 368.64, 2.58 379.83, -1.48 388.61 M9.82 360.11 C7.56 369.16, 4.11 377.14, 0.67 388.54" stroke="#0b7285" stroke-width="1" fill="none"></path></g></g><mask></mask><g transform="translate(1290.4503238114262 289.3735797928964) rotate(0 61.5 37.5)"><text x="0" y="0" font-family="Virgil, Segoe UI Emoji" font-size="20px" fill="#1864ab" text-anchor="start" style="white-space: pre;" direction="ltr" dominant-baseline="text-before-edge">0 = PC+4</text><text x="0" y="25" font-family="Virgil, Segoe UI Emoji" font-size="20px" fill="#1864ab" text-anchor="start" style="white-space: pre;" direction="ltr" dominant-baseline="text-before-edge">1  = PC+4+I</text><text x="0" y="50" font-family="Virgil, Segoe UI Emoji" font-size="20px" fill="#1864ab" text-anchor="start" style="white-space: pre;" direction="ltr" dominant-baseline="text-before-edge">PCSrc</text></g><g stroke-linecap="round"><g transform="translate(1284.4907345286017 326.9827122415604) rotate(0 -61.74105942869744 2.738813309418333)"><path d="M0.18 1.96 C-45.05 0.26, -88.87 1.9, -123.67 2.56 M-0.09 0.67 C-31.04 1.89, -63.14 3.14, -123.62 4.81" stroke="#1864ab" stroke-width="1" fill="none"></path></g><g transform="translate(1284.4907345286017 326.9827122415604) rotate(0 -61.74105942869744 2.738813309418333)"><path d="M-95.56 -4.32 C-105.99 -2.74, -114.97 1.32, -123.7 2.95 M-95.84 -5.61 C-101.94 -3.29, -109.25 -0.31, -123.66 5.2" stroke="#1864ab" stroke-width="1" fill="none"></path></g><g transform="translate(1284.4907345286017 326.9827122415604) rotate(0 -61.74105942869744 2.738813309418333)"><path d="M-94.96 16.2 C-105.52 10.3, -114.72 6.89, -123.7 2.95 M-95.23 14.9 C-101.68 11.91, -109.14 9.58, -123.66 5.2" stroke="#1864ab" stroke-width="1" fill="none"></path></g></g><mask></mask><g stroke-linecap="round"><g transform="translate(1003.9876751447 800.2854737853969) rotate(0 21.311758178334912 -0.3465095981955528)"><path d="M-1.75 -1.46 C13.64 -0.15, 30.08 -0.84, 43.58 -1.41 M-0.58 0.76 C13.94 0.64, 27.3 0.68, 44.38 0" stroke="#1864ab" stroke-width="1" fill="none"></path></g><g transform="translate(1003.9876751447 800.2854737853969) rotate(0 21.311758178334912 -0.3465095981955528)"><path d="M22.35 6.63 C29.66 5.14, 38.01 1.65, 44.32 -1.41 M23.53 8.85 C31.05 6.06, 37.34 3.65, 45.11 0.01" stroke="#1864ab" stroke-width="1" fill="none"></path></g><g transform="translate(1003.9876751447 800.2854737853969) rotate(0 21.311758178334912 -0.3465095981955528)"><path d="M21.9 -8.29 C29.36 -4.61, 37.86 -2.94, 44.32 -1.41 M23.08 -6.07 C30.6 -4.34, 37.03 -2.24, 45.11 0.01" stroke="#1864ab" stroke-width="1" fill="none"></path></g></g><mask></mask><g stroke-linecap="round" transform="translate(1083.8432911057398 926.1986444214064) rotate(0 54.413905612951794 48.35404261872702)"><path d="M-1.63 -0.35 C26.78 -1.34, 51.48 1.73, 107.29 -1.87 M0.45 0.31 C28.49 -0.79, 54.69 -0.07, 108.65 -0.97 M110.37 0.23 C110.87 35.6, 109.09 73.58, 110.65 96.7 M108.04 -0.28 C107.93 27.6, 109.66 53.85, 108.6 97.11 M107.33 96.59 C75.36 98.9, 43.53 96.2, -1.11 95.83 M108.12 96.13 C69.09 98.22, 31.34 97.89, -0.03 96.13 M1.89 95.18 C-1.04 61.81, -1.53 23.66, 0.99 -0.76 M-0.67 97.59 C-0.4 72.38, 0.18 47.44, -0.54 -0.08" stroke="#364fc7" stroke-width="2" fill="none"></path></g><g transform="translate(1104.8314561592497 948.8906644760134) rotate(0 35.5 25.531358508154568)"><text x="35.5" y="0" font-family="Virgil, Segoe UI Emoji" font-size="20.425086806523662px" fill="#364fc7" text-anchor="middle" style="white-space: pre;" direction="ltr" dominant-baseline="text-before-edge">ALU</text><text x="35.5" y="25.53135850815458" font-family="Virgil, Segoe UI Emoji" font-size="20.425086806523662px" fill="#364fc7" text-anchor="middle" style="white-space: pre;" direction="ltr" dominant-baseline="text-before-edge">Control</text></g><g stroke-linecap="round"><g transform="translate(700.1736028728528 1048.6728910494041) rotate(0 0.020163923501968384 70.0220522568988)"><path d="M1.87 0.09 C1.42 53.1, 1.78 102.76, -1.83 139.07 M-0.32 0.2 C-0.48 52.96, -1.83 103.76, 0.48 139.95" stroke="#364fc7" stroke-width="1" fill="none"></path></g></g><mask></mask><g stroke-linecap="round"><g transform="translate(700.1736028728528 1189.1693971565292) rotate(0 222.34543600117308 0.045932083569397264)"><path d="M-0.82 -0.96 C172.26 0.65, 342.38 2.35, 445.06 -0.4 M-0.09 0.16 C127.74 -0.2, 255.3 0.24, 445.51 0.42" stroke="#364fc7" stroke-width="1" fill="none"></path></g></g><mask></mask><g stroke-linecap="round"><g transform="translate(1146.0010986301081 1190.2756688581603) rotate(0 -0.2754631264456293 -82.92307184464909)"><path d="M-0.26 -0.67 C-0.86 -38.23, -0.9 -78.6, 0.9 -164.96 M-0.15 0.38 C-2.16 -51.26, -1.44 -103.59, -0.67 -166.23" stroke="#364fc7" stroke-width="1" fill="none"></path></g><g transform="translate(1146.0010986301081 1190.2756688581603) rotate(0 -0.2754631264456293 -82.92307184464909)"><path d="M9.01 -138.6 C5.41 -143.57, 3.01 -151.28, 0.23 -165.25 M9.12 -137.54 C5.29 -146, 2.89 -155.08, -1.35 -166.52" stroke="#364fc7" stroke-width="1" fill="none"></path></g><g transform="translate(1146.0010986301081 1190.2756688581603) rotate(0 -0.2754631264456293 -82.92307184464909)"><path d="M-11.51 -138.83 C-10.24 -143.61, -7.78 -151.27, 0.23 -165.25 M-11.4 -137.77 C-8.78 -146.01, -4.73 -155.01, -1.35 -166.52" stroke="#364fc7" stroke-width="1" fill="none"></path></g></g><mask></mask><g stroke-linecap="round"><g transform="translate(1141.5760118235848 924.7704604667425) rotate(0 -0.6139592155814171 -46.1209890240101)"><path d="M-1.77 -1.99 C-0.86 -23.75, -0.67 -46.85, -1.44 -91.38 M0.55 -0.86 C-0.75 -28.33, -0.3 -56.33, -0.05 -89.13" stroke="#364fc7" stroke-width="1" fill="none"></path></g><g transform="translate(1141.5760118235848 924.7704604667425) rotate(0 -0.6139592155814171 -46.1209890240101)"><path d="M8.21 -62.85 C6.9 -68.27, 4.42 -75.08, -1.48 -90.91 M10.53 -61.72 C6.17 -69.89, 3.47 -78.67, -0.09 -88.66" stroke="#364fc7" stroke-width="1" fill="none"></path></g><g transform="translate(1141.5760118235848 924.7704604667425) rotate(0 -0.6139592155814171 -46.1209890240101)"><path d="M-12.31 -63.02 C-8.17 -68.5, -5.2 -75.27, -1.48 -90.91 M-9.99 -61.89 C-7.92 -70.17, -4.19 -78.9, -0.09 -88.66" stroke="#364fc7" stroke-width="1" fill="none"></path></g></g><mask></mask><g stroke-linecap="round"><g transform="translate(479.6921965213078 618.9849620575876) rotate(0 16.954410394323986 9.72203791832385)"><path d="M0.02 1.28 C11.05 5.48, 22.24 11.69, 32.94 18.92 M-0.38 -0.1 C12.34 7.81, 24.65 14.61, 34.29 19.54" stroke="#c92a2a" stroke-width="1" fill="none"></path></g></g><mask></mask><g stroke-linecap="round"><g transform="translate(483.2572227399355 665.1924091538714) rotate(0 16.91646230746619 10.929937205666874)"><path d="M-1.18 0.81 C7.56 4.23, 14.44 9.57, 35.01 21.05 M-0.98 0.85 C10.7 6.89, 21.9 13.08, 33.32 19.42" stroke="#e67700" stroke-width="1" fill="none"></path></g></g><mask></mask><g transform="translate(471.77556443229605 596.2098501460555) rotate(0 21.5 10)"><text x="0" y="0" font-family="Virgil, Segoe UI Emoji" font-size="16px" fill="#c92a2a" text-anchor="start" style="white-space: pre;" direction="ltr" dominant-baseline="text-before-edge">25-21</text></g><g transform="translate(478.21198864073176 651.2446317726775) rotate(0 21.5 10)"><text x="0" y="0" font-family="Virgil, Segoe UI Emoji" font-size="16px" fill="#e67700" text-anchor="start" style="white-space: pre;" direction="ltr" dominant-baseline="text-before-edge">20-16</text></g><g stroke-linecap="round"><g transform="translate(507.2373771444509 706.3622917293917) rotate(0 0.45240481675227784 51.483011240362316)"><path d="M1.42 -0.58 C-0.89 36.79, 1.67 69.2, 0.29 102.98 M0.25 -0.05 C-1.01 23.09, -0.43 47.4, 0.07 103.55" stroke="#1864ab" stroke-width="2" fill="none"></path></g></g><mask></mask><g stroke-linecap="round"><g transform="translate(508.8295050373763 807.4624129301171) rotate(0 11.2005109595882 -6.087453611296667)"><path d="M-1.27 1.79 C6.23 -3.68, 10.28 -5.56, 21.62 -13.96 M-0.79 -0.22 C6 -2.86, 12.53 -6.46, 23.67 -12.87" stroke="#1864ab" stroke-width="2" fill="none"></path></g></g><mask></mask><g stroke-linecap="round"><g transform="translate(531.1192955383231 796.3175176796435) rotate(0 0.5385012850165367 -37.7296646041504)"><path d="M1.29 -0.8 C1 -20.43, -0.54 -41.84, 0.21 -75.93 M-0.21 0.79 C0.91 -21.66, 1.66 -44.37, 0.62 -76.25" stroke="#1864ab" stroke-width="2" fill="none"></path></g></g><mask></mask><g stroke-linecap="round"><g transform="translate(530.3232315918613 719.0993148727903) rotate(0 -10.742456325874628 -5.53893944278235)"><path d="M0.29 0.28 C-9.9 -4.55, -17.4 -7.65, -21.6 -11.93 M0.07 0.86 C-5.37 -2.05, -12.1 -5.41, -21.78 -11.18" stroke="#1864ab" stroke-width="2" fill="none"></path></g></g><mask></mask><g transform="translate(512.0137608232253 729.4481461768016) rotate(0 7 12.5)"><text x="0" y="0" font-family="Virgil, Segoe UI Emoji" font-size="20px" fill="#1864ab" text-anchor="start" style="white-space: pre;" direction="ltr" dominant-baseline="text-before-edge">0</text></g><g transform="translate(516.9547200201632 763.119855071621) rotate(0 2.5 12.5)"><text x="0" y="0" font-family="Virgil, Segoe UI Emoji" font-size="20px" fill="#1864ab" text-anchor="start" style="white-space: pre;" direction="ltr" dominant-baseline="text-before-edge">1</text></g><g stroke-linecap="round"><g transform="translate(469.1970227666343 678.7094200121576) rotate(0 0.5999292703024821 31.22545195248847)"><path d="M0.37 -0.24 C-0.1 21.57, -0.75 40.97, 1.68 62.69 M0.21 0.45 C-0.56 21.36, -0.98 42.37, 0.53 61.45" stroke="#e67700" stroke-width="1" fill="none"></path></g></g><mask></mask><g stroke-linecap="round"><g transform="translate(468.76511221939427 741.3364493619745) rotate(0 18.852217678106626 0.2696412274621025)"><path d="M0.51 -0.01 C12.82 1.24, 23.23 1.53, 37.2 -0.21 M0.77 0.48 C14.86 -0.67, 28.38 -0.84, 35.55 0.28" stroke="#e67700" stroke-width="1" fill="none"></path></g><g transform="translate(468.76511221939427 741.3364493619745) rotate(0 18.852217678106626 0.2696412274621025)"><path d="M18.71 4.99 C25.05 4.71, 29.65 3.59, 36.76 0.48 M18.94 5.43 C25.81 2.84, 32.15 1.01, 35.28 0.91" stroke="#e67700" stroke-width="1" fill="none"></path></g><g transform="translate(468.76511221939427 741.3364493619745) rotate(0 18.852217678106626 0.2696412274621025)"><path d="M19.72 -7.23 C25.65 -3.62, 29.92 -0.84, 36.76 0.48 M19.96 -6.79 C26.4 -4.61, 32.35 -1.69, 35.28 0.91" stroke="#e67700" stroke-width="1" fill="none"></path></g></g><mask></mask><g stroke-linecap="round"><g transform="translate(441.5547477432665 775.0254720467036) rotate(0 31.057209069735563 0.30404323600089356)"><path d="M-0.9 1.06 C22.43 0.43, 39.28 1.61, 63.01 -0.46 M0.3 0.9 C23.58 -0.35, 48.3 0.98, 62.77 0.23" stroke="#364fc7" stroke-width="1" fill="none"></path></g><g transform="translate(441.5547477432665 775.0254720467036) rotate(0 31.057209069735563 0.30404323600089356)"><path d="M33.84 11.99 C45.75 7.86, 51.24 5.25, 63.15 -1.09 M35.04 11.82 C45.24 6.26, 56.88 3.21, 62.9 -0.4" stroke="#364fc7" stroke-width="1" fill="none"></path></g><g transform="translate(441.5547477432665 775.0254720467036) rotate(0 31.057209069735563 0.30404323600089356)"><path d="M33.52 -8.53 C45.65 -5.93, 51.24 -1.8, 63.15 -1.09 M34.73 -8.7 C45.03 -6.5, 56.78 -1.79, 62.9 -0.4" stroke="#364fc7" stroke-width="1" fill="none"></path></g></g><mask></mask><g transform="translate(484.1931424631757 892.990953048205) rotate(0 36.5 12.5)"><text x="0" y="0" font-family="Virgil, Segoe UI Emoji" font-size="20px" fill="#1864ab" text-anchor="start" style="white-space: pre;" direction="ltr" dominant-baseline="text-before-edge">RegDst</text></g><g stroke-linecap="round"><g transform="translate(518.7314420771277 886.8124957304049) rotate(0 0.4265483349477108 -39.58949437470142)"><path d="M0.26 -1.6 C-0.24 -17.11, 0.07 -30.74, 1.21 -79.34 M0.67 0.17 C1.5 -20.24, 0.2 -41.43, -0.36 -78.8" stroke="#1864ab" stroke-width="1" fill="none"></path></g><g transform="translate(518.7314420771277 886.8124957304049) rotate(0 0.4265483349477108 -39.58949437470142)"><path d="M10.75 -52.44 C7.42 -57.39, 5.41 -60.5, 0.35 -78.6 M11.16 -50.67 C8.65 -57.78, 4.4 -65.57, -1.22 -78.06" stroke="#1864ab" stroke-width="1" fill="none"></path></g><g transform="translate(518.7314420771277 886.8124957304049) rotate(0 0.4265483349477108 -39.58949437470142)"><path d="M-9.77 -52 C-8.9 -57.09, -6.72 -60.29, 0.35 -78.6 M-9.36 -50.24 C-6.54 -57.31, -5.46 -65.21, -1.22 -78.06" stroke="#1864ab" stroke-width="1" fill="none"></path></g></g><mask></mask><g stroke-linecap="round"><g transform="translate(450.86360725248824 765.8054271918631) rotate(0 17.576302235616367 9.45486844276843)"><path d="M-0.01 1.55 C10.72 8.58, 22.82 13.37, 35.16 18.58 M0.99 -0.07 C8.88 4.29, 16.82 8.68, 33.4 18.98" stroke="#364fc7" stroke-width="1" fill="none"></path></g></g><mask></mask><g transform="translate(452.7691259386834 783.2075844358427) rotate(0 14.5 10)"><text x="0" y="0" font-family="Virgil, Segoe UI Emoji" font-size="16px" fill="#364fc7" text-anchor="start" style="white-space: pre;" direction="ltr" dominant-baseline="text-before-edge">15-11</text></g><g transform="translate(551.1150734238727 1024.8001449977646) rotate(0 16 10)"><text x="0" y="0" font-family="Virgil, Segoe UI Emoji" font-size="16px" fill="#364fc7" text-anchor="start" style="white-space: pre;" direction="ltr" dominant-baseline="text-before-edge">15-0</text></g><g stroke-linecap="round"><g transform="translate(539.3762064805501 1037.904940686672) rotate(0 10.911399688174924 9.39325349842133)"><path d="M-1.94 -0.01 C7.13 3.11, 13.21 9.48, 23.76 18.8 M-0.78 0.97 C5.31 5.06, 12.85 9.14, 22.64 16.71" stroke="#364fc7" stroke-width="1" fill="none"></path></g></g><mask></mask><g transform="translate(846.9648829831594 1167.0969903236285) rotate(0 14 10)"><text x="0" y="0" font-family="Virgil, Segoe UI Emoji" font-size="16px" fill="#364fc7" text-anchor="start" style="white-space: pre;" direction="ltr" dominant-baseline="text-before-edge">5-0</text></g><g stroke-linecap="round"><g transform="translate(835.2260160398364 1180.201786012536) rotate(0 10.354169640293321 9.121996097908635)"><path d="M-1.15 -0.89 C7.4 6.09, 12.82 10.61, 21.02 19.13 M0.89 -0.71 C7.08 4.74, 13.28 9.41, 21.86 17.57" stroke="#364fc7" stroke-width="1" fill="none"></path></g></g><mask></mask><g stroke-linecap="round" transform="translate(483.14327493073006 363.07908997580944) rotate(0 54.413905612951794 95)"><path d="M1.4 0.94 C30.85 2.49, 60.43 0.2, 109.71 -0.14 M-0.17 0.73 C29.24 0.86, 57.54 -0.14, 109.67 0.76 M107.95 -0.81 C109.34 46.13, 105.93 91.31, 109.3 189.85 M107.91 0.57 C110.01 43.12, 109.54 85.21, 108.17 190.8 M107.87 190.64 C67.99 189.19, 24.4 190.04, 0.85 191.07 M109.25 190.04 C86.94 190.17, 63.98 189.38, -0.74 190.19 M-1.81 189.23 C1.57 122.97, 1.57 58.26, -1.28 0.33 M0.01 189.83 C0.64 114.87, 0.98 38.49, 0.72 0.43" stroke="#1864ab" stroke-width="4" fill="none"></path></g><g transform="translate(488.14327493073006 368.07908997580944) rotate(0 42 90)"><text x="0" y="0" font-family="Virgil, Segoe UI Emoji" font-size="16px" fill="#1864ab" text-anchor="start" style="white-space: pre;" direction="ltr" dominant-baseline="text-before-edge">CU</text><text x="0" y="20" font-family="Virgil, Segoe UI Emoji" font-size="16px" fill="#1864ab" text-anchor="start" style="white-space: pre;" direction="ltr" dominant-baseline="text-before-edge">-RegDst</text><text x="0" y="40" font-family="Virgil, Segoe UI Emoji" font-size="16px" fill="#1864ab" text-anchor="start" style="white-space: pre;" direction="ltr" dominant-baseline="text-before-edge">-Branch</text><text x="0" y="60" font-family="Virgil, Segoe UI Emoji" font-size="16px" fill="#1864ab" text-anchor="start" style="white-space: pre;" direction="ltr" dominant-baseline="text-before-edge">-MemRead</text><text x="0" y="80" font-family="Virgil, Segoe UI Emoji" font-size="16px" fill="#1864ab" text-anchor="start" style="white-space: pre;" direction="ltr" dominant-baseline="text-before-edge">-MemtoReg</text><text x="0" y="100" font-family="Virgil, Segoe UI Emoji" font-size="16px" fill="#1864ab" text-anchor="start" style="white-space: pre;" direction="ltr" dominant-baseline="text-before-edge">-ALUOp</text><text x="0" y="120" font-family="Virgil, Segoe UI Emoji" font-size="16px" fill="#1864ab" text-anchor="start" style="white-space: pre;" direction="ltr" dominant-baseline="text-before-edge">-MemWrite</text><text x="0" y="140" font-family="Virgil, Segoe UI Emoji" font-size="16px" fill="#1864ab" text-anchor="start" style="white-space: pre;" direction="ltr" dominant-baseline="text-before-edge">-ALUSrc</text><text x="0" y="160" font-family="Virgil, Segoe UI Emoji" font-size="16px" fill="#1864ab" text-anchor="start" style="white-space: pre;" direction="ltr" dominant-baseline="text-before-edge">- RegWrite</text></g><g stroke-linecap="round"><g transform="translate(441.96070449560784 630.0509075097032) rotate(0 0.9363584264497149 -93.3239411863974)"><path d="M0.64 -1.39 C0.01 -40.09, -0.28 -82.05, 1.81 -183.39 M-0.56 -0.66 C-0.54 -68.95, 0.61 -137.75, 2.44 -185.98" stroke="#1864ab" stroke-width="1" fill="none"></path></g></g><mask></mask><g stroke-linecap="round"><g transform="translate(444.2913642217468 444.18079435010895) rotate(0 19.022705297678385 0.2182342510000126)"><path d="M-0.97 1.65 C11.19 -1.78, 24.3 -1.85, 39.01 -0.05 M-0.76 0.98 C13.68 -0.21, 26.88 0.03, 38.14 -0.4" stroke="#1864ab" stroke-width="1" fill="none"></path></g><g transform="translate(444.2913642217468 444.18079435010895) rotate(0 19.022705297678385 0.2182342510000126)"><path d="M19.87 7.95 C25.25 2.59, 31.56 0.21, 39.74 -0.45 M20.07 7.32 C27.3 3.73, 33.35 1.5, 38.93 -0.77" stroke="#1864ab" stroke-width="1" fill="none"></path></g><g transform="translate(444.2913642217468 444.18079435010895) rotate(0 19.022705297678385 0.2182342510000126)"><path d="M19.56 -4.8 C25.11 -5.82, 31.52 -3.87, 39.74 -0.45 M19.75 -5.43 C27.04 -4.44, 33.2 -2.08, 38.93 -0.77" stroke="#1864ab" stroke-width="1" fill="none"></path></g></g><mask></mask><g stroke-linecap="round"><g transform="translate(426.35527017842287 514.5189765101923) rotate(0 17.049011891378086 9.356882765347336)"><path d="M-1.46 -1.09 C5.05 2.82, 12.63 7.03, 35.55 19.55 M0.79 -0.15 C12.88 6.75, 24.44 14.06, 34.85 19.81" stroke="#1864ab" stroke-width="1" fill="none"></path></g></g><mask></mask><g transform="translate(423.35579345035285 537.4031643788348) rotate(0 21.5 10)"><text x="0" y="0" font-family="Virgil, Segoe UI Emoji" font-size="16px" fill="#1864ab" text-anchor="start" style="white-space: pre;" direction="ltr" dominant-baseline="text-before-edge">31-26</text></g><g transform="translate(1202.5575237474304 454.7411377746066) rotate(0 101 52.07363566438147)"><text x="101" y="0" font-family="Virgil, Segoe UI Emoji" font-size="41.65890853150519px" fill="#1864ab" text-anchor="middle" style="white-space: pre;" direction="ltr" dominant-baseline="text-before-edge">Logic for </text><text x="101" y="52.073635664381484" font-family="Virgil, Segoe UI Emoji" font-size="41.65890853150519px" fill="#1864ab" text-anchor="middle" style="white-space: pre;" direction="ltr" dominant-baseline="text-before-edge">JUMPS</text></g><g transform="translate(746.8333333333308 10) rotate(0 178.5 52.5)"><text x="0" y="0" font-family="Virgil, Segoe UI Emoji" font-size="28px" fill="#1e1e1e" text-anchor="start" style="white-space: pre;" direction="ltr" dominant-baseline="text-before-edge">The register file has</text><text x="0" y="35" font-family="Virgil, Segoe UI Emoji" font-size="28px" fill="#1e1e1e" text-anchor="start" style="white-space: pre;" direction="ltr" dominant-baseline="text-before-edge">32 registers, addressable</text><text x="0" y="70" font-family="Virgil, Segoe UI Emoji" font-size="28px" fill="#1e1e1e" text-anchor="start" style="white-space: pre;" direction="ltr" dominant-baseline="text-before-edge">with 5 bits</text></g><g transform="translate(405.8333333333312 1210.05) rotate(0 186 35)"><text x="0" y="0" font-family="Virgil, Segoe UI Emoji" font-size="28px" fill="#1e1e1e" text-anchor="start" style="white-space: pre;" direction="ltr" dominant-baseline="text-before-edge">We need the extension unit</text><text x="0" y="35" font-family="Virgil, Segoe UI Emoji" font-size="28px" fill="#1e1e1e" text-anchor="start" style="white-space: pre;" direction="ltr" dominant-baseline="text-before-edge">for I-type instructions</text></g><g transform="translate(41.19047619047387 901.3) rotate(0 185.5 105)"><text x="0" y="0" font-family="Virgil, Segoe UI Emoji" font-size="28px" fill="#1e1e1e" text-anchor="start" style="white-space: pre;" direction="ltr" dominant-baseline="text-before-edge">We need to distinguish</text><text x="0" y="35" font-family="Virgil, Segoe UI Emoji" font-size="28px" fill="#1e1e1e" text-anchor="start" style="white-space: pre;" direction="ltr" dominant-baseline="text-before-edge">R-type and I-type instr.</text><text x="0" y="70" font-family="Virgil, Segoe UI Emoji" font-size="28px" fill="#1e1e1e" text-anchor="start" style="white-space: pre;" direction="ltr" dominant-baseline="text-before-edge">R-type get write reg from </text><text x="0" y="105" font-family="Virgil, Segoe UI Emoji" font-size="28px" fill="#1e1e1e" text-anchor="start" style="white-space: pre;" direction="ltr" dominant-baseline="text-before-edge">the third parameter</text><text x="0" y="140" font-family="Virgil, Segoe UI Emoji" font-size="28px" fill="#1e1e1e" text-anchor="start" style="white-space: pre;" direction="ltr" dominant-baseline="text-before-edge">I-type get write reg from</text><text x="0" y="175" font-family="Virgil, Segoe UI Emoji" font-size="28px" fill="#1e1e1e" text-anchor="start" style="white-space: pre;" direction="ltr" dominant-baseline="text-before-edge">the second parameter</text></g><g stroke-linecap="round"><g transform="translate(811.9287028862768 129.4285714285711) rotate(0 -61.04507968510234 216.00606083415335)"><path d="M-1.02 0.28 C-45.18 158.24, -90.62 315.06, -122.66 432.15 M0.57 -0.14 C-34.67 123.33, -70.41 246.58, -122.36 431.67" stroke="#1e1e1e" stroke-width="4" fill="none"></path></g><g transform="translate(811.9287028862768 129.4285714285711) rotate(0 -61.04507968510234 216.00606083415335)"><path d="M-126.67 402.34 C-125.92 413.26, -126.48 421.72, -123.24 432.98 M-123.39 401.47 C-122.86 410.28, -124.15 419.55, -122.61 432" stroke="#1e1e1e" stroke-width="4" fill="none"></path></g><g transform="translate(811.9287028862768 129.4285714285711) rotate(0 -61.04507968510234 216.00606083415335)"><path d="M-106.92 407.91 C-113.42 416.78, -121.22 423.19, -123.24 432.98 M-103.64 407.05 C-108.73 414.41, -115.64 422.1, -122.61 432" stroke="#1e1e1e" stroke-width="4" fill="none"></path></g></g><mask></mask><g stroke-linecap="round"><g transform="translate(425.4047619047592 948.0857142857143) rotate(0 25.128620032487333 -22.23955466890976)"><path d="M0.55 -3.63 C9.94 -11.3, 25.23 -21.99, 48.18 -42.82 M0.02 -0.78 C18.34 -16.7, 35.33 -32.99, 50.24 -43.7" stroke="#1e1e1e" stroke-width="4" fill="none"></path></g><g transform="translate(425.4047619047592 948.0857142857143) rotate(0 25.128620032487333 -22.23955466890976)"><path d="M34.98 -21.83 C36.31 -25.22, 43.49 -31.26, 49.84 -42.23 M34.45 -18.98 C40.95 -27.79, 46.18 -37.33, 51.9 -43.12" stroke="#1e1e1e" stroke-width="4" fill="none"></path></g><g transform="translate(425.4047619047592 948.0857142857143) rotate(0 25.128620032487333 -22.23955466890976)"><path d="M22.29 -37.96 C26.81 -37.21, 37.13 -39.26, 49.84 -42.23 M21.76 -35.11 C32.77 -38.27, 42.56 -42.02, 51.9 -43.12" stroke="#1e1e1e" stroke-width="4" fill="none"></path></g></g><mask></mask><g transform="translate(1491.190476190475 205.58571428571508) rotate(0 184.5 157.5)"><text x="0" y="0" font-family="Virgil, Segoe UI Emoji" font-size="28px" fill="#1e1e1e" text-anchor="start" style="white-space: pre;" direction="ltr" dominant-baseline="text-before-edge">For branch instr.</text><text x="0" y="35" font-family="Virgil, Segoe UI Emoji" font-size="28px" fill="#1e1e1e" text-anchor="start" style="white-space: pre;" direction="ltr" dominant-baseline="text-before-edge">wee need to add the </text><text x="0" y="70" font-family="Virgil, Segoe UI Emoji" font-size="28px" fill="#1e1e1e" text-anchor="start" style="white-space: pre;" direction="ltr" dominant-baseline="text-before-edge">immediate part to </text><text x="0" y="105" font-family="Virgil, Segoe UI Emoji" font-size="28px" fill="#1e1e1e" text-anchor="start" style="white-space: pre;" direction="ltr" dominant-baseline="text-before-edge">PC+4 (the offset ends</text><text x="0" y="140" font-family="Virgil, Segoe UI Emoji" font-size="28px" fill="#1e1e1e" text-anchor="start" style="white-space: pre;" direction="ltr" dominant-baseline="text-before-edge">with 00, so we omit it in</text><text x="0" y="175" font-family="Virgil, Segoe UI Emoji" font-size="28px" fill="#1e1e1e" text-anchor="start" style="white-space: pre;" direction="ltr" dominant-baseline="text-before-edge">the instruction, to save</text><text x="0" y="210" font-family="Virgil, Segoe UI Emoji" font-size="28px" fill="#1e1e1e" text-anchor="start" style="white-space: pre;" direction="ltr" dominant-baseline="text-before-edge">some bits, but it must </text><text x="0" y="245" font-family="Virgil, Segoe UI Emoji" font-size="28px" fill="#1e1e1e" text-anchor="start" style="white-space: pre;" direction="ltr" dominant-baseline="text-before-edge">be factored in when adding</text><text x="0" y="280" font-family="Virgil, Segoe UI Emoji" font-size="28px" fill="#1e1e1e" text-anchor="start" style="white-space: pre;" direction="ltr" dominant-baseline="text-before-edge">it to the jump)</text></g><g stroke-linecap="round"><g transform="translate(1473.9761904761897 393.37289640616655) rotate(0 -140.035045777106 -2.130492659381048)"><path d="M-2.7 -2.74 C-89.04 3.47, -175.57 2.04, -280.08 -5.42 M0.01 0.91 C-91.48 -1.91, -184.52 -1.26, -277.26 -3.21" stroke="#1e1e1e" stroke-width="4" fill="none"></path></g><g transform="translate(1473.9761904761897 393.37289640616655) rotate(0 -140.035045777106 -2.130492659381048)"><path d="M-252.43 -16.62 C-260.43 -7.74, -268.52 -4.95, -279.22 -5.25 M-248.9 -11.88 C-258.19 -10.71, -269.24 -4.96, -275.55 -2.37" stroke="#1e1e1e" stroke-width="4" fill="none"></path></g><g transform="translate(1473.9761904761897 393.37289640616655) rotate(0 -140.035045777106 -2.130492659381048)"><path d="M-252.73 3.9 C-260.43 6.36, -268.43 2.73, -279.22 -5.25 M-249.2 8.64 C-258.03 3.05, -268.97 2.05, -275.55 -2.37" stroke="#1e1e1e" stroke-width="4" fill="none"></path></g></g><mask></mask><g stroke-linecap="round"><g transform="translate(1475.4047619047612 429.51428571428664) rotate(0 -268.87197976202845 2.5203666187823046)"><path d="M-0.48 -0.39 C-212.1 4.89, -423.49 6.97, -537.98 4.98 M0.24 -0.68 C-157.97 2.02, -316.88 3.15, -536.83 5.06" stroke="#1e1e1e" stroke-width="4" fill="none"></path></g><g transform="translate(1475.4047619047612 429.51428571428664) rotate(0 -268.87197976202845 2.5203666187823046)"><path d="M-509.92 -6.42 C-520.94 -0.83, -531.28 2.87, -538.92 3.24 M-508.14 -7.15 C-515.23 -1.79, -524.13 -0.08, -536.03 3.43" stroke="#1e1e1e" stroke-width="4" fill="none"></path></g><g transform="translate(1475.4047619047612 429.51428571428664) rotate(0 -268.87197976202845 2.5203666187823046)"><path d="M-509.75 14.1 C-520.49 11.6, -530.9 7.22, -538.92 3.24 M-507.96 13.37 C-515.29 12.67, -524.23 8.32, -536.03 3.43" stroke="#1e1e1e" stroke-width="4" fill="none"></path></g></g><mask></mask><g transform="translate(892.7499999999995 1214.9071428571435) rotate(0 279 87.5)"><text x="0" y="0" font-family="Virgil, Segoe UI Emoji" font-size="28px" fill="#1e1e1e" text-anchor="start" style="white-space: pre;" direction="ltr" dominant-baseline="text-before-edge">On I-type instructions, we need</text><text x="0" y="35" font-family="Virgil, Segoe UI Emoji" font-size="28px" fill="#1e1e1e" text-anchor="start" style="white-space: pre;" direction="ltr" dominant-baseline="text-before-edge">to get the operand from the extended</text><text x="0" y="70" font-family="Virgil, Segoe UI Emoji" font-size="28px" fill="#1e1e1e" text-anchor="start" style="white-space: pre;" direction="ltr" dominant-baseline="text-before-edge">immediate part, obtained from the </text><text x="0" y="105" font-family="Virgil, Segoe UI Emoji" font-size="28px" fill="#1e1e1e" text-anchor="start" style="white-space: pre;" direction="ltr" dominant-baseline="text-before-edge">extension unit. On R-type instruction, we</text><text x="0" y="140" font-family="Virgil, Segoe UI Emoji" font-size="28px" fill="#1e1e1e" text-anchor="start" style="white-space: pre;" direction="ltr" dominant-baseline="text-before-edge">get the data from "reg 2 data"</text></g><g stroke-linecap="round"><g transform="translate(674.5551125081415 1204.9071428571435) rotate(0 62.662446414053875 -41.354279604831504)"><path d="M0.57 1.96 C28.33 -15.55, 45.63 -33.22, 120.55 -84.67 M1.67 0.05 C33.04 -22.06, 64.46 -42.61, 124.76 -81.43" stroke="#1e1e1e" stroke-width="4" fill="none"></path></g><g transform="translate(674.5551125081415 1204.9071428571435) rotate(0 62.662446414053875 -41.354279604831504)"><path d="M107.22 -55.55 C113.98 -62.91, 109.96 -68.75, 121.65 -83.61 M108.32 -57.47 C112 -62.61, 116.51 -68.23, 125.85 -80.38" stroke="#1e1e1e" stroke-width="4" fill="none"></path></g><g transform="translate(674.5551125081415 1204.9071428571435) rotate(0 62.662446414053875 -41.354279604831504)"><path d="M96.08 -72.79 C105.17 -76.49, 103.41 -78.85, 121.65 -83.61 M97.18 -74.7 C103.48 -75.66, 110.82 -76.89, 125.85 -80.38" stroke="#1e1e1e" stroke-width="4" fill="none"></path></g></g><mask></mask><g stroke-linecap="round"><g transform="translate(1031.4999999999995 1206.1571428571435) rotate(0 -16.853226482360924 -177.16517194833165)"><path d="M0.36 -1.25 C-12.02 -125.2, -22.05 -257.31, -34.32 -352.88 M0.61 0.64 C-9.91 -85.77, -16 -169.56, -33 -354.97" stroke="#1e1e1e" stroke-width="4" fill="none"></path></g><g transform="translate(1031.4999999999995 1206.1571428571435) rotate(0 -16.853226482360924 -177.16517194833165)"><path d="M-19.7 -329.76 C-28.48 -333.78, -30.43 -350.53, -35.84 -353.62 M-19.31 -326.81 C-25.19 -336.36, -25.64 -341.97, -33.79 -356.87" stroke="#1e1e1e" stroke-width="4" fill="none"></path></g><g transform="translate(1031.4999999999995 1206.1571428571435) rotate(0 -16.853226482360924 -177.16517194833165)"><path d="M-40.14 -327.92 C-41.52 -332.58, -36.1 -349.99, -35.84 -353.62 M-39.75 -324.98 C-40.76 -334.81, -36.35 -340.85, -33.79 -356.87" stroke="#1e1e1e" stroke-width="4" fill="none"></path></g></g><mask></mask><g transform="translate(10 174.248051948053) rotate(0 105 70)"><text x="0" y="0" font-family="Virgil, Segoe UI Emoji" font-size="28px" fill="#1e1e1e" text-anchor="start" style="white-space: pre;" direction="ltr" dominant-baseline="text-before-edge">The next instr.</text><text x="0" y="35" font-family="Virgil, Segoe UI Emoji" font-size="28px" fill="#1e1e1e" text-anchor="start" style="white-space: pre;" direction="ltr" dominant-baseline="text-before-edge">is alway</text><text x="0" y="70" font-family="Virgil, Segoe UI Emoji" font-size="28px" fill="#1e1e1e" text-anchor="start" style="white-space: pre;" direction="ltr" dominant-baseline="text-before-edge">after 4</text><text x="0" y="105" font-family="Virgil, Segoe UI Emoji" font-size="28px" fill="#1e1e1e" text-anchor="start" style="white-space: pre;" direction="ltr" dominant-baseline="text-before-edge">bytes (32b)</text></g><g stroke-linecap="round"><g transform="translate(158.8636363636365 241.66147186147282) rotate(0 22.44292078124863 16.956304381940072)"><path d="M-3.08 0.67 C12.66 6.21, 23.75 16.64, 45.7 31.58 M1.92 1.03 C9.82 7.19, 20.92 14.18, 47.97 33.25" stroke="#1e1e1e" stroke-width="4" fill="none"></path></g><g transform="translate(158.8636363636365 241.66147186147282) rotate(0 22.44292078124863 16.956304381940072)"><path d="M16.37 26.34 C26.61 25.87, 32.49 29.92, 44.58 32.09 M21.37 26.7 C25.05 26.81, 31.45 28.06, 46.84 33.76" stroke="#1e1e1e" stroke-width="4" fill="none"></path></g><g transform="translate(158.8636363636365 241.66147186147282) rotate(0 22.44292078124863 16.956304381940072)"><path d="M27.91 9.79 C35.41 13.72, 38.36 21.97, 44.58 32.09 M32.91 10.14 C33.64 13.86, 37.41 18.89, 46.84 33.76" stroke="#1e1e1e" stroke-width="4" fill="none"></path></g></g><mask></mask><g transform="translate(1500.1996468565942 1202.610247099846) rotate(0 190.5 157.5)"><text x="0" y="0" font-family="Virgil, Segoe UI Emoji" font-size="28px" fill="#1e1e1e" text-anchor="start" style="white-space: pre;" direction="ltr" dominant-baseline="text-before-edge">ALU Op (first 2 bits of </text><text x="0" y="35" font-family="Virgil, Segoe UI Emoji" font-size="28px" fill="#1e1e1e" text-anchor="start" style="white-space: pre;" direction="ltr" dominant-baseline="text-before-edge">funct field in R-type </text><text x="0" y="70" font-family="Virgil, Segoe UI Emoji" font-size="28px" fill="#1e1e1e" text-anchor="start" style="white-space: pre;" direction="ltr" dominant-baseline="text-before-edge">instructions) is used to</text><text x="0" y="105" font-family="Virgil, Segoe UI Emoji" font-size="28px" fill="#1e1e1e" text-anchor="start" style="white-space: pre;" direction="ltr" dominant-baseline="text-before-edge">determine which meaning</text><text x="0" y="140" font-family="Virgil, Segoe UI Emoji" font-size="28px" fill="#1e1e1e" text-anchor="start" style="white-space: pre;" direction="ltr" dominant-baseline="text-before-edge">do the next 4 bits have</text><text x="0" y="175" font-family="Virgil, Segoe UI Emoji" font-size="28px" fill="#1e1e1e" text-anchor="start" style="white-space: pre;" direction="ltr" dominant-baseline="text-before-edge">for the ALU.</text><text x="0" y="210" font-family="Virgil, Segoe UI Emoji" font-size="28px" fill="#1e1e1e" text-anchor="start" style="white-space: pre;" direction="ltr" dominant-baseline="text-before-edge"></text><text x="0" y="245" font-family="Virgil, Segoe UI Emoji" font-size="28px" fill="#1e1e1e" text-anchor="start" style="white-space: pre;" direction="ltr" dominant-baseline="text-before-edge">The next 4 bits are </text><text x="0" y="280" font-family="Virgil, Segoe UI Emoji" font-size="28px" fill="#1e1e1e" text-anchor="start" style="white-space: pre;" direction="ltr" dominant-baseline="text-before-edge">handled by the ALU Control</text></g><g stroke-linecap="round"><g transform="translate(1475.9139325708798 1199.515009004608) rotate(0 -145.8952555770294 -85.0335597503186)"><path d="M1.27 -0.7 C-91.39 -58.86, -189.55 -111.04, -293.06 -168.9 M-0.16 1.12 C-73.62 -38.94, -142.87 -81.52, -290.1 -171.19" stroke="#1e1e1e" stroke-width="4" fill="none"></path></g><g transform="translate(1475.9139325708798 1199.515009004608) rotate(0 -145.8952555770294 -85.0335597503186)"><path d="M-258.78 -166.35 C-267.19 -169.67, -281.5 -166.07, -292.54 -167.41 M-260.92 -163.62 C-269.58 -165.17, -273.85 -167.64, -288.12 -170.83" stroke="#1e1e1e" stroke-width="4" fill="none"></path></g><g transform="translate(1475.9139325708798 1199.515009004608) rotate(0 -145.8952555770294 -85.0335597503186)"><path d="M-269.45 -148.82 C-274.14 -157.78, -284.97 -159.89, -292.54 -167.41 M-271.59 -146.09 C-277.84 -152.04, -279.5 -158.8, -288.12 -170.83" stroke="#1e1e1e" stroke-width="4" fill="none"></path></g></g><mask></mask><g stroke-linecap="round"><g transform="translate(1545.9139325708798 1184.0388185284176) rotate(0 -187.26812296243645 -319.581568952916)"><path d="M-1.41 -0.1 C-113.11 -194.19, -227.03 -384.44, -373.56 -638.69 M0.38 -0.12 C-92.21 -159.82, -186.8 -322.18, -374.91 -639.07" stroke="#1e1e1e" stroke-width="4" fill="none"></path></g><g transform="translate(1545.9139325708798 1184.0388185284176) rotate(0 -187.26812296243645 -319.581568952916)"><path d="M-355.24 -620.27 C-355.21 -628.83, -367.58 -633.5, -373.09 -639.35 M-350.78 -620.32 C-357.35 -624.57, -361.31 -628.57, -376.48 -640.31" stroke="#1e1e1e" stroke-width="4" fill="none"></path></g><g transform="translate(1545.9139325708798 1184.0388185284176) rotate(0 -187.26812296243645 -319.581568952916)"><path d="M-372.9 -609.82 C-367.71 -621.21, -374.81 -629.01, -373.09 -639.35 M-368.44 -609.87 C-370.38 -617.13, -369.85 -623.79, -376.48 -640.31" stroke="#1e1e1e" stroke-width="4" fill="none"></path></g></g><mask></mask></svg>