<svg version="1.1" xmlns="http://www.w3.org/2000/svg" viewBox="0 0 2684.4053346532573 1319.1520742079465" width="2684.4053346532573" height="1319.1520742079465">
  <!-- svg-source:excalidraw -->
  
  <defs>
    <style class="style-fonts">
      @font-face {
        font-family: "Virgil";
        src: url("https://excalidraw.com/Virgil.woff2");
      }
      @font-face {
        font-family: "Cascadia";
        src: url("https://excalidraw.com/Cascadia.woff2");
      }
    </style>
  </defs>
  <g stroke-linecap="round" transform="translate(285.4431129169411 421.2936524392069) rotate(0 84.5 51.5)"><path d="M-0.27 -1.05 C62.44 -4, 129.74 2.99, 169.42 -2.62 M1.43 -1.78 C54.13 -2.98, 108.15 0.64, 168.17 -0.95 M171.48 -1.48 C170.07 38.16, 166.11 77.82, 170.66 100.7 M169.13 0.98 C168.67 28.83, 170.43 59.95, 170.98 104.27 M167.41 99.05 C101.19 104.7, 43.86 106.74, 1.22 106.47 M167.99 101.37 C136.32 102.83, 100.25 102.97, 1.74 102.52 M2.58 102.27 C2.41 62.22, -4.33 20.43, -1.81 0.74 M-0.84 103.49 C0.72 74.64, -1.55 44.67, -1.14 -0.96" stroke="#846358" stroke-width="4" fill="none"></path></g><g transform="translate(293.9431129169411 437.7936524392069) rotate(0 76 35)"><text x="76" y="0" font-family="Virgil, Segoe UI Emoji" font-size="28px" fill="#846358" text-anchor="middle" style="white-space: pre;" direction="ltr" dominant-baseline="text-before-edge">Instruction</text><text x="76" y="35" font-family="Virgil, Segoe UI Emoji" font-size="28px" fill="#846358" text-anchor="middle" style="white-space: pre;" direction="ltr" dominant-baseline="text-before-edge">Memory</text></g><g stroke-linecap="round"><g transform="translate(288.11569233307955 275.43015238636735) rotate(0 30.47656253664468 -70.82481423057334)"><path d="M-0.27 1.29 C-2.84 -22.29, 1.22 -36.09, -2.74 -48.73 M-1.79 -1.5 C-0.28 -16.6, 1.1 -31.87, -0.78 -51.68 M-3.85 -46.07 C4.74 -53.7, 9.98 -59.52, 13.38 -68.69 M0.98 -51.09 C3.76 -55.11, 8.7 -61.63, 16.07 -66.46 M16.67 -67.6 C7.8 -73.35, 6.95 -77.73, -4 -84.44 M16.69 -68.46 C10.62 -76.4, -0.24 -83.28, -2.05 -89.12 M-2.01 -87.05 C-4.02 -105.12, -1.7 -117.22, -4.56 -141.48 M-5.42 -88.83 C-4.64 -103.64, -2.85 -115.16, -2.79 -142.11 M-0.09 -139.88 C20.6 -127.06, 42.34 -119.5, 66.37 -102.89 M-2.46 -142.94 C14.23 -131.2, 34.04 -122.06, 63.87 -103.04 M65.54 -106.16 C67.56 -78.63, 64.86 -54.89, 61.25 -32.56 M64.62 -103.14 C64.75 -82.06, 63.39 -59.7, 63.46 -35.18 M62.83 -37.73 C49.24 -27.71, 28.93 -19.45, 0.39 -2 M64.83 -33.99 C42.39 -22.85, 20.02 -12.83, 1.29 0.39" stroke="#846358" stroke-width="4" fill="none"></path></g></g><mask></mask><g stroke-linecap="round" transform="translate(146.4510494248775 443.159694042645) rotate(0 35 32.5)"><path d="M1.55 -2.83 C11.32 -3.39, 26.4 -3.37, 69.07 -0.28 M-0.39 -1.12 C16.11 1.16, 30.69 -1.92, 68.71 -1.49 M69.81 0.86 C68.85 15.24, 69.49 27.6, 70.56 63.28 M68.52 -1.16 C70.82 22, 68.71 41.5, 68.13 63.86 M70.61 66.5 C48.24 66.57, 29.01 61.03, 1.08 66.97 M70.29 63.9 C53.38 66.73, 38.97 64.51, 0.9 65.17 M1.54 63.27 C-1.87 41.4, -1.87 10.97, 3.17 1.72 M1.92 64.24 C0.49 39.45, -0.93 15.27, 0.85 -0.05" stroke="#846358" stroke-width="2" fill="none"></path></g><g transform="translate(157.9510494248775 453.159694042645) rotate(0 23.5 22.5)"><text x="23.5" y="0" font-family="Virgil, Segoe UI Emoji" font-size="36px" fill="#846358" text-anchor="middle" style="white-space: pre;" direction="ltr" dominant-baseline="text-before-edge">PC</text></g><g stroke-linecap="round"><g transform="translate(224.08741306124193 470.722829663967) rotate(0 27.09888944945783 0.26528671011328697)"><path d="M1.1 -0.77 C19.31 0.19, 39.16 -0.39, 55.07 1.3 M-0.87 -0.47 C12.34 -0.64, 27.04 -0.44, 53.51 -0.24" stroke="#846358" stroke-width="2" fill="none"></path></g><g transform="translate(224.08741306124193 470.722829663967) rotate(0 27.09888944945783 0.26528671011328697)"><path d="M29.26 7.99 C37.53 5.64, 47.39 1.9, 54.78 1.06 M27.29 8.29 C33.52 5.83, 41.25 3.83, 53.22 -0.47" stroke="#846358" stroke-width="2" fill="none"></path></g><g transform="translate(224.08741306124193 470.722829663967) rotate(0 27.09888944945783 0.26528671011328697)"><path d="M29.41 -10.41 C37.51 -6.3, 47.32 -3.58, 54.78 1.06 M27.44 -10.11 C33.66 -8.06, 41.35 -5.56, 53.22 -0.47" stroke="#846358" stroke-width="2" fill="none"></path></g></g><mask></mask><g stroke-linecap="round"><g transform="translate(237.90954209681877 467.17093123423183) rotate(0 0.18153604905683096 -110.10282160632113)"><path d="M0.36 -0.08 C0.13 -54.82, 0.05 -107.34, -0.96 -219.31 M-0.72 -0.7 C2.26 -59.57, 1.4 -118.3, 0.3 -220.13" stroke="#846358" stroke-width="2" fill="none"></path></g></g><mask></mask><g stroke-linecap="round"><g transform="translate(236.36648294907172 248.23525998387322) rotate(0 24.276586329639713 -0.48412215057760477)"><path d="M1.37 -0.67 C13.95 1.32, 24.26 0.26, 47.86 -1.74 M0.69 -0.6 C11.99 0.15, 24.89 -0.32, 47.85 0.77" stroke="#846358" stroke-width="2" fill="none"></path></g><g transform="translate(236.36648294907172 248.23525998387322) rotate(0 24.276586329639713 -0.48412215057760477)"><path d="M26.16 7.59 C32.08 7.61, 35.74 4.59, 47.23 -0.97 M25.49 7.66 C30.41 6.31, 36.88 3.94, 47.22 1.54" stroke="#846358" stroke-width="2" fill="none"></path></g><g transform="translate(236.36648294907172 248.23525998387322) rotate(0 24.276586329639713 -0.48412215057760477)"><path d="M26.74 -8.99 C32.54 -4.63, 36.05 -3.31, 47.23 -0.97 M26.07 -8.91 C30.7 -6.07, 37.03 -4.24, 47.22 1.54" stroke="#846358" stroke-width="2" fill="none"></path></g></g><mask></mask><g transform="translate(314.53595033617876 184.35843313247892) rotate(0 11.5 22.5)"><text x="0" y="0" font-family="Virgil, Segoe UI Emoji" font-size="36px" fill="#846358" text-anchor="start" style="white-space: pre;" direction="ltr" dominant-baseline="text-before-edge">+</text></g><g stroke-linecap="round"><g transform="translate(230.0295416731683 157.24599784053498) rotate(0 26.037107171621756 -0.18440375104546547)"><path d="M1.27 1.3 C14.13 0.41, 29.84 -1.57, 50.61 -1.67 M-0.29 -0.24 C11.67 -0.4, 22.03 1.08, 52.36 -0.76" stroke="#846358" stroke-width="2" fill="none"></path></g><g transform="translate(230.0295416731683 157.24599784053498) rotate(0 26.037107171621756 -0.18440375104546547)"><path d="M29.78 10.31 C34.39 6.44, 41.92 1.58, 51.43 -2.43 M28.22 8.77 C34.03 6.3, 38.3 5.63, 53.18 -1.53" stroke="#846358" stroke-width="2" fill="none"></path></g><g transform="translate(230.0295416731683 157.24599784053498) rotate(0 26.037107171621756 -0.18440375104546547)"><path d="M29.08 -7.31 C34.02 -5.97, 41.75 -5.63, 51.43 -2.43 M27.52 -8.84 C33.6 -7.44, 38.03 -4.24, 53.18 -1.53" stroke="#846358" stroke-width="2" fill="none"></path></g></g><mask></mask><g transform="translate(197.91710638122413 138.6545879346727) rotate(0 11.5 22.5)"><text x="0" y="0" font-family="Virgil, Segoe UI Emoji" font-size="36px" fill="#846358" text-anchor="start" style="white-space: pre;" direction="ltr" dominant-baseline="text-before-edge">4</text></g><g stroke-linecap="round" transform="translate(530.5426314103252 179.82598153490494) rotate(0 14.876508109052338 357.74459976530994)"><path d="M-2.45 1.99 C9.15 -1.27, 18.99 -0.73, 31.82 -1.38 M0.63 1.25 C6.66 -1.38, 12.66 0.99, 28.92 1.51 M28.45 0.07 C31.09 211.57, 31.35 422.39, 30.67 714.12 M29.88 -0.68 C31.82 191.28, 33 384.52, 29.94 716.26 M28.2 716.51 C22.04 717.13, 5.55 718.39, -1.08 711.63 M28.36 717.48 C17.73 716.89, 5.15 717.67, -1.52 713.49 M-1.33 715.69 C4.07 542.08, 3.61 371.33, -1.14 -1.47 M-0.26 715.13 C-3.34 437.09, -3.09 159.9, 0.29 0.5" stroke="#1e1e1e" stroke-width="1" fill="none"></path></g><g stroke-linecap="round" transform="translate(1132.8616503385124 179.1214209518655) rotate(0 14.876508109052338 357.74459976530994)"><path d="M1.81 -0.48 C9.18 2.48, 22.41 0.01, 32.51 -3.77 M-1.43 1.16 C5.36 -1.96, 12.52 0.88, 31.23 -0.68 M30.57 1.25 C26.94 186.72, 29.65 374.9, 28.45 715.31 M29.07 0.77 C33.91 269.47, 33.29 541.02, 29.87 715.92 M27.17 716.27 C19.65 719.12, 15.92 714.81, 2.73 717.53 M31.49 713.58 C24.91 716.89, 19.64 717.6, -1.87 715.45 M-0.65 715.4 C-3.4 466.21, -1.08 220.8, 0.76 1.25 M-0.62 716.28 C-3.36 443.93, -3.37 171.3, 0.79 -0.63" stroke="#1e1e1e" stroke-width="1" fill="none"></path></g><g stroke-linecap="round" transform="translate(1808.2193551757755 177.600075413558) rotate(0 14.876508109052338 357.74459976530994)"><path d="M-2.53 3.89 C9.29 -3.42, 15.03 -3.47, 30.95 1.97 M1.75 0.02 C6.33 0.64, 13.08 0.37, 30.43 1.1 M28.61 -0.71 C31.28 254.19, 31.67 509.04, 30.34 715.03 M30.51 0.45 C31.96 201.96, 32.36 402.89, 30.02 715.75 M28.79 718.81 C23.69 712.59, 18.89 719.03, -3.06 711.9 M30.73 717.4 C24.03 716.1, 16.41 715.83, 0.23 717.01 M-1.36 714.97 C0.35 496.16, 2.06 274.26, -1.38 1.37 M0.59 715.1 C1.28 525.52, 1.06 335.37, 0.55 -0.43" stroke="#1e1e1e" stroke-width="1" fill="none"></path></g><g stroke-linecap="round" transform="translate(2427.007578925074 178.05794024507372) rotate(0 14.876508109052338 357.74459976530994)"><path d="M0.2 3.61 C10.56 -1.9, 17.87 -2.89, 26.65 2.83 M-1.72 1.96 C12.97 2.04, 23.23 2.31, 31.59 0.02 M30.12 0.67 C27.34 271.05, 26.88 544.4, 28.37 715.74 M30.52 0.77 C28.58 279.44, 28.69 557.45, 29.62 715.86 M30.4 711.6 C26.1 712.62, 12.87 718.04, 2.01 716.87 M27.82 716.33 C20.3 716.7, 11.97 716.45, 0.1 714.07 M0.5 716.53 C3.62 565.08, 3.7 414.55, 1.07 1.43 M-0.16 716.18 C-1.57 470.31, -0.3 224.19, 0.6 0.32" stroke="#1e1e1e" stroke-width="1" fill="none"></path></g><g stroke-linecap="round"><g transform="translate(456.23417570123684 468.8277527706093) rotate(0 32.688643198831414 -0.020367398006158055)"><path d="M-1.1 0.24 C16.95 -2.17, 34.21 -2.1, 64.39 1.38 M0.34 -0.71 C15.19 0.93, 32.46 -0.61, 66.48 0.39" stroke="#846358" stroke-width="2" fill="none"></path></g><g transform="translate(456.23417570123684 468.8277527706093) rotate(0 32.688643198831414 -0.020367398006158055)"><path d="M37.05 10.5 C45.01 5.71, 52.24 3.15, 64.88 1.77 M38.49 9.55 C44.34 8.73, 52.58 4.83, 66.97 0.78" stroke="#846358" stroke-width="2" fill="none"></path></g><g transform="translate(456.23417570123684 468.8277527706093) rotate(0 32.688643198831414 -0.020367398006158055)"><path d="M37.33 -10.02 C45.35 -9.35, 52.5 -6.44, 64.88 1.77 M38.78 -10.97 C44.5 -6.87, 52.67 -5.85, 66.97 0.78" stroke="#846358" stroke-width="2" fill="none"></path></g></g><mask></mask><g stroke-linecap="round"><g transform="translate(354.1563432723433 205.0101501102099) rotate(0 85.80144518526572 -0.48616592289295113)"><path d="M-0.62 -1.74 C61.71 -1.87, 123.69 1.18, 170.47 -0.58 M-0.63 0.77 C48.25 0.46, 95.36 1.61, 172.23 -0.95" stroke="#846358" stroke-width="2" fill="none"></path></g><g transform="translate(354.1563432723433 205.0101501102099) rotate(0 85.80144518526572 -0.48616592289295113)"><path d="M143.67 8.22 C153.61 4.28, 163.14 3.34, 171.03 -1.53 M143.66 10.73 C152.79 6.38, 160.18 4.52, 172.79 -1.91" stroke="#846358" stroke-width="2" fill="none"></path></g><g transform="translate(354.1563432723433 205.0101501102099) rotate(0 85.80144518526572 -0.48616592289295113)"><path d="M143.19 -12.29 C153.19 -8.75, 162.9 -2.2, 171.03 -1.53 M143.18 -9.78 C152.51 -8.46, 160.04 -4.66, 172.79 -1.91" stroke="#846358" stroke-width="2" fill="none"></path></g></g><mask></mask><g stroke-linecap="round" transform="translate(725.1234758869546 426.68320949003544) rotate(0 144.5526041512653 98.82972731096521)"><path d="M1.69 -1.22 C86.05 1.32, 171.5 2.12, 287.86 -0.88 M-1.03 -1.07 C58.84 -3.14, 117.52 -0.23, 288.5 -1.31 M285.22 -1.03 C289.23 70.25, 291.41 139.15, 291.03 196.88 M290.3 -0.55 C287.68 44.44, 288.13 87.81, 290.82 198.38 M291.49 195.47 C216.26 200.22, 146 198.78, 0.9 196.64 M290.25 197.94 C190.45 192.51, 94.95 193.82, 1.12 197.5 M-1.47 195.09 C1.85 132.17, -0.66 66.29, 1.97 -2.08 M1.87 197.64 C-2.08 127.15, 1.29 54.85, 0.21 -1.79" stroke="#1e1e1e" stroke-width="4" fill="none"></path></g><g transform="translate(748.343058712841 441.9183501594729) rotate(0 17.5 12.5)"><text x="0" y="0" font-family="Virgil, Segoe UI Emoji" font-size="20px" fill="#e03131" text-anchor="start" style="white-space: pre;" direction="ltr" dominant-baseline="text-before-edge">reg1</text></g><g transform="translate(943.269763095399 444.21540581027136) rotate(0 26.5 12.5)"><text x="0" y="0" font-family="Virgil, Segoe UI Emoji" font-size="20px" fill="#e03131" text-anchor="start" style="white-space: pre;" direction="ltr" dominant-baseline="text-before-edge">data1</text></g><g transform="translate(940.1359090402157 480.15066730695514) rotate(0 31 12.5)"><text x="0" y="0" font-family="Virgil, Segoe UI Emoji" font-size="20px" fill="#f08c00" text-anchor="start" style="white-space: pre;" direction="ltr" dominant-baseline="text-before-edge">data2</text></g><g transform="translate(744.2080018835618 477.873221895431) rotate(0 22 12.5)"><text x="0" y="0" font-family="Virgil, Segoe UI Emoji" font-size="20px" fill="#f08c00" text-anchor="start" style="white-space: pre;" direction="ltr" dominant-baseline="text-before-edge">reg2</text></g><g transform="translate(745.155958435058 551.5017265886888) rotate(0 43.5 12.5)"><text x="0" y="0" font-family="Virgil, Segoe UI Emoji" font-size="20px" fill="#2f9e44" text-anchor="start" style="white-space: pre;" direction="ltr" dominant-baseline="text-before-edge">write reg</text></g><g transform="translate(744.0379035260412 584.4086272747676) rotate(0 52.5 12.5)"><text x="0" y="0" font-family="Virgil, Segoe UI Emoji" font-size="20px" fill="#099268" text-anchor="start" style="white-space: pre;" direction="ltr" dominant-baseline="text-before-edge">write data</text></g><g stroke-linecap="round"><g transform="translate(797.8678726129092 455.7328559596714) rotate(0 65.94056382277813 -0.17149045182185318)"><path d="M1.93 -2.1 C30.09 -5.98, 64.6 0.37, 132.44 2.98 M-1.09 1.81 C27.48 -0.44, 54.48 0.54, 132.97 1.37" stroke="#e03131" stroke-width="1" fill="none"></path></g><g transform="translate(797.8678726129092 455.7328559596714) rotate(0 65.94056382277813 -0.17149045182185318)"><path d="M106.59 9.2 C110.54 4.89, 120.66 8.97, 130.63 4.35 M103.57 13.1 C110.29 9.07, 115.42 8.01, 131.17 2.75" stroke="#e03131" stroke-width="1" fill="none"></path></g><g transform="translate(797.8678726129092 455.7328559596714) rotate(0 65.94056382277813 -0.17149045182185318)"><path d="M106.84 -11.32 C110.34 -10.92, 120.4 -2.14, 130.63 4.35 M103.82 -7.41 C110.45 -7.23, 115.53 -4.08, 131.17 2.75" stroke="#e03131" stroke-width="1" fill="none"></path></g></g><mask></mask><g stroke-linecap="round"><g transform="translate(799.6412373356052 493.17768530523267) rotate(0 65.29596333271911 0.025406308263200117)"><path d="M0.38 2.32 C35.67 0.58, 63.86 5.29, 131.84 -1.92 M-1.25 0.35 C26.13 -0.43, 53.91 -3.6, 130.48 -1.64" stroke="#f08c00" stroke-width="1" fill="none"></path></g><g transform="translate(799.6412373356052 493.17768530523267) rotate(0 65.29596333271911 0.025406308263200117)"><path d="M102.57 10.65 C111.98 4.77, 114.19 6.93, 132.87 -3.56 M100.94 8.68 C106.68 7.06, 112.95 1.77, 131.51 -3.29" stroke="#f08c00" stroke-width="1" fill="none"></path></g><g transform="translate(799.6412373356052 493.17768530523267) rotate(0 65.29596333271911 0.025406308263200117)"><path d="M102.78 -9.87 C111.96 -10.48, 114.12 -3.06, 132.87 -3.56 M101.15 -11.84 C107.13 -9.1, 113.35 -10.03, 131.51 -3.29" stroke="#f08c00" stroke-width="1" fill="none"></path></g></g><mask></mask><g stroke-linecap="round" transform="translate(930.6066379230629 697.1157690127498) rotate(0 42 51)"><path d="M-2.22 0.65 C26.77 0.15, 50.9 0.02, 87.98 -3.98 M0.29 -0.15 C21.04 -1.64, 42.16 -2.87, 83.79 1.79 M86.38 0.48 C81.13 22.66, 87.75 48.6, 87.4 102.83 M84.5 -0.11 C83.48 25.82, 81.55 49.35, 83.13 100.25 M85.82 104.38 C53.44 97.54, 29.55 105.02, 3.61 98.12 M84.12 102.12 C55.82 99.67, 25.25 100.27, 1.73 100.93 M-1.79 105.4 C-1.57 64.79, 1.63 24.43, 3.19 -2.66 M1.47 100.48 C-2.18 61.97, -1.26 22.21, 0.45 0.75" stroke="#9c36b5" stroke-width="2" fill="none"></path></g><g transform="translate(940.6066379230629 710.6157690127498) rotate(0 32 37.5)"><text x="32" y="0" font-family="Virgil, Segoe UI Emoji" font-size="20px" fill="#9c36b5" text-anchor="middle" style="white-space: pre;" direction="ltr" dominant-baseline="text-before-edge">16bit</text><text x="32" y="25" font-family="Virgil, Segoe UI Emoji" font-size="20px" fill="#9c36b5" text-anchor="middle" style="white-space: pre;" direction="ltr" dominant-baseline="text-before-edge">sign</text><text x="32" y="50" font-family="Virgil, Segoe UI Emoji" font-size="20px" fill="#9c36b5" text-anchor="middle" style="white-space: pre;" direction="ltr" dominant-baseline="text-before-edge">extend</text></g><g stroke-linecap="round"><g transform="translate(564.5974236657244 747.2578892867825) rotate(0 177.45869830164588 0.41549478176176535)"><path d="M1.39 0.55 C123.27 5.68, 247.71 3.81, 354.04 -0.05 M0.87 0.52 C121.37 -4.61, 243.25 -3.24, 352.99 0.33" stroke="#9c36b5" stroke-width="2" fill="none"></path></g><g transform="translate(564.5974236657244 747.2578892867825) rotate(0 177.45869830164588 0.41549478176176535)"><path d="M326.71 10.74 C332.71 10.92, 342.83 4.64, 353.21 0.25 M325.91 10.7 C333.21 5.14, 342.64 3.97, 351.56 0.84" stroke="#9c36b5" stroke-width="2" fill="none"></path></g><g transform="translate(564.5974236657244 747.2578892867825) rotate(0 177.45869830164588 0.41549478176176535)"><path d="M327.22 -9.77 C333.35 -2.4, 343.29 -1.46, 353.21 0.25 M326.41 -9.81 C333.54 -8.29, 342.8 -2.37, 351.56 0.84" stroke="#9c36b5" stroke-width="2" fill="none"></path></g></g><mask></mask><g stroke-linecap="round"><g transform="translate(570.1758733070019 452.6702689314336) rotate(0 73.6323612753065 -0.6446863657665745)"><path d="M-0.89 -0.69 C48.21 -3.1, 98 -1.34, 148.16 -1.47 M0.18 -0.6 C58.79 -0.13, 115.12 -0.88, 147.13 0.68" stroke="#e03131" stroke-width="2" fill="none"></path></g><g transform="translate(570.1758733070019 452.6702689314336) rotate(0 73.6323612753065 -0.6446863657665745)"><path d="M117.8 9.54 C126.72 5.06, 136.27 3.59, 147.46 -0.79 M118.87 9.63 C130.72 7.1, 140.38 2.61, 146.43 1.36" stroke="#e03131" stroke-width="2" fill="none"></path></g><g transform="translate(570.1758733070019 452.6702689314336) rotate(0 73.6323612753065 -0.6446863657665745)"><path d="M118.32 -10.98 C126.9 -8.54, 136.27 -3.09, 147.46 -0.79 M119.39 -10.88 C131.2 -5.39, 140.65 -1.86, 146.43 1.36" stroke="#e03131" stroke-width="2" fill="none"></path></g></g><mask></mask><g stroke-linecap="round"><g transform="translate(568.3163900932423 498.2276076685438) rotate(0 72.61397993931996 -0.0285932756960392)"><path d="M-1.63 -1.68 C55.76 0.57, 115.2 -0.97, 146.86 1.62 M0.99 0.77 C51.91 0.89, 104.07 1.55, 144.68 0.95" stroke="#f08c00" stroke-width="2" fill="none"></path></g><g transform="translate(568.3163900932423 498.2276076685438) rotate(0 72.61397993931996 -0.0285932756960392)"><path d="M114.92 9.71 C126.06 7.42, 139.2 1.75, 146.5 2.57 M117.54 12.16 C126.21 7.81, 136.15 4.69, 144.31 1.89" stroke="#f08c00" stroke-width="2" fill="none"></path></g><g transform="translate(568.3163900932423 498.2276076685438) rotate(0 72.61397993931996 -0.0285932756960392)"><path d="M114.79 -10.81 C125.89 -4.97, 139.08 -2.52, 146.5 2.57 M117.41 -8.36 C126.17 -5.3, 136.15 -1, 144.31 1.89" stroke="#f08c00" stroke-width="2" fill="none"></path></g></g><mask></mask><g stroke-linecap="round"><g transform="translate(647.957640321165 518.9013615333565) rotate(0 17.350842786604744 39.31801950855004)"><path d="M-0.53 -0.16 C0.79 28.81, -0.5 58.38, 1.21 79.47 M0.51 -0.83 C1.24 22.18, -0.19 43.91, 0.77 76.78 M-1.98 77.98 C13.76 75.06, 26.79 70.53, 36.03 65.86 M-0.19 76.65 C10.82 75.11, 20.45 70.86, 35.19 65.86 M34.46 66.64 C35.13 46.71, 37.03 29.58, 34.81 16.75 M36.08 65.95 C34.92 55.18, 36.59 44.42, 36.68 18.07 M36.44 16.55 C22.84 11.21, 8.39 5.59, -1.04 0.9 M36.47 16.76 C21.15 11.15, 7.47 2.65, 0.12 0.24" stroke="#2f9e44" stroke-width="4" fill="none"></path></g></g><mask></mask><g transform="translate(658.1847979968429 536.8418058781635) rotate(0 7 12.780503593962237)"><text x="0" y="0" font-family="Virgil, Segoe UI Emoji" font-size="20.448805750339602px" fill="#2f9e44" text-anchor="start" style="white-space: pre;" direction="ltr" dominant-baseline="text-before-edge">0</text></g><g transform="translate(662.9378243761166 562.2250924857898) rotate(0 3 12.780503593962237)"><text x="0" y="0" font-family="Virgil, Segoe UI Emoji" font-size="20.448805750339602px" fill="#2f9e44" text-anchor="start" style="white-space: pre;" direction="ltr" dominant-baseline="text-before-edge">1</text></g><g stroke-linecap="round"><g transform="translate(685.8696966029747 563.0083123047008) rotate(0 18.74987704412206 -0.39525007372441223)"><path d="M0.53 0.74 C11.87 1.72, 26.01 -0.92, 35.61 -1.75 M-0.73 0.91 C8.86 0.54, 16.29 -0.69, 38.23 0.71" stroke="#2f9e44" stroke-width="2" fill="none"></path></g><g transform="translate(685.8696966029747 563.0083123047008) rotate(0 18.74987704412206 -0.39525007372441223)"><path d="M20.99 7.07 C25.46 6.04, 32.5 1.56, 36.71 -0.86 M19.81 7.23 C25.09 5.7, 28.33 3.34, 39.15 1.43" stroke="#2f9e44" stroke-width="2" fill="none"></path></g><g transform="translate(685.8696966029747 563.0083123047008) rotate(0 18.74987704412206 -0.39525007372441223)"><path d="M21.49 -5.66 C25.72 -2.09, 32.59 -1.98, 36.71 -0.86 M20.32 -5.5 C25.48 -4.28, 28.62 -3.88, 39.15 1.43" stroke="#2f9e44" stroke-width="2" fill="none"></path></g></g><mask></mask><g stroke-linecap="round"><g transform="translate(608.6728146560686 498.8104315241336) rotate(0 18.081415132655138 25.50083373234861)"><path d="M0.31 -0.78 C0.22 13.91, -1.64 30.2, 1.56 49.69 M-0.68 -0.31 C0.03 16.5, 0.08 33.07, -0.54 50.13 M0.07 50.44 C13.88 48.97, 27.17 50.71, 35.39 51.79 M-0.4 50.62 C10.79 49.9, 21.45 49.85, 36.84 51.43" stroke="#f08c00" stroke-width="2" fill="none"></path></g><g transform="translate(608.6728146560686 498.8104315241336) rotate(0 18.081415132655138 25.50083373234861)"><path d="M19.41 55.61 C24.76 54.29, 28.15 54.45, 38.27 50.64 M18.5 56.05 C24.91 54.82, 30.71 53.37, 36.35 51.04" stroke="#f08c00" stroke-width="2" fill="none"></path></g><g transform="translate(608.6728146560686 498.8104315241336) rotate(0 18.081415132655138 25.50083373234861)"><path d="M20.4 43.08 C25.39 45.37, 28.49 49.14, 38.27 50.64 M19.5 43.51 C25.58 46.35, 31.06 48.98, 36.35 51.04" stroke="#f08c00" stroke-width="2" fill="none"></path></g></g><mask></mask><g stroke-linecap="round"><g transform="translate(566.5697438118323 865.3361747431036) rotate(0 278.1937947121701 0.4605510900937304)"><path d="M0.19 0.2 C153.58 -0.01, 308.35 0.86, 555.42 -0.22 M0.09 0.07 C218.58 1.7, 436.19 1.28, 556.29 0.07" stroke="#2f9e44" stroke-width="2" fill="none"></path></g><g transform="translate(566.5697438118323 865.3361747431036) rotate(0 278.1937947121701 0.4605510900937304)"><path d="M528.63 11.01 C534.48 6.64, 543.62 5.92, 554.45 -0.49 M528.41 10.67 C540.04 6.85, 549.61 1.69, 556.62 0.23" stroke="#2f9e44" stroke-width="2" fill="none"></path></g><g transform="translate(566.5697438118323 865.3361747431036) rotate(0 278.1937947121701 0.4605510900937304)"><path d="M528.5 -9.51 C534.18 -8.19, 543.36 -3.22, 554.45 -0.49 M528.27 -9.85 C540.14 -5.62, 549.76 -2.72, 556.62 0.23" stroke="#2f9e44" stroke-width="2" fill="none"></path></g></g><mask></mask><g stroke-linecap="round"><g transform="translate(1019.5331660595971 457.47861248942377) rotate(0 54.36899335836688 -1.0692610954865813)"><path d="M-1.68 -1.97 C20.1 -1.44, 42.93 -0.95, 110.42 -1.89 M0.05 -0.59 C31.79 -1.64, 63.4 -1.53, 108.78 -0.17" stroke="#e03131" stroke-width="2" fill="none"></path></g><g transform="translate(1019.5331660595971 457.47861248942377) rotate(0 54.36899335836688 -1.0692610954865813)"><path d="M78.67 7.45 C84.27 6.4, 90.87 4.95, 110.4 -2.06 M80.4 8.83 C88.39 5.69, 96.32 2.98, 108.76 -0.34" stroke="#e03131" stroke-width="2" fill="none"></path></g><g transform="translate(1019.5331660595971 457.47861248942377) rotate(0 54.36899335836688 -1.0692610954865813)"><path d="M79.16 -13.06 C84.54 -9.97, 91.04 -7.28, 110.4 -2.06 M80.89 -11.68 C88.86 -8.77, 96.65 -5.44, 108.76 -0.34" stroke="#e03131" stroke-width="2" fill="none"></path></g></g><mask></mask><g stroke-linecap="round"><g transform="translate(1018.6696939868989 493.7444395427476) rotate(0 55.00764648104155 0.8269604705274105)"><path d="M0.2 1.88 C29.7 -0.48, 62.53 0.58, 109.82 -0.23 M0.45 -0.19 C40.97 0.05, 82.4 0.84, 108.78 0.17" stroke="#f08c00" stroke-width="2" fill="none"></path></g><g transform="translate(1018.6696939868989 493.7444395427476) rotate(0 55.00764648104155 0.8269604705274105)"><path d="M80.89 12.58 C87.57 7.6, 97.58 5.66, 110.66 -0.06 M81.14 10.52 C91.43 6.84, 102.68 3.65, 109.63 0.34" stroke="#f08c00" stroke-width="2" fill="none"></path></g><g transform="translate(1018.6696939868989 493.7444395427476) rotate(0 55.00764648104155 0.8269604705274105)"><path d="M80.69 -7.94 C87.44 -7.05, 97.51 -3.14, 110.66 -0.06 M80.94 -10.01 C91.4 -5.92, 102.73 -1.36, 109.63 0.34" stroke="#f08c00" stroke-width="2" fill="none"></path></g></g><mask></mask><g stroke-linecap="round"><g transform="translate(1022.1235822776916 750.1956451341086) rotate(0 51.55307675112476 0.3323407053455014)"><path d="M0.12 1.52 C28.11 0.94, 55.39 0.84, 102.98 1.02 M0.88 0.81 C34.59 -1.17, 69.38 -1.15, 102.02 -0.34" stroke="#9c36b5" stroke-width="2" fill="none"></path></g><g transform="translate(1022.1235822776916 750.1956451341086) rotate(0 51.55307675112476 0.3323407053455014)"><path d="M73.79 10.98 C82.1 7.08, 89.73 4.4, 102.25 0.68 M74.54 10.27 C82.73 5.48, 92.06 2.14, 101.29 -0.69" stroke="#9c36b5" stroke-width="2" fill="none"></path></g><g transform="translate(1022.1235822776916 750.1956451341086) rotate(0 51.55307675112476 0.3323407053455014)"><path d="M74.12 -9.54 C82.4 -8.02, 89.95 -5.29, 102.25 0.68 M74.87 -10.25 C83.09 -8.02, 92.3 -4.34, 101.29 -0.69" stroke="#9c36b5" stroke-width="2" fill="none"></path></g></g><mask></mask><g stroke-linecap="round"><g transform="translate(566.6277805898276 207.1531168892559) rotate(0 279.83028110908367 0.05165660360955826)"><path d="M0.3 0.29 C190.48 1.02, 380.24 1.62, 558.54 0.38 M0.23 -0.28 C200.74 -1.22, 401.02 -1.42, 559.43 0.34" stroke="#846358" stroke-width="2" fill="none"></path></g><g transform="translate(566.6277805898276 207.1531168892559) rotate(0 279.83028110908367 0.05165660360955826)"><path d="M531.91 11.13 C540.9 6, 548.9 4.09, 558.14 1.29 M531.74 9.71 C542.08 7.32, 551.91 3.22, 560.37 1.18" stroke="#846358" stroke-width="2" fill="none"></path></g><g transform="translate(566.6277805898276 207.1531168892559) rotate(0 279.83028110908367 0.05165660360955826)"><path d="M532.06 -9.39 C541.19 -7.53, 549.14 -2.46, 558.14 1.29 M531.88 -10.81 C542.34 -5.85, 552.11 -2.59, 560.37 1.18" stroke="#846358" stroke-width="2" fill="none"></path></g></g><mask></mask><g stroke-linecap="round"><g transform="translate(1389.1301186285436 718.254655317232) rotate(0 69.83390815601433 -160.97066055310194)"><path d="M3.51 2.42 C-3.7 -39.61, 3.28 -75.87, -0.97 -108.81 M-1.6 1.77 C2.74 -28.05, 4 -54.6, 0.48 -111 M-1.4 -113.63 C11.03 -128.81, 28.34 -135.04, 35.76 -152.74 M-0.87 -111.41 C9.82 -122.21, 19.89 -132.12, 38.77 -151.88 M39.51 -150.12 C28.8 -164.05, 20.2 -170.55, -7.87 -198.3 M39.37 -153.43 C28.37 -160.07, 17.19 -170, -8.79 -199.11 M-10.79 -196.63 C-9.05 -244.56, -10.87 -290.17, -8.76 -322.25 M-8.26 -199.41 C-9.06 -243.92, -7.14 -287.62, -9.35 -324.39 M-10.87 -319.2 C40.51 -296.99, 91.11 -262.93, 143.26 -233.06 M-8.6 -321.9 C31.03 -300.96, 72.86 -276.91, 146.91 -231.97 M145.74 -233.64 C141.64 -181.38, 149.01 -124.51, 150.54 -78.41 M145.56 -232.98 C149.36 -191.59, 149.67 -148.38, 146.91 -78.9 M143.7 -80.93 C115.18 -61.91, 86.53 -43.87, 1.6 2.45 M145.45 -80.55 C97.31 -51.83, 46.68 -24.61, -0.54 -0.41" stroke="#e8590c" stroke-width="4" fill="none"></path></g></g><mask></mask><g transform="translate(1438.7074600705982 540.8854057170864) rotate(0 36 22.5)"><text x="0" y="0" font-family="Virgil, Segoe UI Emoji" font-size="36px" fill="#e8590c" text-anchor="start" style="white-space: pre;" direction="ltr" dominant-baseline="text-before-edge">ALU</text></g><g stroke-linecap="round"><g transform="translate(1169.3093288809932 454.0233914550174) rotate(0 100.82610032987077 0.08206736307982965)"><path d="M-0.1 1.17 C55.07 -0.4, 111.76 0, 199.92 -1.01 M0.75 0.5 C47.31 -1.23, 93.03 -0.78, 201.75 0.73" stroke="#e03131" stroke-width="2" fill="none"></path></g><g transform="translate(1169.3093288809932 454.0233914550174) rotate(0 100.82610032987077 0.08206736307982965)"><path d="M173.32 11.94 C181.23 6.73, 190.83 4.47, 200.08 -0.39 M174.27 11.19 C180.53 8.55, 185.83 6.74, 202.12 1.54" stroke="#e03131" stroke-width="2" fill="none"></path></g><g transform="translate(1169.3093288809932 454.0233914550174) rotate(0 100.82610032987077 0.08206736307982965)"><path d="M173.58 -8.58 C181.45 -8.19, 190.98 -4.84, 200.08 -0.39 M174.53 -9.33 C180.69 -7.19, 185.93 -4.23, 202.12 1.54" stroke="#e03131" stroke-width="2" fill="none"></path></g></g><mask></mask><g stroke-linecap="round"><g transform="translate(1295.4696400925895 613.6067959088866) rotate(0 18.01995859353474 38.842900443988015)"><path d="M1.44 -1.12 C0.83 15.87, -0.21 32, 1.14 78.8 M0.62 0.73 C0.3 24.83, 1.19 48.5, -0.63 77.62 M1.26 76.98 C13.05 72.56, 21.69 70.73, 37.77 68.09 M0.41 77.64 C12.97 74.36, 27.98 68.8, 34.94 66.18 M37.47 65.5 C35.92 50.48, 36.08 34.02, 36.75 18.14 M36.51 66.77 C35.74 56.23, 35.14 45.19, 36.35 16.69 M34 17.17 C21.55 11.36, 8.06 5.4, -1.73 1.19 M36.31 16.44 C26.03 12, 17.71 8.11, -0.53 -0.1" stroke="#e8590c" stroke-width="4" fill="none"></path></g></g><mask></mask><g transform="translate(1305.696797768268 631.5472402536936) rotate(0 7 12.5)"><text x="0" y="0" font-family="Virgil, Segoe UI Emoji" font-size="20px" fill="#e8590c" text-anchor="start" style="white-space: pre;" direction="ltr" dominant-baseline="text-before-edge">0</text></g><g transform="translate(1310.3455058026666 656.3734202443804) rotate(0 2.5 12.5)"><text x="0" y="0" font-family="Virgil, Segoe UI Emoji" font-size="20px" fill="#e8590c" text-anchor="start" style="white-space: pre;" direction="ltr" dominant-baseline="text-before-edge">1</text></g><g stroke-linecap="round"><g transform="translate(1168.6105100324503 751.4340831578436) rotate(0 64.59785196163466 -40.89576808439716)"><path d="M-0.93 -1.54 C19.16 0.95, 41.19 0.73, 91.82 1.23 M0.37 0.41 C25.26 -0.73, 48.17 -0.94, 93.29 -0.99 M94.34 -0.63 C93.44 -30.87, 92.62 -63.89, 94.07 -81.06 M93.33 0.48 C92.33 -23.51, 93.53 -44.79, 93.89 -82.13 M95.36 -83.02 C104.6 -80.89, 116.01 -83.12, 130.13 -82.66 M92.95 -81.89 C103.68 -82.01, 114.83 -81.57, 128.33 -81.71" stroke="#9c36b5" stroke-width="2" fill="none"></path></g><g transform="translate(1168.6105100324503 751.4340831578436) rotate(0 64.59785196163466 -40.89576808439716)"><path d="M110.97 -77.05 C114.62 -75.56, 119.92 -77.05, 126.83 -80.62 M112.12 -75.33 C116.83 -77.65, 119.77 -79.41, 128.13 -82.58" stroke="#9c36b5" stroke-width="2" fill="none"></path></g><g transform="translate(1168.6105100324503 751.4340831578436) rotate(0 64.59785196163466 -40.89576808439716)"><path d="M110.98 -89.09 C114.51 -85.02, 119.81 -83.93, 126.83 -80.62 M112.13 -87.37 C116.77 -86.54, 119.71 -85.15, 128.13 -82.58" stroke="#9c36b5" stroke-width="2" fill="none"></path></g></g><mask></mask><g stroke-linecap="round"><g transform="translate(1169.616178641792 495.9942563851073) rotate(0 61.45127874888999 72.0404159969076)"><path d="M-1.08 1.74 C22.35 1.33, 47.9 0.77, 95.01 -1.65 M-0.59 0.21 C18.75 0.35, 38.85 0.18, 94.46 0.57 M91.77 1.31 C91.89 45.97, 94.29 94.58, 94.22 144.68 M93.93 -0.62 C95.47 51.17, 94.52 102.47, 93.44 144.73 M91.97 145.35 C103.82 145.27, 114.63 142.91, 123.98 143.63 M93.24 145.73 C98.95 143.9, 106.13 145.36, 123.07 144.87" stroke="#f08c00" stroke-width="2" fill="none"></path></g><g transform="translate(1169.616178641792 495.9942563851073) rotate(0 61.45127874888999 72.0404159969076)"><path d="M108.61 151.19 C112.12 149.99, 117.12 148.32, 124.16 143.67 M108.96 150.07 C111.93 149.16, 115.42 148, 123.75 145.28" stroke="#f08c00" stroke-width="2" fill="none"></path></g><g transform="translate(1169.616178641792 495.9942563851073) rotate(0 61.45127874888999 72.0404159969076)"><path d="M108.57 141.21 C111.99 142.51, 117.01 143.33, 124.16 143.67 M108.92 140.1 C111.85 141.23, 115.35 142.11, 123.75 145.28" stroke="#f08c00" stroke-width="2" fill="none"></path></g></g><mask></mask><g stroke-linecap="round"><g transform="translate(1333.5401619644535 655.8955652704028) rotate(0 28.764166395317716 0.5006647666627941)"><path d="M1.39 1.95 C19.22 0.64, 36.58 -0.87, 58.28 0.07 M-0.75 0.83 C19.66 0.42, 41.32 -1, 57.18 -0.95" stroke="#e8590c" stroke-width="2" fill="none"></path></g><g transform="translate(1333.5401619644535 655.8955652704028) rotate(0 28.764166395317716 0.5006647666627941)"><path d="M32.29 11.11 C40.78 6.62, 48.84 1.98, 59.14 -0.88 M30.15 9.99 C39.82 6.06, 50.66 0.99, 58.04 -1.9" stroke="#e8590c" stroke-width="2" fill="none"></path></g><g transform="translate(1333.5401619644535 655.8955652704028) rotate(0 28.764166395317716 0.5006647666627941)"><path d="M31.94 -8.15 C40.61 -6.67, 48.78 -5.35, 59.14 -0.88 M29.8 -9.27 C39.45 -6.26, 50.42 -4.4, 58.04 -1.9" stroke="#e8590c" stroke-width="2" fill="none"></path></g></g><mask></mask><g stroke-linecap="round"><g transform="translate(1536.656252943464 561.9796104969059) rotate(0 135.18059597978845 -0.17557359044855048)"><path d="M-0.02 0.74 C97.19 -0.37, 193.2 -0.8, 270.38 -0.79 M0.1 0.54 C62.33 -2, 123.75 -0.95, 269.14 -0.41" stroke="#e8590c" stroke-width="2" fill="none"></path></g><g transform="translate(1536.656252943464 561.9796104969059) rotate(0 135.18059597978845 -0.17557359044855048)"><path d="M240.87 10.66 C251.02 5.24, 259.67 1.04, 270.51 -1.42 M241.03 10.41 C248.1 6.28, 254.07 5.29, 268.92 -0.93" stroke="#e8590c" stroke-width="2" fill="none"></path></g><g transform="translate(1536.656252943464 561.9796104969059) rotate(0 135.18059597978845 -0.17557359044855048)"><path d="M240.97 -9.86 C251.13 -7.87, 259.74 -4.67, 270.51 -1.42 M241.12 -10.11 C248.04 -9.53, 253.99 -5.8, 268.92 -0.93" stroke="#e8590c" stroke-width="2" fill="none"></path></g></g><mask></mask><g stroke-linecap="round"><g transform="translate(1535.216084751176 511.5737237668103) rotate(0 135.0312705034553 -0.26262617414664646)"><path d="M-0.29 -1.27 C75.51 1.27, 149.03 0.89, 270.35 -0.77 M-0.56 -0.35 C96.84 1.25, 194.34 0.94, 270.62 -0.24" stroke="#e03131" stroke-width="2" fill="none"></path></g><g transform="translate(1535.216084751176 511.5737237668103) rotate(0 135.0312705034553 -0.26262617414664646)"><path d="M242.17 8.69 C251.64 7.08, 258.29 3.7, 270.11 -1.23 M241.83 9.88 C252.41 6.86, 263.1 2.68, 270.46 -0.56" stroke="#e03131" stroke-width="2" fill="none"></path></g><g transform="translate(1535.216084751176 511.5737237668103) rotate(0 135.0312705034553 -0.26262617414664646)"><path d="M241.95 -11.83 C251.64 -7.8, 258.34 -5.55, 270.11 -1.23 M241.61 -10.64 C252.24 -6.3, 263.01 -3.14, 270.46 -0.56" stroke="#e03131" stroke-width="2" fill="none"></path></g></g><mask></mask><g stroke-linecap="round" transform="translate(2003.3557363191421 384.6521201130603) rotate(0 145 161.5)"><path d="M0.28 2.32 C63.18 1.57, 129.4 5.41, 288.28 -1.79 M1.23 0.08 C110.56 -4.92, 222.14 -3.8, 289.93 -1.31 M291.72 -2.22 C295.78 107.17, 290.85 210.66, 290.34 320.6 M288.78 -0.12 C289.91 124.16, 290.44 246.66, 289.28 324.31 M287.56 322.35 C219.19 325.68, 145.98 322.39, -1.18 325.01 M289.75 323.91 C230.8 323.32, 172.75 322.35, -0.47 323.67 M1.05 321.63 C0.12 243.58, 3.45 165.55, -1.22 -0.06 M1.27 321.85 C4.4 220.17, 3.02 117.49, -0.63 -0.92" stroke="#e8590c" stroke-width="4" fill="none"></path></g><g transform="translate(2086.855736319142 523.6521201130603) rotate(0 61.5 22.5)"><text x="61.5" y="0" font-family="Virgil, Segoe UI Emoji" font-size="36px" fill="#e8590c" text-anchor="middle" style="white-space: pre;" direction="ltr" dominant-baseline="text-before-edge">Memory</text></g><g stroke-linecap="round"><g transform="translate(2551.180489230802 505.3519260733009) rotate(0 17.686744137318783 38.57982916168692)"><path d="M1.96 -0.55 C1.7 23.55, -0.17 49.7, -1.54 77.67 M0.65 0.17 C-0.05 28.35, -0.55 57.97, 0.57 77.71 M0.7 76.46 C13.64 74.73, 27.58 70.26, 33.87 66.77 M-0.71 77.55 C12.11 72.91, 24.85 69.41, 35.88 66.77 M36.91 68.06 C34.64 52.68, 36.25 37.73, 34.76 18.27 M36.35 66.61 C35.87 54.83, 36.11 43.03, 35.23 18.22 M35.62 16.9 C22.58 13.52, 11.34 5.41, 0.66 0.67 M36.72 17.92 C25.66 13.04, 16.47 8.6, 0.85 0.1" stroke="#099268" stroke-width="4" fill="none"></path></g></g><mask></mask><g transform="translate(2561.4076469064794 523.2923704181079) rotate(0 7 12.5)"><text x="0" y="0" font-family="Virgil, Segoe UI Emoji" font-size="20px" fill="#099268" text-anchor="start" style="white-space: pre;" direction="ltr" dominant-baseline="text-before-edge">0</text></g><g transform="translate(2566.056354940879 548.1185504087947) rotate(0 2.5 12.5)"><text x="0" y="0" font-family="Virgil, Segoe UI Emoji" font-size="20px" fill="#099268" text-anchor="start" style="white-space: pre;" direction="ltr" dominant-baseline="text-before-edge">1</text></g><g stroke-linecap="round"><g transform="translate(1200.243033680063 753.6888711750541) rotate(0 56.59341520582461 -227.1244537043968)"><path d="M0.86 -0.03 C-0.48 -172.65, -0.33 -345.01, -0.29 -453.94 M0.24 0.42 C1.33 -178.35, 0.96 -356.11, 0.1 -454.67 M0.76 -453.85 C42.55 -452.98, 85.85 -454.3, 113.68 -453.61 M-0.5 -453.77 C43.33 -454.58, 85.63 -454.64, 112.13 -454.54" stroke="#9c36b5" stroke-width="2" fill="none"></path></g><g transform="translate(1200.243033680063 753.6888711750541) rotate(0 56.59341520582461 -227.1244537043968)"><path d="M85.75 -444.37 C93.31 -449.62, 104.31 -454.16, 111.52 -453.85 M84.43 -443.42 C95.7 -449.42, 105.97 -453.12, 112.34 -455.39" stroke="#9c36b5" stroke-width="2" fill="none"></path></g><g transform="translate(1200.243033680063 753.6888711750541) rotate(0 56.59341520582461 -227.1244537043968)"><path d="M85.77 -464.89 C93.31 -462.37, 104.3 -459.14, 111.52 -453.85 M84.45 -463.94 C95.62 -461.9, 105.88 -457.57, 112.34 -455.39" stroke="#9c36b5" stroke-width="2" fill="none"></path></g></g><mask></mask><g transform="translate(1209.400017237383 254.96419082603063) rotate(0 31.999999999999773 22.5)"><text x="0" y="0" font-family="Virgil, Segoe UI Emoji" font-size="36px" fill="#9c36b5" text-anchor="start" style="white-space: pre;" direction="ltr" dominant-baseline="text-before-edge">sll2</text></g><g stroke-linecap="round"><g transform="translate(1322.0420217233004 325.7890050566041) rotate(0 30.001747167992562 -70.08187592066542)"><path d="M2.63 3.99 C-1.84 -15.61, -3.81 -33.13, -3.88 -51.89 M-1.47 1.08 C-0.07 -17.28, -2.13 -35.99, 0.56 -48.85 M2 -46.49 C10.16 -53.2, 11.48 -60.79, 20.77 -68.67 M-0.83 -48.52 C5.35 -53.41, 9.29 -60.16, 16.7 -66.06 M15.97 -66.43 C10.47 -71.72, 2.22 -83.66, -2.93 -87.45 M16.62 -68.57 C9.89 -73.99, -0.62 -84.63, -3.8 -87.62 M-6.59 -87.54 C-4.59 -111.19, -5.07 -130.67, -0.62 -143.6 M-5.4 -86.34 C-3.77 -103.6, -3.04 -120.57, -3.06 -142.09 M-0.82 -140.14 C17.6 -131.52, 34.04 -119.81, 63.28 -104.95 M-5.01 -144.15 C19.09 -129.77, 41.34 -116.85, 65.02 -102.75 M62.3 -106.03 C64.29 -88.13, 64.55 -74.58, 63.04 -34.96 M66.4 -103.55 C66.59 -82.26, 64.59 -62.86, 66.59 -36.1 M61.51 -33.66 C47.57 -27.37, 23.48 -12.9, -2.39 -3.64 M63.99 -37.8 C45.47 -24.44, 25.43 -15.91, -1.85 -0.01" stroke="#846358" stroke-width="4" fill="none"></path></g></g><mask></mask><g transform="translate(1348.4622797264 234.71728580271588) rotate(0 11.5 22.5)"><text x="0" y="0" font-family="Virgil, Segoe UI Emoji" font-size="36px" fill="#846358" text-anchor="start" style="white-space: pre;" direction="ltr" dominant-baseline="text-before-edge">+</text></g><g stroke-linecap="round"><g transform="translate(1165.7935788476966 211.35775243634384) rotate(0 75.45367221415131 0.3329585697501898)"><path d="M0.96 1.73 C59.08 -0.29, 116.52 0.14, 150.56 -1.07 M0.34 0.78 C39.67 0.66, 80.9 1.37, 149.68 0.44" stroke="#846358" stroke-width="2" fill="none"></path></g><g transform="translate(1165.7935788476966 211.35775243634384) rotate(0 75.45367221415131 0.3329585697501898)"><path d="M122.54 12.67 C133.62 6.77, 144 3.1, 151.53 -0.62 M121.92 11.72 C128.48 7.89, 136.91 5.75, 150.65 0.89" stroke="#846358" stroke-width="2" fill="none"></path></g><g transform="translate(1165.7935788476966 211.35775243634384) rotate(0 75.45367221415131 0.3329585697501898)"><path d="M122.37 -7.85 C133.45 -5.75, 143.89 -1.4, 151.53 -0.62 M121.75 -8.8 C128.29 -7.05, 136.77 -3.61, 150.65 0.89" stroke="#846358" stroke-width="2" fill="none"></path></g></g><mask></mask><g stroke-linecap="round"><g transform="translate(1389.4163398204482 252.72796321630335) rotate(0 208.72247080537227 -0.012369191387676892)"><path d="M-0.22 -0.45 C156.43 -1.44, 312.79 -0.7, 417.67 0.87 M0.45 -0.04 C101.05 -0.04, 201.44 -0.48, 417.57 0.01" stroke="#846358" stroke-width="2" fill="none"></path></g><g transform="translate(1389.4163398204482 252.72796321630335) rotate(0 208.72247080537227 -0.012369191387676892)"><path d="M388.96 9.39 C399.59 5.41, 409.76 2.95, 418.7 1.63 M390.2 10.16 C397.03 7.77, 403.41 4.48, 418.53 0.02" stroke="#846358" stroke-width="2" fill="none"></path></g><g transform="translate(1389.4163398204482 252.72796321630335) rotate(0 208.72247080537227 -0.012369191387676892)"><path d="M388.99 -11.13 C399.77 -7.4, 409.93 -2.16, 418.7 1.63 M390.22 -10.37 C396.96 -7.8, 403.33 -6.14, 418.53 0.02" stroke="#846358" stroke-width="2" fill="none"></path></g></g><mask></mask><g stroke-linecap="round"><g transform="translate(62.28245269817671 432.49097299216646) rotate(0 18.000740412617233 38.26939268240528)"><path d="M-1.24 -1.77 C-1.54 28.83, 0.6 60.43, 1.37 75.92 M0.71 -0.42 C0.12 23.51, -0.16 48.59, -0.68 76.77 M1.68 78.31 C7.22 75.64, 13.61 73.95, 34.29 67.74 M0.36 76.78 C11.77 75.08, 23.93 70.9, 35.32 66.71 M37.27 68.24 C34.28 49.76, 37.11 36.27, 36.36 16.88 M35.01 66.33 C36.27 48.57, 35.59 30.34, 35.38 17.17 M35.19 17.15 C27.07 13.51, 17.72 8.12, -1.04 -0.9 M35.41 16.36 C27.99 13.81, 18.28 9.73, 0 -0.6" stroke="#846358" stroke-width="4" fill="none"></path></g></g><mask></mask><g transform="translate(72.50961037385423 450.4314173369735) rotate(0 7 12.780503593962237)"><text x="0" y="0" font-family="Virgil, Segoe UI Emoji" font-size="20.448805750339602px" fill="#846358" text-anchor="start" style="white-space: pre;" direction="ltr" dominant-baseline="text-before-edge">0</text></g><g transform="translate(77.26263675312839 475.8147039445996) rotate(0 3 12.780503593962237)"><text x="0" y="0" font-family="Virgil, Segoe UI Emoji" font-size="20.448805750339602px" fill="#846358" text-anchor="start" style="white-space: pre;" direction="ltr" dominant-baseline="text-before-edge">1</text></g><g stroke-linecap="round"><g transform="translate(99.00594223895405 475.13848763207784) rotate(0 21.61684529026047 -0.02684990939206955)"><path d="M-1.64 -0.05 C17.66 0.42, 32.82 -0.32, 44.49 -0.16 M-0.32 -0.05 C11.89 0.8, 23.44 0.32, 44.88 -0.45" stroke="#846358" stroke-width="2" fill="none"></path></g><g transform="translate(99.00594223895405 475.13848763207784) rotate(0 21.61684529026047 -0.02684990939206955)"><path d="M22.19 8 C32.61 5.24, 38.91 1.4, 43.97 -0.62 M23.51 7.99 C29.43 6.49, 34.74 3.83, 44.36 -0.9" stroke="#846358" stroke-width="2" fill="none"></path></g><g transform="translate(99.00594223895405 475.13848763207784) rotate(0 21.61684529026047 -0.02684990939206955)"><path d="M21.65 -7.52 C32.31 -4.63, 38.81 -2.82, 43.97 -0.62 M22.97 -7.53 C29.13 -5.05, 34.58 -3.73, 44.36 -0.9" stroke="#846358" stroke-width="2" fill="none"></path></g></g><mask></mask><g stroke-linecap="round"><g transform="translate(438.68291739547294 203.5590444878444) rotate(0 -213.50535820417872 71.87787391858268)"><path d="M0.15 -0.88 C-1.58 -23.39, -1.98 -49.47, 1.67 -109.82 M0.22 -0.95 C-1.03 -28.46, -0.01 -58.26, 0.2 -107.71 M0.03 -108.17 C-134.21 -107.63, -266.27 -105.63, -427.89 -109.57 M-0.26 -108.3 C-107.65 -109.42, -215.99 -109.41, -427.87 -108.87 M-427.74 -109.16 C-429.61 9.62, -428.27 127.54, -427.33 253.57 M-428.59 -108.46 C-425.76 -11.65, -425.25 83.78, -428.13 252.25 M-427.31 252.53 C-411.99 253.51, -397.64 254.13, -378.9 252.18 M-427.53 252.55 C-416.47 252.59, -406.34 252.11, -380.54 252.26" stroke="#846358" stroke-width="2" fill="none"></path></g><g transform="translate(438.68291739547294 203.5590444878444) rotate(0 -213.50535820417872 71.87787391858268)"><path d="M-403.12 259.65 C-398.86 259.21, -394.25 255.29, -378.87 251.07 M-403.05 259.59 C-397.47 258.61, -390.41 255.43, -380.35 253.18" stroke="#846358" stroke-width="2" fill="none"></path></g><g transform="translate(438.68291739547294 203.5590444878444) rotate(0 -213.50535820417872 71.87787391858268)"><path d="M-403.12 243.11 C-398.7 246.32, -394.09 246.06, -378.87 251.07 M-403.05 243.04 C-397.34 246.46, -390.28 247.67, -380.35 253.18" stroke="#846358" stroke-width="2" fill="none"></path></g></g><mask></mask><g stroke-linecap="round"><g transform="translate(1839.4718446487268 250.3449685037067) rotate(0 -792.5107980203168 1.4755297678464103)"><path d="M1.47 0.4 C46.66 -1.84, 96.14 0.55, 226.95 -0.4 M0.63 0.34 C58.97 -1.75, 118.21 -2.39, 226.46 -0.04 M226.24 -1.07 C222.95 -58.62, 225.67 -116.14, 225.46 -238.45 M226.76 0.29 C228.53 -69.34, 228.11 -137.49, 225.66 -238.64 M226.51 -238.77 C-244.89 -234.62, -717.18 -234.88, -1812.72 -236.13 M226.55 -239.09 C-506.3 -241.46, -1238.89 -240.36, -1811.99 -236.76 M-1811.94 -236.97 C-1811.54 -100.92, -1812.27 34.14, -1812.2 241.55 M-1812.57 -236.8 C-1812.48 -84.4, -1811.95 67.4, -1812.3 241.49 M-1811.28 243.27 C-1802.15 241.27, -1787.34 241.72, -1776.01 243.3 M-1812.87 241.74 C-1804.82 241.32, -1795.58 242.07, -1777.84 242.76" stroke="#846358" stroke-width="2" fill="none"></path></g><g transform="translate(1839.4718446487268 250.3449685037067) rotate(0 -792.5107980203168 1.4755297678464103)"><path d="M-1792.76 248.33 C-1792.11 245.13, -1787.16 246.43, -1777.12 242.36 M-1793.6 248.28 C-1790.3 246.55, -1786.1 244.55, -1777.61 242.72" stroke="#846358" stroke-width="2" fill="none"></path></g><g transform="translate(1839.4718446487268 250.3449685037067) rotate(0 -792.5107980203168 1.4755297678464103)"><path d="M-1792.25 236.58 C-1791.74 235.88, -1786.9 239.67, -1777.12 242.36 M-1793.09 236.53 C-1789.96 237.89, -1785.9 238.97, -1777.61 242.72" stroke="#846358" stroke-width="2" fill="none"></path></g></g><mask></mask><g stroke-linecap="round"><g transform="translate(1843.469005333318 599.8152931308052) rotate(0 80.49658796761742 40.08035651373115)"><path d="M1.01 0.97 C19.83 0.92, 39.74 2.29, 89.9 0.51 M0.64 0.36 C27.38 -0.62, 54.86 -1.18, 88.78 -0.77 M88.06 -0.44 C89.73 29.43, 88.4 59.2, 88.09 78.37 M87.5 -0.62 C88.83 21.99, 87.64 46.11, 88.59 81.07 M86.82 80 C107.09 80.11, 123.05 78.38, 160.35 80.89 M88.97 80.45 C107.44 81.03, 127.64 79.95, 158.31 79.77" stroke="#f08c00" stroke-width="2" fill="none"></path></g><g transform="translate(1843.469005333318 599.8152931308052) rotate(0 80.49658796761742 40.08035651373115)"><path d="M131.28 91.38 C135.97 88.41, 141.83 87.31, 159.81 80.28 M130.91 90.77 C138.59 86.73, 147 82.81, 158.7 79" stroke="#f08c00" stroke-width="2" fill="none"></path></g><g transform="translate(1843.469005333318 599.8152931308052) rotate(0 80.49658796761742 40.08035651373115)"><path d="M131 70.86 C135.92 72.67, 141.85 76.34, 159.81 80.28 M130.63 70.25 C138.38 72.69, 146.88 75.25, 158.7 79" stroke="#f08c00" stroke-width="2" fill="none"></path></g></g><mask></mask><g transform="translate(2021.6478339914775 655.0645423271345) rotate(0 124.5 22.5)"><text x="0" y="0" font-family="Virgil, Segoe UI Emoji" font-size="36px" fill="#f08c00" text-anchor="start" style="white-space: pre;" direction="ltr" dominant-baseline="text-before-edge">data to write</text></g><g stroke-linecap="round"><g transform="translate(1842.0877741034092 552.8534313139263) rotate(0 77.84901993391941 -55.28841659144621)"><path d="M1.92 -0.88 C18.74 -0.06, 37.6 -0.5, 89.03 -0.09 M-0.74 -0.81 C18.45 -1.16, 37.1 0.35, 90.51 0.33 M91.34 -0.25 C88.56 -40.03, 88.59 -80.35, 91.23 -108.77 M88.97 0.9 C89.66 -43.15, 90.05 -85.56, 89.02 -110.09 M89.6 -109.36 C115.44 -111.92, 138.38 -111.94, 156.2 -109.91 M90 -111.16 C105.52 -112.04, 121.23 -110.75, 156.44 -111.24" stroke="#e8590c" stroke-width="2" fill="none"></path></g><g transform="translate(1842.0877741034092 552.8534313139263) rotate(0 77.84901993391941 -55.28841659144621)"><path d="M130.19 -101.79 C134.48 -103.02, 140.83 -105.56, 155.69 -111.33 M127.53 -101.72 C133.76 -104.01, 139.44 -104.67, 157.17 -110.92" stroke="#e8590c" stroke-width="2" fill="none"></path></g><g transform="translate(1842.0877741034092 552.8534313139263) rotate(0 77.84901993391941 -55.28841659144621)"><path d="M130.14 -122.31 C134.5 -119.37, 140.87 -117.75, 155.69 -111.33 M127.48 -122.24 C133.74 -120.21, 139.44 -116.56, 157.17 -110.92" stroke="#e8590c" stroke-width="2" fill="none"></path></g></g><mask></mask><g transform="translate(2013.7151845229027 414.6711853379586) rotate(0 69.5 22.5)"><text x="0" y="0" font-family="Virgil, Segoe UI Emoji" font-size="36px" fill="#e8590c" text-anchor="start" style="white-space: pre;" direction="ltr" dominant-baseline="text-before-edge">address</text></g><g stroke-linecap="round"><g transform="translate(1886.2871734604723 552.8534313139259) rotate(0 269.5245839266263 121.44531670494104)"><path d="M-0.3 1.37 C0.52 67.59, -0.71 136.35, -1.2 242.57 M0.48 0.32 C-0.24 56.45, -0.54 115, -0.42 242.38 M-0.27 240.94 C132.13 241.78, 265.69 242.43, 487.06 242.56 M-0.37 241.6 C172 239.64, 344.59 240.03, 487.23 242.03 M489.09 242.07 C486.19 168.15, 487.51 98.01, 487.55 20.43 M487.47 242.44 C488.37 191.91, 489.35 141.83, 486.94 21.07 M488.07 20.3 C506.98 21.46, 528.24 21.44, 540.25 20.74 M487.33 20.93 C506.11 21.27, 525.85 19.91, 539.18 20.73" stroke="#e8590c" stroke-width="2" fill="none"></path></g><g transform="translate(1886.2871734604723 552.8534313139259) rotate(0 269.5245839266263 121.44531670494104)"><path d="M514 30.89 C522.48 25.68, 528.04 23.46, 537.73 21.76 M514.93 29.62 C520.31 26.1, 525.82 25.73, 538.67 21.53" stroke="#e8590c" stroke-width="2" fill="none"></path></g><g transform="translate(1886.2871734604723 552.8534313139259) rotate(0 269.5245839266263 121.44531670494104)"><path d="M514.33 12.94 C522.69 12.82, 528.15 15.7, 537.73 21.76 M515.26 11.67 C520.54 12.4, 525.97 16.28, 538.67 21.53" stroke="#e8590c" stroke-width="2" fill="none"></path></g></g><mask></mask><g stroke-linecap="round"><g transform="translate(2297.8940799731217 436.8300080016354) rotate(0 61.88416815823848 0.0029474464791405808)"><path d="M0.06 -0.44 C35.96 -2.13, 70.01 -0.14, 123.52 1.1 M0.63 -0.39 C39.2 0.6, 79.61 0.74, 123.71 0.07" stroke="#e8590c" stroke-width="2" fill="none"></path></g><g transform="translate(2297.8940799731217 436.8300080016354) rotate(0 61.88416815823848 0.0029474464791405808)"><path d="M95.68 10.17 C104.06 5.7, 110.63 4.64, 124.3 1.17 M96.25 10.22 C103.9 6.9, 113.4 3.61, 124.49 0.15" stroke="#e8590c" stroke-width="2" fill="none"></path></g><g transform="translate(2297.8940799731217 436.8300080016354) rotate(0 61.88416815823848 0.0029474464791405808)"><path d="M95.48 -10.35 C104.01 -8.88, 110.64 -3.99, 124.3 1.17 M96.05 -10.3 C103.77 -6.93, 113.32 -3.53, 124.49 0.15" stroke="#e8590c" stroke-width="2" fill="none"></path></g></g><mask></mask><g stroke-linecap="round"><g transform="translate(2461.6674837589253 434.7422588720433) rotate(0 44.74934709237368 45.19151833845524)"><path d="M1.88 1.45 C7.29 -1.2, 16.61 -0.71, 35.17 -1.14 M-0.35 -0.46 C7.77 -0.11, 18.36 -0.93, 33.64 -0.95 M33.51 -0.26 C35.16 30.83, 35.21 59.52, 34.09 91.35 M34.18 0.68 C33.02 23.55, 31.9 46.64, 33.63 90.25 M34.98 90.2 C50.44 91.56, 66.24 91.34, 89.16 90.87 M33.48 90.39 C51.74 90.5, 70.35 91.02, 89.85 91.52" stroke="#e8590c" stroke-width="2" fill="none"></path></g><g transform="translate(2461.6674837589253 434.7422588720433) rotate(0 44.74934709237368 45.19151833845524)"><path d="M64.87 101.97 C68.79 97.13, 76.59 95.47, 91.81 90.38 M62.64 100.06 C69.06 98.07, 77.98 94.88, 90.28 90.57" stroke="#e8590c" stroke-width="2" fill="none"></path></g><g transform="translate(2461.6674837589253 434.7422588720433) rotate(0 44.74934709237368 45.19151833845524)"><path d="M65.37 82.6 C69.12 82.38, 76.81 85.34, 91.81 90.38 M63.14 80.69 C69.49 83.78, 78.28 85.68, 90.28 90.57" stroke="#e8590c" stroke-width="2" fill="none"></path></g></g><mask></mask><g stroke-linecap="round"><g transform="translate(2461.6674837589253 577.3215341239566) rotate(0 44.96659768836389 -8.603561024152782)"><path d="M-1.47 -1.87 C8.08 1.59, 19.25 -0.7, 39.27 1.25 M0.7 -0.13 C13.55 -0.89, 28.74 0.2, 38.06 -0.48 M38.98 0.31 C37.45 -4.06, 37.76 -9.34, 38.04 -17.59 M37.64 0.83 C37.67 -4.26, 38.49 -9.59, 37.94 -16.33 M40.04 -18.46 C55.59 -16.74, 78.37 -15.15, 91.39 -14.94 M37.21 -16 C51.65 -16.24, 67.49 -17.06, 91.41 -16.13" stroke="#f08c00" stroke-width="2" fill="none"></path></g><g transform="translate(2461.6674837589253 577.3215341239566) rotate(0 44.96659768836389 -8.603561024152782)"><path d="M64.96 -9.53 C71.47 -8.13, 79.65 -12.35, 92.59 -14.88 M67.14 -7.78 C75.15 -11.62, 85.51 -13.65, 91.38 -16.6" stroke="#f08c00" stroke-width="2" fill="none"></path></g><g transform="translate(2461.6674837589253 577.3215341239566) rotate(0 44.96659768836389 -8.603561024152782)"><path d="M65.36 -27.56 C71.87 -22.04, 79.96 -22.14, 92.59 -14.88 M67.54 -25.82 C75.39 -23, 85.6 -18.38, 91.38 -16.6" stroke="#f08c00" stroke-width="2" fill="none"></path></g></g><mask></mask><g stroke-linecap="round"><g transform="translate(2588.582659734272 543.5560334690908) rotate(0 -919.4732915432292 194.97302716236598)"><path d="M1.38 1.54 C18.99 1.31, 40.33 0.53, 84.31 1.8 M0.4 0.23 C25.92 -0.01, 50.3 -0.12, 85.09 -0.25 M84.69 -0.07 C84.54 137.71, 83.56 277.17, 84.4 388.24 M84.3 0.5 C86.01 116.59, 86.19 232.69, 85.27 389.1 M84.58 389.79 C-446.81 382.99, -979.46 382.67, -1923.65 388.48 M84.9 388.76 C-431.94 383.75, -947.58 384.09, -1923.78 388.96 M-1924.77 390.19 C-1922.02 307.59, -1919.28 224.77, -1921.06 58.31 M-1923.44 388.64 C-1923.69 279.23, -1922.18 169.15, -1921.63 58.39 M-1922.72 57.44 C-1903.56 60.57, -1885.73 57.12, -1867.87 58.02 M-1920.9 58.38 C-1901.41 58.95, -1882.72 57.58, -1867.16 58.62" stroke="#099268" stroke-width="2" fill="none"></path></g><g transform="translate(2588.582659734272 543.5560334690908) rotate(0 -919.4732915432292 194.97302716236598)"><path d="M-1891.29 68.66 C-1887.06 65.96, -1879.18 63.24, -1867.59 60.41 M-1892.27 67.35 C-1884.49 64.23, -1877.91 61.57, -1866.81 58.37" stroke="#099268" stroke-width="2" fill="none"></path></g><g transform="translate(2588.582659734272 543.5560334690908) rotate(0 -919.4732915432292 194.97302716236598)"><path d="M-1890.79 50.27 C-1886.84 51.75, -1879.07 53.21, -1867.59 60.41 M-1891.77 48.97 C-1884.27 51.37, -1877.84 54.23, -1866.81 58.37" stroke="#099268" stroke-width="2" fill="none"></path></g></g><mask></mask><g transform="translate(501.41099819369447 974.6931084383939) rotate(0 53.5 22.5)"><text x="0" y="0" font-family="Virgil, Segoe UI Emoji" font-size="36px" fill="#1e1e1e" text-anchor="start" style="white-space: pre;" direction="ltr" dominant-baseline="text-before-edge">IF/ID</text></g><g transform="translate(1095.412924812434 975.0464469950059) rotate(0 68 22.5)"><text x="0" y="0" font-family="Virgil, Segoe UI Emoji" font-size="36px" fill="#1e1e1e" text-anchor="start" style="white-space: pre;" direction="ltr" dominant-baseline="text-before-edge">ID/EXE</text></g><g transform="translate(1738.7393384766756 978.5774907400606) rotate(0 84 22.5)"><text x="0" y="0" font-family="Virgil, Segoe UI Emoji" font-size="36px" fill="#1e1e1e" text-anchor="start" style="white-space: pre;" direction="ltr" dominant-baseline="text-before-edge">EXE/MEM</text></g><g transform="translate(2368.2548957681765 976.5213778834277) rotate(0 75.5 22.5)"><text x="0" y="0" font-family="Virgil, Segoe UI Emoji" font-size="36px" fill="#1e1e1e" text-anchor="start" style="white-space: pre;" direction="ltr" dominant-baseline="text-before-edge">MEM/WB</text></g><g transform="translate(498.377165732712 1040.70077379088) rotate(0 133.5 90)"><text x="0" y="0" font-family="Virgil, Segoe UI Emoji" font-size="36px" fill="#1e1e1e" text-anchor="start" style="white-space: pre;" direction="ltr" dominant-baseline="text-before-edge">69 bit</text><text x="0" y="45" font-family="Virgil, Segoe UI Emoji" font-size="36px" fill="#1e1e1e" text-anchor="start" style="white-space: pre;" direction="ltr" dominant-baseline="text-before-edge">-32 PC+4</text><text x="0" y="90" font-family="Virgil, Segoe UI Emoji" font-size="36px" fill="#1e1e1e" text-anchor="start" style="white-space: pre;" direction="ltr" dominant-baseline="text-before-edge">-32 instruction</text><text x="0" y="135" font-family="Virgil, Segoe UI Emoji" font-size="36px" fill="#1e1e1e" text-anchor="start" style="white-space: pre;" direction="ltr" dominant-baseline="text-before-edge">-5 write reg</text></g><g transform="translate(1098.4652273409752 1039.1520742079465) rotate(0 140.99999999999977 135)"><text x="0" y="0" font-family="Virgil, Segoe UI Emoji" font-size="36px" fill="#1e1e1e" text-anchor="start" style="white-space: pre;" direction="ltr" dominant-baseline="text-before-edge">133 bit</text><text x="0" y="45" font-family="Virgil, Segoe UI Emoji" font-size="36px" fill="#1e1e1e" text-anchor="start" style="white-space: pre;" direction="ltr" dominant-baseline="text-before-edge">-32 PC+4</text><text x="0" y="90" font-family="Virgil, Segoe UI Emoji" font-size="36px" fill="#1e1e1e" text-anchor="start" style="white-space: pre;" direction="ltr" dominant-baseline="text-before-edge">-32 data1</text><text x="0" y="135" font-family="Virgil, Segoe UI Emoji" font-size="36px" fill="#1e1e1e" text-anchor="start" style="white-space: pre;" direction="ltr" dominant-baseline="text-before-edge">-32 data2</text><text x="0" y="180" font-family="Virgil, Segoe UI Emoji" font-size="36px" fill="#1e1e1e" text-anchor="start" style="white-space: pre;" direction="ltr" dominant-baseline="text-before-edge">-32 sign extend</text><text x="0" y="225" font-family="Virgil, Segoe UI Emoji" font-size="36px" fill="#1e1e1e" text-anchor="start" style="white-space: pre;" direction="ltr" dominant-baseline="text-before-edge">-5 write reg</text></g><g transform="translate(1742.0665962899811 1036.8253155608768) rotate(0 110 112.5)"><text x="0" y="0" font-family="Virgil, Segoe UI Emoji" font-size="36px" fill="#1e1e1e" text-anchor="start" style="white-space: pre;" direction="ltr" dominant-baseline="text-before-edge">101 bit</text><text x="0" y="45" font-family="Virgil, Segoe UI Emoji" font-size="36px" fill="#1e1e1e" text-anchor="start" style="white-space: pre;" direction="ltr" dominant-baseline="text-before-edge">-32 PC+4+I</text><text x="0" y="90" font-family="Virgil, Segoe UI Emoji" font-size="36px" fill="#1e1e1e" text-anchor="start" style="white-space: pre;" direction="ltr" dominant-baseline="text-before-edge">-32 result</text><text x="0" y="135" font-family="Virgil, Segoe UI Emoji" font-size="36px" fill="#1e1e1e" text-anchor="start" style="white-space: pre;" direction="ltr" dominant-baseline="text-before-edge">-32 data</text><text x="0" y="180" font-family="Virgil, Segoe UI Emoji" font-size="36px" fill="#1e1e1e" text-anchor="start" style="white-space: pre;" direction="ltr" dominant-baseline="text-before-edge">-5 write reg</text></g><g transform="translate(2374.001520508961 1039.3204505365097) rotate(0 139 90)"><text x="0" y="0" font-family="Virgil, Segoe UI Emoji" font-size="36px" fill="#1e1e1e" text-anchor="start" style="white-space: pre;" direction="ltr" dominant-baseline="text-before-edge">69 bit</text><text x="0" y="45" font-family="Virgil, Segoe UI Emoji" font-size="36px" fill="#1e1e1e" text-anchor="start" style="white-space: pre;" direction="ltr" dominant-baseline="text-before-edge">-32 data</text><text x="0" y="90" font-family="Virgil, Segoe UI Emoji" font-size="36px" fill="#1e1e1e" text-anchor="start" style="white-space: pre;" direction="ltr" dominant-baseline="text-before-edge">-32 ALU result</text><text x="0" y="135" font-family="Virgil, Segoe UI Emoji" font-size="36px" fill="#1e1e1e" text-anchor="start" style="white-space: pre;" direction="ltr" dominant-baseline="text-before-edge">-5 write reg</text></g><g stroke-linecap="round"><g transform="translate(1223.47813086639 495.5620287723598) rotate(0 289.41525734773927 170.66218381391198)"><path d="M0.95 -0.21 C1.23 119.07, 0.95 239.95, 0.08 340.05 M0.64 0.17 C-1.87 80.95, -0.83 161.33, 0.19 341.18 M-0.56 340.75 C168.2 341.09, 335.03 341.31, 513.41 340.41 M-0.07 341.08 C167.31 341.71, 334.98 341.67, 513.07 341.06 M512.32 340.11 C515.78 279.16, 516.04 221.43, 512.05 103.2 M513.75 340.86 C514.04 257.03, 514.24 174.2, 512.32 102.48 M511.36 103.96 C535.07 101.3, 558.48 101.04, 579.06 101.39 M512.7 102.39 C533.03 102.25, 552.52 102.58, 579.75 103.45" stroke="#f08c00" stroke-width="2" fill="none"></path></g><g transform="translate(1223.47813086639 495.5620287723598) rotate(0 289.41525734773927 170.66218381391198)"><path d="M552.72 112.6 C559.96 108.49, 569.53 106.91, 579.87 101.86 M552.24 113.17 C557.31 110.72, 565.62 107.78, 580.03 103.57" stroke="#f08c00" stroke-width="2" fill="none"></path></g><g transform="translate(1223.47813086639 495.5620287723598) rotate(0 289.41525734773927 170.66218381391198)"><path d="M553.29 92.09 C560.52 95.18, 569.89 100.8, 579.87 101.86 M552.82 92.66 C557.63 95.07, 565.8 96.99, 580.03 103.57" stroke="#f08c00" stroke-width="2" fill="none"></path></g></g><mask></mask><g transform="translate(2196.5497990115564 414.9134258418485) rotate(0 44 22.5)"><text x="0" y="0" font-family="Virgil, Segoe UI Emoji" font-size="36px" fill="#e8590c" text-anchor="start" style="white-space: pre;" direction="ltr" dominant-baseline="text-before-edge">data</text></g><g stroke-linecap="round"><g transform="translate(1167.9979007666957 864.6985599942177) rotate(0 314.26937887203303 -0.7049548691099687)"><path d="M0.72 -0.37 C203.26 -0.19, 408.46 -0.25, 628.39 -0.43 M-0.08 -0.09 C185.4 -2.08, 369.99 -2.64, 628.62 0.33" stroke="#2f9e44" stroke-width="2" fill="none"></path></g><g transform="translate(1167.9979007666957 864.6985599942177) rotate(0 314.26937887203303 -0.7049548691099687)"><path d="M602.15 9.43 C607.62 6.28, 619.76 2.87, 628.32 -0.74 M600.15 10.12 C609.46 7.89, 616.46 3.55, 628.88 1.16" stroke="#2f9e44" stroke-width="2" fill="none"></path></g><g transform="translate(1167.9979007666957 864.6985599942177) rotate(0 314.26937887203303 -0.7049548691099687)"><path d="M602.32 -11.09 C607.81 -7.58, 619.9 -4.33, 628.32 -0.74 M600.32 -10.4 C609.41 -6.59, 616.37 -4.88, 628.88 1.16" stroke="#2f9e44" stroke-width="2" fill="none"></path></g></g><mask></mask><g stroke-linecap="round"><g transform="translate(1843.065421454642 867.0317886214801) rotate(0 287.6199456094132 -0.6436881332500377)"><path d="M-0.78 -0.5 C149.15 -1.08, 297.95 -1.12, 575.86 -0.39 M0.1 0.28 C217.31 -2.15, 434.69 -2, 576.02 -0.3" stroke="#2f9e44" stroke-width="2" fill="none"></path></g><g transform="translate(1843.065421454642 867.0317886214801) rotate(0 287.6199456094132 -0.6436881332500377)"><path d="M545.8 8.49 C555.11 5.89, 561.48 3.18, 575.77 -1.28 M548.01 10.44 C558.11 5.58, 568.57 2.15, 576.17 -1.06" stroke="#2f9e44" stroke-width="2" fill="none"></path></g><g transform="translate(1843.065421454642 867.0317886214801) rotate(0 287.6199456094132 -0.6436881332500377)"><path d="M545.95 -12.03 C555.04 -9.32, 561.37 -6.71, 575.77 -1.28 M548.16 -10.08 C558.06 -7.19, 568.46 -2.87, 576.17 -1.06" stroke="#2f9e44" stroke-width="2" fill="none"></path></g></g><mask></mask><g stroke-linecap="round"><g transform="translate(2458.607248685843 867.4945564204286) rotate(0 -864.2878125231503 -124.90753923298843)"><path d="M-1.86 -0.07 C35.74 -3.02, 70.29 -1.55, 129.21 -1.89 M-0.13 0.24 C32.05 0.26, 62.75 0.25, 129.11 -0.61 M129.18 -1.57 C129.46 13.47, 130.42 29.42, 128.09 46.46 M128.85 0.44 C129.73 17.09, 130.35 33.62, 130.52 45.77 M128.9 45.35 C-619.94 50.93, -1369.39 50.5, -1858.33 46.43 M129.29 45.81 C-555.99 47.56, -1241.99 46.96, -1859.09 45.8 M-1858.55 45.92 C-1858.72 -31.36, -1856.83 -112.26, -1855.73 -297.51 M-1858.14 45.49 C-1858.62 -39.2, -1858.16 -124.37, -1855.35 -297.12 M-1855.43 -299.33 C-1837.21 -299.26, -1822 -296.88, -1812.39 -298.82 M-1856.13 -298.39 C-1842.46 -296.4, -1827.04 -296.7, -1811.75 -297.24" stroke="#2f9e44" stroke-width="2" fill="none"></path></g><g transform="translate(2458.607248685843 867.4945564204286) rotate(0 -864.2878125231503 -124.90753923298843)"><path d="M-1833.71 -289.38 C-1825.19 -293.49, -1819.77 -294.14, -1812.16 -299.13 M-1831.97 -289.08 C-1826.63 -291.29, -1822.79 -293.24, -1812.25 -297.85" stroke="#2f9e44" stroke-width="2" fill="none"></path></g><g transform="translate(2458.607248685843 867.4945564204286) rotate(0 -864.2878125231503 -124.90753923298843)"><path d="M-1834.1 -304.16 C-1825.57 -304.34, -1820.05 -301.05, -1812.16 -299.13 M-1832.36 -303.85 C-1826.98 -302.44, -1823.04 -300.77, -1812.25 -297.85" stroke="#2f9e44" stroke-width="2" fill="none"></path></g></g><mask></mask><g transform="translate(103.47918337529836 697.2000797624344) rotate(0 161 90)"><text x="0" y="0" font-family="Virgil, Segoe UI Emoji" font-size="36px" fill="#2f9e44" text-anchor="start" style="white-space: pre;" direction="ltr" dominant-baseline="text-before-edge">write reg must be</text><text x="0" y="45" font-family="Virgil, Segoe UI Emoji" font-size="36px" fill="#2f9e44" text-anchor="start" style="white-space: pre;" direction="ltr" dominant-baseline="text-before-edge">passed, or we WB</text><text x="0" y="90" font-family="Virgil, Segoe UI Emoji" font-size="36px" fill="#2f9e44" text-anchor="start" style="white-space: pre;" direction="ltr" dominant-baseline="text-before-edge">on the register of</text><text x="0" y="135" font-family="Virgil, Segoe UI Emoji" font-size="36px" fill="#2f9e44" text-anchor="start" style="white-space: pre;" direction="ltr" dominant-baseline="text-before-edge">the next 4 instr.</text></g><g stroke-linecap="round"><g transform="translate(440.54931732088426 789.4948501878026) rotate(0 42.82937033401913 36.76239262144878)"><path d="M-1.67 0.51 C18.11 17.48, 37.31 29.95, 87.33 71.91 M0.85 0.76 C20 17.79, 39.95 33.98, 86.81 73.01" stroke="#2f9e44" stroke-width="2" fill="none"></path></g><g transform="translate(440.54931732088426 789.4948501878026) rotate(0 42.82937033401913 36.76239262144878)"><path d="M56.89 63.4 C64.35 67.08, 71.73 66.72, 87.84 71.79 M59.42 63.64 C64.84 65.83, 71.46 67.55, 87.31 72.89" stroke="#2f9e44" stroke-width="2" fill="none"></path></g><g transform="translate(440.54931732088426 789.4948501878026) rotate(0 42.82937033401913 36.76239262144878)"><path d="M70.01 47.61 C74.93 54.4, 79.63 57.26, 87.84 71.79 M72.54 47.86 C75.05 53.58, 78.66 58.93, 87.31 72.89" stroke="#2f9e44" stroke-width="2" fill="none"></path></g></g><mask></mask><g transform="translate(611.6466565265396 288.29897859135167) rotate(0 54 17.5)"><text x="0" y="0" font-family="Virgil, Segoe UI Emoji" font-size="28px" fill="#1e1e1e" text-anchor="start" style="white-space: pre;" direction="ltr" dominant-baseline="text-before-edge">WRONG!</text></g><g stroke-linecap="round"><g transform="translate(663.6710270970361 332.6727064308932) rotate(0 -0.4557054757269725 94.57043483740131)"><path d="M-0.6 -1.76 C0.6 44.16, 2.04 87.15, -1.81 190.9 M0.55 -0.14 C0.83 48.83, 1.33 96.57, 0.13 190.23" stroke="#1e1e1e" stroke-width="2" fill="none"></path></g><g transform="translate(663.6710270970361 332.6727064308932) rotate(0 -0.4557054757269725 94.57043483740131)"><path d="M-10.47 160.19 C-7.19 168.71, -3.44 174.37, -1.68 191.4 M-9.32 161.81 C-7.17 169.94, -4.15 176.95, 0.25 190.73" stroke="#1e1e1e" stroke-width="2" fill="none"></path></g><g transform="translate(663.6710270970361 332.6727064308932) rotate(0 -0.4557054757269725 94.57043483740131)"><path d="M10.05 160.38 C8.58 169.01, 7.59 174.63, -1.68 191.4 M11.2 161.99 C8.17 170.28, 6.02 177.24, 0.25 190.73" stroke="#1e1e1e" stroke-width="2" fill="none"></path></g></g><mask></mask></svg>