<svg version="1.1" xmlns="http://www.w3.org/2000/svg" viewBox="0 0 439.09772713454413 564.1389215216961" width="439.09772713454413" height="564.1389215216961">
  <!-- svg-source:excalidraw -->
  
  <defs>
    <style class="style-fonts">
      @font-face {
        font-family: "Virgil";
        src: url("https://excalidraw.com/Virgil.woff2");
      }
      @font-face {
        font-family: "Cascadia";
        src: url("https://excalidraw.com/Cascadia.woff2");
      }
    </style>
  </defs>
  <g stroke-linecap="round" transform="translate(97.59409791707776 38.04078667051817) rotate(0 161.5014458600083 142.20168923986557)"><path d="M0.32 -0.39 C89.34 -3.43, 177.49 -3.12, 321.75 0.89 M0.25 0.49 C119.64 0.37, 240.61 1.13, 323.47 -0.45 M321.69 0.96 C323.45 110.85, 322.4 221.43, 322.35 285.03 M323.55 -0.1 C324.22 113.3, 324.24 225.5, 322.26 284.81 M322.7 284.59 C200.04 283.73, 79.43 283.81, 1.34 283.55 M322.9 284.14 C211.15 285.78, 98.53 285.12, -0.35 284.59 M0.18 284.7 C-3.5 209.18, -1.34 133.31, 0.21 -0.54 M-0.37 283.69 C-1.05 177.41, -2.02 72.34, 0.57 -0.58" stroke="#000000" stroke-width="4" fill="none"></path></g><g transform="translate(121.71895121484931 63.01536660149759) rotate(0 49.5 12.5)"><text x="0" y="0" font-family="Virgil, Segoe UI Emoji" font-size="20px" fill="#c92a2a" text-anchor="start" style="white-space: pre;" direction="ltr" dominant-baseline="text-before-edge">read reg 1</text></g><g transform="translate(120.3984336436074 110.64880633566281) rotate(0 54 12.5)"><text x="0" y="0" font-family="Virgil, Segoe UI Emoji" font-size="20px" fill="#e67700" text-anchor="start" style="white-space: pre;" direction="ltr" dominant-baseline="text-before-edge">read reg 2</text></g><g transform="translate(119.82869746396818 186.89982127265307) rotate(0 43.5 12.5)"><text x="0" y="0" font-family="Virgil, Segoe UI Emoji" font-size="20px" fill="#5c940d" text-anchor="start" style="white-space: pre;" direction="ltr" dominant-baseline="text-before-edge">write reg</text></g><g transform="translate(112.17769938461015 283.79672925125624) rotate(0 68.5 12.5)"><text x="0" y="0" font-family="Virgil, Segoe UI Emoji" font-size="20px" fill="#5c940d" text-anchor="start" style="white-space: pre;" direction="ltr" dominant-baseline="text-before-edge">data to write</text></g><g stroke-linecap="round"><g transform="translate(16.285658695075654 70.27287060237722) rotate(0 37.84448724109302 0.2438870659098029)"><path d="M-0.65 0.72 C28.8 -1.73, 53.76 0.72, 76.34 1.36 M-0.22 -0.87 C18.35 0.43, 35.76 -0.26, 75.61 -0.43" stroke="#c92a2a" stroke-width="1" fill="none"></path></g><g transform="translate(16.285658695075654 70.27287060237722) rotate(0 37.84448724109302 0.2438870659098029)"><path d="M46.85 10.76 C59.08 4.71, 66.89 3.34, 76.78 0.93 M47.28 9.17 C54.67 7.97, 60.98 4.82, 76.06 -0.86" stroke="#c92a2a" stroke-width="1" fill="none"></path></g><g transform="translate(16.285658695075654 70.27287060237722) rotate(0 37.84448724109302 0.2438870659098029)"><path d="M46.7 -9.76 C59.13 -8.34, 67 -2.23, 76.78 0.93 M47.13 -11.35 C54.73 -7.71, 61.08 -6.03, 76.06 -0.86" stroke="#c92a2a" stroke-width="1" fill="none"></path></g></g><mask></mask><g stroke-linecap="round"><g transform="translate(16.285658695075654 118.60559740115127) rotate(0 36.86456279312915 0.18378376588225365)"><path d="M1.41 -1.39 C23.99 0.79, 51.18 1.1, 71.4 1.76 M0.63 0.38 C21.66 0.33, 43.14 0.2, 73.1 0.96" stroke="#e67700" stroke-width="1" fill="none"></path></g><g transform="translate(16.285658695075654 118.60559740115127) rotate(0 36.86456279312915 0.18378376588225365)"><path d="M46.13 9.29 C53.49 8.29, 65.45 5.25, 71.82 2.72 M45.35 11.07 C53.39 7.77, 61.85 4.79, 73.51 1.92" stroke="#e67700" stroke-width="1" fill="none"></path></g><g transform="translate(16.285658695075654 118.60559740115127) rotate(0 36.86456279312915 0.18378376588225365)"><path d="M46.52 -11.23 C53.68 -5.17, 65.5 -1.15, 71.82 2.72 M45.74 -9.45 C53.62 -6.72, 61.97 -3.68, 73.51 1.92" stroke="#e67700" stroke-width="1" fill="none"></path></g></g><mask></mask><g stroke-linecap="round"><g transform="translate(17.561883273525837 201.86667192782284) rotate(0 35.61480791987583 0.8793205453678183)"><path d="M-1.02 1.05 C25.28 2.16, 46.93 2.88, 71.66 0.48 M0.31 -0.31 C15.76 -0.51, 31.04 1.07, 72.25 0.09" stroke="#5c940d" stroke-width="1" fill="none"></path></g><g transform="translate(17.561883273525837 201.86667192782284) rotate(0 35.61480791987583 0.8793205453678183)"><path d="M43.14 11.69 C54.69 8.65, 61.67 5.51, 72.12 -0.34 M44.48 10.33 C50.53 7.85, 56.49 6.99, 72.71 -0.73" stroke="#5c940d" stroke-width="1" fill="none"></path></g><g transform="translate(17.561883273525837 201.86667192782284) rotate(0 35.61480791987583 0.8793205453678183)"><path d="M42.94 -8.83 C54.7 -4.98, 61.74 -1.22, 72.12 -0.34 M44.27 -10.19 C50.5 -8.29, 56.5 -4.78, 72.71 -0.73" stroke="#5c940d" stroke-width="1" fill="none"></path></g></g><mask></mask><g transform="translate(299.2233590901037 62.117184677543264) rotate(0 51.5 12.5)"><text x="0" y="0" font-family="Virgil, Segoe UI Emoji" font-size="20px" fill="#c92a2a" text-anchor="start" style="white-space: pre;" direction="ltr" dominant-baseline="text-before-edge">reg 1 data</text></g><g transform="translate(298.23132195216886 196.87006267452557) rotate(0 56 12.5)"><text x="0" y="0" font-family="Virgil, Segoe UI Emoji" font-size="20px" fill="#e67700" text-anchor="start" style="white-space: pre;" direction="ltr" dominant-baseline="text-before-edge">reg 2 data</text></g><g stroke-linecap="round"><g transform="translate(233.30642099739862 75.18716176835551) rotate(0 26.617545324436378 0.8737573061482635)"><path d="M-0.13 -0.43 C17.76 1.41, 39.77 1.39, 52.43 2.57 M0.46 -0.82 C14.37 -0.21, 27.58 1.28, 53.36 2.09" stroke="#c92a2a" stroke-width="1" fill="none"></path></g></g><mask></mask><g stroke-linecap="round"><g transform="translate(230.78066799300495 122.33455118369761) rotate(0 29.433958825886066 43.28674985047712)"><path d="M-1.74 1.26 C24.57 34.08, 47.04 67.67, 60.6 86.7 M0.72 -0.13 C25.02 35.42, 49.38 68.91, 60.48 86.4" stroke="#e67700" stroke-width="1" fill="none"></path></g></g><mask></mask><g transform="translate(99.3056499960062 10) rotate(0 60.5 12.5)"><text x="60.5" y="0" font-family="Virgil, Segoe UI Emoji" font-size="20px" fill="#000000" text-anchor="middle" style="white-space: pre;" direction="ltr" dominant-baseline="text-before-edge">Register file</text></g><g stroke-linecap="round"><g transform="translate(19.507846200949643 294.4128294534721) rotate(0 34.29146910284726 0.4393991378274791)"><path d="M-0.61 0.88 C24.55 0.61, 52.73 0.7, 68.36 1.44 M0.32 0.4 C19.11 -0.11, 40.96 -1.08, 69.19 -0.21" stroke="#5c940d" stroke-width="1" fill="none"></path></g><g transform="translate(19.507846200949643 294.4128294534721) rotate(0 34.29146910284726 0.4393991378274791)"><path d="M40.25 10.52 C50.25 6.8, 63.31 3.32, 67.55 1.22 M41.18 10.04 C47.98 7.08, 57.87 3.29, 68.39 -0.43" stroke="#5c940d" stroke-width="1" fill="none"></path></g><g transform="translate(19.507846200949643 294.4128294534721) rotate(0 34.29146910284726 0.4393991378274791)"><path d="M40.54 -10 C50.51 -6.27, 63.47 -2.31, 67.55 1.22 M41.47 -10.48 C48.25 -7.55, 58.06 -5.45, 68.39 -0.43" stroke="#5c940d" stroke-width="1" fill="none"></path></g></g><mask></mask><g transform="translate(183.6246799300825 529.1389215216961) rotate(0 53.5 12.5)"><text x="53.5" y="0" font-family="Virgil, Segoe UI Emoji" font-size="20px" fill="#000000" text-anchor="middle" style="white-space: pre;" direction="ltr" dominant-baseline="text-before-edge">Clock Cycle</text></g><g stroke-linecap="round"><g transform="translate(20.989325231865678 441.8157135268133) rotate(0 17.33183777614863 0.563794143736061)"><path d="M1.78 0.99 C10.48 -0.47, 26.47 -2.98, 29.89 2.4 M1.68 1.14 C10.69 1.54, 22.68 -1.56, 32.99 -1.25" stroke="#5c940d" stroke-width="4" fill="none"></path></g></g><mask></mask><g stroke-linecap="round"><g transform="translate(54.44118189985693 449.0481336294989) rotate(0 95.59925650303512 -13.602611063906522)"><path d="M-0.23 -0.64 C7.1 -13.04, 12.11 -17.75, 11.5 -27.63 M-1.06 1.03 C4.11 -6.26, 9.26 -17.01, 16.24 -27.81 M14.22 -28.18 C63.02 -20, 105.26 -23.35, 165.36 -26.47 M16.67 -25.91 C63.35 -29.69, 112.62 -27.7, 164.19 -27.75 M164.6 -23.45 C174.29 -13.7, 178.62 -10.44, 192.26 -3.6 M166.2 -26.41 C169.96 -19.79, 177.54 -10.21, 191.69 -0.26" stroke="#5c940d" stroke-width="4" fill="none"></path></g></g><mask></mask><g stroke-linecap="round"><g transform="translate(246.62573698516417 445.88720344717467) rotate(0 89.59498544219196 -12.431184866510591)"><path d="M-3.28 -2.35 C32.34 1.54, 70.07 0.59, 133.53 -1.3 M-1.61 -1.1 C44.38 0.22, 88.17 -0.56, 134.01 0.24 M136.59 0.13 C140.78 -5.57, 139.69 -15.02, 146.42 -23.49 M134.21 -0.87 C136.49 -5, 140.72 -12.7, 148.48 -23.12 M143.18 -25.21 C155.21 -21.04, 163.9 -24, 182.47 -22.77 M145.64 -24.16 C152.26 -22.64, 158.37 -26.24, 181.29 -22.83" stroke="#e03131" stroke-width="4" fill="none"></path></g></g><mask></mask><g transform="translate(10 345.27137546770564) rotate(0 39 12.5)"><text x="39" y="0" font-family="Virgil, Segoe UI Emoji" font-size="20px" fill="#000000" text-anchor="middle" style="white-space: pre;" direction="ltr" dominant-baseline="text-before-edge">Posedge</text></g><g stroke-linecap="round"><g transform="translate(44.07422450817376 382.0202974425405) rotate(0 4.250587708924286 22.158510744348405)"><path d="M-1.26 -1.44 C2.63 13.79, 6.18 24.23, 9.76 45.76 M0.5 0.26 C2.72 15.7, 5.94 31.86, 8.92 43.98" stroke="#1e1e1e" stroke-width="1" fill="none"></path></g><g transform="translate(44.07422450817376 382.0202974425405) rotate(0 4.250587708924286 22.158510744348405)"><path d="M-4.58 23.61 C0.15 31.93, 4.57 35.49, 9.62 45.55 M-2.82 25.3 C0.52 31.6, 4.89 38.61, 8.78 43.78" stroke="#1e1e1e" stroke-width="1" fill="none"></path></g><g transform="translate(44.07422450817376 382.0202974425405) rotate(0 4.250587708924286 22.158510744348405)"><path d="M10.46 20.17 C11.1 29.53, 11.42 34.02, 9.62 45.55 M12.22 21.86 C10.11 29.37, 9.04 37.63, 8.78 43.78" stroke="#1e1e1e" stroke-width="1" fill="none"></path></g></g><mask></mask><g transform="translate(71.22678430829228 387.49785982398816) rotate(0 88 12.5)"><text x="88" y="0" font-family="Virgil, Segoe UI Emoji" font-size="20px" fill="#40c057" text-anchor="middle" style="white-space: pre;" direction="ltr" dominant-baseline="text-before-edge">write (prev. instr.)</text></g><g transform="translate(253.46021386505618 458.3759139559843) rotate(0 86 12.5)"><text x="86" y="0" font-family="Virgil, Segoe UI Emoji" font-size="20px" fill="#e03131" text-anchor="middle" style="white-space: pre;" direction="ltr" dominant-baseline="text-before-edge">read (curr. instr.)</text></g><g stroke-linecap="round"><g transform="translate(51.67875990332277 492.13257909795277) rotate(0 175.8364088326639 13.42731662265794)"><path d="M-0.55 1.91 C-0.7 8.65, 1.88 14.58, -0.35 23.51 M-0.88 0.13 C0.63 6.83, 0.74 13.05, -0.01 25.75 M-0.41 25.18 C126.59 27.44, 251.27 27.88, 352.08 26.09 M-0.13 25.47 C84.59 26.37, 169.43 26.45, 352.56 25.59 M351.16 25.73 C352.83 16.41, 350.78 12.29, 351.45 -0.34 M352.02 25.76 C351.4 16.72, 351.4 9.27, 351.66 -0.16" stroke="#1e1e1e" stroke-width="1" fill="none"></path></g></g><mask></mask></svg>